%TF.GenerationSoftware,KiCad,Pcbnew,9.0.6*%
%TF.CreationDate,2026-07-24T12:57:43+03:00*%
%TF.ProjectId,Lithium_Board,4c697468-6975-46d5-9f42-6f6172642e6b,rev?*%
%TF.SameCoordinates,Original*%
%TF.FileFunction,Paste,Top*%
%TF.FilePolarity,Positive*%
%FSLAX46Y46*%
G04 Gerber Fmt 4.6, Leading zero omitted, Abs format (unit mm)*
G04 Created by KiCad (PCBNEW 9.0.6) date 2026-07-24 12:57:43*
%MOMM*%
%LPD*%
G01*
G04 APERTURE LIST*
%ADD10R,0.950000X0.800000*%
%ADD11R,1.750000X1.000000*%
%ADD12R,0.940000X0.830000*%
%ADD13R,0.780000X0.980000*%
%ADD14R,0.620000X1.470000*%
%ADD15R,0.800000X0.950000*%
%ADD16R,0.980000X0.780000*%
%ADD17R,1.400000X0.600000*%
%ADD18R,1.820000X1.050000*%
%ADD19R,0.610000X1.270000*%
%ADD20R,0.610000X1.020000*%
%ADD21R,3.910000X3.810000*%
%ADD22R,1.300000X2.820000*%
%ADD23R,3.200000X1.600000*%
%ADD24R,0.600000X1.250000*%
%ADD25R,1.450000X1.150000*%
%ADD26R,1.475000X0.300000*%
%ADD27R,0.300000X1.475000*%
%ADD28R,0.450000X0.600000*%
%ADD29R,1.240000X1.820000*%
%ADD30R,3.550000X3.200000*%
%ADD31R,0.900000X0.950000*%
%ADD32R,1.470000X0.620000*%
%ADD33R,3.450000X3.000000*%
%ADD34R,0.830000X0.940000*%
%ADD35R,0.750000X1.200000*%
%ADD36R,0.475000X0.500000*%
%ADD37R,1.050000X0.450000*%
%ADD38R,1.820000X0.820000*%
%ADD39R,1.750000X0.950000*%
%ADD40R,1.750000X3.200000*%
%ADD41R,0.300000X0.850000*%
%ADD42R,0.850000X0.300000*%
%ADD43R,4.700000X3.700000*%
%ADD44R,1.350000X0.900000*%
%ADD45R,4.500000X1.300000*%
%ADD46R,3.900000X1.800000*%
%ADD47R,2.720000X1.020000*%
%ADD48R,0.750000X0.940000*%
%ADD49R,2.800000X6.800000*%
%ADD50R,1.700000X3.600000*%
%ADD51R,1.800000X1.850000*%
%ADD52R,1.800000X1.150000*%
%ADD53R,1.020000X2.720000*%
%ADD54R,0.950000X1.000000*%
G04 APERTURE END LIST*
D10*
%TO.C,R3*%
X132310000Y-82730000D03*
X132310000Y-84330000D03*
%TD*%
D11*
%TO.C,R6*%
X117890000Y-75390000D03*
X117890000Y-72390000D03*
%TD*%
D12*
%TO.C,C4*%
X136740000Y-80250000D03*
X136740000Y-81570000D03*
%TD*%
D13*
%TO.C,C2*%
X133860000Y-88030000D03*
X135260000Y-88030000D03*
%TD*%
D14*
%TO.C,C40*%
X124930000Y-90750000D03*
X126930000Y-90750000D03*
%TD*%
D15*
%TO.C,R41*%
X113040000Y-83470000D03*
X114640000Y-83470000D03*
%TD*%
D16*
%TO.C,C20*%
X138230000Y-76270000D03*
X138230000Y-77670000D03*
%TD*%
D15*
%TO.C,R5*%
X153220000Y-84760000D03*
X154820000Y-84760000D03*
%TD*%
D17*
%TO.C,D1*%
X118540000Y-116170000D03*
X118540000Y-118070000D03*
X120840000Y-117120000D03*
%TD*%
D18*
%TO.C,C1*%
X114010000Y-72730000D03*
X114010000Y-75510000D03*
%TD*%
D19*
%TO.C,Q5*%
X136333500Y-70658695D03*
X135063500Y-70658695D03*
X133793500Y-70658695D03*
X132523500Y-70658695D03*
D20*
X132523500Y-76123695D03*
X133793500Y-76123695D03*
X135063500Y-76123695D03*
D21*
X134438500Y-74018695D03*
D20*
X136333500Y-76123695D03*
%TD*%
D22*
%TO.C,C11*%
X143040000Y-78120000D03*
X140420000Y-78120000D03*
%TD*%
D23*
%TO.C,C8*%
X161920000Y-81010000D03*
X166920000Y-81010000D03*
%TD*%
D10*
%TO.C,R8*%
X135010000Y-89720000D03*
X135010000Y-91320000D03*
%TD*%
D24*
%TO.C,Z1*%
X125845000Y-71310000D03*
X127755000Y-71310000D03*
X126800000Y-69210000D03*
%TD*%
D18*
%TO.C,C7*%
X115900000Y-78000000D03*
X115900000Y-80780000D03*
%TD*%
D25*
%TO.C,C37*%
X114380000Y-85180000D03*
X114380000Y-86980000D03*
%TD*%
D10*
%TO.C,R20*%
X147771279Y-95140000D03*
X147771279Y-96740000D03*
%TD*%
%TO.C,R4*%
X115910000Y-74960000D03*
X115910000Y-73360000D03*
%TD*%
%TO.C,R13*%
X135306800Y-95140000D03*
X135306800Y-96740000D03*
%TD*%
D26*
%TO.C,IC6*%
X114412000Y-90630000D03*
X114412000Y-91130000D03*
X114412000Y-91630000D03*
X114412000Y-92130000D03*
X114412000Y-92630000D03*
X114412000Y-93130000D03*
X114412000Y-93630000D03*
X114412000Y-94130000D03*
X114412000Y-94630000D03*
X114412000Y-95130000D03*
X114412000Y-95630000D03*
X114412000Y-96130000D03*
D27*
X115900000Y-97618000D03*
X116400000Y-97618000D03*
X116900000Y-97618000D03*
X117400000Y-97618000D03*
X117900000Y-97618000D03*
X118400000Y-97618000D03*
X118900000Y-97618000D03*
X119400000Y-97618000D03*
X119900000Y-97618000D03*
X120400000Y-97618000D03*
X120900000Y-97618000D03*
X121400000Y-97618000D03*
D26*
X122888000Y-96130000D03*
X122888000Y-95630000D03*
X122888000Y-95130000D03*
X122888000Y-94630000D03*
X122888000Y-94130000D03*
X122888000Y-93630000D03*
X122888000Y-93130000D03*
X122888000Y-92630000D03*
X122888000Y-92130000D03*
X122888000Y-91630000D03*
X122888000Y-91130000D03*
X122888000Y-90630000D03*
D27*
X121400000Y-89142000D03*
X120900000Y-89142000D03*
X120400000Y-89142000D03*
X119900000Y-89142000D03*
X119400000Y-89142000D03*
X118900000Y-89142000D03*
X118400000Y-89142000D03*
X117900000Y-89142000D03*
X117400000Y-89142000D03*
X116900000Y-89142000D03*
X116400000Y-89142000D03*
X115900000Y-89142000D03*
%TD*%
D28*
%TO.C,C25*%
X143255000Y-115330000D03*
X142305000Y-115330000D03*
%TD*%
D10*
%TO.C,R27*%
X168930000Y-68950000D03*
X168930000Y-70550000D03*
%TD*%
D22*
%TO.C,C12*%
X144940000Y-78140000D03*
X147560000Y-78140000D03*
%TD*%
D10*
%TO.C,R42*%
X112440000Y-89180000D03*
X112440000Y-90780000D03*
%TD*%
D29*
%TO.C,D2*%
X140230000Y-81090000D03*
X143130000Y-81090000D03*
%TD*%
D10*
%TO.C,R21*%
X153113199Y-95140000D03*
X153113199Y-96740000D03*
%TD*%
D15*
%TO.C,R28*%
X126850000Y-92700000D03*
X125250000Y-92700000D03*
%TD*%
D30*
%TO.C,L1*%
X139450000Y-67110000D03*
X148450000Y-67110000D03*
%TD*%
D31*
%TO.C,LED1*%
X157680000Y-106370096D03*
X156080000Y-106370096D03*
%TD*%
D22*
%TO.C,C17*%
X166670000Y-107790000D03*
X169290000Y-107790000D03*
%TD*%
D15*
%TO.C,R49*%
X111960000Y-101540000D03*
X113560000Y-101540000D03*
%TD*%
%TO.C,R11*%
X151870000Y-92720000D03*
X153470000Y-92720000D03*
%TD*%
%TO.C,R35*%
X134585000Y-120910000D03*
X136185000Y-120910000D03*
%TD*%
D10*
%TO.C,R50*%
X119610000Y-102600000D03*
X119610000Y-101000000D03*
%TD*%
D12*
%TO.C,C5*%
X153360000Y-80360000D03*
X153360000Y-81680000D03*
%TD*%
D10*
%TO.C,R47*%
X120550000Y-82530000D03*
X120550000Y-80930000D03*
%TD*%
D32*
%TO.C,C42*%
X120510000Y-84450000D03*
X120510000Y-86450000D03*
%TD*%
D33*
%TO.C,R7*%
X157787881Y-86859656D03*
X157787881Y-91259656D03*
%TD*%
D10*
%TO.C,R24*%
X151332559Y-96740000D03*
X151332559Y-95140000D03*
%TD*%
D15*
%TO.C,R46*%
X125060000Y-84710000D03*
X126660000Y-84710000D03*
%TD*%
D34*
%TO.C,C10*%
X154540000Y-86260000D03*
X153220000Y-86260000D03*
%TD*%
D35*
%TO.C,D3*%
X109650000Y-86720000D03*
X109650000Y-90120000D03*
%TD*%
D36*
%TO.C,R29*%
X124092000Y-118240000D03*
X123068000Y-118240000D03*
%TD*%
D10*
%TO.C,R14*%
X137087440Y-95140000D03*
X137087440Y-96740000D03*
%TD*%
D34*
%TO.C,C13*%
X153190000Y-88060000D03*
X154510000Y-88060000D03*
%TD*%
D13*
%TO.C,C39*%
X123500000Y-84740000D03*
X122100000Y-84740000D03*
%TD*%
D37*
%TO.C,IC3*%
X137440000Y-117975000D03*
X137440000Y-117325000D03*
X137440000Y-116675000D03*
X137440000Y-116025000D03*
X134840000Y-116025000D03*
X134840000Y-116675000D03*
X134840000Y-117325000D03*
X134840000Y-117975000D03*
%TD*%
D38*
%TO.C,C6*%
X134580000Y-86570000D03*
X134580000Y-83570000D03*
%TD*%
D35*
%TO.C,D4*%
X109620000Y-95730000D03*
X109620000Y-92330000D03*
%TD*%
D10*
%TO.C,R32*%
X108580000Y-98210000D03*
X108580000Y-99810000D03*
%TD*%
D19*
%TO.C,Q6*%
X136383500Y-62998695D03*
X135113500Y-62998695D03*
X133843500Y-62998695D03*
X132573500Y-62998695D03*
D20*
X132573500Y-68463695D03*
X133843500Y-68463695D03*
X135113500Y-68463695D03*
D21*
X134488500Y-66358695D03*
D20*
X136383500Y-68463695D03*
%TD*%
D19*
%TO.C,Q8*%
X151906500Y-75381305D03*
X153176500Y-75381305D03*
X154446500Y-75381305D03*
X155716500Y-75381305D03*
D20*
X155716500Y-69916305D03*
X154446500Y-69916305D03*
X153176500Y-69916305D03*
D21*
X153801500Y-72021305D03*
D20*
X151906500Y-69916305D03*
%TD*%
D39*
%TO.C,IC2*%
X163690000Y-115470000D03*
X163690000Y-113170000D03*
X163690000Y-110870000D03*
D40*
X157390000Y-113170000D03*
%TD*%
D22*
%TO.C,C16*%
X166440000Y-118710000D03*
X169060000Y-118710000D03*
%TD*%
D41*
%TO.C,IC1*%
X141720000Y-89030000D03*
X142220000Y-89030000D03*
X142720000Y-89030000D03*
X143220000Y-89030000D03*
X143720000Y-89030000D03*
X144220000Y-89030000D03*
X144720000Y-89030000D03*
X145220000Y-89030000D03*
X145720000Y-89030000D03*
X146220000Y-89030000D03*
D42*
X146920000Y-88330000D03*
X146920000Y-87830000D03*
X146920000Y-87330000D03*
X146920000Y-86830000D03*
X146920000Y-86330000D03*
X146920000Y-85830000D03*
X146920000Y-85330000D03*
X146920000Y-84830000D03*
D41*
X146220000Y-84130000D03*
X145720000Y-84130000D03*
X145220000Y-84130000D03*
X144720000Y-84130000D03*
X144220000Y-84130000D03*
X143720000Y-84130000D03*
X143220000Y-84130000D03*
X142720000Y-84130000D03*
X142220000Y-84130000D03*
X141720000Y-84130000D03*
D42*
X141020000Y-84830000D03*
X141020000Y-85330000D03*
X141020000Y-85830000D03*
X141020000Y-86330000D03*
X141020000Y-86830000D03*
X141020000Y-87330000D03*
X141020000Y-87830000D03*
X141020000Y-88330000D03*
D43*
X143970000Y-86580000D03*
%TD*%
D19*
%TO.C,Q4*%
X120288000Y-68285110D03*
X121558000Y-68285110D03*
X122828000Y-68285110D03*
X124098000Y-68285110D03*
D20*
X124098000Y-62820110D03*
X122828000Y-62820110D03*
X121558000Y-62820110D03*
D21*
X122183000Y-64925110D03*
D20*
X120288000Y-62820110D03*
%TD*%
D24*
%TO.C,Q10*%
X122855000Y-82950000D03*
X124765000Y-82950000D03*
X123810000Y-80850000D03*
%TD*%
D10*
%TO.C,R15*%
X138868080Y-95140000D03*
X138868080Y-96740000D03*
%TD*%
D19*
%TO.C,Q3*%
X160268000Y-67845110D03*
X161538000Y-67845110D03*
X162808000Y-67845110D03*
X164078000Y-67845110D03*
D20*
X164078000Y-62380110D03*
X162808000Y-62380110D03*
X161538000Y-62380110D03*
D21*
X162163000Y-64485110D03*
D20*
X160268000Y-62380110D03*
%TD*%
D25*
%TO.C,C38*%
X115230000Y-99550000D03*
X115230000Y-101350000D03*
%TD*%
D10*
%TO.C,R23*%
X149551919Y-96740000D03*
X149551919Y-95140000D03*
%TD*%
D44*
%TO.C,FL1*%
X131605000Y-118240000D03*
X131605000Y-115740000D03*
X127055000Y-115740000D03*
X127055000Y-118240000D03*
%TD*%
D10*
%TO.C,R18*%
X144210000Y-95140000D03*
X144210000Y-96740000D03*
%TD*%
D19*
%TO.C,Q7*%
X164185000Y-70582500D03*
X162915000Y-70582500D03*
X161645000Y-70582500D03*
X160375000Y-70582500D03*
D20*
X160375000Y-76047500D03*
X161645000Y-76047500D03*
X162915000Y-76047500D03*
D21*
X162290000Y-73942500D03*
D20*
X164185000Y-76047500D03*
%TD*%
D15*
%TO.C,R33*%
X125060000Y-98050000D03*
X126660000Y-98050000D03*
%TD*%
D45*
%TO.C,J4*%
X114015000Y-113370000D03*
X114015000Y-115870000D03*
X114015000Y-118370000D03*
D46*
X107215000Y-110170000D03*
X107215000Y-121570000D03*
%TD*%
D10*
%TO.C,R16*%
X140678720Y-95150000D03*
X140678720Y-96750000D03*
%TD*%
D16*
%TO.C,C35*%
X118310000Y-84520000D03*
X118310000Y-83120000D03*
%TD*%
D15*
%TO.C,R9*%
X153190000Y-89560000D03*
X154790000Y-89560000D03*
%TD*%
D25*
%TO.C,C9*%
X151430000Y-86260000D03*
X151430000Y-88060000D03*
%TD*%
D10*
%TO.C,R44*%
X112510000Y-96730000D03*
X112510000Y-95130000D03*
%TD*%
D15*
%TO.C,R12*%
X131720000Y-91360000D03*
X133320000Y-91360000D03*
%TD*%
D47*
%TO.C,C22*%
X170200000Y-66010000D03*
X170200000Y-63210000D03*
%TD*%
D31*
%TO.C,LED2*%
X157680000Y-104140097D03*
X156080000Y-104140097D03*
%TD*%
D15*
%TO.C,R10*%
X135160000Y-92960000D03*
X133560000Y-92960000D03*
%TD*%
D14*
%TO.C,C26*%
X142300000Y-117280000D03*
X144300000Y-117280000D03*
%TD*%
D25*
%TO.C,C44*%
X121562500Y-101190000D03*
X121562500Y-102990000D03*
%TD*%
D19*
%TO.C,Q2*%
X151916500Y-68051305D03*
X153186500Y-68051305D03*
X154456500Y-68051305D03*
X155726500Y-68051305D03*
D20*
X155726500Y-62586305D03*
X154456500Y-62586305D03*
X153186500Y-62586305D03*
D21*
X153811500Y-64691305D03*
D20*
X151916500Y-62586305D03*
%TD*%
D10*
%TO.C,R25*%
X150150000Y-91160000D03*
X150150000Y-92760000D03*
%TD*%
D19*
%TO.C,Q1*%
X124075000Y-71428695D03*
X122805000Y-71428695D03*
X121535000Y-71428695D03*
X120265000Y-71428695D03*
D20*
X120265000Y-76893695D03*
X121535000Y-76893695D03*
X122805000Y-76893695D03*
D21*
X122180000Y-74788695D03*
D20*
X124075000Y-76893695D03*
%TD*%
D48*
%TO.C,C24*%
X123060000Y-116970000D03*
X124460000Y-116970000D03*
%TD*%
D10*
%TO.C,R2*%
X132310000Y-87390000D03*
X132310000Y-85790000D03*
%TD*%
%TO.C,R19*%
X145990639Y-96740000D03*
X145990639Y-95140000D03*
%TD*%
%TO.C,R17*%
X142429360Y-95140000D03*
X142429360Y-96740000D03*
%TD*%
D49*
%TO.C,C23*%
X174220000Y-89020000D03*
X174220000Y-101620000D03*
D50*
X176470000Y-89320000D03*
X171970000Y-89320000D03*
X176470000Y-101320000D03*
X171970000Y-101320000D03*
%TD*%
D51*
%TO.C,R1*%
X129970000Y-85500000D03*
X129970000Y-83300000D03*
%TD*%
D10*
%TO.C,R43*%
X112440000Y-85960000D03*
X112440000Y-87560000D03*
%TD*%
D52*
%TO.C,C45*%
X123872500Y-100745000D03*
X123872500Y-103745000D03*
%TD*%
D32*
%TO.C,C36*%
X116540000Y-84880000D03*
X116540000Y-82880000D03*
%TD*%
D53*
%TO.C,C19*%
X140410000Y-74180000D03*
X143210000Y-74180000D03*
%TD*%
D13*
%TO.C,C3*%
X135260000Y-82130000D03*
X133860000Y-82130000D03*
%TD*%
D15*
%TO.C,R22*%
X131920000Y-93080000D03*
X130320000Y-93080000D03*
%TD*%
D25*
%TO.C,C43*%
X117552500Y-101197500D03*
X117552500Y-102997500D03*
%TD*%
D54*
%TO.C,C41*%
X125370000Y-88840000D03*
X126970000Y-88840000D03*
%TD*%
D47*
%TO.C,C18*%
X130110000Y-75220000D03*
X130110000Y-78020000D03*
%TD*%
D36*
%TO.C,R30*%
X124092000Y-115740000D03*
X123068000Y-115740000D03*
%TD*%
D29*
%TO.C,D5*%
X147810000Y-81110000D03*
X144910000Y-81110000D03*
%TD*%
M02*
