%TF.GenerationSoftware,KiCad,Pcbnew,9.0.6*%
%TF.CreationDate,2026-07-23T14:50:41+03:00*%
%TF.ProjectId,Lithium_Board,4c697468-6975-46d5-9f42-6f6172642e6b,rev?*%
%TF.SameCoordinates,Original*%
%TF.FileFunction,Soldermask,Bot*%
%TF.FilePolarity,Negative*%
%FSLAX46Y46*%
G04 Gerber Fmt 4.6, Leading zero omitted, Abs format (unit mm)*
G04 Created by KiCad (PCBNEW 9.0.6) date 2026-07-23 14:50:41*
%MOMM*%
%LPD*%
G01*
G04 APERTURE LIST*
G04 Aperture macros list*
%AMRoundRect*
0 Rectangle with rounded corners*
0 $1 Rounding radius*
0 $2 $3 $4 $5 $6 $7 $8 $9 X,Y pos of 4 corners*
0 Add a 4 corners polygon primitive as box body*
4,1,4,$2,$3,$4,$5,$6,$7,$8,$9,$2,$3,0*
0 Add four circle primitives for the rounded corners*
1,1,$1+$1,$2,$3*
1,1,$1+$1,$4,$5*
1,1,$1+$1,$6,$7*
1,1,$1+$1,$8,$9*
0 Add four rect primitives between the rounded corners*
20,1,$1+$1,$2,$3,$4,$5,0*
20,1,$1+$1,$4,$5,$6,$7,0*
20,1,$1+$1,$6,$7,$8,$9,0*
20,1,$1+$1,$8,$9,$2,$3,0*%
G04 Aperture macros list end*
%ADD10C,2.550000*%
%ADD11C,1.500000*%
%ADD12C,1.550000*%
%ADD13RoundRect,0.250000X-0.725000X0.600000X-0.725000X-0.600000X0.725000X-0.600000X0.725000X0.600000X0*%
%ADD14O,1.950000X1.700000*%
%ADD15RoundRect,0.250000X0.725000X-0.600000X0.725000X0.600000X-0.725000X0.600000X-0.725000X-0.600000X0*%
%ADD16R,0.800000X0.950000*%
%ADD17R,1.475000X0.300000*%
%ADD18R,0.300000X1.475000*%
%ADD19R,0.900000X0.950000*%
%ADD20R,2.820000X1.300000*%
%ADD21R,2.720000X1.020000*%
%ADD22R,0.940000X0.830000*%
%ADD23R,0.980000X0.780000*%
%ADD24C,4.000000*%
G04 APERTURE END LIST*
D10*
%TO.C,J2*%
X110656063Y-76070000D03*
X110656063Y-71070000D03*
D11*
X105656063Y-79070000D03*
X105656063Y-68070000D03*
%TD*%
D10*
%TO.C,J1*%
X172425500Y-71550000D03*
X172425500Y-76550000D03*
D11*
X182425500Y-79550000D03*
X182425500Y-68550000D03*
%TD*%
D12*
%TO.C,J5*%
X158220000Y-126137500D03*
X155680000Y-126137500D03*
X153140000Y-126137500D03*
X150600000Y-126137500D03*
X148060000Y-126137500D03*
%TD*%
D10*
%TO.C,J3*%
X172425500Y-113720000D03*
X172425500Y-118720000D03*
D11*
X182425500Y-121720000D03*
X182425500Y-110720000D03*
%TD*%
D13*
%TO.C,J6*%
X105625000Y-83312500D03*
D14*
X105625000Y-85812500D03*
X105625000Y-88312500D03*
X105625000Y-90812500D03*
X105625000Y-93312500D03*
X105625000Y-95812500D03*
%TD*%
D15*
%TO.C,J7*%
X105490000Y-106560000D03*
D14*
X105490000Y-104060000D03*
X105490000Y-101560000D03*
X105490000Y-99060000D03*
%TD*%
D16*
%TO.C,R31*%
X151780000Y-104299999D03*
X150180000Y-104299999D03*
%TD*%
%TO.C,R26*%
X134680000Y-105230000D03*
X136280000Y-105230000D03*
%TD*%
D17*
%TO.C,IC4*%
X139662000Y-109259999D03*
X139662000Y-108759999D03*
X139662000Y-108259999D03*
X139662000Y-107759999D03*
X139662000Y-107259999D03*
X139662000Y-106759999D03*
X139662000Y-106259999D03*
X139662000Y-105759999D03*
X139662000Y-105259999D03*
X139662000Y-104759999D03*
X139662000Y-104259999D03*
X139662000Y-103759999D03*
D18*
X141150000Y-102271999D03*
X141650000Y-102271999D03*
X142150000Y-102271999D03*
X142650000Y-102271999D03*
X143150000Y-102271999D03*
X143650000Y-102271999D03*
X144150000Y-102271999D03*
X144650000Y-102271999D03*
X145150000Y-102271999D03*
X145650000Y-102271999D03*
X146150000Y-102271999D03*
X146650000Y-102271999D03*
D17*
X148138000Y-103759999D03*
X148138000Y-104259999D03*
X148138000Y-104759999D03*
X148138000Y-105259999D03*
X148138000Y-105759999D03*
X148138000Y-106259999D03*
X148138000Y-106759999D03*
X148138000Y-107259999D03*
X148138000Y-107759999D03*
X148138000Y-108259999D03*
X148138000Y-108759999D03*
X148138000Y-109259999D03*
D18*
X146650000Y-110747999D03*
X146150000Y-110747999D03*
X145650000Y-110747999D03*
X145150000Y-110747999D03*
X144650000Y-110747999D03*
X144150000Y-110747999D03*
X143650000Y-110747999D03*
X143150000Y-110747999D03*
X142650000Y-110747999D03*
X142150000Y-110747999D03*
X141650000Y-110747999D03*
X141150000Y-110747999D03*
%TD*%
D19*
%TO.C,LED1*%
X155770000Y-106020000D03*
X154170000Y-106020000D03*
%TD*%
D16*
%TO.C,R34*%
X151830000Y-105969999D03*
X150230000Y-105969999D03*
%TD*%
D20*
%TO.C,C14*%
X135310000Y-107153332D03*
X135310000Y-109773332D03*
%TD*%
D21*
%TO.C,C30*%
X114730000Y-72640000D03*
X114730000Y-75440000D03*
%TD*%
D22*
%TO.C,C27*%
X137770000Y-108079999D03*
X137770000Y-109399999D03*
%TD*%
%TO.C,C15*%
X150140000Y-107689999D03*
X150140000Y-109009999D03*
%TD*%
%TO.C,C21*%
X145450000Y-125420000D03*
X145450000Y-126740000D03*
%TD*%
%TO.C,C28*%
X137750000Y-106669999D03*
X137750000Y-105349999D03*
%TD*%
D23*
%TO.C,C29*%
X117270000Y-73460000D03*
X117270000Y-74860000D03*
%TD*%
D20*
%TO.C,C31*%
X152580000Y-107910000D03*
X152580000Y-110530000D03*
%TD*%
D19*
%TO.C,LED2*%
X155770000Y-103990000D03*
X154170000Y-103990000D03*
%TD*%
D24*
X181200000Y-125870000D03*
X106840000Y-63700000D03*
X106840000Y-125870000D03*
X181200000Y-63700000D03*
M02*
