%TF.GenerationSoftware,KiCad,Pcbnew,9.0.6*%
%TF.CreationDate,2026-07-16T17:26:49+03:00*%
%TF.ProjectId,Lithium_Board,4c697468-6975-46d5-9f42-6f6172642e6b,rev?*%
%TF.SameCoordinates,Original*%
%TF.FileFunction,Copper,L3,Inr*%
%TF.FilePolarity,Positive*%
%FSLAX46Y46*%
G04 Gerber Fmt 4.6, Leading zero omitted, Abs format (unit mm)*
G04 Created by KiCad (PCBNEW 9.0.6) date 2026-07-16 17:26:49*
%MOMM*%
%LPD*%
G01*
G04 APERTURE LIST*
G04 Aperture macros list*
%AMRoundRect*
0 Rectangle with rounded corners*
0 $1 Rounding radius*
0 $2 $3 $4 $5 $6 $7 $8 $9 X,Y pos of 4 corners*
0 Add a 4 corners polygon primitive as box body*
4,1,4,$2,$3,$4,$5,$6,$7,$8,$9,$2,$3,0*
0 Add four circle primitives for the rounded corners*
1,1,$1+$1,$2,$3*
1,1,$1+$1,$4,$5*
1,1,$1+$1,$6,$7*
1,1,$1+$1,$8,$9*
0 Add four rect primitives between the rounded corners*
20,1,$1+$1,$2,$3,$4,$5,0*
20,1,$1+$1,$4,$5,$6,$7,0*
20,1,$1+$1,$6,$7,$8,$9,0*
20,1,$1+$1,$8,$9,$2,$3,0*%
G04 Aperture macros list end*
%TA.AperFunction,ComponentPad*%
%ADD10C,2.550000*%
%TD*%
%TA.AperFunction,ComponentPad*%
%ADD11C,1.500000*%
%TD*%
%TA.AperFunction,ComponentPad*%
%ADD12C,1.550000*%
%TD*%
%TA.AperFunction,ComponentPad*%
%ADD13RoundRect,0.250000X-0.725000X0.600000X-0.725000X-0.600000X0.725000X-0.600000X0.725000X0.600000X0*%
%TD*%
%TA.AperFunction,ComponentPad*%
%ADD14O,1.950000X1.700000*%
%TD*%
%TA.AperFunction,ComponentPad*%
%ADD15RoundRect,0.250000X0.725000X-0.600000X0.725000X0.600000X-0.725000X0.600000X-0.725000X-0.600000X0*%
%TD*%
%TA.AperFunction,ViaPad*%
%ADD16C,0.400000*%
%TD*%
%TA.AperFunction,Conductor*%
%ADD17C,0.150000*%
%TD*%
%TA.AperFunction,Conductor*%
%ADD18C,0.090000*%
%TD*%
G04 APERTURE END LIST*
D10*
%TO.N,GND*%
%TO.C,J2*%
X110656063Y-76070000D03*
%TO.N,VIN*%
X110656063Y-71070000D03*
D11*
%TO.N,unconnected-(J2-Pad3)*%
X105656063Y-79070000D03*
%TO.N,unconnected-(J2-Pad4)*%
X105656063Y-68070000D03*
%TD*%
D10*
%TO.N,BQ_SYS*%
%TO.C,J1*%
X172425500Y-71550000D03*
%TO.N,GND*%
X172425500Y-76550000D03*
D11*
%TO.N,unconnected-(J1-Pad3)*%
X182425500Y-79550000D03*
%TO.N,unconnected-(J1-Pad4)*%
X182425500Y-68550000D03*
%TD*%
D12*
%TO.N,+3V3*%
%TO.C,J5*%
X158220000Y-126137500D03*
%TO.N,SWDIO*%
X155680000Y-126137500D03*
%TO.N,GND*%
X153140000Y-126137500D03*
%TO.N,SWCLK*%
X150600000Y-126137500D03*
%TO.N,NRST*%
X148060000Y-126137500D03*
%TD*%
D10*
%TO.N,+BATT*%
%TO.C,J3*%
X172425500Y-113720000D03*
%TO.N,GND*%
X172425500Y-118720000D03*
D11*
%TO.N,unconnected-(J3-Pad3)*%
X182425500Y-121720000D03*
%TO.N,unconnected-(J3-Pad4)*%
X182425500Y-110720000D03*
%TD*%
D13*
%TO.N,GND*%
%TO.C,J6*%
X105625000Y-83312500D03*
D14*
%TO.N,BAT1*%
X105625000Y-85812500D03*
%TO.N,BAT2*%
X105625000Y-88312500D03*
%TO.N,BAT3{slash}PACK+*%
X105625000Y-90812500D03*
%TO.N,BQ_TS*%
X105625000Y-93312500D03*
%TO.N,GND*%
X105625000Y-95812500D03*
%TD*%
D15*
%TO.N,GND*%
%TO.C,J7*%
X105490000Y-106560000D03*
D14*
%TO.N,BQ2_TS3*%
X105490000Y-104060000D03*
%TO.N,BQ2_TS2*%
X105490000Y-101560000D03*
%TO.N,BQ2_TS1*%
X105490000Y-99060000D03*
%TD*%
D16*
%TO.N,GND*%
X128060000Y-90890000D03*
X152230000Y-77760000D03*
X119456589Y-99544087D03*
X141200000Y-93590000D03*
X153101704Y-98939335D03*
X175120000Y-118740000D03*
X131053950Y-70000000D03*
X143470000Y-85380000D03*
X139569721Y-101733499D03*
X122120000Y-86000000D03*
X175915000Y-119720000D03*
X150140000Y-109009999D03*
X119274079Y-87318459D03*
X143440000Y-86536667D03*
X108760000Y-76070000D03*
X166360000Y-80620000D03*
X137030000Y-77700000D03*
X111839997Y-84950000D03*
X108790000Y-77050000D03*
X146156616Y-81882091D03*
X175730000Y-75630000D03*
X154540000Y-86260000D03*
X152580000Y-110530000D03*
X138293269Y-102515784D03*
X119400000Y-96260000D03*
X175830000Y-102303333D03*
X176680000Y-118740000D03*
X112258298Y-91580002D03*
X117750000Y-78410000D03*
X124240000Y-92000000D03*
X128030000Y-89910000D03*
X154510000Y-88060000D03*
X176480000Y-75630000D03*
X114340000Y-76870000D03*
X135310000Y-109773332D03*
X144525000Y-86536667D03*
X174315000Y-102303333D03*
X135160000Y-61890000D03*
X129300000Y-92867500D03*
X165360000Y-113240000D03*
X117270000Y-76360000D03*
X123880000Y-104980000D03*
X136160000Y-87580000D03*
X142790876Y-112960876D03*
X107200000Y-77050000D03*
X156720000Y-106000000D03*
X176650000Y-117820000D03*
X150210000Y-82360000D03*
X141330000Y-106070000D03*
X133570000Y-94170000D03*
X139620000Y-93570000D03*
X145170000Y-117230000D03*
X148140000Y-85010000D03*
X108580000Y-102190000D03*
X171190000Y-62300000D03*
X136820000Y-86290000D03*
X111140000Y-113050000D03*
X107995000Y-77050000D03*
X138120480Y-81514982D03*
X107980000Y-75150000D03*
X125558813Y-95931186D03*
X120690000Y-117120000D03*
X142300000Y-86536667D03*
X140844892Y-103902860D03*
X125632392Y-95436000D03*
X144120000Y-115230000D03*
X121610000Y-104190000D03*
X149570000Y-97860000D03*
X172700000Y-101263333D03*
X133480616Y-95112755D03*
X175800000Y-101263333D03*
X129340000Y-70440000D03*
X142016662Y-119422410D03*
X175120000Y-119720000D03*
X151710000Y-76470000D03*
X149430366Y-106462127D03*
X126980000Y-85820000D03*
X143410000Y-87693333D03*
X107200000Y-75150000D03*
X174950000Y-77530000D03*
X143308720Y-112619739D03*
X142989825Y-103665370D03*
X128000000Y-88990000D03*
X166360000Y-81370000D03*
X124770000Y-93980000D03*
X142880000Y-93670000D03*
X150930676Y-85149999D03*
X111470022Y-97329482D03*
X175745000Y-77530000D03*
X120510000Y-87460000D03*
X130720265Y-62998564D03*
X136240000Y-122050000D03*
X107990000Y-76070000D03*
X110220000Y-113060000D03*
X157390000Y-113170000D03*
X175910000Y-118740000D03*
X175740000Y-76550000D03*
X175770000Y-100143333D03*
X174950000Y-76550000D03*
X132160000Y-78010000D03*
X145700000Y-87693333D03*
X175120000Y-117820000D03*
X156690000Y-105020000D03*
X161622044Y-71637500D03*
X145700000Y-85380000D03*
X119600000Y-103750000D03*
X136080000Y-61860000D03*
X142270000Y-87693333D03*
X137930000Y-117610000D03*
X120433354Y-99825973D03*
X158151205Y-68920096D03*
X115900000Y-81800000D03*
X176510000Y-76550000D03*
X156610000Y-73800000D03*
X156660000Y-104100000D03*
X142110001Y-81842182D03*
X172700000Y-102303333D03*
X145042901Y-94540008D03*
X146264172Y-94340001D03*
X119670000Y-87910000D03*
X174300000Y-100143333D03*
X110805000Y-96330003D03*
X167280000Y-80590000D03*
X175900000Y-117820000D03*
X107200000Y-76070000D03*
X144530000Y-85380000D03*
X117804013Y-96290699D03*
X170730000Y-107800000D03*
X134180000Y-61920000D03*
X135260000Y-80910000D03*
X152310000Y-76450000D03*
X148710000Y-77790000D03*
X144340000Y-74170000D03*
X136810000Y-85780000D03*
X146090000Y-97870000D03*
X111140000Y-113800000D03*
X110220000Y-113830000D03*
X148740000Y-78770000D03*
X118310000Y-83120000D03*
X142259541Y-113743511D03*
X124460000Y-116970000D03*
X176710000Y-119720000D03*
X145450000Y-127800000D03*
X108730000Y-75150000D03*
X154147585Y-81021811D03*
X170270000Y-62330000D03*
X172700000Y-100143333D03*
X124468427Y-97028706D03*
X111369997Y-100620000D03*
X174310000Y-101263333D03*
X145700000Y-86536667D03*
X128108358Y-68540866D03*
X144520000Y-87693333D03*
X145419457Y-98764313D03*
X169060000Y-118710000D03*
X157770000Y-72870000D03*
X176540000Y-77530000D03*
X138510000Y-110530000D03*
X151990000Y-93970000D03*
X169290000Y-62360000D03*
X116540000Y-82880000D03*
X137644322Y-93492462D03*
X121344999Y-98995317D03*
X136430000Y-115100000D03*
X118470000Y-96290000D03*
X147803330Y-98459855D03*
X118986263Y-80496155D03*
X174950000Y-75630000D03*
X140420000Y-78120000D03*
X142330000Y-85380000D03*
X167280000Y-81360000D03*
%TO.N,/SW1*%
X133570000Y-66160000D03*
X131320000Y-67830000D03*
X133570000Y-65170000D03*
X134490000Y-67150000D03*
X138500000Y-66120000D03*
X131320000Y-66770000D03*
X140340000Y-66100000D03*
X130040000Y-70450000D03*
X138500000Y-67110000D03*
X135410000Y-66140000D03*
X135410000Y-65150000D03*
X129440000Y-67830000D03*
X130350000Y-66770000D03*
X138500000Y-68090000D03*
X131320000Y-65600000D03*
X133570000Y-67140000D03*
X130350000Y-67830000D03*
X134490000Y-66160000D03*
X140340000Y-67090000D03*
X129440000Y-65600000D03*
X140340000Y-68090000D03*
X129440000Y-66770000D03*
X139420000Y-67110000D03*
X139420000Y-66120000D03*
X136740000Y-81570000D03*
X130350000Y-65600000D03*
X134490000Y-65170000D03*
X139420000Y-68100000D03*
X135410000Y-67140000D03*
%TO.N,/SW2*%
X148650000Y-70260000D03*
X154620000Y-71960000D03*
X152780000Y-71980000D03*
X158140000Y-69570000D03*
X152780000Y-70990000D03*
X148650000Y-71430000D03*
X147550000Y-67090000D03*
X148650000Y-72490000D03*
X149390000Y-66080000D03*
X149390000Y-68070000D03*
X148470000Y-66100000D03*
X147740000Y-72490000D03*
X152780000Y-72960000D03*
X153360000Y-81680000D03*
X147740000Y-71430000D03*
X149620000Y-72490000D03*
X149620000Y-71430000D03*
X149620000Y-70260000D03*
X154620000Y-72960000D03*
X153700000Y-70990000D03*
X149390000Y-67070000D03*
X153700000Y-71980000D03*
X148470000Y-68080000D03*
X148470000Y-67090000D03*
X147740000Y-70260000D03*
X154620000Y-70970000D03*
X147550000Y-66100000D03*
X147550000Y-68070000D03*
X153700000Y-72970000D03*
%TO.N,/VAC*%
X117835000Y-77795000D03*
X137530000Y-86770000D03*
%TO.N,BQ_REGN*%
X147790000Y-97860000D03*
X143950000Y-82790000D03*
%TO.N,+3V3*%
X164270000Y-106800000D03*
X128020000Y-92700000D03*
X165240000Y-109030000D03*
X158370000Y-123450000D03*
X164270000Y-109030000D03*
X163360000Y-109030000D03*
X159340000Y-122340000D03*
X139554000Y-97780000D03*
X159340000Y-123450000D03*
X135790000Y-97780000D03*
X143120000Y-117680000D03*
X157460000Y-122340000D03*
X165240000Y-106800000D03*
X145125000Y-97830876D03*
X157460000Y-121220000D03*
X133320000Y-108320000D03*
X163360000Y-106800000D03*
X159340000Y-121220000D03*
X141240000Y-107470000D03*
X163360000Y-107920000D03*
X143090000Y-116700000D03*
X164270000Y-107920000D03*
X157460000Y-123450000D03*
X165240000Y-107920000D03*
X133260000Y-106420000D03*
X137672000Y-97780000D03*
X158370000Y-122340000D03*
X143318000Y-97780000D03*
X141436000Y-97780000D03*
X146940000Y-106750000D03*
X127820000Y-98050000D03*
X133290000Y-107340000D03*
X158370000Y-121220000D03*
X141240000Y-106900000D03*
%TO.N,+BATT*%
X175890000Y-113710000D03*
X175100000Y-114690000D03*
X158320000Y-98044376D03*
X175100000Y-113710000D03*
X163410000Y-117290000D03*
X164320000Y-117290000D03*
X175895000Y-114690000D03*
X175880000Y-112790000D03*
X176630000Y-112790000D03*
X165290000Y-118400000D03*
X165290000Y-117290000D03*
X158320000Y-99924376D03*
X163410000Y-118400000D03*
X157260000Y-98044376D03*
X159490000Y-98044376D03*
X164320000Y-118400000D03*
X158320000Y-98954376D03*
X157260000Y-99924376D03*
X175100000Y-112790000D03*
X176660000Y-113710000D03*
X159490000Y-98954376D03*
X157260000Y-98954376D03*
X159490000Y-99924376D03*
X176690000Y-114690000D03*
%TO.N,BQ_SYS*%
X138040000Y-86270000D03*
X162130000Y-63520000D03*
X134410000Y-72810000D03*
X167070000Y-63010000D03*
X174040000Y-84000000D03*
X134410000Y-73800000D03*
X174920000Y-71560000D03*
X167070000Y-64130000D03*
X175710000Y-71560000D03*
X175365000Y-84000000D03*
X131080000Y-72160000D03*
X174920000Y-72540000D03*
X174025000Y-83200000D03*
X133490000Y-74780000D03*
X165190000Y-63010000D03*
X131960000Y-80010000D03*
X163050000Y-63500000D03*
X161210000Y-63520000D03*
X175700000Y-70640000D03*
X129140000Y-80810000D03*
X176510000Y-72540000D03*
X162130000Y-64510000D03*
X174390000Y-90110000D03*
X175730000Y-90110000D03*
X130980000Y-80810000D03*
X165190000Y-65240000D03*
X175700000Y-89290000D03*
X135330000Y-72790000D03*
X129240000Y-72180000D03*
X135330000Y-73780000D03*
X134410000Y-74790000D03*
X176450000Y-70640000D03*
X172715000Y-83200000D03*
X172715000Y-84000000D03*
X167070000Y-65240000D03*
X129240000Y-74150000D03*
X173050000Y-88490000D03*
X166100000Y-65240000D03*
X174055000Y-84820000D03*
X161210000Y-64510000D03*
X175670000Y-88490000D03*
X129240000Y-73170000D03*
X135330000Y-74780000D03*
X130160000Y-73170000D03*
X174360000Y-88490000D03*
X163050000Y-64490000D03*
X165190000Y-64130000D03*
X173050000Y-90110000D03*
X166100000Y-64130000D03*
X176480000Y-71560000D03*
X133490000Y-72810000D03*
X163050000Y-65490000D03*
X131080000Y-74150000D03*
X129140000Y-81590000D03*
X172715000Y-84820000D03*
X161210000Y-65490000D03*
X133490000Y-73800000D03*
X131080000Y-73150000D03*
X130160000Y-72180000D03*
X131960000Y-81600000D03*
X130980000Y-81600000D03*
X130160000Y-74160000D03*
X130060000Y-80820000D03*
X130060000Y-81600000D03*
X174375000Y-89290000D03*
X162130000Y-65500000D03*
X175395000Y-84820000D03*
X130980000Y-80040000D03*
X174920000Y-70640000D03*
X173050000Y-89290000D03*
X130060000Y-80060000D03*
X131960000Y-80805000D03*
X175715000Y-72540000D03*
X129140000Y-80060000D03*
X166100000Y-63010000D03*
X175335000Y-83200000D03*
%TO.N,/CELL BALANCING IC/VC10*%
X112440000Y-90905000D03*
X116370000Y-90910000D03*
%TO.N,Net-(D4-K)*%
X119390000Y-80940000D03*
X110805000Y-95730000D03*
%TO.N,BQ_STAT1*%
X140680000Y-94100000D03*
%TO.N,BQ_INT*%
X138430000Y-103100000D03*
X138980000Y-94060000D03*
%TO.N,/HIDRV2*%
X150660000Y-81400000D03*
X157160000Y-73410000D03*
%TO.N,BQ_BATSRC*%
X163760000Y-69630000D03*
X161073637Y-71288573D03*
X159400000Y-67130000D03*
X150480000Y-84500000D03*
X161860000Y-69690000D03*
X162840000Y-69660000D03*
X159430000Y-68050000D03*
%TO.N,BQ_LODRV1*%
X142667817Y-82399999D03*
X131370000Y-62980000D03*
%TO.N,BQ_BATDRV*%
X158110000Y-73480000D03*
X150338909Y-85418909D03*
%TO.N,BQ_LODRV2*%
X145832897Y-82499285D03*
X152645000Y-78295000D03*
%TO.N,BQ_PG*%
X145040000Y-95140000D03*
X140140000Y-101920000D03*
%TO.N,BQ_CE*%
X146860000Y-95110000D03*
X141430000Y-103770000D03*
%TO.N,/HIDRV1*%
X138770000Y-81490000D03*
X131040000Y-70650000D03*
%TO.N,BQ_SDA*%
X142140000Y-112180000D03*
X137590000Y-94090000D03*
%TO.N,BQ_TS*%
X153130000Y-98340000D03*
%TO.N,BQ_STAT2*%
X142430000Y-94200000D03*
%TO.N,/ACDRV*%
X127990000Y-69180000D03*
X138600000Y-85805000D03*
%TO.N,BQ_SCL*%
X134080000Y-95140000D03*
X142890000Y-112190000D03*
%TO.N,BQ2_ALERT*%
X124770000Y-96510000D03*
%TO.N,BQ2_CS*%
X145170000Y-99310000D03*
%TO.N,BQ2_SCLK*%
X124765489Y-95809614D03*
%TO.N,Net-(IC6-PACK)*%
X112440000Y-84950000D03*
X118930000Y-87810000D03*
%TO.N,BQ2_TS1*%
X119730000Y-99010000D03*
%TO.N,BQ2_TS2*%
X120430000Y-99200000D03*
%TO.N,BQ2_TS3*%
X121160000Y-99600000D03*
%TO.N,BAT1*%
X111970000Y-100620000D03*
%TO.N,BAT2*%
X111495000Y-96730000D03*
%TO.N,/Q4_S*%
X121530000Y-69370000D03*
X124970000Y-71900000D03*
X120610000Y-69400000D03*
X122510000Y-69340000D03*
X124940000Y-70980000D03*
%TO.N,/Q7_DRAIN*%
X157630000Y-63460000D03*
X162550000Y-87190000D03*
X162020000Y-79480000D03*
X157630000Y-65690000D03*
X162350000Y-81470000D03*
X161270000Y-74770000D03*
X154670000Y-63800000D03*
X161100000Y-78490000D03*
X154670000Y-65790000D03*
X152830000Y-65790000D03*
X152830000Y-63820000D03*
X153750000Y-64810000D03*
X162190000Y-73790000D03*
X163110000Y-74770000D03*
X156720000Y-64580000D03*
X161580000Y-87190000D03*
X161100000Y-79470000D03*
X162020000Y-78490000D03*
X161580000Y-86020000D03*
X161270000Y-73790000D03*
X162190000Y-74780000D03*
X158600000Y-65690000D03*
X158600000Y-64580000D03*
X162190000Y-72800000D03*
X162350000Y-80500000D03*
X157630000Y-64580000D03*
X162020000Y-77500000D03*
X162550000Y-88250000D03*
X158600000Y-63460000D03*
X154670000Y-64790000D03*
X163110000Y-73770000D03*
X153750000Y-65800000D03*
X163110000Y-72780000D03*
X162940000Y-79470000D03*
X161580000Y-88250000D03*
X161270000Y-72800000D03*
X160670000Y-86020000D03*
X160670000Y-87190000D03*
X162940000Y-77480000D03*
X152830000Y-64810000D03*
X160670000Y-88250000D03*
X161290000Y-80500000D03*
X161290000Y-81470000D03*
X153750000Y-63820000D03*
X161100000Y-77500000D03*
X162550000Y-86020000D03*
X162940000Y-78470000D03*
X156720000Y-65690000D03*
X156720000Y-63460000D03*
%TO.N,/Q1_D*%
X122120000Y-74640000D03*
X129785000Y-87230000D03*
X124950000Y-75410000D03*
X123040000Y-75620000D03*
X121200000Y-75620000D03*
X124950000Y-74240000D03*
X123040000Y-74620000D03*
X122120000Y-75630000D03*
X126830000Y-75410000D03*
X125860000Y-74240000D03*
X131170000Y-88710000D03*
X121200000Y-74640000D03*
X125860000Y-75410000D03*
X121200000Y-73650000D03*
X126830000Y-76470000D03*
X130170000Y-88720000D03*
X128680000Y-87230000D03*
X129070000Y-87970000D03*
X122120000Y-73650000D03*
X131280000Y-87970000D03*
X132275000Y-88715000D03*
X126830000Y-74240000D03*
X125860000Y-76470000D03*
X123040000Y-73630000D03*
X130175000Y-87970000D03*
X130890000Y-87230000D03*
X124950000Y-76470000D03*
%TO.N,BQ2_MOSI*%
X124760000Y-94610000D03*
%TO.N,FDCAN_TX*%
X141740000Y-118890000D03*
%TO.N,FDCAN_RX*%
X141660000Y-113720000D03*
%TO.N,CAN_STB*%
X142390000Y-103680000D03*
%TO.N,BQ2_MISO*%
X124777811Y-95209738D03*
%TO.N,VIN*%
X123020000Y-66020000D03*
X117500000Y-68950000D03*
X123020000Y-64030000D03*
X114680000Y-67980000D03*
X115600000Y-67990000D03*
X116520000Y-65990000D03*
X123020000Y-65020000D03*
X122100000Y-65040000D03*
X121180000Y-66020000D03*
X115600000Y-68950000D03*
X117500000Y-66950000D03*
X121180000Y-65040000D03*
X114680000Y-66010000D03*
X116520000Y-68950000D03*
X116520000Y-66980000D03*
X114680000Y-68940000D03*
X114680000Y-67000000D03*
X122100000Y-66030000D03*
X115600000Y-66010000D03*
X117500000Y-65960000D03*
X116520000Y-67980000D03*
X121180000Y-64050000D03*
X122100000Y-64050000D03*
X117500000Y-67975000D03*
X115600000Y-67000000D03*
%TD*%
D17*
%TO.N,BQ_INT*%
X138430000Y-103100000D02*
X138980000Y-102550000D01*
X138980000Y-102550000D02*
X138980000Y-94060000D01*
%TO.N,BQ_PG*%
X145040000Y-97020000D02*
X145040000Y-95140000D01*
X140140000Y-101920000D02*
X145040000Y-97020000D01*
%TO.N,BQ_CE*%
X141430000Y-103770000D02*
X146860000Y-98340000D01*
X146860000Y-98340000D02*
X146860000Y-95110000D01*
%TO.N,BQ_SDA*%
X137194663Y-107234663D02*
X142140000Y-112180000D01*
X137459326Y-94090000D02*
X137194663Y-94354663D01*
X137590000Y-94090000D02*
X137459326Y-94090000D01*
X137194663Y-94354663D02*
X137194663Y-107234663D01*
D18*
%TO.N,BQ_TS*%
X127859260Y-90460000D02*
X127875260Y-90444000D01*
X128244740Y-90444000D02*
X128260740Y-90460000D01*
X128260740Y-90460000D02*
X145250000Y-90460000D01*
X127875260Y-90444000D02*
X128244740Y-90444000D01*
X145250000Y-90460000D02*
X153130000Y-98340000D01*
X108477500Y-90460000D02*
X127859260Y-90460000D01*
X105625000Y-93312500D02*
X108477500Y-90460000D01*
D17*
%TO.N,BQ_SCL*%
X142890000Y-112190000D02*
X142424000Y-112656000D01*
X142424000Y-112656000D02*
X141942834Y-112656000D01*
X141942834Y-112656000D02*
X134080000Y-104793166D01*
X134080000Y-104793166D02*
X134080000Y-95140000D01*
D18*
%TO.N,BQ2_TS1*%
X119680000Y-99060000D02*
X119730000Y-99010000D01*
X105490000Y-99060000D02*
X119680000Y-99060000D01*
%TO.N,BQ2_TS2*%
X118070000Y-101560000D02*
X120430000Y-99200000D01*
X105490000Y-101560000D02*
X118070000Y-101560000D01*
%TO.N,BQ2_TS3*%
X117360000Y-104060000D02*
X121160000Y-100260000D01*
X121160000Y-100260000D02*
X121160000Y-99600000D01*
X105490000Y-104060000D02*
X117360000Y-104060000D01*
%TD*%
%TA.AperFunction,Conductor*%
%TO.N,/Q7_DRAIN*%
G36*
X166225677Y-61709685D02*
G01*
X166246319Y-61726319D01*
X166954870Y-62434870D01*
X166988355Y-62496193D01*
X166983371Y-62565885D01*
X166941499Y-62621818D01*
X166922424Y-62632680D01*
X166922452Y-62632729D01*
X166824085Y-62689521D01*
X166749521Y-62764085D01*
X166692729Y-62862452D01*
X166689849Y-62860789D01*
X166655691Y-62903153D01*
X166589391Y-62925199D01*
X166521696Y-62907901D01*
X166478659Y-62861650D01*
X166477271Y-62862452D01*
X166468092Y-62846553D01*
X166420480Y-62764087D01*
X166345913Y-62689520D01*
X166254587Y-62636793D01*
X166152727Y-62609500D01*
X166047273Y-62609500D01*
X165945413Y-62636793D01*
X165945410Y-62636794D01*
X165854085Y-62689521D01*
X165779522Y-62764084D01*
X165779520Y-62764086D01*
X165779520Y-62764087D01*
X165752385Y-62811085D01*
X165701819Y-62859299D01*
X165633212Y-62872521D01*
X165568348Y-62846553D01*
X165537615Y-62811086D01*
X165510480Y-62764087D01*
X165435913Y-62689520D01*
X165344587Y-62636793D01*
X165242727Y-62609500D01*
X165137273Y-62609500D01*
X165035413Y-62636793D01*
X165035410Y-62636794D01*
X164944085Y-62689521D01*
X164869521Y-62764085D01*
X164816794Y-62855410D01*
X164816793Y-62855413D01*
X164789500Y-62957273D01*
X164789500Y-63062727D01*
X164815354Y-63159214D01*
X164816793Y-63164586D01*
X164816794Y-63164589D01*
X164825415Y-63179521D01*
X164869520Y-63255913D01*
X164944087Y-63330480D01*
X165035413Y-63383207D01*
X165137273Y-63410500D01*
X165137275Y-63410500D01*
X165242725Y-63410500D01*
X165242727Y-63410500D01*
X165344587Y-63383207D01*
X165435913Y-63330480D01*
X165510480Y-63255913D01*
X165537614Y-63208914D01*
X165588180Y-63160701D01*
X165656787Y-63147477D01*
X165721652Y-63173445D01*
X165752384Y-63208913D01*
X165779520Y-63255913D01*
X165854087Y-63330480D01*
X165945413Y-63383207D01*
X166047273Y-63410500D01*
X166047275Y-63410500D01*
X166152725Y-63410500D01*
X166152727Y-63410500D01*
X166254587Y-63383207D01*
X166345913Y-63330480D01*
X166420480Y-63255913D01*
X166473207Y-63164587D01*
X166473207Y-63164586D01*
X166477271Y-63157548D01*
X166480157Y-63159214D01*
X166514265Y-63116876D01*
X166580556Y-63094802D01*
X166648258Y-63112071D01*
X166691351Y-63158343D01*
X166692729Y-63157548D01*
X166696793Y-63164587D01*
X166749520Y-63255913D01*
X166824087Y-63330480D01*
X166915413Y-63383207D01*
X167017273Y-63410500D01*
X167017275Y-63410500D01*
X167116000Y-63410500D01*
X167124685Y-63413050D01*
X167133647Y-63411762D01*
X167157687Y-63422740D01*
X167183039Y-63430185D01*
X167188966Y-63437025D01*
X167197203Y-63440787D01*
X167211492Y-63463021D01*
X167228794Y-63482989D01*
X167231081Y-63493503D01*
X167234977Y-63499565D01*
X167240000Y-63534500D01*
X167240000Y-63605500D01*
X167220315Y-63672539D01*
X167167511Y-63718294D01*
X167116000Y-63729500D01*
X167017273Y-63729500D01*
X166915413Y-63756793D01*
X166915410Y-63756794D01*
X166824085Y-63809521D01*
X166749521Y-63884085D01*
X166692729Y-63982452D01*
X166689849Y-63980789D01*
X166655691Y-64023153D01*
X166589391Y-64045199D01*
X166521696Y-64027901D01*
X166478659Y-63981650D01*
X166477271Y-63982452D01*
X166447906Y-63931591D01*
X166420480Y-63884087D01*
X166345913Y-63809520D01*
X166254587Y-63756793D01*
X166152727Y-63729500D01*
X166047273Y-63729500D01*
X165945413Y-63756793D01*
X165945410Y-63756794D01*
X165854085Y-63809521D01*
X165779522Y-63884084D01*
X165779520Y-63884086D01*
X165779520Y-63884087D01*
X165752385Y-63931085D01*
X165701819Y-63979299D01*
X165633212Y-63992521D01*
X165568348Y-63966553D01*
X165537615Y-63931086D01*
X165510480Y-63884087D01*
X165435913Y-63809520D01*
X165344587Y-63756793D01*
X165242727Y-63729500D01*
X165137273Y-63729500D01*
X165035413Y-63756793D01*
X165035410Y-63756794D01*
X164944085Y-63809521D01*
X164869521Y-63884085D01*
X164816794Y-63975410D01*
X164816793Y-63975413D01*
X164789500Y-64077273D01*
X164789500Y-64182727D01*
X164816793Y-64284587D01*
X164869520Y-64375913D01*
X164944087Y-64450480D01*
X165035413Y-64503207D01*
X165137273Y-64530500D01*
X165137275Y-64530500D01*
X165242725Y-64530500D01*
X165242727Y-64530500D01*
X165344587Y-64503207D01*
X165435913Y-64450480D01*
X165510480Y-64375913D01*
X165537614Y-64328914D01*
X165588180Y-64280701D01*
X165656787Y-64267477D01*
X165721652Y-64293445D01*
X165752384Y-64328913D01*
X165779520Y-64375913D01*
X165854087Y-64450480D01*
X165945413Y-64503207D01*
X166047273Y-64530500D01*
X166047275Y-64530500D01*
X166152725Y-64530500D01*
X166152727Y-64530500D01*
X166254587Y-64503207D01*
X166345913Y-64450480D01*
X166420480Y-64375913D01*
X166473207Y-64284587D01*
X166473207Y-64284586D01*
X166477271Y-64277548D01*
X166480157Y-64279214D01*
X166514265Y-64236876D01*
X166580556Y-64214802D01*
X166648258Y-64232071D01*
X166691351Y-64278343D01*
X166692729Y-64277548D01*
X166696793Y-64284587D01*
X166749520Y-64375913D01*
X166824087Y-64450480D01*
X166915413Y-64503207D01*
X167017273Y-64530500D01*
X167017275Y-64530500D01*
X167116000Y-64530500D01*
X167124685Y-64533050D01*
X167133647Y-64531762D01*
X167157687Y-64542740D01*
X167183039Y-64550185D01*
X167188966Y-64557025D01*
X167197203Y-64560787D01*
X167211492Y-64583021D01*
X167228794Y-64602989D01*
X167231081Y-64613503D01*
X167234977Y-64619565D01*
X167240000Y-64654500D01*
X167240000Y-64715500D01*
X167220315Y-64782539D01*
X167167511Y-64828294D01*
X167116000Y-64839500D01*
X167017273Y-64839500D01*
X166915413Y-64866793D01*
X166915410Y-64866794D01*
X166824085Y-64919521D01*
X166749521Y-64994085D01*
X166692729Y-65092452D01*
X166689849Y-65090789D01*
X166655691Y-65133153D01*
X166589391Y-65155199D01*
X166521696Y-65137901D01*
X166478659Y-65091650D01*
X166477271Y-65092452D01*
X166454963Y-65053814D01*
X166420480Y-64994087D01*
X166345913Y-64919520D01*
X166279059Y-64880922D01*
X166254589Y-64866794D01*
X166254588Y-64866793D01*
X166254587Y-64866793D01*
X166152727Y-64839500D01*
X166047273Y-64839500D01*
X165945413Y-64866793D01*
X165945410Y-64866794D01*
X165854085Y-64919521D01*
X165779522Y-64994084D01*
X165779520Y-64994086D01*
X165779520Y-64994087D01*
X165752385Y-65041085D01*
X165701819Y-65089299D01*
X165633212Y-65102521D01*
X165568348Y-65076553D01*
X165537615Y-65041086D01*
X165510480Y-64994087D01*
X165435913Y-64919520D01*
X165369059Y-64880922D01*
X165344589Y-64866794D01*
X165344588Y-64866793D01*
X165344587Y-64866793D01*
X165242727Y-64839500D01*
X165137273Y-64839500D01*
X165035413Y-64866793D01*
X165035410Y-64866794D01*
X164944085Y-64919521D01*
X164869521Y-64994085D01*
X164816794Y-65085410D01*
X164816793Y-65085413D01*
X164789500Y-65187273D01*
X164789500Y-65292727D01*
X164816793Y-65394587D01*
X164869520Y-65485913D01*
X164944087Y-65560480D01*
X165035413Y-65613207D01*
X165137273Y-65640500D01*
X165137275Y-65640500D01*
X165242725Y-65640500D01*
X165242727Y-65640500D01*
X165344587Y-65613207D01*
X165435913Y-65560480D01*
X165510480Y-65485913D01*
X165537614Y-65438914D01*
X165588180Y-65390701D01*
X165656787Y-65377477D01*
X165721652Y-65403445D01*
X165752384Y-65438913D01*
X165779520Y-65485913D01*
X165854087Y-65560480D01*
X165945413Y-65613207D01*
X166047273Y-65640500D01*
X166047275Y-65640500D01*
X166152725Y-65640500D01*
X166152727Y-65640500D01*
X166254587Y-65613207D01*
X166345913Y-65560480D01*
X166420480Y-65485913D01*
X166473207Y-65394587D01*
X166473207Y-65394586D01*
X166477271Y-65387548D01*
X166480157Y-65389214D01*
X166514265Y-65346876D01*
X166580556Y-65324802D01*
X166648258Y-65342071D01*
X166691351Y-65388343D01*
X166692729Y-65387548D01*
X166696793Y-65394587D01*
X166749520Y-65485913D01*
X166824087Y-65560480D01*
X166915413Y-65613207D01*
X167017273Y-65640500D01*
X167017275Y-65640500D01*
X167116000Y-65640500D01*
X167183039Y-65660185D01*
X167228794Y-65712989D01*
X167240000Y-65764500D01*
X167240000Y-80090941D01*
X167220315Y-80157980D01*
X167167511Y-80203735D01*
X167148097Y-80210714D01*
X167140168Y-80212839D01*
X167125411Y-80216793D01*
X167125410Y-80216794D01*
X167034085Y-80269521D01*
X166959520Y-80344086D01*
X166918725Y-80414744D01*
X166868158Y-80462959D01*
X166799550Y-80476181D01*
X166734686Y-80450213D01*
X166703953Y-80414744D01*
X166680480Y-80374087D01*
X166605913Y-80299520D01*
X166514587Y-80246793D01*
X166412727Y-80219500D01*
X166307273Y-80219500D01*
X166205413Y-80246793D01*
X166205410Y-80246794D01*
X166114085Y-80299521D01*
X166039521Y-80374085D01*
X165986794Y-80465410D01*
X165986793Y-80465413D01*
X165959500Y-80567273D01*
X165959500Y-80672727D01*
X165986510Y-80773528D01*
X165986793Y-80774586D01*
X165986794Y-80774589D01*
X166039521Y-80865914D01*
X166080926Y-80907319D01*
X166114411Y-80968642D01*
X166109427Y-81038334D01*
X166080926Y-81082681D01*
X166039521Y-81124085D01*
X165986794Y-81215410D01*
X165986793Y-81215413D01*
X165959500Y-81317273D01*
X165959500Y-81422727D01*
X165986793Y-81524587D01*
X166039520Y-81615913D01*
X166114087Y-81690480D01*
X166205413Y-81743207D01*
X166307273Y-81770500D01*
X166307275Y-81770500D01*
X166412725Y-81770500D01*
X166412727Y-81770500D01*
X166514587Y-81743207D01*
X166605913Y-81690480D01*
X166680480Y-81615913D01*
X166715501Y-81555253D01*
X166766065Y-81507041D01*
X166834672Y-81493817D01*
X166899537Y-81519785D01*
X166930271Y-81555253D01*
X166959520Y-81605913D01*
X167034087Y-81680480D01*
X167100939Y-81719077D01*
X167125409Y-81733205D01*
X167125413Y-81733207D01*
X167148095Y-81739284D01*
X167207752Y-81775646D01*
X167238283Y-81838492D01*
X167240000Y-81859058D01*
X167240000Y-93508638D01*
X167220315Y-93575677D01*
X167203681Y-93596319D01*
X166156319Y-94643681D01*
X166094996Y-94677166D01*
X166068638Y-94680000D01*
X151461362Y-94680000D01*
X151394323Y-94660315D01*
X151373681Y-94643681D01*
X150647273Y-93917273D01*
X151589500Y-93917273D01*
X151589500Y-94022727D01*
X151616793Y-94124587D01*
X151669520Y-94215913D01*
X151744087Y-94290480D01*
X151835413Y-94343207D01*
X151937273Y-94370500D01*
X151937275Y-94370500D01*
X152042725Y-94370500D01*
X152042727Y-94370500D01*
X152144587Y-94343207D01*
X152235913Y-94290480D01*
X152310480Y-94215913D01*
X152363207Y-94124587D01*
X152390500Y-94022727D01*
X152390500Y-93917273D01*
X152363207Y-93815413D01*
X152310480Y-93724087D01*
X152235913Y-93649520D01*
X152144587Y-93596793D01*
X152042727Y-93569500D01*
X151937273Y-93569500D01*
X151835413Y-93596793D01*
X151835410Y-93596794D01*
X151744085Y-93649521D01*
X151669521Y-93724085D01*
X151616794Y-93815410D01*
X151616793Y-93815413D01*
X151589500Y-93917273D01*
X150647273Y-93917273D01*
X150636319Y-93906319D01*
X150602834Y-93844996D01*
X150600000Y-93818638D01*
X150600000Y-88007273D01*
X154109500Y-88007273D01*
X154109500Y-88112727D01*
X154136793Y-88214587D01*
X154189520Y-88305913D01*
X154264087Y-88380480D01*
X154355413Y-88433207D01*
X154457273Y-88460500D01*
X154457275Y-88460500D01*
X154562725Y-88460500D01*
X154562727Y-88460500D01*
X154664587Y-88433207D01*
X154755913Y-88380480D01*
X154830480Y-88305913D01*
X154883207Y-88214587D01*
X154910500Y-88112727D01*
X154910500Y-88007273D01*
X154883207Y-87905413D01*
X154830480Y-87814087D01*
X154755913Y-87739520D01*
X154664587Y-87686793D01*
X154562727Y-87659500D01*
X154457273Y-87659500D01*
X154355413Y-87686793D01*
X154355410Y-87686794D01*
X154264085Y-87739521D01*
X154189521Y-87814085D01*
X154136794Y-87905410D01*
X154136793Y-87905413D01*
X154109500Y-88007273D01*
X150600000Y-88007273D01*
X150600000Y-86207273D01*
X154139500Y-86207273D01*
X154139500Y-86312727D01*
X154166793Y-86414587D01*
X154219520Y-86505913D01*
X154294087Y-86580480D01*
X154385413Y-86633207D01*
X154487273Y-86660500D01*
X154487275Y-86660500D01*
X154592725Y-86660500D01*
X154592727Y-86660500D01*
X154694587Y-86633207D01*
X154785913Y-86580480D01*
X154860480Y-86505913D01*
X154913207Y-86414587D01*
X154940500Y-86312727D01*
X154940500Y-86207273D01*
X154913207Y-86105413D01*
X154860480Y-86014087D01*
X154785913Y-85939520D01*
X154694587Y-85886793D01*
X154592727Y-85859500D01*
X154487273Y-85859500D01*
X154385413Y-85886793D01*
X154385410Y-85886794D01*
X154294085Y-85939521D01*
X154219521Y-86014085D01*
X154166794Y-86105410D01*
X154166793Y-86105413D01*
X154139500Y-86207273D01*
X150600000Y-86207273D01*
X150600000Y-85775573D01*
X150619685Y-85708534D01*
X150622577Y-85704234D01*
X150628742Y-85695468D01*
X150659389Y-85664822D01*
X150701032Y-85592692D01*
X150704221Y-85588160D01*
X150727392Y-85569718D01*
X150748824Y-85549284D01*
X150754425Y-85548204D01*
X150758890Y-85544651D01*
X150788350Y-85541665D01*
X150817431Y-85536060D01*
X150826863Y-85537762D01*
X150828404Y-85537606D01*
X150829728Y-85538278D01*
X150837733Y-85539723D01*
X150877949Y-85550499D01*
X150877951Y-85550499D01*
X150983401Y-85550499D01*
X150983403Y-85550499D01*
X151085263Y-85523206D01*
X151176589Y-85470479D01*
X151251156Y-85395912D01*
X151303883Y-85304586D01*
X151331176Y-85202726D01*
X151331176Y-85097272D01*
X151303883Y-84995412D01*
X151251156Y-84904086D01*
X151176589Y-84829519D01*
X151109735Y-84790921D01*
X151085265Y-84776793D01*
X151085264Y-84776792D01*
X151085263Y-84776792D01*
X150983403Y-84749499D01*
X150983402Y-84749499D01*
X150975343Y-84748438D01*
X150975730Y-84745492D01*
X150922336Y-84729814D01*
X150876581Y-84677010D01*
X150866637Y-84607852D01*
X150869600Y-84593406D01*
X150880500Y-84552727D01*
X150880500Y-84447273D01*
X150853207Y-84345413D01*
X150800480Y-84254087D01*
X150725913Y-84179520D01*
X150702293Y-84165883D01*
X150661998Y-84142618D01*
X150613784Y-84092050D01*
X150600000Y-84035232D01*
X150600000Y-82451913D01*
X150610500Y-82412727D01*
X150610500Y-82307273D01*
X150600000Y-82268086D01*
X150600000Y-81924085D01*
X150619685Y-81857046D01*
X150672489Y-81811291D01*
X150707820Y-81801145D01*
X150712715Y-81800500D01*
X150712727Y-81800500D01*
X150814587Y-81773207D01*
X150905913Y-81720480D01*
X150980480Y-81645913D01*
X150991242Y-81627273D01*
X152959500Y-81627273D01*
X152959500Y-81732727D01*
X152977833Y-81801145D01*
X152986793Y-81834586D01*
X152986794Y-81834589D01*
X152999760Y-81857046D01*
X153039520Y-81925913D01*
X153114087Y-82000480D01*
X153205413Y-82053207D01*
X153307273Y-82080500D01*
X153307275Y-82080500D01*
X153412725Y-82080500D01*
X153412727Y-82080500D01*
X153514587Y-82053207D01*
X153605913Y-82000480D01*
X153680480Y-81925913D01*
X153733207Y-81834587D01*
X153760500Y-81732727D01*
X153760500Y-81627273D01*
X153733207Y-81525413D01*
X153680480Y-81434087D01*
X153605913Y-81359520D01*
X153532739Y-81317273D01*
X153514589Y-81306794D01*
X153514588Y-81306793D01*
X153514587Y-81306793D01*
X153412727Y-81279500D01*
X153307273Y-81279500D01*
X153205413Y-81306793D01*
X153205410Y-81306794D01*
X153114085Y-81359521D01*
X153039521Y-81434085D01*
X152986794Y-81525410D01*
X152986793Y-81525413D01*
X152959500Y-81627273D01*
X150991242Y-81627273D01*
X151033207Y-81554587D01*
X151060500Y-81452727D01*
X151060500Y-81347273D01*
X151033207Y-81245413D01*
X150980480Y-81154087D01*
X150905913Y-81079520D01*
X150814587Y-81026793D01*
X150734463Y-81005324D01*
X150712728Y-80999500D01*
X150707810Y-80998853D01*
X150643915Y-80970584D01*
X150642926Y-80969084D01*
X153747085Y-80969084D01*
X153747085Y-81074538D01*
X153768400Y-81154085D01*
X153774378Y-81176397D01*
X153774379Y-81176400D01*
X153781497Y-81188730D01*
X153781499Y-81188733D01*
X153827105Y-81267724D01*
X153901672Y-81342291D01*
X153992998Y-81395018D01*
X154094858Y-81422311D01*
X154094860Y-81422311D01*
X154200310Y-81422311D01*
X154200312Y-81422311D01*
X154302172Y-81395018D01*
X154393498Y-81342291D01*
X154468065Y-81267724D01*
X154520792Y-81176398D01*
X154548085Y-81074538D01*
X154548085Y-80969084D01*
X154520792Y-80867224D01*
X154468065Y-80775898D01*
X154393498Y-80701331D01*
X154302172Y-80648604D01*
X154200312Y-80621311D01*
X154094858Y-80621311D01*
X153992998Y-80648604D01*
X153992995Y-80648605D01*
X153901670Y-80701332D01*
X153827106Y-80775896D01*
X153774379Y-80867221D01*
X153774378Y-80867224D01*
X153747085Y-80969084D01*
X150642926Y-80969084D01*
X150605446Y-80912258D01*
X150600000Y-80875914D01*
X150600000Y-77707273D01*
X151829500Y-77707273D01*
X151829500Y-77812727D01*
X151856793Y-77914587D01*
X151909520Y-78005913D01*
X151984087Y-78080480D01*
X152075413Y-78133207D01*
X152152594Y-78153887D01*
X152212253Y-78190250D01*
X152242783Y-78253097D01*
X152244500Y-78273661D01*
X152244500Y-78347727D01*
X152271793Y-78449587D01*
X152324520Y-78540913D01*
X152399087Y-78615480D01*
X152490413Y-78668207D01*
X152592273Y-78695500D01*
X152592275Y-78695500D01*
X152697725Y-78695500D01*
X152697727Y-78695500D01*
X152799587Y-78668207D01*
X152890913Y-78615480D01*
X152965480Y-78540913D01*
X153018207Y-78449587D01*
X153045500Y-78347727D01*
X153045500Y-78242273D01*
X153018207Y-78140413D01*
X152965480Y-78049087D01*
X152890913Y-77974520D01*
X152799589Y-77921794D01*
X152799588Y-77921793D01*
X152766427Y-77912908D01*
X152722404Y-77901112D01*
X152662746Y-77864748D01*
X152632217Y-77801901D01*
X152630500Y-77781338D01*
X152630500Y-77707275D01*
X152630500Y-77707273D01*
X152603207Y-77605413D01*
X152550480Y-77514087D01*
X152475913Y-77439520D01*
X152384587Y-77386793D01*
X152282727Y-77359500D01*
X152177273Y-77359500D01*
X152075413Y-77386793D01*
X152075410Y-77386794D01*
X151984085Y-77439521D01*
X151909521Y-77514085D01*
X151856794Y-77605410D01*
X151856793Y-77605413D01*
X151829500Y-77707273D01*
X150600000Y-77707273D01*
X150600000Y-76417273D01*
X151309500Y-76417273D01*
X151309500Y-76522727D01*
X151336793Y-76624587D01*
X151389520Y-76715913D01*
X151464087Y-76790480D01*
X151555413Y-76843207D01*
X151657273Y-76870500D01*
X151657275Y-76870500D01*
X151762725Y-76870500D01*
X151762727Y-76870500D01*
X151864587Y-76843207D01*
X151955913Y-76790480D01*
X151955914Y-76790478D01*
X151962951Y-76786416D01*
X151964381Y-76788893D01*
X152016620Y-76768675D01*
X152085070Y-76782687D01*
X152088926Y-76784821D01*
X152155413Y-76823207D01*
X152257273Y-76850500D01*
X152257275Y-76850500D01*
X152362725Y-76850500D01*
X152362727Y-76850500D01*
X152464587Y-76823207D01*
X152555913Y-76770480D01*
X152630480Y-76695913D01*
X152683207Y-76604587D01*
X152710500Y-76502727D01*
X152710500Y-76397273D01*
X152683207Y-76295413D01*
X152630480Y-76204087D01*
X152555913Y-76129520D01*
X152464587Y-76076793D01*
X152362727Y-76049500D01*
X152257273Y-76049500D01*
X152155413Y-76076793D01*
X152155410Y-76076794D01*
X152120770Y-76096794D01*
X152064087Y-76129520D01*
X152064085Y-76129521D01*
X152057049Y-76133584D01*
X152055623Y-76131115D01*
X152003312Y-76151330D01*
X151934869Y-76137280D01*
X151931031Y-76135154D01*
X151864587Y-76096793D01*
X151762727Y-76069500D01*
X151657273Y-76069500D01*
X151555413Y-76096793D01*
X151555410Y-76096794D01*
X151464085Y-76149521D01*
X151389521Y-76224085D01*
X151336794Y-76315410D01*
X151336793Y-76315413D01*
X151309500Y-76417273D01*
X150600000Y-76417273D01*
X150600000Y-73747273D01*
X156209500Y-73747273D01*
X156209500Y-73852727D01*
X156236793Y-73954587D01*
X156289520Y-74045913D01*
X156364087Y-74120480D01*
X156455413Y-74173207D01*
X156557273Y-74200500D01*
X156557275Y-74200500D01*
X156662725Y-74200500D01*
X156662727Y-74200500D01*
X156764587Y-74173207D01*
X156855913Y-74120480D01*
X156930480Y-74045913D01*
X156983207Y-73954587D01*
X156997188Y-73902405D01*
X157033553Y-73842746D01*
X157096400Y-73812217D01*
X157116963Y-73810500D01*
X157212725Y-73810500D01*
X157212727Y-73810500D01*
X157314587Y-73783207D01*
X157405913Y-73730480D01*
X157480480Y-73655913D01*
X157509768Y-73605183D01*
X157560332Y-73556971D01*
X157628939Y-73543747D01*
X157693804Y-73569715D01*
X157734333Y-73626629D01*
X157736715Y-73634398D01*
X157736792Y-73634585D01*
X157736793Y-73634587D01*
X157789520Y-73725913D01*
X157864087Y-73800480D01*
X157955413Y-73853207D01*
X158057273Y-73880500D01*
X158057275Y-73880500D01*
X158162725Y-73880500D01*
X158162727Y-73880500D01*
X158264587Y-73853207D01*
X158355913Y-73800480D01*
X158430480Y-73725913D01*
X158483207Y-73634587D01*
X158510500Y-73532727D01*
X158510500Y-73427273D01*
X158483207Y-73325413D01*
X158430480Y-73234087D01*
X158355913Y-73159520D01*
X158264589Y-73106794D01*
X158264588Y-73106793D01*
X158259571Y-73105449D01*
X158250558Y-73103034D01*
X158190900Y-73066670D01*
X158160371Y-73003823D01*
X158162878Y-72951169D01*
X158170500Y-72922727D01*
X158170500Y-72817273D01*
X158143207Y-72715413D01*
X158090480Y-72624087D01*
X158015913Y-72549520D01*
X157924587Y-72496793D01*
X157822727Y-72469500D01*
X157717273Y-72469500D01*
X157615413Y-72496793D01*
X157615410Y-72496794D01*
X157524085Y-72549521D01*
X157449521Y-72624085D01*
X157396794Y-72715410D01*
X157396793Y-72715413D01*
X157369500Y-72817273D01*
X157369500Y-72889907D01*
X157349815Y-72956946D01*
X157297011Y-73002701D01*
X157227853Y-73012645D01*
X157213414Y-73009684D01*
X157212729Y-73009500D01*
X157212727Y-73009500D01*
X157107273Y-73009500D01*
X157005413Y-73036793D01*
X157005410Y-73036794D01*
X156914085Y-73089521D01*
X156839521Y-73164085D01*
X156786794Y-73255410D01*
X156786793Y-73255413D01*
X156777398Y-73290478D01*
X156772812Y-73307593D01*
X156736447Y-73367254D01*
X156673600Y-73397783D01*
X156653037Y-73399500D01*
X156557273Y-73399500D01*
X156455413Y-73426793D01*
X156455410Y-73426794D01*
X156364085Y-73479521D01*
X156289521Y-73554085D01*
X156236794Y-73645410D01*
X156236793Y-73645413D01*
X156209500Y-73747273D01*
X150600000Y-73747273D01*
X150600000Y-70937273D01*
X152379500Y-70937273D01*
X152379500Y-71042727D01*
X152406793Y-71144587D01*
X152459520Y-71235913D01*
X152534087Y-71310480D01*
X152625413Y-71363207D01*
X152632949Y-71365226D01*
X152692607Y-71401591D01*
X152723135Y-71464438D01*
X152714840Y-71533814D01*
X152670354Y-71587691D01*
X152632950Y-71604773D01*
X152625413Y-71606793D01*
X152625412Y-71606793D01*
X152625410Y-71606794D01*
X152534085Y-71659521D01*
X152459521Y-71734085D01*
X152406794Y-71825410D01*
X152406793Y-71825413D01*
X152379500Y-71927273D01*
X152379500Y-72032727D01*
X152406793Y-72134587D01*
X152459520Y-72225913D01*
X152534087Y-72300480D01*
X152625413Y-72353207D01*
X152625415Y-72353207D01*
X152630801Y-72355439D01*
X152685205Y-72399279D01*
X152707270Y-72465573D01*
X152689991Y-72533273D01*
X152638854Y-72580884D01*
X152630801Y-72584561D01*
X152625414Y-72586792D01*
X152534085Y-72639521D01*
X152459521Y-72714085D01*
X152406794Y-72805410D01*
X152406793Y-72805413D01*
X152379500Y-72907273D01*
X152379500Y-73012727D01*
X152400077Y-73089520D01*
X152406793Y-73114586D01*
X152406794Y-73114589D01*
X152409794Y-73119785D01*
X152459520Y-73205913D01*
X152534087Y-73280480D01*
X152625413Y-73333207D01*
X152727273Y-73360500D01*
X152727275Y-73360500D01*
X152832725Y-73360500D01*
X152832727Y-73360500D01*
X152934587Y-73333207D01*
X153025913Y-73280480D01*
X153100480Y-73205913D01*
X153129727Y-73155254D01*
X153180293Y-73107041D01*
X153248900Y-73093817D01*
X153313764Y-73119785D01*
X153344499Y-73155255D01*
X153379520Y-73215913D01*
X153454087Y-73290480D01*
X153545413Y-73343207D01*
X153647273Y-73370500D01*
X153647275Y-73370500D01*
X153752725Y-73370500D01*
X153752727Y-73370500D01*
X153854587Y-73343207D01*
X153945913Y-73290480D01*
X154020480Y-73215913D01*
X154055501Y-73155253D01*
X154106065Y-73107041D01*
X154174672Y-73093817D01*
X154239537Y-73119785D01*
X154270271Y-73155253D01*
X154299520Y-73205913D01*
X154374087Y-73280480D01*
X154465413Y-73333207D01*
X154567273Y-73360500D01*
X154567275Y-73360500D01*
X154672725Y-73360500D01*
X154672727Y-73360500D01*
X154774587Y-73333207D01*
X154865913Y-73280480D01*
X154940480Y-73205913D01*
X154993207Y-73114587D01*
X155020500Y-73012727D01*
X155020500Y-72907273D01*
X154993207Y-72805413D01*
X154940480Y-72714087D01*
X154865913Y-72639520D01*
X154788412Y-72594775D01*
X154774589Y-72586794D01*
X154774585Y-72586792D01*
X154758979Y-72582611D01*
X154748393Y-72579774D01*
X154688733Y-72543411D01*
X154658203Y-72480564D01*
X154666497Y-72411188D01*
X154710982Y-72357310D01*
X154748392Y-72340225D01*
X154774587Y-72333207D01*
X154865913Y-72280480D01*
X154940480Y-72205913D01*
X154993207Y-72114587D01*
X155020500Y-72012727D01*
X155020500Y-71907273D01*
X154993207Y-71805413D01*
X154940480Y-71714087D01*
X154865913Y-71639520D01*
X154799059Y-71600922D01*
X154774589Y-71586794D01*
X154774587Y-71586793D01*
X154767052Y-71584774D01*
X154707394Y-71548411D01*
X154676864Y-71485564D01*
X154685158Y-71416188D01*
X154729643Y-71362310D01*
X154767051Y-71345226D01*
X154774587Y-71343207D01*
X154865913Y-71290480D01*
X154920547Y-71235846D01*
X160673137Y-71235846D01*
X160673137Y-71341300D01*
X160700430Y-71443160D01*
X160753157Y-71534486D01*
X160827724Y-71609053D01*
X160919050Y-71661780D01*
X161020910Y-71689073D01*
X161020912Y-71689073D01*
X161126086Y-71689073D01*
X161193125Y-71708758D01*
X161238880Y-71761562D01*
X161245860Y-71780978D01*
X161248835Y-71792082D01*
X161248836Y-71792086D01*
X161248837Y-71792087D01*
X161301564Y-71883413D01*
X161376131Y-71957980D01*
X161467457Y-72010707D01*
X161569317Y-72038000D01*
X161569319Y-72038000D01*
X161674769Y-72038000D01*
X161674771Y-72038000D01*
X161776631Y-72010707D01*
X161867957Y-71957980D01*
X161942524Y-71883413D01*
X161995251Y-71792087D01*
X162022544Y-71690227D01*
X162022544Y-71584773D01*
X161995251Y-71482913D01*
X161942524Y-71391587D01*
X161867957Y-71317020D01*
X161776631Y-71264293D01*
X161674771Y-71237000D01*
X161569595Y-71237000D01*
X161502556Y-71217315D01*
X161456801Y-71164511D01*
X161449821Y-71145095D01*
X161446845Y-71133990D01*
X161446844Y-71133986D01*
X161394117Y-71042660D01*
X161319550Y-70968093D01*
X161252696Y-70929495D01*
X161228226Y-70915367D01*
X161228225Y-70915366D01*
X161228224Y-70915366D01*
X161126364Y-70888073D01*
X161020910Y-70888073D01*
X160919050Y-70915366D01*
X160919047Y-70915367D01*
X160827722Y-70968094D01*
X160753158Y-71042658D01*
X160700431Y-71133983D01*
X160700430Y-71133986D01*
X160673137Y-71235846D01*
X154920547Y-71235846D01*
X154940480Y-71215913D01*
X154993207Y-71124587D01*
X155020500Y-71022727D01*
X155020500Y-70917273D01*
X154993207Y-70815413D01*
X154940480Y-70724087D01*
X154865913Y-70649520D01*
X154774587Y-70596793D01*
X154672727Y-70569500D01*
X154567273Y-70569500D01*
X154465413Y-70596793D01*
X154465410Y-70596794D01*
X154374085Y-70649521D01*
X154299520Y-70724086D01*
X154261612Y-70789744D01*
X154211045Y-70837959D01*
X154142438Y-70851181D01*
X154077573Y-70825213D01*
X154046839Y-70789743D01*
X154020480Y-70744087D01*
X153945913Y-70669520D01*
X153854587Y-70616793D01*
X153752727Y-70589500D01*
X153647273Y-70589500D01*
X153545413Y-70616793D01*
X153545410Y-70616794D01*
X153454085Y-70669521D01*
X153379522Y-70744084D01*
X153379520Y-70744086D01*
X153379520Y-70744087D01*
X153347385Y-70799745D01*
X153296819Y-70847959D01*
X153228212Y-70861181D01*
X153163348Y-70835213D01*
X153132614Y-70799745D01*
X153100480Y-70744087D01*
X153025913Y-70669520D01*
X152934587Y-70616793D01*
X152832727Y-70589500D01*
X152727273Y-70589500D01*
X152625413Y-70616793D01*
X152625410Y-70616794D01*
X152534085Y-70669521D01*
X152459521Y-70744085D01*
X152406794Y-70835410D01*
X152406793Y-70835413D01*
X152379500Y-70937273D01*
X150600000Y-70937273D01*
X150600000Y-69517273D01*
X157739500Y-69517273D01*
X157739500Y-69622727D01*
X157755577Y-69682725D01*
X157766793Y-69724586D01*
X157766794Y-69724589D01*
X157777266Y-69742727D01*
X157819520Y-69815913D01*
X157894087Y-69890480D01*
X157985413Y-69943207D01*
X158087273Y-69970500D01*
X158087275Y-69970500D01*
X158192725Y-69970500D01*
X158192727Y-69970500D01*
X158294587Y-69943207D01*
X158385913Y-69890480D01*
X158460480Y-69815913D01*
X158513207Y-69724587D01*
X158536602Y-69637273D01*
X161459500Y-69637273D01*
X161459500Y-69742727D01*
X161486793Y-69844587D01*
X161539520Y-69935913D01*
X161614087Y-70010480D01*
X161705413Y-70063207D01*
X161807273Y-70090500D01*
X161807275Y-70090500D01*
X161912725Y-70090500D01*
X161912727Y-70090500D01*
X162014587Y-70063207D01*
X162105913Y-70010480D01*
X162180480Y-69935913D01*
X162233207Y-69844587D01*
X162235294Y-69836796D01*
X162271658Y-69777136D01*
X162334504Y-69746606D01*
X162403880Y-69754900D01*
X162457758Y-69799384D01*
X162462289Y-69807801D01*
X162462729Y-69807548D01*
X162466793Y-69814587D01*
X162519520Y-69905913D01*
X162594087Y-69980480D01*
X162685413Y-70033207D01*
X162787273Y-70060500D01*
X162787275Y-70060500D01*
X162892725Y-70060500D01*
X162892727Y-70060500D01*
X162994587Y-70033207D01*
X163085913Y-69980480D01*
X163160480Y-69905913D01*
X163201274Y-69835254D01*
X163251840Y-69787041D01*
X163320447Y-69773817D01*
X163385311Y-69799785D01*
X163416046Y-69835254D01*
X163439520Y-69875913D01*
X163514087Y-69950480D01*
X163605413Y-70003207D01*
X163707273Y-70030500D01*
X163707275Y-70030500D01*
X163812725Y-70030500D01*
X163812727Y-70030500D01*
X163914587Y-70003207D01*
X164005913Y-69950480D01*
X164080480Y-69875913D01*
X164133207Y-69784587D01*
X164160500Y-69682727D01*
X164160500Y-69577273D01*
X164133207Y-69475413D01*
X164080480Y-69384087D01*
X164005913Y-69309520D01*
X163914587Y-69256793D01*
X163812727Y-69229500D01*
X163707273Y-69229500D01*
X163605413Y-69256793D01*
X163605410Y-69256794D01*
X163514085Y-69309521D01*
X163439520Y-69384086D01*
X163398725Y-69454744D01*
X163348158Y-69502959D01*
X163279550Y-69516181D01*
X163214686Y-69490213D01*
X163183953Y-69454744D01*
X163160480Y-69414087D01*
X163085913Y-69339520D01*
X162994587Y-69286793D01*
X162892727Y-69259500D01*
X162787273Y-69259500D01*
X162685413Y-69286793D01*
X162685410Y-69286794D01*
X162594085Y-69339521D01*
X162519521Y-69414085D01*
X162466794Y-69505410D01*
X162466792Y-69505415D01*
X162464703Y-69513211D01*
X162428334Y-69572869D01*
X162365486Y-69603394D01*
X162296111Y-69595095D01*
X162242235Y-69550607D01*
X162237712Y-69542197D01*
X162237271Y-69542452D01*
X162222103Y-69516181D01*
X162180480Y-69444087D01*
X162105913Y-69369520D01*
X162015472Y-69317304D01*
X162014589Y-69316794D01*
X162014588Y-69316793D01*
X162014587Y-69316793D01*
X161912727Y-69289500D01*
X161807273Y-69289500D01*
X161705413Y-69316793D01*
X161705410Y-69316794D01*
X161614085Y-69369521D01*
X161539521Y-69444085D01*
X161486794Y-69535410D01*
X161486793Y-69535413D01*
X161459500Y-69637273D01*
X158536602Y-69637273D01*
X158540500Y-69622727D01*
X158540500Y-69517273D01*
X158513207Y-69415413D01*
X158460480Y-69324087D01*
X158460478Y-69324085D01*
X158456416Y-69317049D01*
X158458500Y-69315845D01*
X158437716Y-69262090D01*
X158451752Y-69193645D01*
X158467170Y-69172792D01*
X158466736Y-69172459D01*
X158471682Y-69166012D01*
X158471685Y-69166009D01*
X158524412Y-69074683D01*
X158551705Y-68972823D01*
X158551705Y-68867369D01*
X158524412Y-68765509D01*
X158471685Y-68674183D01*
X158397118Y-68599616D01*
X158305792Y-68546889D01*
X158203932Y-68519596D01*
X158098478Y-68519596D01*
X157996618Y-68546889D01*
X157996615Y-68546890D01*
X157905290Y-68599617D01*
X157830726Y-68674181D01*
X157777999Y-68765506D01*
X157777998Y-68765509D01*
X157750705Y-68867369D01*
X157750705Y-68972823D01*
X157777998Y-69074683D01*
X157830725Y-69166009D01*
X157830726Y-69166010D01*
X157834789Y-69173047D01*
X157832705Y-69174249D01*
X157853488Y-69228010D01*
X157839449Y-69296455D01*
X157824035Y-69317304D01*
X157824469Y-69317637D01*
X157819522Y-69324083D01*
X157766794Y-69415410D01*
X157766793Y-69415413D01*
X157739500Y-69517273D01*
X150600000Y-69517273D01*
X150600000Y-67077273D01*
X158999500Y-67077273D01*
X158999500Y-67182727D01*
X159026793Y-67284587D01*
X159079520Y-67375913D01*
X159154087Y-67450480D01*
X159224743Y-67491273D01*
X159272959Y-67541840D01*
X159286181Y-67610447D01*
X159260213Y-67675312D01*
X159224744Y-67706046D01*
X159184086Y-67729520D01*
X159109521Y-67804085D01*
X159056794Y-67895410D01*
X159056793Y-67895413D01*
X159029500Y-67997273D01*
X159029500Y-68102727D01*
X159056793Y-68204587D01*
X159109520Y-68295913D01*
X159184087Y-68370480D01*
X159275413Y-68423207D01*
X159377273Y-68450500D01*
X159377275Y-68450500D01*
X159482725Y-68450500D01*
X159482727Y-68450500D01*
X159584587Y-68423207D01*
X159675913Y-68370480D01*
X159750480Y-68295913D01*
X159803207Y-68204587D01*
X159830500Y-68102727D01*
X159830500Y-67997273D01*
X159803207Y-67895413D01*
X159750480Y-67804087D01*
X159675913Y-67729520D01*
X159605254Y-67688725D01*
X159557040Y-67638158D01*
X159543818Y-67569551D01*
X159569786Y-67504687D01*
X159605251Y-67473956D01*
X159645913Y-67450480D01*
X159720480Y-67375913D01*
X159773207Y-67284587D01*
X159800500Y-67182727D01*
X159800500Y-67077273D01*
X159773207Y-66975413D01*
X159720480Y-66884087D01*
X159645913Y-66809520D01*
X159554587Y-66756793D01*
X159452727Y-66729500D01*
X159347273Y-66729500D01*
X159245413Y-66756793D01*
X159245410Y-66756794D01*
X159154085Y-66809521D01*
X159079521Y-66884085D01*
X159026794Y-66975410D01*
X159026793Y-66975413D01*
X158999500Y-67077273D01*
X150600000Y-67077273D01*
X150600000Y-63467273D01*
X160809500Y-63467273D01*
X160809500Y-63572727D01*
X160836793Y-63674587D01*
X160889520Y-63765913D01*
X160964087Y-63840480D01*
X161055413Y-63893207D01*
X161062949Y-63895226D01*
X161122607Y-63931591D01*
X161153135Y-63994438D01*
X161144840Y-64063814D01*
X161100354Y-64117691D01*
X161062950Y-64134773D01*
X161055413Y-64136793D01*
X161055412Y-64136793D01*
X161055410Y-64136794D01*
X160964085Y-64189521D01*
X160889521Y-64264085D01*
X160836794Y-64355410D01*
X160836793Y-64355413D01*
X160809500Y-64457273D01*
X160809500Y-64562727D01*
X160836793Y-64664587D01*
X160889520Y-64755913D01*
X160964087Y-64830480D01*
X161055413Y-64883207D01*
X161055415Y-64883207D01*
X161060801Y-64885439D01*
X161115205Y-64929279D01*
X161137270Y-64995573D01*
X161119991Y-65063273D01*
X161068854Y-65110884D01*
X161060801Y-65114561D01*
X161055414Y-65116792D01*
X160964085Y-65169521D01*
X160889521Y-65244085D01*
X160836794Y-65335410D01*
X160836793Y-65335413D01*
X160809500Y-65437273D01*
X160809500Y-65542727D01*
X160836793Y-65644587D01*
X160889520Y-65735913D01*
X160964087Y-65810480D01*
X161055413Y-65863207D01*
X161157273Y-65890500D01*
X161157275Y-65890500D01*
X161262725Y-65890500D01*
X161262727Y-65890500D01*
X161364587Y-65863207D01*
X161455913Y-65810480D01*
X161530480Y-65735913D01*
X161559727Y-65685254D01*
X161610293Y-65637041D01*
X161678900Y-65623817D01*
X161743764Y-65649785D01*
X161774499Y-65685255D01*
X161809520Y-65745913D01*
X161884087Y-65820480D01*
X161975413Y-65873207D01*
X162077273Y-65900500D01*
X162077275Y-65900500D01*
X162182725Y-65900500D01*
X162182727Y-65900500D01*
X162284587Y-65873207D01*
X162375913Y-65820480D01*
X162450480Y-65745913D01*
X162485501Y-65685253D01*
X162536065Y-65637041D01*
X162604672Y-65623817D01*
X162669537Y-65649785D01*
X162700271Y-65685253D01*
X162729520Y-65735913D01*
X162804087Y-65810480D01*
X162895413Y-65863207D01*
X162997273Y-65890500D01*
X162997275Y-65890500D01*
X163102725Y-65890500D01*
X163102727Y-65890500D01*
X163204587Y-65863207D01*
X163295913Y-65810480D01*
X163370480Y-65735913D01*
X163423207Y-65644587D01*
X163450500Y-65542727D01*
X163450500Y-65437273D01*
X163423207Y-65335413D01*
X163370480Y-65244087D01*
X163295913Y-65169520D01*
X163218412Y-65124775D01*
X163204589Y-65116794D01*
X163204585Y-65116792D01*
X163188979Y-65112611D01*
X163178393Y-65109774D01*
X163118733Y-65073411D01*
X163088203Y-65010564D01*
X163096497Y-64941188D01*
X163140982Y-64887310D01*
X163178392Y-64870225D01*
X163204587Y-64863207D01*
X163295913Y-64810480D01*
X163370480Y-64735913D01*
X163423207Y-64644587D01*
X163450500Y-64542727D01*
X163450500Y-64437273D01*
X163423207Y-64335413D01*
X163370480Y-64244087D01*
X163295913Y-64169520D01*
X163229059Y-64130922D01*
X163204589Y-64116794D01*
X163204587Y-64116793D01*
X163197052Y-64114774D01*
X163137394Y-64078411D01*
X163106864Y-64015564D01*
X163115158Y-63946188D01*
X163159643Y-63892310D01*
X163197051Y-63875226D01*
X163204587Y-63873207D01*
X163295913Y-63820480D01*
X163370480Y-63745913D01*
X163423207Y-63654587D01*
X163450500Y-63552727D01*
X163450500Y-63447273D01*
X163423207Y-63345413D01*
X163370480Y-63254087D01*
X163295913Y-63179520D01*
X163204587Y-63126793D01*
X163102727Y-63099500D01*
X162997273Y-63099500D01*
X162895413Y-63126793D01*
X162895410Y-63126794D01*
X162804085Y-63179521D01*
X162729520Y-63254086D01*
X162691612Y-63319744D01*
X162641045Y-63367959D01*
X162572438Y-63381181D01*
X162507573Y-63355213D01*
X162476839Y-63319743D01*
X162450480Y-63274087D01*
X162375913Y-63199520D01*
X162284587Y-63146793D01*
X162182727Y-63119500D01*
X162077273Y-63119500D01*
X161975413Y-63146793D01*
X161975410Y-63146794D01*
X161884085Y-63199521D01*
X161809522Y-63274084D01*
X161809520Y-63274086D01*
X161809520Y-63274087D01*
X161777385Y-63329745D01*
X161726819Y-63377959D01*
X161658212Y-63391181D01*
X161593348Y-63365213D01*
X161562614Y-63329745D01*
X161530480Y-63274087D01*
X161455913Y-63199520D01*
X161364587Y-63146793D01*
X161262727Y-63119500D01*
X161157273Y-63119500D01*
X161055413Y-63146793D01*
X161055410Y-63146794D01*
X160964085Y-63199521D01*
X160889521Y-63274085D01*
X160836794Y-63365410D01*
X160836793Y-63365413D01*
X160809500Y-63467273D01*
X150600000Y-63467273D01*
X150600000Y-62271362D01*
X150619685Y-62204323D01*
X150636319Y-62183681D01*
X151093681Y-61726319D01*
X151155004Y-61692834D01*
X151181362Y-61690000D01*
X166158638Y-61690000D01*
X166225677Y-61709685D01*
G37*
%TD.AperFunction*%
%TD*%
%TA.AperFunction,Conductor*%
%TO.N,/Q4_S*%
G36*
X126135677Y-67419685D02*
G01*
X126156319Y-67436319D01*
X126393681Y-67673681D01*
X126427166Y-67735004D01*
X126430000Y-67761362D01*
X126430000Y-72028638D01*
X126410315Y-72095677D01*
X126393681Y-72116319D01*
X126186319Y-72323681D01*
X126124996Y-72357166D01*
X126098638Y-72360000D01*
X119841362Y-72360000D01*
X119774323Y-72340315D01*
X119753681Y-72323681D01*
X119516319Y-72086319D01*
X119482834Y-72024996D01*
X119480000Y-71998638D01*
X119480000Y-67981362D01*
X119499685Y-67914323D01*
X119516319Y-67893681D01*
X119973681Y-67436319D01*
X120035004Y-67402834D01*
X120061362Y-67400000D01*
X126068638Y-67400000D01*
X126135677Y-67419685D01*
G37*
%TD.AperFunction*%
%TD*%
%TA.AperFunction,Conductor*%
%TO.N,/Q1_D*%
G36*
X128955089Y-72675880D02*
G01*
X129000844Y-72728684D01*
X129010788Y-72797842D01*
X128981763Y-72861398D01*
X128975731Y-72867876D01*
X128919521Y-72924085D01*
X128866794Y-73015410D01*
X128866793Y-73015413D01*
X128839500Y-73117273D01*
X128839500Y-73222727D01*
X128866793Y-73324587D01*
X128919520Y-73415913D01*
X128994087Y-73490480D01*
X129085413Y-73543207D01*
X129085415Y-73543207D01*
X129090801Y-73545439D01*
X129145205Y-73589279D01*
X129167270Y-73655573D01*
X129149991Y-73723273D01*
X129098854Y-73770884D01*
X129090801Y-73774561D01*
X129085414Y-73776792D01*
X128994085Y-73829521D01*
X128919521Y-73904085D01*
X128866794Y-73995410D01*
X128866793Y-73995413D01*
X128839500Y-74097273D01*
X128839500Y-74202727D01*
X128866793Y-74304587D01*
X128919520Y-74395913D01*
X128994087Y-74470480D01*
X129085413Y-74523207D01*
X129187273Y-74550500D01*
X129187275Y-74550500D01*
X129292725Y-74550500D01*
X129292727Y-74550500D01*
X129394587Y-74523207D01*
X129485913Y-74470480D01*
X129560480Y-74395913D01*
X129589727Y-74345254D01*
X129640293Y-74297041D01*
X129708900Y-74283817D01*
X129773764Y-74309785D01*
X129804499Y-74345255D01*
X129839520Y-74405913D01*
X129914087Y-74480480D01*
X130005413Y-74533207D01*
X130107273Y-74560500D01*
X130107275Y-74560500D01*
X130212725Y-74560500D01*
X130212727Y-74560500D01*
X130314587Y-74533207D01*
X130405913Y-74480480D01*
X130480480Y-74405913D01*
X130515501Y-74345253D01*
X130566065Y-74297041D01*
X130634672Y-74283817D01*
X130699537Y-74309785D01*
X130730271Y-74345253D01*
X130759520Y-74395913D01*
X130834087Y-74470480D01*
X130925413Y-74523207D01*
X131027273Y-74550500D01*
X131027275Y-74550500D01*
X131132725Y-74550500D01*
X131132727Y-74550500D01*
X131234587Y-74523207D01*
X131325913Y-74470480D01*
X131400480Y-74395913D01*
X131453207Y-74304587D01*
X131480500Y-74202727D01*
X131480500Y-74097273D01*
X131453207Y-73995413D01*
X131400480Y-73904087D01*
X131325913Y-73829520D01*
X131248412Y-73784775D01*
X131234589Y-73776794D01*
X131234585Y-73776792D01*
X131218979Y-73772611D01*
X131208393Y-73769774D01*
X131148733Y-73733411D01*
X131118203Y-73670564D01*
X131126497Y-73601188D01*
X131170982Y-73547310D01*
X131208392Y-73530225D01*
X131234587Y-73523207D01*
X131325913Y-73470480D01*
X131400480Y-73395913D01*
X131453207Y-73304587D01*
X131480500Y-73202727D01*
X131480500Y-73097273D01*
X131453207Y-72995413D01*
X131400480Y-72904087D01*
X131364269Y-72867876D01*
X131330784Y-72806553D01*
X131335768Y-72736861D01*
X131377640Y-72680928D01*
X131443104Y-72656511D01*
X131451950Y-72656195D01*
X132965500Y-72656195D01*
X133032539Y-72675880D01*
X133078294Y-72728684D01*
X133089500Y-72780195D01*
X133089500Y-72862727D01*
X133116793Y-72964587D01*
X133169520Y-73055913D01*
X133244087Y-73130480D01*
X133335413Y-73183207D01*
X133342949Y-73185226D01*
X133402607Y-73221591D01*
X133433135Y-73284438D01*
X133424840Y-73353814D01*
X133380354Y-73407691D01*
X133342950Y-73424773D01*
X133335413Y-73426793D01*
X133335412Y-73426793D01*
X133335410Y-73426794D01*
X133244085Y-73479521D01*
X133169521Y-73554085D01*
X133116794Y-73645410D01*
X133116793Y-73645413D01*
X133089500Y-73747273D01*
X133089500Y-73852726D01*
X133116793Y-73954586D01*
X133116794Y-73954589D01*
X133122657Y-73964744D01*
X133169520Y-74045913D01*
X133244087Y-74120480D01*
X133335413Y-74173207D01*
X133335415Y-74173207D01*
X133340801Y-74175439D01*
X133395205Y-74219279D01*
X133417270Y-74285573D01*
X133399991Y-74353273D01*
X133348854Y-74400884D01*
X133340801Y-74404561D01*
X133335414Y-74406792D01*
X133244085Y-74459521D01*
X133169521Y-74534085D01*
X133116794Y-74625410D01*
X133116793Y-74625413D01*
X133089500Y-74727273D01*
X133089500Y-74832727D01*
X133116793Y-74934587D01*
X133169520Y-75025913D01*
X133244087Y-75100480D01*
X133335413Y-75153207D01*
X133437273Y-75180500D01*
X133437275Y-75180500D01*
X133542725Y-75180500D01*
X133542727Y-75180500D01*
X133644587Y-75153207D01*
X133735913Y-75100480D01*
X133810480Y-75025913D01*
X133839727Y-74975254D01*
X133890293Y-74927041D01*
X133958900Y-74913817D01*
X134023764Y-74939785D01*
X134054499Y-74975255D01*
X134089520Y-75035913D01*
X134164087Y-75110480D01*
X134255413Y-75163207D01*
X134357273Y-75190500D01*
X134357275Y-75190500D01*
X134396000Y-75190500D01*
X134463039Y-75210185D01*
X134508794Y-75262989D01*
X134520000Y-75314500D01*
X134520000Y-88038638D01*
X134500315Y-88105677D01*
X134483681Y-88126319D01*
X133336319Y-89273681D01*
X133274996Y-89307166D01*
X133248638Y-89310000D01*
X128490270Y-89310000D01*
X128423231Y-89290315D01*
X128377476Y-89237511D01*
X128367532Y-89168353D01*
X128371841Y-89152635D01*
X128371103Y-89152438D01*
X128373207Y-89144587D01*
X128400500Y-89042727D01*
X128400500Y-88937273D01*
X128373207Y-88835413D01*
X128320480Y-88744087D01*
X128245913Y-88669520D01*
X128154587Y-88616793D01*
X128052727Y-88589500D01*
X127947273Y-88589500D01*
X127845413Y-88616793D01*
X127845410Y-88616794D01*
X127754085Y-88669521D01*
X127679521Y-88744085D01*
X127626794Y-88835410D01*
X127626793Y-88835413D01*
X127599500Y-88937273D01*
X127599500Y-89042726D01*
X127628897Y-89152438D01*
X127625876Y-89153247D01*
X127631754Y-89208051D01*
X127600461Y-89270521D01*
X127540363Y-89306157D01*
X127509730Y-89310000D01*
X120151362Y-89310000D01*
X120084323Y-89290315D01*
X120063681Y-89273681D01*
X119146319Y-88356319D01*
X119131615Y-88329391D01*
X119115023Y-88303573D01*
X119114131Y-88297372D01*
X119112834Y-88294996D01*
X119110000Y-88268638D01*
X119110000Y-88240126D01*
X119129685Y-88173087D01*
X119172001Y-88132738D01*
X119175913Y-88130480D01*
X119175914Y-88130478D01*
X119182955Y-88126414D01*
X119183408Y-88127199D01*
X119187169Y-88126659D01*
X119239676Y-88106352D01*
X119308123Y-88120381D01*
X119343574Y-88150364D01*
X119343773Y-88150166D01*
X119346148Y-88152541D01*
X119348385Y-88154433D01*
X119349518Y-88155910D01*
X119349520Y-88155913D01*
X119424087Y-88230480D01*
X119515413Y-88283207D01*
X119617273Y-88310500D01*
X119617275Y-88310500D01*
X119722725Y-88310500D01*
X119722727Y-88310500D01*
X119824587Y-88283207D01*
X119915913Y-88230480D01*
X119990480Y-88155913D01*
X120043207Y-88064587D01*
X120070500Y-87962727D01*
X120070500Y-87883381D01*
X120090185Y-87816342D01*
X120142989Y-87770587D01*
X120212147Y-87760643D01*
X120255580Y-87778958D01*
X120257049Y-87776416D01*
X120264085Y-87780478D01*
X120264087Y-87780480D01*
X120355413Y-87833207D01*
X120457273Y-87860500D01*
X120457275Y-87860500D01*
X120562725Y-87860500D01*
X120562727Y-87860500D01*
X120664587Y-87833207D01*
X120755913Y-87780480D01*
X120830480Y-87705913D01*
X120883207Y-87614587D01*
X120910500Y-87512727D01*
X120910500Y-87407273D01*
X120883207Y-87305413D01*
X120830480Y-87214087D01*
X120755913Y-87139520D01*
X120664587Y-87086793D01*
X120562727Y-87059500D01*
X120457273Y-87059500D01*
X120355413Y-87086793D01*
X120355410Y-87086794D01*
X120264085Y-87139521D01*
X120189521Y-87214085D01*
X120136794Y-87305410D01*
X120136793Y-87305413D01*
X120109500Y-87407273D01*
X120109500Y-87486618D01*
X120089815Y-87553657D01*
X120037011Y-87599412D01*
X119967853Y-87609356D01*
X119934408Y-87599603D01*
X119919052Y-87592659D01*
X119915913Y-87589520D01*
X119824587Y-87536793D01*
X119753223Y-87517671D01*
X119744001Y-87513501D01*
X119724876Y-87497054D01*
X119703339Y-87483926D01*
X119698838Y-87474660D01*
X119691027Y-87467943D01*
X119683830Y-87443765D01*
X119672810Y-87421079D01*
X119673399Y-87408723D01*
X119671094Y-87400977D01*
X119674297Y-87389915D01*
X119674798Y-87379410D01*
X119673518Y-87379242D01*
X119674579Y-87371184D01*
X119674579Y-87265734D01*
X119674579Y-87265732D01*
X119647286Y-87163872D01*
X119594559Y-87072546D01*
X119519992Y-86997979D01*
X119428666Y-86945252D01*
X119326806Y-86917959D01*
X119234000Y-86917959D01*
X119166961Y-86898274D01*
X119121206Y-86845470D01*
X119110000Y-86793959D01*
X119110000Y-85947273D01*
X121719500Y-85947273D01*
X121719500Y-86052727D01*
X121746793Y-86154587D01*
X121799520Y-86245913D01*
X121874087Y-86320480D01*
X121965413Y-86373207D01*
X122067273Y-86400500D01*
X122067275Y-86400500D01*
X122172725Y-86400500D01*
X122172727Y-86400500D01*
X122274587Y-86373207D01*
X122365913Y-86320480D01*
X122440480Y-86245913D01*
X122493207Y-86154587D01*
X122520500Y-86052727D01*
X122520500Y-85947273D01*
X122493207Y-85845413D01*
X122448093Y-85767273D01*
X126579500Y-85767273D01*
X126579500Y-85872727D01*
X126606793Y-85974587D01*
X126659520Y-86065913D01*
X126734087Y-86140480D01*
X126825413Y-86193207D01*
X126927273Y-86220500D01*
X126927275Y-86220500D01*
X127032725Y-86220500D01*
X127032727Y-86220500D01*
X127134587Y-86193207D01*
X127225913Y-86140480D01*
X127300480Y-86065913D01*
X127353207Y-85974587D01*
X127380500Y-85872727D01*
X127380500Y-85767273D01*
X127353207Y-85665413D01*
X127300480Y-85574087D01*
X127225913Y-85499520D01*
X127134587Y-85446793D01*
X127032727Y-85419500D01*
X126927273Y-85419500D01*
X126825413Y-85446793D01*
X126825410Y-85446794D01*
X126734085Y-85499521D01*
X126659521Y-85574085D01*
X126606794Y-85665410D01*
X126606793Y-85665413D01*
X126579500Y-85767273D01*
X122448093Y-85767273D01*
X122440480Y-85754087D01*
X122365913Y-85679520D01*
X122274587Y-85626793D01*
X122172727Y-85599500D01*
X122067273Y-85599500D01*
X121965413Y-85626793D01*
X121965410Y-85626794D01*
X121874085Y-85679521D01*
X121799521Y-85754085D01*
X121746794Y-85845410D01*
X121746793Y-85845413D01*
X121719500Y-85947273D01*
X119110000Y-85947273D01*
X119110000Y-81441202D01*
X119129685Y-81374163D01*
X119182489Y-81328408D01*
X119251647Y-81318464D01*
X119266080Y-81321424D01*
X119337273Y-81340500D01*
X119337275Y-81340500D01*
X119442725Y-81340500D01*
X119442727Y-81340500D01*
X119544587Y-81313207D01*
X119635913Y-81260480D01*
X119710480Y-81185913D01*
X119763207Y-81094587D01*
X119790500Y-80992727D01*
X119790500Y-80887273D01*
X119763207Y-80785413D01*
X119710480Y-80694087D01*
X119635913Y-80619520D01*
X119544589Y-80566794D01*
X119544588Y-80566793D01*
X119477857Y-80548913D01*
X119418197Y-80512547D01*
X119387668Y-80449700D01*
X119387011Y-80445319D01*
X119386763Y-80443439D01*
X119386763Y-80443428D01*
X119359470Y-80341568D01*
X119306743Y-80250242D01*
X119232176Y-80175675D01*
X119229202Y-80173958D01*
X119171999Y-80140931D01*
X119163716Y-80132244D01*
X119152797Y-80127258D01*
X119140050Y-80107424D01*
X119123784Y-80090364D01*
X119120568Y-80077108D01*
X119115023Y-80068480D01*
X119110000Y-80033545D01*
X119110000Y-80007273D01*
X128739500Y-80007273D01*
X128739500Y-80112727D01*
X128766793Y-80214587D01*
X128787386Y-80250256D01*
X128819521Y-80305914D01*
X128860926Y-80347319D01*
X128894411Y-80408642D01*
X128889427Y-80478334D01*
X128860926Y-80522681D01*
X128819521Y-80564085D01*
X128766794Y-80655410D01*
X128766793Y-80655413D01*
X128739500Y-80757273D01*
X128739500Y-80862727D01*
X128766793Y-80964587D01*
X128816633Y-81050913D01*
X128819521Y-81055914D01*
X128875926Y-81112319D01*
X128909411Y-81173642D01*
X128904427Y-81243334D01*
X128875926Y-81287681D01*
X128819521Y-81344085D01*
X128766794Y-81435410D01*
X128766793Y-81435413D01*
X128739500Y-81537273D01*
X128739500Y-81642727D01*
X128766793Y-81744587D01*
X128819520Y-81835913D01*
X128894087Y-81910480D01*
X128985413Y-81963207D01*
X129087273Y-81990500D01*
X129087275Y-81990500D01*
X129192725Y-81990500D01*
X129192727Y-81990500D01*
X129294587Y-81963207D01*
X129385913Y-81910480D01*
X129460480Y-81835913D01*
X129489727Y-81785254D01*
X129540293Y-81737041D01*
X129608900Y-81723817D01*
X129673764Y-81749785D01*
X129704499Y-81785255D01*
X129739520Y-81845913D01*
X129814087Y-81920480D01*
X129905413Y-81973207D01*
X130007273Y-82000500D01*
X130007275Y-82000500D01*
X130112725Y-82000500D01*
X130112727Y-82000500D01*
X130214587Y-81973207D01*
X130305913Y-81920480D01*
X130380480Y-81845913D01*
X130412614Y-81790254D01*
X130463180Y-81742040D01*
X130531787Y-81728817D01*
X130596652Y-81754785D01*
X130627385Y-81790254D01*
X130659520Y-81845913D01*
X130734087Y-81920480D01*
X130825413Y-81973207D01*
X130927273Y-82000500D01*
X130927275Y-82000500D01*
X131032725Y-82000500D01*
X131032727Y-82000500D01*
X131134587Y-81973207D01*
X131225913Y-81920480D01*
X131300480Y-81845913D01*
X131353207Y-81754587D01*
X131353209Y-81754577D01*
X131355437Y-81749201D01*
X131399276Y-81694796D01*
X131465570Y-81672729D01*
X131533270Y-81690006D01*
X131580882Y-81741142D01*
X131584563Y-81749201D01*
X131586792Y-81754584D01*
X131586793Y-81754587D01*
X131639520Y-81845913D01*
X131714087Y-81920480D01*
X131805413Y-81973207D01*
X131907273Y-82000500D01*
X131907275Y-82000500D01*
X132012725Y-82000500D01*
X132012727Y-82000500D01*
X132114587Y-81973207D01*
X132205913Y-81920480D01*
X132280480Y-81845913D01*
X132333207Y-81754587D01*
X132360500Y-81652727D01*
X132360500Y-81547273D01*
X132333207Y-81445413D01*
X132280480Y-81354087D01*
X132216574Y-81290181D01*
X132183089Y-81228858D01*
X132188073Y-81159166D01*
X132216574Y-81114819D01*
X132236807Y-81094586D01*
X132280480Y-81050913D01*
X132333207Y-80959587D01*
X132360500Y-80857727D01*
X132360500Y-80752273D01*
X132333207Y-80650413D01*
X132280480Y-80559087D01*
X132216574Y-80495181D01*
X132183089Y-80433858D01*
X132188073Y-80364166D01*
X132216574Y-80319819D01*
X132230480Y-80305913D01*
X132280480Y-80255913D01*
X132333207Y-80164587D01*
X132360500Y-80062727D01*
X132360500Y-79957273D01*
X132333207Y-79855413D01*
X132280480Y-79764087D01*
X132205913Y-79689520D01*
X132114587Y-79636793D01*
X132012727Y-79609500D01*
X131907273Y-79609500D01*
X131805413Y-79636793D01*
X131805410Y-79636794D01*
X131714085Y-79689521D01*
X131639521Y-79764085D01*
X131586794Y-79855410D01*
X131586792Y-79855415D01*
X131584703Y-79863211D01*
X131548334Y-79922869D01*
X131485486Y-79953394D01*
X131416111Y-79945095D01*
X131362235Y-79900607D01*
X131357712Y-79892197D01*
X131357271Y-79892452D01*
X131353207Y-79885413D01*
X131300480Y-79794087D01*
X131225913Y-79719520D01*
X131134587Y-79666793D01*
X131032727Y-79639500D01*
X130927273Y-79639500D01*
X130825413Y-79666793D01*
X130825410Y-79666794D01*
X130734085Y-79719521D01*
X130659520Y-79794086D01*
X130621612Y-79859744D01*
X130571045Y-79907959D01*
X130502438Y-79921181D01*
X130437573Y-79895213D01*
X130406839Y-79859743D01*
X130380480Y-79814087D01*
X130305913Y-79739520D01*
X130219312Y-79689521D01*
X130214589Y-79686794D01*
X130214588Y-79686793D01*
X130214587Y-79686793D01*
X130112727Y-79659500D01*
X130007273Y-79659500D01*
X129905413Y-79686793D01*
X129905410Y-79686794D01*
X129814085Y-79739521D01*
X129739522Y-79814084D01*
X129739520Y-79814086D01*
X129739520Y-79814087D01*
X129707385Y-79869745D01*
X129656819Y-79917959D01*
X129588212Y-79931181D01*
X129523348Y-79905213D01*
X129492614Y-79869745D01*
X129460480Y-79814087D01*
X129385913Y-79739520D01*
X129299312Y-79689521D01*
X129294589Y-79686794D01*
X129294588Y-79686793D01*
X129294587Y-79686793D01*
X129192727Y-79659500D01*
X129087273Y-79659500D01*
X128985413Y-79686793D01*
X128985410Y-79686794D01*
X128894085Y-79739521D01*
X128819521Y-79814085D01*
X128766794Y-79905410D01*
X128766793Y-79905413D01*
X128739500Y-80007273D01*
X119110000Y-80007273D01*
X119110000Y-77957273D01*
X131759500Y-77957273D01*
X131759500Y-78062727D01*
X131786793Y-78164587D01*
X131839520Y-78255913D01*
X131914087Y-78330480D01*
X132005413Y-78383207D01*
X132107273Y-78410500D01*
X132107275Y-78410500D01*
X132212725Y-78410500D01*
X132212727Y-78410500D01*
X132314587Y-78383207D01*
X132405913Y-78330480D01*
X132480480Y-78255913D01*
X132533207Y-78164587D01*
X132560500Y-78062727D01*
X132560500Y-77957273D01*
X132533207Y-77855413D01*
X132480480Y-77764087D01*
X132405913Y-77689520D01*
X132314587Y-77636793D01*
X132212727Y-77609500D01*
X132107273Y-77609500D01*
X132005413Y-77636793D01*
X132005410Y-77636794D01*
X131914085Y-77689521D01*
X131839521Y-77764085D01*
X131786794Y-77855410D01*
X131786793Y-77855413D01*
X131759500Y-77957273D01*
X119110000Y-77957273D01*
X119110000Y-73647557D01*
X119129685Y-73580518D01*
X119146319Y-73559876D01*
X120013681Y-72692514D01*
X120075004Y-72659029D01*
X120101362Y-72656195D01*
X128888050Y-72656195D01*
X128955089Y-72675880D01*
G37*
%TD.AperFunction*%
%TD*%
%TA.AperFunction,Conductor*%
%TO.N,+BATT*%
G36*
X177405677Y-95269685D02*
G01*
X177426319Y-95286319D01*
X178301181Y-96161181D01*
X178334666Y-96222504D01*
X178337500Y-96248862D01*
X178337500Y-122238638D01*
X178317815Y-122305677D01*
X178301181Y-122326319D01*
X176973819Y-123653681D01*
X176912496Y-123687166D01*
X176886138Y-123690000D01*
X159851920Y-123690000D01*
X159784881Y-123670315D01*
X159739126Y-123617511D01*
X159729182Y-123548353D01*
X159732145Y-123533907D01*
X159740500Y-123502727D01*
X159740500Y-123397273D01*
X159713207Y-123295413D01*
X159660480Y-123204087D01*
X159585913Y-123129520D01*
X159494587Y-123076793D01*
X159392727Y-123049500D01*
X159287273Y-123049500D01*
X159185413Y-123076793D01*
X159185410Y-123076794D01*
X159094085Y-123129521D01*
X159019521Y-123204085D01*
X158962729Y-123302452D01*
X158959849Y-123300789D01*
X158925691Y-123343153D01*
X158859391Y-123365199D01*
X158791696Y-123347901D01*
X158748659Y-123301650D01*
X158747271Y-123302452D01*
X158738092Y-123286553D01*
X158690480Y-123204087D01*
X158615913Y-123129520D01*
X158524587Y-123076793D01*
X158422727Y-123049500D01*
X158317273Y-123049500D01*
X158215413Y-123076793D01*
X158215410Y-123076794D01*
X158124085Y-123129521D01*
X158049522Y-123204084D01*
X158049520Y-123204086D01*
X158049520Y-123204087D01*
X158022385Y-123251085D01*
X157971819Y-123299299D01*
X157903212Y-123312521D01*
X157838348Y-123286553D01*
X157807615Y-123251086D01*
X157780480Y-123204087D01*
X157705913Y-123129520D01*
X157614587Y-123076793D01*
X157512727Y-123049500D01*
X157407273Y-123049500D01*
X157305413Y-123076793D01*
X157305410Y-123076794D01*
X157214085Y-123129521D01*
X157139521Y-123204085D01*
X157086794Y-123295410D01*
X157086793Y-123295413D01*
X157059500Y-123397273D01*
X157059500Y-123502726D01*
X157067855Y-123533907D01*
X157066192Y-123603756D01*
X157027029Y-123661619D01*
X156962801Y-123689123D01*
X156948080Y-123690000D01*
X152851362Y-123690000D01*
X152784323Y-123670315D01*
X152763681Y-123653681D01*
X151397273Y-122287273D01*
X157059500Y-122287273D01*
X157059500Y-122392727D01*
X157086793Y-122494587D01*
X157139520Y-122585913D01*
X157214087Y-122660480D01*
X157305413Y-122713207D01*
X157407273Y-122740500D01*
X157407275Y-122740500D01*
X157512725Y-122740500D01*
X157512727Y-122740500D01*
X157614587Y-122713207D01*
X157705913Y-122660480D01*
X157780480Y-122585913D01*
X157807614Y-122538914D01*
X157858180Y-122490701D01*
X157926787Y-122477477D01*
X157991652Y-122503445D01*
X158022384Y-122538913D01*
X158049520Y-122585913D01*
X158124087Y-122660480D01*
X158215413Y-122713207D01*
X158317273Y-122740500D01*
X158317275Y-122740500D01*
X158422725Y-122740500D01*
X158422727Y-122740500D01*
X158524587Y-122713207D01*
X158615913Y-122660480D01*
X158690480Y-122585913D01*
X158743207Y-122494587D01*
X158743207Y-122494586D01*
X158747271Y-122487548D01*
X158750157Y-122489214D01*
X158784265Y-122446876D01*
X158850556Y-122424802D01*
X158918258Y-122442071D01*
X158961351Y-122488343D01*
X158962729Y-122487548D01*
X158966793Y-122494587D01*
X159019520Y-122585913D01*
X159094087Y-122660480D01*
X159185413Y-122713207D01*
X159287273Y-122740500D01*
X159287275Y-122740500D01*
X159392725Y-122740500D01*
X159392727Y-122740500D01*
X159494587Y-122713207D01*
X159585913Y-122660480D01*
X159660480Y-122585913D01*
X159713207Y-122494587D01*
X159740500Y-122392727D01*
X159740500Y-122287273D01*
X159713207Y-122185413D01*
X159660480Y-122094087D01*
X159585913Y-122019520D01*
X159494587Y-121966793D01*
X159392727Y-121939500D01*
X159287273Y-121939500D01*
X159185413Y-121966793D01*
X159185410Y-121966794D01*
X159094085Y-122019521D01*
X159019521Y-122094085D01*
X158962729Y-122192452D01*
X158959849Y-122190789D01*
X158925691Y-122233153D01*
X158859391Y-122255199D01*
X158791696Y-122237901D01*
X158748659Y-122191650D01*
X158747271Y-122192452D01*
X158738092Y-122176553D01*
X158690480Y-122094087D01*
X158615913Y-122019520D01*
X158524587Y-121966793D01*
X158422727Y-121939500D01*
X158317273Y-121939500D01*
X158215413Y-121966793D01*
X158215410Y-121966794D01*
X158124085Y-122019521D01*
X158049522Y-122094084D01*
X158049520Y-122094086D01*
X158049520Y-122094087D01*
X158022385Y-122141085D01*
X157971819Y-122189299D01*
X157903212Y-122202521D01*
X157838348Y-122176553D01*
X157807615Y-122141086D01*
X157780480Y-122094087D01*
X157705913Y-122019520D01*
X157614587Y-121966793D01*
X157512727Y-121939500D01*
X157407273Y-121939500D01*
X157305413Y-121966793D01*
X157305410Y-121966794D01*
X157214085Y-122019521D01*
X157139521Y-122094085D01*
X157086794Y-122185410D01*
X157086793Y-122185413D01*
X157059500Y-122287273D01*
X151397273Y-122287273D01*
X150896319Y-121786319D01*
X150862834Y-121724996D01*
X150860000Y-121698638D01*
X150860000Y-121167273D01*
X157059500Y-121167273D01*
X157059500Y-121272727D01*
X157086793Y-121374587D01*
X157139520Y-121465913D01*
X157214087Y-121540480D01*
X157305413Y-121593207D01*
X157407273Y-121620500D01*
X157407275Y-121620500D01*
X157512725Y-121620500D01*
X157512727Y-121620500D01*
X157614587Y-121593207D01*
X157705913Y-121540480D01*
X157780480Y-121465913D01*
X157807614Y-121418914D01*
X157858180Y-121370701D01*
X157926787Y-121357477D01*
X157991652Y-121383445D01*
X158022384Y-121418913D01*
X158049520Y-121465913D01*
X158124087Y-121540480D01*
X158215413Y-121593207D01*
X158317273Y-121620500D01*
X158317275Y-121620500D01*
X158422725Y-121620500D01*
X158422727Y-121620500D01*
X158524587Y-121593207D01*
X158615913Y-121540480D01*
X158690480Y-121465913D01*
X158743207Y-121374587D01*
X158743207Y-121374586D01*
X158747271Y-121367548D01*
X158750157Y-121369214D01*
X158784265Y-121326876D01*
X158850556Y-121304802D01*
X158918258Y-121322071D01*
X158961351Y-121368343D01*
X158962729Y-121367548D01*
X158966793Y-121374587D01*
X159019520Y-121465913D01*
X159094087Y-121540480D01*
X159185413Y-121593207D01*
X159287273Y-121620500D01*
X159287275Y-121620500D01*
X159392725Y-121620500D01*
X159392727Y-121620500D01*
X159494587Y-121593207D01*
X159585913Y-121540480D01*
X159660480Y-121465913D01*
X159713207Y-121374587D01*
X159740500Y-121272727D01*
X159740500Y-121167273D01*
X159713207Y-121065413D01*
X159660480Y-120974087D01*
X159585913Y-120899520D01*
X159494587Y-120846793D01*
X159392727Y-120819500D01*
X159287273Y-120819500D01*
X159185413Y-120846793D01*
X159185410Y-120846794D01*
X159094085Y-120899521D01*
X159019521Y-120974085D01*
X158962729Y-121072452D01*
X158959849Y-121070789D01*
X158925691Y-121113153D01*
X158859391Y-121135199D01*
X158791696Y-121117901D01*
X158748659Y-121071650D01*
X158747271Y-121072452D01*
X158738092Y-121056553D01*
X158690480Y-120974087D01*
X158615913Y-120899520D01*
X158524587Y-120846793D01*
X158422727Y-120819500D01*
X158317273Y-120819500D01*
X158215413Y-120846793D01*
X158215410Y-120846794D01*
X158124085Y-120899521D01*
X158049522Y-120974084D01*
X158049520Y-120974086D01*
X158049520Y-120974087D01*
X158022385Y-121021085D01*
X157971819Y-121069299D01*
X157903212Y-121082521D01*
X157838348Y-121056553D01*
X157807615Y-121021086D01*
X157780480Y-120974087D01*
X157705913Y-120899520D01*
X157614587Y-120846793D01*
X157512727Y-120819500D01*
X157407273Y-120819500D01*
X157305413Y-120846793D01*
X157305410Y-120846794D01*
X157214085Y-120899521D01*
X157139521Y-120974085D01*
X157086794Y-121065410D01*
X157086793Y-121065413D01*
X157059500Y-121167273D01*
X150860000Y-121167273D01*
X150860000Y-118657273D01*
X168659500Y-118657273D01*
X168659500Y-118762727D01*
X168686793Y-118864587D01*
X168739520Y-118955913D01*
X168814087Y-119030480D01*
X168905413Y-119083207D01*
X169007273Y-119110500D01*
X169007275Y-119110500D01*
X169112725Y-119110500D01*
X169112727Y-119110500D01*
X169214587Y-119083207D01*
X169305913Y-119030480D01*
X169380480Y-118955913D01*
X169433207Y-118864587D01*
X169460500Y-118762727D01*
X169460500Y-118657273D01*
X169446191Y-118603870D01*
X170950000Y-118603870D01*
X170950000Y-118836129D01*
X170986331Y-119065514D01*
X171058101Y-119286400D01*
X171158935Y-119484296D01*
X171163539Y-119493331D01*
X171300051Y-119681224D01*
X171464276Y-119845449D01*
X171652169Y-119981961D01*
X171749936Y-120031776D01*
X171859099Y-120087398D01*
X171859101Y-120087398D01*
X171859104Y-120087400D01*
X172079986Y-120159169D01*
X172198168Y-120177886D01*
X172309371Y-120195500D01*
X172309376Y-120195500D01*
X172541629Y-120195500D01*
X172643002Y-120179443D01*
X172771014Y-120159169D01*
X172991896Y-120087400D01*
X173198831Y-119981961D01*
X173386724Y-119845449D01*
X173550949Y-119681224D01*
X173687461Y-119493331D01*
X173792900Y-119286396D01*
X173864669Y-119065514D01*
X173884943Y-118937502D01*
X173901000Y-118836129D01*
X173901000Y-118603870D01*
X173878860Y-118464085D01*
X173864669Y-118374486D01*
X173792900Y-118153604D01*
X173792898Y-118153601D01*
X173792898Y-118153599D01*
X173687460Y-117946668D01*
X173633738Y-117872726D01*
X173557122Y-117767273D01*
X174719500Y-117767273D01*
X174719500Y-117872727D01*
X174746793Y-117974587D01*
X174799520Y-118065913D01*
X174874087Y-118140480D01*
X174929745Y-118172614D01*
X174977959Y-118223181D01*
X174991181Y-118291788D01*
X174965213Y-118356652D01*
X174929745Y-118387385D01*
X174874087Y-118419520D01*
X174874084Y-118419522D01*
X174799521Y-118494085D01*
X174746794Y-118585410D01*
X174746793Y-118585413D01*
X174719500Y-118687273D01*
X174719500Y-118792727D01*
X174746793Y-118894587D01*
X174799520Y-118985913D01*
X174874087Y-119060480D01*
X174965413Y-119113207D01*
X174965415Y-119113207D01*
X174970801Y-119115439D01*
X175025205Y-119159279D01*
X175047270Y-119225573D01*
X175029991Y-119293273D01*
X174978854Y-119340884D01*
X174970801Y-119344561D01*
X174965414Y-119346792D01*
X174874085Y-119399521D01*
X174799521Y-119474085D01*
X174746794Y-119565410D01*
X174746793Y-119565413D01*
X174719500Y-119667273D01*
X174719500Y-119772727D01*
X174746793Y-119874587D01*
X174799520Y-119965913D01*
X174874087Y-120040480D01*
X174965413Y-120093207D01*
X175067273Y-120120500D01*
X175067275Y-120120500D01*
X175172725Y-120120500D01*
X175172727Y-120120500D01*
X175274587Y-120093207D01*
X175365913Y-120040480D01*
X175429819Y-119976574D01*
X175491142Y-119943089D01*
X175560834Y-119948073D01*
X175605181Y-119976574D01*
X175669087Y-120040480D01*
X175760413Y-120093207D01*
X175862273Y-120120500D01*
X175862275Y-120120500D01*
X175967725Y-120120500D01*
X175967727Y-120120500D01*
X176069587Y-120093207D01*
X176160913Y-120040480D01*
X176224819Y-119976574D01*
X176286142Y-119943089D01*
X176355834Y-119948073D01*
X176400181Y-119976574D01*
X176464087Y-120040480D01*
X176555413Y-120093207D01*
X176657273Y-120120500D01*
X176657275Y-120120500D01*
X176762725Y-120120500D01*
X176762727Y-120120500D01*
X176864587Y-120093207D01*
X176955913Y-120040480D01*
X177030480Y-119965913D01*
X177083207Y-119874587D01*
X177110500Y-119772727D01*
X177110500Y-119667273D01*
X177083207Y-119565413D01*
X177030480Y-119474087D01*
X176955913Y-119399520D01*
X176889059Y-119360922D01*
X176864589Y-119346794D01*
X176864588Y-119346793D01*
X176864587Y-119346793D01*
X176864584Y-119346792D01*
X176864581Y-119346791D01*
X176856790Y-119344703D01*
X176797131Y-119308336D01*
X176766605Y-119245488D01*
X176774903Y-119176112D01*
X176819391Y-119122236D01*
X176827803Y-119117714D01*
X176827548Y-119117271D01*
X176834590Y-119113205D01*
X176925913Y-119060480D01*
X177000480Y-118985913D01*
X177053207Y-118894587D01*
X177080500Y-118792727D01*
X177080500Y-118687273D01*
X177053207Y-118585413D01*
X177000480Y-118494087D01*
X176925913Y-118419520D01*
X176855254Y-118378725D01*
X176807040Y-118328158D01*
X176793818Y-118259551D01*
X176819786Y-118194687D01*
X176855251Y-118163956D01*
X176895913Y-118140480D01*
X176970480Y-118065913D01*
X177023207Y-117974587D01*
X177050500Y-117872727D01*
X177050500Y-117767273D01*
X177023207Y-117665413D01*
X176970480Y-117574087D01*
X176895913Y-117499520D01*
X176804587Y-117446793D01*
X176702727Y-117419500D01*
X176597273Y-117419500D01*
X176495413Y-117446793D01*
X176495410Y-117446794D01*
X176404085Y-117499521D01*
X176362681Y-117540926D01*
X176301358Y-117574411D01*
X176231666Y-117569427D01*
X176187319Y-117540926D01*
X176145914Y-117499521D01*
X176145913Y-117499520D01*
X176054587Y-117446793D01*
X175952727Y-117419500D01*
X175847273Y-117419500D01*
X175745413Y-117446793D01*
X175745410Y-117446794D01*
X175654085Y-117499521D01*
X175597681Y-117555926D01*
X175536358Y-117589411D01*
X175466666Y-117584427D01*
X175422319Y-117555926D01*
X175365914Y-117499521D01*
X175365913Y-117499520D01*
X175274587Y-117446793D01*
X175172727Y-117419500D01*
X175067273Y-117419500D01*
X174965413Y-117446793D01*
X174965410Y-117446794D01*
X174874085Y-117499521D01*
X174799521Y-117574085D01*
X174746794Y-117665410D01*
X174746793Y-117665413D01*
X174719500Y-117767273D01*
X173557122Y-117767273D01*
X173550949Y-117758776D01*
X173386724Y-117594551D01*
X173198831Y-117458039D01*
X173176760Y-117446793D01*
X172991900Y-117352601D01*
X172771014Y-117280831D01*
X172541629Y-117244500D01*
X172541624Y-117244500D01*
X172309376Y-117244500D01*
X172309371Y-117244500D01*
X172079985Y-117280831D01*
X171859099Y-117352601D01*
X171652168Y-117458039D01*
X171464273Y-117594553D01*
X171300053Y-117758773D01*
X171163539Y-117946668D01*
X171058101Y-118153599D01*
X170986331Y-118374485D01*
X170950000Y-118603870D01*
X169446191Y-118603870D01*
X169433207Y-118555413D01*
X169380480Y-118464087D01*
X169305913Y-118389520D01*
X169214587Y-118336793D01*
X169112727Y-118309500D01*
X169007273Y-118309500D01*
X168905413Y-118336793D01*
X168905410Y-118336794D01*
X168814085Y-118389521D01*
X168739521Y-118464085D01*
X168686794Y-118555410D01*
X168686793Y-118555413D01*
X168659500Y-118657273D01*
X150860000Y-118657273D01*
X150860000Y-113117273D01*
X156989500Y-113117273D01*
X156989500Y-113222727D01*
X157016793Y-113324587D01*
X157069520Y-113415913D01*
X157144087Y-113490480D01*
X157235413Y-113543207D01*
X157337273Y-113570500D01*
X157337275Y-113570500D01*
X157442725Y-113570500D01*
X157442727Y-113570500D01*
X157544587Y-113543207D01*
X157635913Y-113490480D01*
X157710480Y-113415913D01*
X157763207Y-113324587D01*
X157790500Y-113222727D01*
X157790500Y-113187273D01*
X164959500Y-113187273D01*
X164959500Y-113292727D01*
X164986793Y-113394587D01*
X165039520Y-113485913D01*
X165114087Y-113560480D01*
X165205413Y-113613207D01*
X165307273Y-113640500D01*
X165307275Y-113640500D01*
X165412725Y-113640500D01*
X165412727Y-113640500D01*
X165514587Y-113613207D01*
X165605913Y-113560480D01*
X165680480Y-113485913D01*
X165733207Y-113394587D01*
X165760500Y-113292727D01*
X165760500Y-113187273D01*
X165733207Y-113085413D01*
X165680480Y-112994087D01*
X165605913Y-112919520D01*
X165514587Y-112866793D01*
X165412727Y-112839500D01*
X165307273Y-112839500D01*
X165205413Y-112866793D01*
X165205410Y-112866794D01*
X165114085Y-112919521D01*
X165039521Y-112994085D01*
X164986794Y-113085410D01*
X164986793Y-113085413D01*
X164959500Y-113187273D01*
X157790500Y-113187273D01*
X157790500Y-113117273D01*
X157763207Y-113015413D01*
X157710480Y-112924087D01*
X157635913Y-112849520D01*
X157544587Y-112796793D01*
X157442727Y-112769500D01*
X157337273Y-112769500D01*
X157235413Y-112796793D01*
X157235410Y-112796794D01*
X157144085Y-112849521D01*
X157069521Y-112924085D01*
X157016794Y-113015410D01*
X157016793Y-113015413D01*
X156989500Y-113117273D01*
X150860000Y-113117273D01*
X150860000Y-110477273D01*
X152179500Y-110477273D01*
X152179500Y-110582727D01*
X152206793Y-110684587D01*
X152259520Y-110775913D01*
X152334087Y-110850480D01*
X152425413Y-110903207D01*
X152527273Y-110930500D01*
X152527275Y-110930500D01*
X152632725Y-110930500D01*
X152632727Y-110930500D01*
X152734587Y-110903207D01*
X152825913Y-110850480D01*
X152900480Y-110775913D01*
X152953207Y-110684587D01*
X152980500Y-110582727D01*
X152980500Y-110477273D01*
X152953207Y-110375413D01*
X152900480Y-110284087D01*
X152825913Y-110209520D01*
X152734587Y-110156793D01*
X152632727Y-110129500D01*
X152527273Y-110129500D01*
X152425413Y-110156793D01*
X152425410Y-110156794D01*
X152334085Y-110209521D01*
X152259521Y-110284085D01*
X152206794Y-110375410D01*
X152206793Y-110375413D01*
X152179500Y-110477273D01*
X150860000Y-110477273D01*
X150860000Y-108977273D01*
X162959500Y-108977273D01*
X162959500Y-109082727D01*
X162986793Y-109184587D01*
X163039520Y-109275913D01*
X163114087Y-109350480D01*
X163205413Y-109403207D01*
X163307273Y-109430500D01*
X163307275Y-109430500D01*
X163412725Y-109430500D01*
X163412727Y-109430500D01*
X163514587Y-109403207D01*
X163605913Y-109350480D01*
X163680480Y-109275913D01*
X163707614Y-109228914D01*
X163758180Y-109180701D01*
X163826787Y-109167477D01*
X163891652Y-109193445D01*
X163922384Y-109228913D01*
X163949520Y-109275913D01*
X164024087Y-109350480D01*
X164115413Y-109403207D01*
X164217273Y-109430500D01*
X164217275Y-109430500D01*
X164322725Y-109430500D01*
X164322727Y-109430500D01*
X164424587Y-109403207D01*
X164515913Y-109350480D01*
X164590480Y-109275913D01*
X164643207Y-109184587D01*
X164643207Y-109184586D01*
X164647271Y-109177548D01*
X164650157Y-109179214D01*
X164684265Y-109136876D01*
X164750556Y-109114802D01*
X164818258Y-109132071D01*
X164861351Y-109178343D01*
X164862729Y-109177548D01*
X164866793Y-109184587D01*
X164919520Y-109275913D01*
X164994087Y-109350480D01*
X165085413Y-109403207D01*
X165187273Y-109430500D01*
X165187275Y-109430500D01*
X165292725Y-109430500D01*
X165292727Y-109430500D01*
X165394587Y-109403207D01*
X165485913Y-109350480D01*
X165560480Y-109275913D01*
X165613207Y-109184587D01*
X165640500Y-109082727D01*
X165640500Y-108977273D01*
X165613207Y-108875413D01*
X165560480Y-108784087D01*
X165485913Y-108709520D01*
X165394587Y-108656793D01*
X165292727Y-108629500D01*
X165187273Y-108629500D01*
X165085413Y-108656793D01*
X165085410Y-108656794D01*
X164994085Y-108709521D01*
X164919521Y-108784085D01*
X164862729Y-108882452D01*
X164859849Y-108880789D01*
X164825691Y-108923153D01*
X164759391Y-108945199D01*
X164691696Y-108927901D01*
X164648659Y-108881650D01*
X164647271Y-108882452D01*
X164638092Y-108866553D01*
X164590480Y-108784087D01*
X164515913Y-108709520D01*
X164424587Y-108656793D01*
X164322727Y-108629500D01*
X164217273Y-108629500D01*
X164115413Y-108656793D01*
X164115410Y-108656794D01*
X164024085Y-108709521D01*
X163949522Y-108784084D01*
X163949520Y-108784086D01*
X163949520Y-108784087D01*
X163922385Y-108831085D01*
X163871819Y-108879299D01*
X163803212Y-108892521D01*
X163738348Y-108866553D01*
X163707615Y-108831086D01*
X163680480Y-108784087D01*
X163605913Y-108709520D01*
X163514587Y-108656793D01*
X163412727Y-108629500D01*
X163307273Y-108629500D01*
X163205413Y-108656793D01*
X163205410Y-108656794D01*
X163114085Y-108709521D01*
X163039521Y-108784085D01*
X162986794Y-108875410D01*
X162986793Y-108875413D01*
X162959500Y-108977273D01*
X150860000Y-108977273D01*
X150860000Y-107867273D01*
X162959500Y-107867273D01*
X162959500Y-107972727D01*
X162986793Y-108074587D01*
X163039520Y-108165913D01*
X163114087Y-108240480D01*
X163205413Y-108293207D01*
X163307273Y-108320500D01*
X163307275Y-108320500D01*
X163412725Y-108320500D01*
X163412727Y-108320500D01*
X163514587Y-108293207D01*
X163605913Y-108240480D01*
X163680480Y-108165913D01*
X163707614Y-108118914D01*
X163758180Y-108070701D01*
X163826787Y-108057477D01*
X163891652Y-108083445D01*
X163922384Y-108118913D01*
X163949520Y-108165913D01*
X164024087Y-108240480D01*
X164115413Y-108293207D01*
X164217273Y-108320500D01*
X164217275Y-108320500D01*
X164322725Y-108320500D01*
X164322727Y-108320500D01*
X164424587Y-108293207D01*
X164515913Y-108240480D01*
X164590480Y-108165913D01*
X164643207Y-108074587D01*
X164643207Y-108074586D01*
X164647271Y-108067548D01*
X164650157Y-108069214D01*
X164684265Y-108026876D01*
X164750556Y-108004802D01*
X164818258Y-108022071D01*
X164861351Y-108068343D01*
X164862729Y-108067548D01*
X164866793Y-108074587D01*
X164919520Y-108165913D01*
X164994087Y-108240480D01*
X165085413Y-108293207D01*
X165187273Y-108320500D01*
X165187275Y-108320500D01*
X165292725Y-108320500D01*
X165292727Y-108320500D01*
X165394587Y-108293207D01*
X165485913Y-108240480D01*
X165560480Y-108165913D01*
X165613207Y-108074587D01*
X165640500Y-107972727D01*
X165640500Y-107867273D01*
X165614647Y-107770789D01*
X165614248Y-107769299D01*
X165613207Y-107765413D01*
X165602734Y-107747273D01*
X170329500Y-107747273D01*
X170329500Y-107852726D01*
X170356793Y-107954586D01*
X170356794Y-107954589D01*
X170367266Y-107972727D01*
X170409520Y-108045913D01*
X170484087Y-108120480D01*
X170575413Y-108173207D01*
X170677273Y-108200500D01*
X170677275Y-108200500D01*
X170782725Y-108200500D01*
X170782727Y-108200500D01*
X170884587Y-108173207D01*
X170975913Y-108120480D01*
X171050480Y-108045913D01*
X171103207Y-107954587D01*
X171130500Y-107852727D01*
X171130500Y-107747273D01*
X171103207Y-107645413D01*
X171050480Y-107554087D01*
X170975913Y-107479520D01*
X170884587Y-107426793D01*
X170782727Y-107399500D01*
X170677273Y-107399500D01*
X170575413Y-107426793D01*
X170575410Y-107426794D01*
X170484085Y-107479521D01*
X170409521Y-107554085D01*
X170356794Y-107645410D01*
X170356793Y-107645413D01*
X170329500Y-107747273D01*
X165602734Y-107747273D01*
X165560480Y-107674087D01*
X165485913Y-107599520D01*
X165394587Y-107546793D01*
X165292727Y-107519500D01*
X165187273Y-107519500D01*
X165085413Y-107546793D01*
X165085410Y-107546794D01*
X164994085Y-107599521D01*
X164919521Y-107674085D01*
X164862729Y-107772452D01*
X164859849Y-107770789D01*
X164825691Y-107813153D01*
X164759391Y-107835199D01*
X164691696Y-107817901D01*
X164648659Y-107771650D01*
X164647271Y-107772452D01*
X164632734Y-107747273D01*
X164590480Y-107674087D01*
X164515913Y-107599520D01*
X164424587Y-107546793D01*
X164322727Y-107519500D01*
X164217273Y-107519500D01*
X164115413Y-107546793D01*
X164115410Y-107546794D01*
X164024085Y-107599521D01*
X163949522Y-107674084D01*
X163949520Y-107674086D01*
X163949520Y-107674087D01*
X163922385Y-107721085D01*
X163871819Y-107769299D01*
X163803212Y-107782521D01*
X163738348Y-107756553D01*
X163707615Y-107721086D01*
X163680480Y-107674087D01*
X163605913Y-107599520D01*
X163514587Y-107546793D01*
X163412727Y-107519500D01*
X163307273Y-107519500D01*
X163205413Y-107546793D01*
X163205410Y-107546794D01*
X163114085Y-107599521D01*
X163039521Y-107674085D01*
X162986794Y-107765410D01*
X162986793Y-107765413D01*
X162959500Y-107867273D01*
X150860000Y-107867273D01*
X150860000Y-106747273D01*
X162959500Y-106747273D01*
X162959500Y-106852727D01*
X162986793Y-106954587D01*
X163039520Y-107045913D01*
X163114087Y-107120480D01*
X163205413Y-107173207D01*
X163307273Y-107200500D01*
X163307275Y-107200500D01*
X163412725Y-107200500D01*
X163412727Y-107200500D01*
X163514587Y-107173207D01*
X163605913Y-107120480D01*
X163680480Y-107045913D01*
X163707614Y-106998914D01*
X163758180Y-106950701D01*
X163826787Y-106937477D01*
X163891652Y-106963445D01*
X163922384Y-106998913D01*
X163949520Y-107045913D01*
X164024087Y-107120480D01*
X164115413Y-107173207D01*
X164217273Y-107200500D01*
X164217275Y-107200500D01*
X164322725Y-107200500D01*
X164322727Y-107200500D01*
X164424587Y-107173207D01*
X164515913Y-107120480D01*
X164590480Y-107045913D01*
X164643207Y-106954587D01*
X164643207Y-106954586D01*
X164647271Y-106947548D01*
X164650157Y-106949214D01*
X164684265Y-106906876D01*
X164750556Y-106884802D01*
X164818258Y-106902071D01*
X164861351Y-106948343D01*
X164862729Y-106947548D01*
X164866793Y-106954587D01*
X164919520Y-107045913D01*
X164994087Y-107120480D01*
X165085413Y-107173207D01*
X165187273Y-107200500D01*
X165187275Y-107200500D01*
X165292725Y-107200500D01*
X165292727Y-107200500D01*
X165394587Y-107173207D01*
X165485913Y-107120480D01*
X165560480Y-107045913D01*
X165613207Y-106954587D01*
X165640500Y-106852727D01*
X165640500Y-106747273D01*
X165613207Y-106645413D01*
X165560480Y-106554087D01*
X165485913Y-106479520D01*
X165394587Y-106426793D01*
X165292727Y-106399500D01*
X165187273Y-106399500D01*
X165085413Y-106426793D01*
X165085410Y-106426794D01*
X164994085Y-106479521D01*
X164919521Y-106554085D01*
X164862729Y-106652452D01*
X164859849Y-106650789D01*
X164825691Y-106693153D01*
X164759391Y-106715199D01*
X164691696Y-106697901D01*
X164648659Y-106651650D01*
X164647271Y-106652452D01*
X164638092Y-106636553D01*
X164590480Y-106554087D01*
X164515913Y-106479520D01*
X164424587Y-106426793D01*
X164322727Y-106399500D01*
X164217273Y-106399500D01*
X164115413Y-106426793D01*
X164115410Y-106426794D01*
X164024085Y-106479521D01*
X163949522Y-106554084D01*
X163949520Y-106554086D01*
X163949520Y-106554087D01*
X163922385Y-106601085D01*
X163871819Y-106649299D01*
X163803212Y-106662521D01*
X163738348Y-106636553D01*
X163707615Y-106601086D01*
X163680480Y-106554087D01*
X163605913Y-106479520D01*
X163514587Y-106426793D01*
X163412727Y-106399500D01*
X163307273Y-106399500D01*
X163205413Y-106426793D01*
X163205410Y-106426794D01*
X163114085Y-106479521D01*
X163039521Y-106554085D01*
X162986794Y-106645410D01*
X162986793Y-106645413D01*
X162959500Y-106747273D01*
X150860000Y-106747273D01*
X150860000Y-104047273D01*
X156259500Y-104047273D01*
X156259500Y-104152727D01*
X156286793Y-104254587D01*
X156339520Y-104345913D01*
X156414087Y-104420480D01*
X156484743Y-104461273D01*
X156532959Y-104511840D01*
X156546181Y-104580447D01*
X156520213Y-104645312D01*
X156484744Y-104676046D01*
X156444086Y-104699520D01*
X156369521Y-104774085D01*
X156316794Y-104865410D01*
X156316793Y-104865413D01*
X156289500Y-104967273D01*
X156289500Y-105072727D01*
X156316793Y-105174587D01*
X156369520Y-105265913D01*
X156444087Y-105340480D01*
X156535413Y-105393207D01*
X156543205Y-105395295D01*
X156602864Y-105431659D01*
X156633393Y-105494506D01*
X156625098Y-105563882D01*
X156580613Y-105617760D01*
X156572199Y-105622292D01*
X156572452Y-105622729D01*
X156474085Y-105679521D01*
X156399521Y-105754085D01*
X156346794Y-105845410D01*
X156346793Y-105845413D01*
X156319500Y-105947273D01*
X156319500Y-106052727D01*
X156346793Y-106154587D01*
X156399520Y-106245913D01*
X156474087Y-106320480D01*
X156565413Y-106373207D01*
X156667273Y-106400500D01*
X156667275Y-106400500D01*
X156772725Y-106400500D01*
X156772727Y-106400500D01*
X156874587Y-106373207D01*
X156965913Y-106320480D01*
X157040480Y-106245913D01*
X157093207Y-106154587D01*
X157120500Y-106052727D01*
X157120500Y-105947273D01*
X157093207Y-105845413D01*
X157040480Y-105754087D01*
X156965913Y-105679520D01*
X156874587Y-105626793D01*
X156874584Y-105626792D01*
X156874581Y-105626791D01*
X156866790Y-105624703D01*
X156807131Y-105588336D01*
X156776605Y-105525488D01*
X156784903Y-105456112D01*
X156829391Y-105402236D01*
X156837803Y-105397714D01*
X156837548Y-105397271D01*
X156844590Y-105393205D01*
X156935913Y-105340480D01*
X157010480Y-105265913D01*
X157063207Y-105174587D01*
X157090500Y-105072727D01*
X157090500Y-104967273D01*
X157063207Y-104865413D01*
X157010480Y-104774087D01*
X156935913Y-104699520D01*
X156865254Y-104658725D01*
X156817040Y-104608158D01*
X156803818Y-104539551D01*
X156829786Y-104474687D01*
X156865251Y-104443956D01*
X156905913Y-104420480D01*
X156980480Y-104345913D01*
X157033207Y-104254587D01*
X157060500Y-104152727D01*
X157060500Y-104047273D01*
X157033207Y-103945413D01*
X156980480Y-103854087D01*
X156905913Y-103779520D01*
X156814587Y-103726793D01*
X156712727Y-103699500D01*
X156607273Y-103699500D01*
X156505413Y-103726793D01*
X156505410Y-103726794D01*
X156414085Y-103779521D01*
X156339521Y-103854085D01*
X156286794Y-103945410D01*
X156286793Y-103945413D01*
X156259500Y-104047273D01*
X150860000Y-104047273D01*
X150860000Y-102250606D01*
X172299500Y-102250606D01*
X172299500Y-102356060D01*
X172326793Y-102457920D01*
X172379520Y-102549246D01*
X172454087Y-102623813D01*
X172545413Y-102676540D01*
X172647273Y-102703833D01*
X172647275Y-102703833D01*
X172752725Y-102703833D01*
X172752727Y-102703833D01*
X172854587Y-102676540D01*
X172945913Y-102623813D01*
X173020480Y-102549246D01*
X173073207Y-102457920D01*
X173100500Y-102356060D01*
X173100500Y-102250606D01*
X173914500Y-102250606D01*
X173914500Y-102356060D01*
X173941793Y-102457920D01*
X173994520Y-102549246D01*
X174069087Y-102623813D01*
X174160413Y-102676540D01*
X174262273Y-102703833D01*
X174262275Y-102703833D01*
X174367725Y-102703833D01*
X174367727Y-102703833D01*
X174469587Y-102676540D01*
X174560913Y-102623813D01*
X174635480Y-102549246D01*
X174688207Y-102457920D01*
X174715500Y-102356060D01*
X174715500Y-102250606D01*
X175429500Y-102250606D01*
X175429500Y-102356060D01*
X175456793Y-102457920D01*
X175509520Y-102549246D01*
X175584087Y-102623813D01*
X175675413Y-102676540D01*
X175777273Y-102703833D01*
X175777275Y-102703833D01*
X175882725Y-102703833D01*
X175882727Y-102703833D01*
X175984587Y-102676540D01*
X176075913Y-102623813D01*
X176150480Y-102549246D01*
X176203207Y-102457920D01*
X176230500Y-102356060D01*
X176230500Y-102250606D01*
X176203207Y-102148746D01*
X176150480Y-102057420D01*
X176075913Y-101982853D01*
X175984587Y-101930126D01*
X175882727Y-101902833D01*
X175777273Y-101902833D01*
X175750081Y-101910118D01*
X175750079Y-101910119D01*
X175675411Y-101930126D01*
X175675410Y-101930127D01*
X175584085Y-101982854D01*
X175509521Y-102057418D01*
X175456794Y-102148743D01*
X175456793Y-102148746D01*
X175429500Y-102250606D01*
X174715500Y-102250606D01*
X174688207Y-102148746D01*
X174635480Y-102057420D01*
X174560913Y-101982853D01*
X174469587Y-101930126D01*
X174367727Y-101902833D01*
X174262273Y-101902833D01*
X174243459Y-101907873D01*
X174243457Y-101907874D01*
X174160411Y-101930126D01*
X174160410Y-101930127D01*
X174069085Y-101982854D01*
X173994521Y-102057418D01*
X173941794Y-102148743D01*
X173941793Y-102148746D01*
X173914500Y-102250606D01*
X173100500Y-102250606D01*
X173073207Y-102148746D01*
X173020480Y-102057420D01*
X172945913Y-101982853D01*
X172854587Y-101930126D01*
X172752727Y-101902833D01*
X172647273Y-101902833D01*
X172545413Y-101930126D01*
X172545410Y-101930127D01*
X172454085Y-101982854D01*
X172379521Y-102057418D01*
X172326794Y-102148743D01*
X172326793Y-102148746D01*
X172299500Y-102250606D01*
X150860000Y-102250606D01*
X150860000Y-101210606D01*
X172299500Y-101210606D01*
X172299500Y-101316060D01*
X172326793Y-101417920D01*
X172379520Y-101509246D01*
X172454087Y-101583813D01*
X172545413Y-101636540D01*
X172647273Y-101663833D01*
X172752727Y-101663833D01*
X172854587Y-101636540D01*
X172945913Y-101583813D01*
X173020480Y-101509246D01*
X173073207Y-101417920D01*
X173100500Y-101316060D01*
X173100500Y-101210606D01*
X173909500Y-101210606D01*
X173909500Y-101316060D01*
X173936793Y-101417920D01*
X173989520Y-101509246D01*
X174064087Y-101583813D01*
X174155413Y-101636540D01*
X174257273Y-101663833D01*
X174362727Y-101663833D01*
X174464587Y-101636540D01*
X174555913Y-101583813D01*
X174630480Y-101509246D01*
X174683207Y-101417920D01*
X174710500Y-101316060D01*
X174710500Y-101210606D01*
X175399500Y-101210606D01*
X175399500Y-101316060D01*
X175426793Y-101417920D01*
X175479520Y-101509246D01*
X175554087Y-101583813D01*
X175645413Y-101636540D01*
X175747273Y-101663833D01*
X175852727Y-101663833D01*
X175954587Y-101636540D01*
X176045913Y-101583813D01*
X176120480Y-101509246D01*
X176173207Y-101417920D01*
X176200500Y-101316060D01*
X176200500Y-101210606D01*
X176173207Y-101108746D01*
X176120480Y-101017420D01*
X176045913Y-100942853D01*
X175954587Y-100890126D01*
X175852727Y-100862833D01*
X175747273Y-100862833D01*
X175645413Y-100890126D01*
X175645410Y-100890127D01*
X175554085Y-100942854D01*
X175479521Y-101017418D01*
X175426794Y-101108743D01*
X175426793Y-101108746D01*
X175399500Y-101210606D01*
X174710500Y-101210606D01*
X174683207Y-101108746D01*
X174630480Y-101017420D01*
X174555913Y-100942853D01*
X174464587Y-100890126D01*
X174362727Y-100862833D01*
X174257273Y-100862833D01*
X174155413Y-100890126D01*
X174155410Y-100890127D01*
X174064085Y-100942854D01*
X173989521Y-101017418D01*
X173936794Y-101108743D01*
X173936793Y-101108746D01*
X173909500Y-101210606D01*
X173100500Y-101210606D01*
X173073207Y-101108746D01*
X173020480Y-101017420D01*
X172945913Y-100942853D01*
X172854587Y-100890126D01*
X172752727Y-100862833D01*
X172647273Y-100862833D01*
X172545413Y-100890126D01*
X172545410Y-100890127D01*
X172454085Y-100942854D01*
X172379521Y-101017418D01*
X172326794Y-101108743D01*
X172326793Y-101108746D01*
X172299500Y-101210606D01*
X150860000Y-101210606D01*
X150860000Y-100090606D01*
X172299500Y-100090606D01*
X172299500Y-100196060D01*
X172326793Y-100297920D01*
X172379520Y-100389246D01*
X172454087Y-100463813D01*
X172545413Y-100516540D01*
X172647273Y-100543833D01*
X172647275Y-100543833D01*
X172752725Y-100543833D01*
X172752727Y-100543833D01*
X172854587Y-100516540D01*
X172945913Y-100463813D01*
X173020480Y-100389246D01*
X173073207Y-100297920D01*
X173100500Y-100196060D01*
X173100500Y-100090606D01*
X173899500Y-100090606D01*
X173899500Y-100196060D01*
X173926793Y-100297920D01*
X173979520Y-100389246D01*
X174054087Y-100463813D01*
X174145413Y-100516540D01*
X174247273Y-100543833D01*
X174247275Y-100543833D01*
X174352725Y-100543833D01*
X174352727Y-100543833D01*
X174454587Y-100516540D01*
X174545913Y-100463813D01*
X174620480Y-100389246D01*
X174673207Y-100297920D01*
X174700500Y-100196060D01*
X174700500Y-100090606D01*
X175369500Y-100090606D01*
X175369500Y-100196060D01*
X175396793Y-100297920D01*
X175449520Y-100389246D01*
X175524087Y-100463813D01*
X175615413Y-100516540D01*
X175717273Y-100543833D01*
X175717275Y-100543833D01*
X175822725Y-100543833D01*
X175822727Y-100543833D01*
X175924587Y-100516540D01*
X176015913Y-100463813D01*
X176090480Y-100389246D01*
X176143207Y-100297920D01*
X176170500Y-100196060D01*
X176170500Y-100090606D01*
X176143207Y-99988746D01*
X176090480Y-99897420D01*
X176015913Y-99822853D01*
X175924587Y-99770126D01*
X175822727Y-99742833D01*
X175717273Y-99742833D01*
X175615413Y-99770126D01*
X175615410Y-99770127D01*
X175524085Y-99822854D01*
X175449521Y-99897418D01*
X175396794Y-99988743D01*
X175396793Y-99988746D01*
X175369500Y-100090606D01*
X174700500Y-100090606D01*
X174673207Y-99988746D01*
X174620480Y-99897420D01*
X174545913Y-99822853D01*
X174454587Y-99770126D01*
X174352727Y-99742833D01*
X174247273Y-99742833D01*
X174145413Y-99770126D01*
X174145410Y-99770127D01*
X174054085Y-99822854D01*
X173979521Y-99897418D01*
X173926794Y-99988743D01*
X173926793Y-99988746D01*
X173899500Y-100090606D01*
X173100500Y-100090606D01*
X173073207Y-99988746D01*
X173020480Y-99897420D01*
X172945913Y-99822853D01*
X172854587Y-99770126D01*
X172752727Y-99742833D01*
X172647273Y-99742833D01*
X172545413Y-99770126D01*
X172545410Y-99770127D01*
X172454085Y-99822854D01*
X172379521Y-99897418D01*
X172326794Y-99988743D01*
X172326793Y-99988746D01*
X172299500Y-100090606D01*
X150860000Y-100090606D01*
X150860000Y-96716551D01*
X150879685Y-96649512D01*
X150932489Y-96603757D01*
X151001647Y-96593813D01*
X151065203Y-96622838D01*
X151071681Y-96628870D01*
X152693181Y-98250370D01*
X152726666Y-98311693D01*
X152729500Y-98338051D01*
X152729500Y-98392726D01*
X152756793Y-98494586D01*
X152756794Y-98494589D01*
X152791363Y-98554464D01*
X152807836Y-98622364D01*
X152784983Y-98688391D01*
X152782359Y-98691941D01*
X152781226Y-98693417D01*
X152728498Y-98784745D01*
X152728497Y-98784748D01*
X152701204Y-98886608D01*
X152701204Y-98992062D01*
X152728497Y-99093922D01*
X152781224Y-99185248D01*
X152855791Y-99259815D01*
X152947117Y-99312542D01*
X153048977Y-99339835D01*
X153048979Y-99339835D01*
X153154429Y-99339835D01*
X153154431Y-99339835D01*
X153256291Y-99312542D01*
X153347617Y-99259815D01*
X153422184Y-99185248D01*
X153474911Y-99093922D01*
X153502204Y-98992062D01*
X153502204Y-98886608D01*
X153474911Y-98784748D01*
X153440339Y-98724867D01*
X153423867Y-98656970D01*
X153446719Y-98590943D01*
X153449353Y-98587381D01*
X153450474Y-98585918D01*
X153450480Y-98585913D01*
X153503207Y-98494587D01*
X153530500Y-98392727D01*
X153530500Y-98287273D01*
X153503207Y-98185413D01*
X153450480Y-98094087D01*
X153375913Y-98019520D01*
X153284587Y-97966793D01*
X153182727Y-97939500D01*
X153128051Y-97939500D01*
X153061012Y-97919815D01*
X153040370Y-97903181D01*
X151291275Y-96154086D01*
X151257790Y-96092763D01*
X151262774Y-96023071D01*
X151291273Y-95978726D01*
X151983681Y-95286319D01*
X152045004Y-95252834D01*
X152071362Y-95250000D01*
X177338638Y-95250000D01*
X177405677Y-95269685D01*
G37*
%TD.AperFunction*%
%TD*%
M02*
