%TF.GenerationSoftware,KiCad,Pcbnew,9.0.6*%
%TF.CreationDate,2026-07-23T23:07:07+03:00*%
%TF.ProjectId,Lithium_Board,4c697468-6975-46d5-9f42-6f6172642e6b,rev?*%
%TF.SameCoordinates,Original*%
%TF.FileFunction,Paste,Bot*%
%TF.FilePolarity,Positive*%
%FSLAX46Y46*%
G04 Gerber Fmt 4.6, Leading zero omitted, Abs format (unit mm)*
G04 Created by KiCad (PCBNEW 9.0.6) date 2026-07-23 23:07:07*
%MOMM*%
%LPD*%
G01*
G04 APERTURE LIST*
%ADD10R,0.800000X0.950000*%
%ADD11R,1.475000X0.300000*%
%ADD12R,0.300000X1.475000*%
%ADD13R,0.900000X0.950000*%
%ADD14R,2.820000X1.300000*%
%ADD15R,2.720000X1.020000*%
%ADD16R,0.940000X0.830000*%
%ADD17R,0.980000X0.780000*%
G04 APERTURE END LIST*
D10*
%TO.C,R31*%
X151780000Y-104299999D03*
X150180000Y-104299999D03*
%TD*%
%TO.C,R26*%
X134680000Y-105230000D03*
X136280000Y-105230000D03*
%TD*%
D11*
%TO.C,IC4*%
X139662000Y-109259999D03*
X139662000Y-108759999D03*
X139662000Y-108259999D03*
X139662000Y-107759999D03*
X139662000Y-107259999D03*
X139662000Y-106759999D03*
X139662000Y-106259999D03*
X139662000Y-105759999D03*
X139662000Y-105259999D03*
X139662000Y-104759999D03*
X139662000Y-104259999D03*
X139662000Y-103759999D03*
D12*
X141150000Y-102271999D03*
X141650000Y-102271999D03*
X142150000Y-102271999D03*
X142650000Y-102271999D03*
X143150000Y-102271999D03*
X143650000Y-102271999D03*
X144150000Y-102271999D03*
X144650000Y-102271999D03*
X145150000Y-102271999D03*
X145650000Y-102271999D03*
X146150000Y-102271999D03*
X146650000Y-102271999D03*
D11*
X148138000Y-103759999D03*
X148138000Y-104259999D03*
X148138000Y-104759999D03*
X148138000Y-105259999D03*
X148138000Y-105759999D03*
X148138000Y-106259999D03*
X148138000Y-106759999D03*
X148138000Y-107259999D03*
X148138000Y-107759999D03*
X148138000Y-108259999D03*
X148138000Y-108759999D03*
X148138000Y-109259999D03*
D12*
X146650000Y-110747999D03*
X146150000Y-110747999D03*
X145650000Y-110747999D03*
X145150000Y-110747999D03*
X144650000Y-110747999D03*
X144150000Y-110747999D03*
X143650000Y-110747999D03*
X143150000Y-110747999D03*
X142650000Y-110747999D03*
X142150000Y-110747999D03*
X141650000Y-110747999D03*
X141150000Y-110747999D03*
%TD*%
D13*
%TO.C,LED1*%
X155770000Y-106020000D03*
X154170000Y-106020000D03*
%TD*%
D10*
%TO.C,R34*%
X151830000Y-105969999D03*
X150230000Y-105969999D03*
%TD*%
D14*
%TO.C,C14*%
X135310000Y-107153332D03*
X135310000Y-109773332D03*
%TD*%
D15*
%TO.C,C30*%
X114730000Y-72640000D03*
X114730000Y-75440000D03*
%TD*%
D16*
%TO.C,C27*%
X137770000Y-108079999D03*
X137770000Y-109399999D03*
%TD*%
%TO.C,C15*%
X150140000Y-107689999D03*
X150140000Y-109009999D03*
%TD*%
%TO.C,C21*%
X145450000Y-125420000D03*
X145450000Y-126740000D03*
%TD*%
%TO.C,C28*%
X137750000Y-106669999D03*
X137750000Y-105349999D03*
%TD*%
D17*
%TO.C,C29*%
X117270000Y-73460000D03*
X117270000Y-74860000D03*
%TD*%
D14*
%TO.C,C31*%
X152580000Y-107910000D03*
X152580000Y-110530000D03*
%TD*%
D13*
%TO.C,LED2*%
X155770000Y-103990000D03*
X154170000Y-103990000D03*
%TD*%
M02*
