M48
; DRILL file {KiCad 9.0.6} date 2026-07-24T12:57:52+0300
; FORMAT={-:-/ absolute / metric / decimal}
; #@! TF.CreationDate,2026-07-24T12:57:52+03:00
; #@! TF.GenerationSoftware,Kicad,Pcbnew,9.0.6
; #@! TF.FileFunction,Plated,1,6,PTH
FMAT,2
METRIC
; #@! TA.AperFunction,Plated,PTH,ViaDrill
T1C0.300
; #@! TA.AperFunction,Plated,PTH,ComponentDrill
T2C0.950
; #@! TA.AperFunction,Plated,PTH,ComponentDrill
T3C1.000
; #@! TA.AperFunction,Plated,PTH,ComponentDrill
T4C1.020
; #@! TA.AperFunction,Plated,PTH,ComponentDrill
T5C1.700
; #@! TA.AperFunction,Plated,PTH,ViaDrill
T6C3.300
%
G90
G05
T1
X107.2Y-75.15
X107.2Y-76.07
X107.2Y-77.05
X107.98Y-75.15
X107.99Y-76.07
X107.995Y-77.05
X108.58Y-102.19
X108.73Y-75.15
X108.76Y-76.07
X108.79Y-77.05
X110.22Y-113.06
X110.22Y-113.83
X110.805Y-95.73
X110.805Y-96.33
X111.14Y-113.05
X111.14Y-113.8
X111.37Y-100.62
X111.47Y-97.329
X111.495Y-96.73
X111.84Y-84.95
X111.97Y-100.62
X112.258Y-91.58
X112.44Y-84.95
X112.44Y-90.905
X114.34Y-76.87
X114.68Y-66.01
X114.68Y-67.0
X114.68Y-67.98
X114.68Y-68.94
X115.6Y-66.01
X115.6Y-67.0
X115.6Y-67.99
X115.6Y-68.95
X115.9Y-81.8
X116.37Y-90.91
X116.52Y-65.99
X116.52Y-66.98
X116.52Y-67.98
X116.52Y-68.95
X116.54Y-82.88
X117.27Y-76.36
X117.5Y-65.96
X117.5Y-66.95
X117.5Y-67.975
X117.5Y-68.95
X117.552Y-102.998
X117.75Y-78.41
X117.804Y-96.291
X117.835Y-77.795
X118.31Y-83.12
X118.47Y-96.29
X118.93Y-87.81
X118.986Y-80.496
X119.274Y-87.318
X119.39Y-80.94
X119.4Y-96.26
X119.457Y-99.544
X119.6Y-103.75
X119.67Y-87.91
X119.73Y-99.01
X120.43Y-99.2
X120.433Y-99.826
X120.51Y-87.46
X120.61Y-69.4
X120.69Y-117.12
X121.16Y-99.6
X121.18Y-64.05
X121.18Y-65.04
X121.18Y-66.02
X121.2Y-73.65
X121.2Y-74.64
X121.2Y-75.62
X121.345Y-98.995
X121.53Y-69.37
X121.61Y-104.19
X122.1Y-64.05
X122.1Y-65.04
X122.1Y-66.03
X122.12Y-73.65
X122.12Y-74.64
X122.12Y-75.63
X122.12Y-86.0
X122.51Y-69.34
X123.02Y-64.03
X123.02Y-65.02
X123.02Y-66.02
X123.04Y-73.63
X123.04Y-74.62
X123.04Y-75.62
X123.88Y-104.98
X124.24Y-92.0
X124.46Y-116.97
X124.468Y-97.029
X124.76Y-94.61
X124.765Y-95.81
X124.77Y-93.98
X124.77Y-96.51
X124.778Y-95.21
X124.94Y-70.98
X124.95Y-74.24
X124.95Y-75.41
X124.95Y-76.47
X124.97Y-71.9
X125.559Y-95.931
X125.632Y-95.436
X125.86Y-74.24
X125.86Y-75.41
X125.86Y-76.47
X126.83Y-74.24
X126.83Y-75.41
X126.83Y-76.47
X126.98Y-85.82
X127.82Y-98.05
X127.99Y-69.18
X128.0Y-88.99
X128.02Y-92.7
X128.03Y-89.91
X128.06Y-90.89
X128.108Y-68.541
X128.68Y-87.23
X129.07Y-87.97
X129.14Y-80.06
X129.14Y-80.81
X129.14Y-81.59
X129.24Y-72.18
X129.24Y-73.17
X129.24Y-74.15
X129.3Y-92.867
X129.34Y-70.44
X129.44Y-65.6
X129.44Y-66.77
X129.44Y-67.83
X129.785Y-87.23
X130.04Y-70.45
X130.06Y-80.06
X130.06Y-80.82
X130.06Y-81.6
X130.16Y-72.18
X130.16Y-73.17
X130.16Y-74.16
X130.17Y-88.72
X130.175Y-87.97
X130.35Y-65.6
X130.35Y-66.77
X130.35Y-67.83
X130.72Y-62.999
X130.89Y-87.23
X130.98Y-80.04
X130.98Y-80.81
X130.98Y-81.6
X131.04Y-70.65
X131.054Y-70.0
X131.08Y-72.16
X131.08Y-73.15
X131.08Y-74.15
X131.17Y-88.71
X131.28Y-87.97
X131.32Y-65.6
X131.32Y-66.77
X131.32Y-67.83
X131.37Y-62.98
X131.96Y-80.01
X131.96Y-80.805
X131.96Y-81.6
X132.16Y-78.01
X132.275Y-88.715
X133.481Y-95.113
X133.49Y-72.81
X133.49Y-73.8
X133.49Y-74.78
X133.57Y-65.17
X133.57Y-66.16
X133.57Y-67.14
X133.57Y-94.17
X134.08Y-95.14
X134.18Y-61.92
X134.41Y-72.81
X134.41Y-73.8
X134.41Y-74.79
X134.49Y-65.17
X134.49Y-66.16
X134.49Y-67.15
X134.84Y-116.025
X135.16Y-61.89
X135.26Y-80.91
X135.31Y-109.773
X135.33Y-72.79
X135.33Y-73.78
X135.33Y-74.78
X135.41Y-65.15
X135.41Y-66.14
X135.41Y-67.14
X135.79Y-97.78
X136.08Y-61.86
X136.16Y-87.58
X136.24Y-122.236
X136.74Y-81.57
X136.81Y-85.78
X136.82Y-86.29
X137.03Y-77.7
X137.44Y-117.325
X137.53Y-86.77
X137.59Y-94.09
X137.644Y-93.492
X137.672Y-97.78
X138.04Y-86.27
X138.12Y-81.515
X138.293Y-102.516
X138.43Y-103.1
X138.5Y-66.12
X138.5Y-67.11
X138.5Y-68.09
X138.51Y-110.53
X138.6Y-85.805
X138.77Y-81.49
X138.98Y-94.06
X139.42Y-66.12
X139.42Y-67.11
X139.42Y-68.1
X139.554Y-97.78
X139.57Y-101.733
X139.62Y-93.57
X140.14Y-101.92
X140.34Y-66.1
X140.34Y-67.09
X140.34Y-68.09
X140.42Y-78.12
X140.68Y-94.1
X140.845Y-103.903
X141.2Y-93.59
X141.24Y-106.9
X141.24Y-107.47
X141.33Y-106.07
X141.43Y-103.77
X141.436Y-97.78
X141.66Y-113.72
X141.74Y-118.89
X142.017Y-119.422
X142.11Y-81.842
X142.14Y-112.18
X142.26Y-113.744
X142.27Y-87.693
X142.3Y-86.537
X142.33Y-85.38
X142.39Y-103.68
X142.43Y-94.2
X142.668Y-82.4
X142.791Y-112.961
X142.88Y-93.67
X142.89Y-112.19
X142.99Y-103.665
X143.15Y-116.76
X143.18Y-117.74
X143.309Y-112.62
X143.318Y-97.78
X143.41Y-87.693
X143.44Y-86.537
X143.47Y-85.38
X143.95Y-82.79
X144.18Y-115.29
X144.34Y-74.17
X144.52Y-87.693
X144.525Y-86.537
X144.53Y-85.38
X145.04Y-95.14
X145.043Y-94.54
X145.125Y-97.831
X145.23Y-117.29
X145.419Y-98.764
X145.45Y-127.8
X145.7Y-85.38
X145.7Y-86.537
X145.7Y-87.693
X145.833Y-82.499
X146.09Y-97.87
X146.157Y-81.882
X146.264Y-94.34
X146.86Y-95.11
X146.94Y-106.75
X147.55Y-66.1
X147.55Y-67.09
X147.55Y-68.07
X147.663Y-110.75
X147.74Y-70.26
X147.74Y-71.43
X147.74Y-72.49
X147.79Y-97.86
X147.803Y-98.46
X148.14Y-85.01
X148.47Y-66.1
X148.47Y-67.09
X148.47Y-68.08
X148.65Y-70.26
X148.65Y-71.43
X148.65Y-72.49
X148.71Y-77.79
X148.74Y-78.77
X149.39Y-66.08
X149.39Y-67.07
X149.39Y-68.07
X149.43Y-106.462
X149.57Y-97.86
X149.62Y-70.26
X149.62Y-71.43
X149.62Y-72.49
X150.14Y-109.01
X150.21Y-82.36
X150.339Y-85.419
X150.48Y-84.5
X150.66Y-81.4
X150.931Y-85.15
X151.71Y-76.47
X151.99Y-93.97
X152.23Y-77.76
X152.31Y-76.45
X152.58Y-110.53
X152.645Y-78.295
X152.78Y-70.99
X152.78Y-71.98
X152.78Y-72.96
X152.83Y-63.82
X152.83Y-64.81
X152.83Y-65.79
X153.102Y-98.939
X153.13Y-98.34
X153.36Y-81.68
X153.7Y-70.99
X153.7Y-71.98
X153.7Y-72.97
X153.75Y-63.82
X153.75Y-64.81
X153.75Y-65.8
X154.46Y-81.29
X154.51Y-88.06
X154.54Y-86.26
X154.54Y-106.37
X154.55Y-104.14
X154.62Y-70.97
X154.62Y-71.96
X154.62Y-72.96
X154.67Y-63.8
X154.67Y-64.79
X154.67Y-65.79
X156.61Y-73.8
X156.72Y-63.46
X156.72Y-64.58
X156.72Y-65.69
X157.16Y-73.41
X157.26Y-98.044
X157.26Y-98.954
X157.26Y-99.924
X157.39Y-113.17
X157.46Y-121.22
X157.46Y-122.34
X157.46Y-123.45
X157.63Y-63.46
X157.63Y-64.58
X157.63Y-65.69
X157.77Y-72.87
X158.11Y-73.48
X158.14Y-69.57
X158.151Y-68.92
X158.32Y-98.044
X158.32Y-98.954
X158.32Y-99.924
X158.37Y-121.22
X158.37Y-122.34
X158.37Y-123.45
X158.55Y-106.24
X158.58Y-105.32
X158.6Y-63.46
X158.6Y-64.58
X158.6Y-65.69
X158.61Y-104.34
X159.34Y-121.22
X159.34Y-122.34
X159.34Y-123.45
X159.4Y-67.13
X159.43Y-68.05
X159.49Y-98.044
X159.49Y-98.954
X159.49Y-99.924
X160.67Y-86.02
X160.67Y-87.19
X160.67Y-88.25
X161.074Y-71.289
X161.1Y-77.5
X161.1Y-78.49
X161.1Y-79.47
X161.21Y-63.52
X161.21Y-64.51
X161.21Y-65.49
X161.27Y-72.8
X161.27Y-73.79
X161.27Y-74.77
X161.29Y-80.5
X161.29Y-81.47
X161.58Y-86.02
X161.58Y-87.19
X161.58Y-88.25
X161.622Y-71.638
X161.86Y-69.69
X162.02Y-77.5
X162.02Y-78.49
X162.02Y-79.48
X162.13Y-63.52
X162.13Y-64.51
X162.13Y-65.5
X162.19Y-72.8
X162.19Y-73.79
X162.19Y-74.78
X162.35Y-80.5
X162.35Y-81.47
X162.55Y-86.02
X162.55Y-87.19
X162.55Y-88.25
X162.84Y-69.66
X162.94Y-77.48
X162.94Y-78.47
X162.94Y-79.47
X163.05Y-63.5
X163.05Y-64.49
X163.05Y-65.49
X163.11Y-72.78
X163.11Y-73.77
X163.11Y-74.77
X163.36Y-106.8
X163.36Y-107.92
X163.36Y-109.03
X163.41Y-117.29
X163.41Y-118.4
X163.76Y-69.63
X164.27Y-106.8
X164.27Y-107.92
X164.27Y-109.03
X164.32Y-117.29
X164.32Y-118.4
X165.19Y-63.01
X165.19Y-64.13
X165.19Y-65.24
X165.24Y-106.8
X165.24Y-107.92
X165.24Y-109.03
X165.29Y-117.29
X165.29Y-118.4
X165.36Y-113.24
X166.1Y-63.01
X166.1Y-64.13
X166.1Y-65.24
X166.36Y-80.62
X166.36Y-81.37
X167.07Y-63.01
X167.07Y-64.13
X167.07Y-65.24
X167.28Y-80.59
X167.28Y-81.36
X169.06Y-118.71
X169.29Y-62.36
X170.27Y-62.33
X170.73Y-107.8
X171.19Y-62.3
X172.7Y-100.143
X172.7Y-101.263
X172.7Y-102.303
X172.715Y-83.2
X172.715Y-84.0
X172.715Y-84.82
X173.05Y-88.49
X173.05Y-89.29
X173.05Y-90.11
X174.025Y-83.2
X174.04Y-84.0
X174.055Y-84.82
X174.3Y-100.143
X174.31Y-101.263
X174.315Y-102.303
X174.36Y-88.49
X174.375Y-89.29
X174.39Y-90.11
X174.92Y-70.64
X174.92Y-71.56
X174.92Y-72.54
X174.95Y-75.63
X174.95Y-76.55
X174.95Y-77.53
X175.1Y-112.79
X175.1Y-113.71
X175.1Y-114.69
X175.12Y-117.82
X175.12Y-118.74
X175.12Y-119.72
X175.335Y-83.2
X175.365Y-84.0
X175.395Y-84.82
X175.67Y-88.49
X175.7Y-70.64
X175.7Y-89.29
X175.71Y-71.56
X175.715Y-72.54
X175.73Y-75.63
X175.73Y-90.11
X175.74Y-76.55
X175.745Y-77.53
X175.77Y-100.143
X175.8Y-101.263
X175.83Y-102.303
X175.88Y-112.79
X175.89Y-113.71
X175.895Y-114.69
X175.9Y-117.82
X175.91Y-118.74
X175.915Y-119.72
X176.45Y-70.64
X176.48Y-71.56
X176.48Y-75.63
X176.51Y-72.54
X176.51Y-76.55
X176.54Y-77.53
X176.63Y-112.79
X176.65Y-117.82
X176.66Y-113.71
X176.68Y-118.74
X176.69Y-114.69
X176.71Y-119.72
T2
X105.49Y-99.06
X105.49Y-101.56
X105.49Y-104.06
X105.49Y-106.56
X105.625Y-83.312
X105.625Y-85.812
X105.625Y-88.312
X105.625Y-90.812
X105.625Y-93.312
X105.625Y-95.812
T3
X105.656Y-68.07
X105.656Y-79.07
X182.425Y-68.55
X182.425Y-79.55
X182.425Y-110.72
X182.425Y-121.72
T4
X148.06Y-126.137
X150.6Y-126.137
X153.14Y-126.137
X155.68Y-126.137
X158.22Y-126.137
T5
X110.656Y-71.07
X110.656Y-76.07
X172.425Y-71.55
X172.425Y-76.55
X172.425Y-113.72
X172.425Y-118.72
T6
X106.84Y-63.7
X106.84Y-125.87
X181.2Y-63.7
X181.2Y-125.87
M30
