%TF.GenerationSoftware,KiCad,Pcbnew,9.0.6*%
%TF.CreationDate,2026-07-23T23:07:07+03:00*%
%TF.ProjectId,Lithium_Board,4c697468-6975-46d5-9f42-6f6172642e6b,rev?*%
%TF.SameCoordinates,Original*%
%TF.FileFunction,Copper,L6,Bot*%
%TF.FilePolarity,Positive*%
%FSLAX46Y46*%
G04 Gerber Fmt 4.6, Leading zero omitted, Abs format (unit mm)*
G04 Created by KiCad (PCBNEW 9.0.6) date 2026-07-23 23:07:07*
%MOMM*%
%LPD*%
G01*
G04 APERTURE LIST*
G04 Aperture macros list*
%AMRoundRect*
0 Rectangle with rounded corners*
0 $1 Rounding radius*
0 $2 $3 $4 $5 $6 $7 $8 $9 X,Y pos of 4 corners*
0 Add a 4 corners polygon primitive as box body*
4,1,4,$2,$3,$4,$5,$6,$7,$8,$9,$2,$3,0*
0 Add four circle primitives for the rounded corners*
1,1,$1+$1,$2,$3*
1,1,$1+$1,$4,$5*
1,1,$1+$1,$6,$7*
1,1,$1+$1,$8,$9*
0 Add four rect primitives between the rounded corners*
20,1,$1+$1,$2,$3,$4,$5,0*
20,1,$1+$1,$4,$5,$6,$7,0*
20,1,$1+$1,$6,$7,$8,$9,0*
20,1,$1+$1,$8,$9,$2,$3,0*%
G04 Aperture macros list end*
%TA.AperFunction,ComponentPad*%
%ADD10C,2.550000*%
%TD*%
%TA.AperFunction,ComponentPad*%
%ADD11C,1.500000*%
%TD*%
%TA.AperFunction,ComponentPad*%
%ADD12C,1.550000*%
%TD*%
%TA.AperFunction,ComponentPad*%
%ADD13RoundRect,0.250000X-0.725000X0.600000X-0.725000X-0.600000X0.725000X-0.600000X0.725000X0.600000X0*%
%TD*%
%TA.AperFunction,ComponentPad*%
%ADD14O,1.950000X1.700000*%
%TD*%
%TA.AperFunction,ComponentPad*%
%ADD15RoundRect,0.250000X0.725000X-0.600000X0.725000X0.600000X-0.725000X0.600000X-0.725000X-0.600000X0*%
%TD*%
%TA.AperFunction,SMDPad,CuDef*%
%ADD16R,0.800000X0.950000*%
%TD*%
%TA.AperFunction,SMDPad,CuDef*%
%ADD17R,1.475000X0.300000*%
%TD*%
%TA.AperFunction,SMDPad,CuDef*%
%ADD18R,0.300000X1.475000*%
%TD*%
%TA.AperFunction,SMDPad,CuDef*%
%ADD19R,0.900000X0.950000*%
%TD*%
%TA.AperFunction,SMDPad,CuDef*%
%ADD20R,2.820000X1.300000*%
%TD*%
%TA.AperFunction,SMDPad,CuDef*%
%ADD21R,2.720000X1.020000*%
%TD*%
%TA.AperFunction,SMDPad,CuDef*%
%ADD22R,0.940000X0.830000*%
%TD*%
%TA.AperFunction,SMDPad,CuDef*%
%ADD23R,0.980000X0.780000*%
%TD*%
%TA.AperFunction,ViaPad*%
%ADD24C,0.400000*%
%TD*%
%TA.AperFunction,ViaPad*%
%ADD25C,4.000000*%
%TD*%
%TA.AperFunction,Conductor*%
%ADD26C,0.150000*%
%TD*%
%TA.AperFunction,Conductor*%
%ADD27C,0.500000*%
%TD*%
%TA.AperFunction,Conductor*%
%ADD28C,0.300000*%
%TD*%
G04 APERTURE END LIST*
D10*
%TO.P,J2,1,1*%
%TO.N,GND*%
X110656063Y-76070000D03*
%TO.P,J2,2,2*%
%TO.N,VIN*%
X110656063Y-71070000D03*
D11*
%TO.P,J2,3,3*%
%TO.N,unconnected-(J2-Pad3)*%
X105656063Y-79070000D03*
%TO.P,J2,4,4*%
%TO.N,unconnected-(J2-Pad4)*%
X105656063Y-68070000D03*
%TD*%
D10*
%TO.P,J1,1,1*%
%TO.N,BQ_SYS*%
X172425500Y-71550000D03*
%TO.P,J1,2,2*%
%TO.N,GND*%
X172425500Y-76550000D03*
D11*
%TO.P,J1,3,3*%
%TO.N,unconnected-(J1-Pad3)*%
X182425500Y-79550000D03*
%TO.P,J1,4,4*%
%TO.N,unconnected-(J1-Pad4)*%
X182425500Y-68550000D03*
%TD*%
D12*
%TO.P,J5,1,1*%
%TO.N,+3V3*%
X158220000Y-126137500D03*
%TO.P,J5,2,2*%
%TO.N,SWDIO*%
X155680000Y-126137500D03*
%TO.P,J5,3,3*%
%TO.N,GND*%
X153140000Y-126137500D03*
%TO.P,J5,4,4*%
%TO.N,SWCLK*%
X150600000Y-126137500D03*
%TO.P,J5,5,5*%
%TO.N,NRST*%
X148060000Y-126137500D03*
%TD*%
D10*
%TO.P,J3,1,1*%
%TO.N,+BATT*%
X172425500Y-113720000D03*
%TO.P,J3,2,2*%
%TO.N,GND*%
X172425500Y-118720000D03*
D11*
%TO.P,J3,3,3*%
%TO.N,unconnected-(J3-Pad3)*%
X182425500Y-121720000D03*
%TO.P,J3,4,4*%
%TO.N,unconnected-(J3-Pad4)*%
X182425500Y-110720000D03*
%TD*%
D13*
%TO.P,J6,1,Pin_1*%
%TO.N,GND*%
X105625000Y-83312500D03*
D14*
%TO.P,J6,2,Pin_2*%
%TO.N,BAT1*%
X105625000Y-85812500D03*
%TO.P,J6,3,Pin_3*%
%TO.N,BAT2*%
X105625000Y-88312500D03*
%TO.P,J6,4,Pin_4*%
%TO.N,BAT3{slash}PACK+*%
X105625000Y-90812500D03*
%TO.P,J6,5,Pin_5*%
%TO.N,BQ_TS*%
X105625000Y-93312500D03*
%TO.P,J6,6,Pin_6*%
%TO.N,GND*%
X105625000Y-95812500D03*
%TD*%
D15*
%TO.P,J7,1,Pin_1*%
%TO.N,GND*%
X105490000Y-106560000D03*
D14*
%TO.P,J7,2,Pin_2*%
%TO.N,BQ2_TS3*%
X105490000Y-104060000D03*
%TO.P,J7,3,Pin_3*%
%TO.N,BQ2_TS2*%
X105490000Y-101560000D03*
%TO.P,J7,4,Pin_4*%
%TO.N,BQ2_TS1*%
X105490000Y-99060000D03*
%TD*%
D16*
%TO.P,R31,1,1*%
%TO.N,Net-(LED2-A)*%
X151780000Y-104299999D03*
%TO.P,R31,2,2*%
%TO.N,LED1_RED*%
X150180000Y-104299999D03*
%TD*%
%TO.P,R26,1,1*%
%TO.N,+3V3*%
X134680000Y-105230000D03*
%TO.P,R26,2,2*%
%TO.N,NRST*%
X136280000Y-105230000D03*
%TD*%
D17*
%TO.P,IC4,1,PC13*%
%TO.N,unconnected-(IC4-PC13-Pad1)*%
X139662000Y-109259999D03*
%TO.P,IC4,2,PC14-OSC32_IN*%
%TO.N,unconnected-(IC4-PC14-OSC32_IN-Pad2)*%
X139662000Y-108759999D03*
%TO.P,IC4,3,PC15-OSC32_OUT*%
%TO.N,unconnected-(IC4-PC15-OSC32_OUT-Pad3)*%
X139662000Y-108259999D03*
%TO.P,IC4,4,VBAT*%
%TO.N,+3V3*%
X139662000Y-107759999D03*
%TO.P,IC4,5,VREF+*%
X139662000Y-107259999D03*
%TO.P,IC4,6,VDD/VDDA*%
X139662000Y-106759999D03*
%TO.P,IC4,7,VSS/VSSA*%
%TO.N,GND*%
X139662000Y-106259999D03*
%TO.P,IC4,8,PF0-OSC_IN*%
%TO.N,unconnected-(IC4-PF0-OSC_IN-Pad8)*%
X139662000Y-105759999D03*
%TO.P,IC4,9,PF1-OSC_OUT*%
%TO.N,unconnected-(IC4-PF1-OSC_OUT-Pad9)*%
X139662000Y-105259999D03*
%TO.P,IC4,10,PF2-NRST*%
%TO.N,NRST*%
X139662000Y-104759999D03*
%TO.P,IC4,11,PA0*%
%TO.N,BQ_INT*%
X139662000Y-104259999D03*
%TO.P,IC4,12,PA1*%
%TO.N,BQ_PG*%
X139662000Y-103759999D03*
D18*
%TO.P,IC4,13,PA2*%
%TO.N,BQ_CE*%
X141150000Y-102271999D03*
%TO.P,IC4,14,PA3*%
%TO.N,CAN_STB*%
X141650000Y-102271999D03*
%TO.P,IC4,15,PA4*%
%TO.N,BQ2_ALERT*%
X142150000Y-102271999D03*
%TO.P,IC4,16,PA5*%
%TO.N,BQ2_SCLK*%
X142650000Y-102271999D03*
%TO.P,IC4,17,PA6*%
%TO.N,BQ2_MISO*%
X143150000Y-102271999D03*
%TO.P,IC4,18,PA7*%
%TO.N,BQ2_MOSI*%
X143650000Y-102271999D03*
%TO.P,IC4,19,PB0*%
%TO.N,BQ_STAT1*%
X144150000Y-102271999D03*
%TO.P,IC4,20,PB1*%
%TO.N,BQ_STAT2*%
X144650000Y-102271999D03*
%TO.P,IC4,21,PB2*%
%TO.N,unconnected-(IC4-PB2-Pad21)*%
X145150000Y-102271999D03*
%TO.P,IC4,22,PB10*%
%TO.N,unconnected-(IC4-PB10-Pad22)*%
X145650000Y-102271999D03*
%TO.P,IC4,23,PB11*%
%TO.N,unconnected-(IC4-PB11-Pad23)*%
X146150000Y-102271999D03*
%TO.P,IC4,24,PB12*%
%TO.N,unconnected-(IC4-PB12-Pad24)*%
X146650000Y-102271999D03*
D17*
%TO.P,IC4,25,PB13*%
%TO.N,unconnected-(IC4-PB13-Pad25)*%
X148138000Y-103759999D03*
%TO.P,IC4,26,PB14*%
%TO.N,unconnected-(IC4-PB14-Pad26)*%
X148138000Y-104259999D03*
%TO.P,IC4,27,PB15*%
%TO.N,unconnected-(IC4-PB15-Pad27)*%
X148138000Y-104759999D03*
%TO.P,IC4,28,PA8*%
%TO.N,LED1_RED*%
X148138000Y-105259999D03*
%TO.P,IC4,29,PA9*%
%TO.N,LED2_GREEN*%
X148138000Y-105759999D03*
%TO.P,IC4,30,VSS*%
%TO.N,GND*%
X148138000Y-106259999D03*
%TO.P,IC4,31,VDDIO2*%
%TO.N,+3V3*%
X148138000Y-106759999D03*
%TO.P,IC4,32,PA10*%
%TO.N,unconnected-(IC4-PA10-Pad32)*%
X148138000Y-107259999D03*
%TO.P,IC4,33,PA11_[PA9]*%
%TO.N,unconnected-(IC4-PA11_[PA9]-Pad33)*%
X148138000Y-107759999D03*
%TO.P,IC4,34,PA12_[PA10]*%
%TO.N,unconnected-(IC4-PA12_[PA10]-Pad34)*%
X148138000Y-108259999D03*
%TO.P,IC4,35,PA13*%
%TO.N,SWDIO*%
X148138000Y-108759999D03*
%TO.P,IC4,36,PA14-BOOT0*%
%TO.N,SWCLK*%
X148138000Y-109259999D03*
D18*
%TO.P,IC4,37,PA15*%
%TO.N,BQ2_CS*%
X146650000Y-110747999D03*
%TO.P,IC4,38,PD0*%
%TO.N,unconnected-(IC4-PD0-Pad38)*%
X146150000Y-110747999D03*
%TO.P,IC4,39,PD1*%
%TO.N,unconnected-(IC4-PD1-Pad39)*%
X145650000Y-110747999D03*
%TO.P,IC4,40,PD2*%
%TO.N,unconnected-(IC4-PD2-Pad40)*%
X145150000Y-110747999D03*
%TO.P,IC4,41,PD3*%
%TO.N,unconnected-(IC4-PD3-Pad41)*%
X144650000Y-110747999D03*
%TO.P,IC4,42,PB3*%
%TO.N,unconnected-(IC4-PB3-Pad42)*%
X144150000Y-110747999D03*
%TO.P,IC4,43,PB4*%
%TO.N,unconnected-(IC4-PB4-Pad43)*%
X143650000Y-110747999D03*
%TO.P,IC4,44,PB5*%
%TO.N,unconnected-(IC4-PB5-Pad44)*%
X143150000Y-110747999D03*
%TO.P,IC4,45,PB6*%
%TO.N,BQ_SCL*%
X142650000Y-110747999D03*
%TO.P,IC4,46,PB7*%
%TO.N,BQ_SDA*%
X142150000Y-110747999D03*
%TO.P,IC4,47,PB8*%
%TO.N,FDCAN_RX*%
X141650000Y-110747999D03*
%TO.P,IC4,48,PB9*%
%TO.N,FDCAN_TX*%
X141150000Y-110747999D03*
%TD*%
D19*
%TO.P,LED1,1,K*%
%TO.N,GND*%
X155770000Y-106020000D03*
%TO.P,LED1,2,A*%
%TO.N,Net-(LED1-A)*%
X154170000Y-106020000D03*
%TD*%
D16*
%TO.P,R34,1,1*%
%TO.N,Net-(LED1-A)*%
X151830000Y-105969999D03*
%TO.P,R34,2,2*%
%TO.N,LED2_GREEN*%
X150230000Y-105969999D03*
%TD*%
D20*
%TO.P,C14,1,1*%
%TO.N,+3V3*%
X135310000Y-107153332D03*
%TO.P,C14,2,2*%
%TO.N,GND*%
X135310000Y-109773332D03*
%TD*%
D21*
%TO.P,C30,1,1*%
%TO.N,VIN*%
X114730000Y-72640000D03*
%TO.P,C30,2,2*%
%TO.N,GND*%
X114730000Y-75440000D03*
%TD*%
D22*
%TO.P,C27,1,1*%
%TO.N,+3V3*%
X137770000Y-108079999D03*
%TO.P,C27,2,2*%
%TO.N,GND*%
X137770000Y-109399999D03*
%TD*%
%TO.P,C15,1,1*%
%TO.N,+3V3*%
X150140000Y-107689999D03*
%TO.P,C15,2,2*%
%TO.N,GND*%
X150140000Y-109009999D03*
%TD*%
%TO.P,C21,1,1*%
%TO.N,NRST*%
X145450000Y-125420000D03*
%TO.P,C21,2,2*%
%TO.N,GND*%
X145450000Y-126740000D03*
%TD*%
%TO.P,C28,1,1*%
%TO.N,+3V3*%
X137750000Y-106669999D03*
%TO.P,C28,2,2*%
%TO.N,GND*%
X137750000Y-105349999D03*
%TD*%
D23*
%TO.P,C29,1,1*%
%TO.N,VIN*%
X117270000Y-73460000D03*
%TO.P,C29,2,2*%
%TO.N,GND*%
X117270000Y-74860000D03*
%TD*%
D20*
%TO.P,C31,1,1*%
%TO.N,+3V3*%
X152580000Y-107910000D03*
%TO.P,C31,2,2*%
%TO.N,GND*%
X152580000Y-110530000D03*
%TD*%
D19*
%TO.P,LED2,1,K*%
%TO.N,GND*%
X155770000Y-103990000D03*
%TO.P,LED2,2,A*%
%TO.N,Net-(LED2-A)*%
X154170000Y-103990000D03*
%TD*%
D24*
%TO.N,GND*%
X128060000Y-90890000D03*
X152230000Y-77760000D03*
X119456589Y-99544087D03*
X141200000Y-93590000D03*
X153101704Y-98939335D03*
X175120000Y-118740000D03*
X131053950Y-70000000D03*
X143470000Y-85380000D03*
X139569721Y-101733499D03*
X122120000Y-86000000D03*
X137440000Y-117325000D03*
X175915000Y-119720000D03*
X150140000Y-109009999D03*
X119274079Y-87318459D03*
X143440000Y-86536667D03*
X108760000Y-76070000D03*
X166360000Y-80620000D03*
X137030000Y-77700000D03*
X111839997Y-84950000D03*
X108790000Y-77050000D03*
X146156616Y-81882091D03*
X175730000Y-75630000D03*
X154540000Y-86260000D03*
X152580000Y-110530000D03*
X138293269Y-102515784D03*
X119400000Y-96260000D03*
X175830000Y-102303333D03*
X176680000Y-118740000D03*
X112258298Y-91580002D03*
X117750000Y-78410000D03*
X124240000Y-92000000D03*
X128030000Y-89910000D03*
X154510000Y-88060000D03*
D25*
X181200000Y-125870000D03*
D24*
X176480000Y-75630000D03*
X114340000Y-76870000D03*
X135310000Y-109773332D03*
X144525000Y-86536667D03*
X174315000Y-102303333D03*
X135160000Y-61890000D03*
X129300000Y-92867500D03*
X165360000Y-113240000D03*
X117270000Y-76360000D03*
X123880000Y-104980000D03*
X136160000Y-87580000D03*
X142790876Y-112960876D03*
X107200000Y-77050000D03*
X134840000Y-116025000D03*
X156720000Y-106000000D03*
X154460000Y-81290000D03*
X176650000Y-117820000D03*
X150210000Y-82360000D03*
X141330000Y-106070000D03*
X133570000Y-94170000D03*
X139620000Y-93570000D03*
X145230000Y-117290000D03*
X148140000Y-85010000D03*
X108580000Y-102190000D03*
X171190000Y-62300000D03*
X136820000Y-86290000D03*
X111140000Y-113050000D03*
X107995000Y-77050000D03*
X138120480Y-81514982D03*
X107980000Y-75150000D03*
X125558813Y-95931186D03*
X120690000Y-117120000D03*
X142300000Y-86536667D03*
X140844892Y-103902860D03*
X125632392Y-95436000D03*
X144180000Y-115290000D03*
X121610000Y-104190000D03*
X149570000Y-97860000D03*
X172700000Y-101263333D03*
X133480616Y-95112755D03*
X175800000Y-101263333D03*
X129340000Y-70440000D03*
X142016662Y-119422410D03*
X175120000Y-119720000D03*
X151710000Y-76470000D03*
X149430366Y-106462127D03*
X126980000Y-85820000D03*
X143410000Y-87693333D03*
X107200000Y-75150000D03*
X174950000Y-77530000D03*
X143308720Y-112619739D03*
X142989825Y-103665370D03*
X128000000Y-88990000D03*
X166360000Y-81370000D03*
X124770000Y-93980000D03*
X142880000Y-93670000D03*
X150930676Y-85149999D03*
X111470022Y-97329482D03*
D25*
X106840000Y-63700000D03*
D24*
X175745000Y-77530000D03*
X120510000Y-87460000D03*
X130720265Y-62998564D03*
X136240000Y-122236399D03*
X107990000Y-76070000D03*
X110220000Y-113060000D03*
X157390000Y-113170000D03*
X175910000Y-118740000D03*
X175740000Y-76550000D03*
X175770000Y-100143333D03*
X174950000Y-76550000D03*
X132160000Y-78010000D03*
X145700000Y-87693333D03*
X175120000Y-117820000D03*
X156690000Y-105020000D03*
X161622044Y-71637500D03*
X145700000Y-85380000D03*
X119600000Y-103750000D03*
X136080000Y-61860000D03*
X142270000Y-87693333D03*
X120433354Y-99825973D03*
D25*
X106840000Y-125870000D03*
D24*
X158151205Y-68920096D03*
X115900000Y-81800000D03*
X176510000Y-76550000D03*
X156610000Y-73800000D03*
X156660000Y-104100000D03*
X142110001Y-81842182D03*
X172700000Y-102303333D03*
X145042901Y-94540008D03*
X146264172Y-94340001D03*
X119670000Y-87910000D03*
X174300000Y-100143333D03*
X110805000Y-96330003D03*
X167280000Y-80590000D03*
X175900000Y-117820000D03*
X107200000Y-76070000D03*
X117717500Y-100922500D03*
X144530000Y-85380000D03*
X117804013Y-96290699D03*
X170730000Y-107800000D03*
X134180000Y-61920000D03*
X135260000Y-80910000D03*
X152310000Y-76450000D03*
D25*
X181200000Y-63700000D03*
D24*
X148710000Y-77790000D03*
X144340000Y-74170000D03*
X136810000Y-85780000D03*
X146090000Y-97870000D03*
X111140000Y-113800000D03*
X110220000Y-113830000D03*
X148740000Y-78770000D03*
X118310000Y-83120000D03*
X142259541Y-113743511D03*
X124460000Y-116970000D03*
X176710000Y-119720000D03*
X145450000Y-127800000D03*
X108730000Y-75150000D03*
X170270000Y-62330000D03*
X172700000Y-100143333D03*
X124468427Y-97028706D03*
X111369997Y-100620000D03*
X174310000Y-101263333D03*
X145700000Y-86536667D03*
X128108358Y-68540866D03*
X144520000Y-87693333D03*
X145419457Y-98764313D03*
X169060000Y-118710000D03*
X157770000Y-72870000D03*
X176540000Y-77530000D03*
X138510000Y-110530000D03*
X151990000Y-93970000D03*
X169290000Y-62360000D03*
X116540000Y-82880000D03*
X137644322Y-93492462D03*
X121344999Y-98995317D03*
X118470000Y-96290000D03*
X147803330Y-98459855D03*
X118986263Y-80496155D03*
X174950000Y-75630000D03*
X140420000Y-78120000D03*
X142330000Y-85380000D03*
X167280000Y-81360000D03*
%TO.N,/SW1*%
X133570000Y-66160000D03*
X131320000Y-67830000D03*
X133570000Y-65170000D03*
X134490000Y-67150000D03*
X138500000Y-66120000D03*
X131320000Y-66770000D03*
X140340000Y-66100000D03*
X130040000Y-70450000D03*
X138500000Y-67110000D03*
X135410000Y-66140000D03*
X135410000Y-65150000D03*
X129440000Y-67830000D03*
X130350000Y-66770000D03*
X138500000Y-68090000D03*
X131320000Y-65600000D03*
X133570000Y-67140000D03*
X130350000Y-67830000D03*
X134490000Y-66160000D03*
X140340000Y-67090000D03*
X129440000Y-65600000D03*
X140340000Y-68090000D03*
X129440000Y-66770000D03*
X139420000Y-67110000D03*
X139420000Y-66120000D03*
X136740000Y-81570000D03*
X130350000Y-65600000D03*
X134490000Y-65170000D03*
X139420000Y-68100000D03*
X135410000Y-67140000D03*
%TO.N,/SW2*%
X148650000Y-70260000D03*
X154620000Y-71960000D03*
X152780000Y-71980000D03*
X158140000Y-69570000D03*
X152780000Y-70990000D03*
X148650000Y-71430000D03*
X147550000Y-67090000D03*
X148650000Y-72490000D03*
X149390000Y-66080000D03*
X149390000Y-68070000D03*
X148470000Y-66100000D03*
X147740000Y-72490000D03*
X152780000Y-72960000D03*
X153360000Y-81680000D03*
X147740000Y-71430000D03*
X149620000Y-72490000D03*
X149620000Y-71430000D03*
X149620000Y-70260000D03*
X154620000Y-72960000D03*
X153700000Y-70990000D03*
X149390000Y-67070000D03*
X153700000Y-71980000D03*
X148470000Y-68080000D03*
X148470000Y-67090000D03*
X147740000Y-70260000D03*
X154620000Y-70970000D03*
X147550000Y-66100000D03*
X147550000Y-68070000D03*
X153700000Y-72970000D03*
%TO.N,/VAC*%
X117835000Y-77795000D03*
X137530000Y-86770000D03*
%TO.N,BQ_REGN*%
X147790000Y-97860000D03*
X143950000Y-82790000D03*
%TO.N,+3V3*%
X164270000Y-106800000D03*
X128020000Y-92700000D03*
X165240000Y-109030000D03*
X158370000Y-123450000D03*
X164270000Y-109030000D03*
X163360000Y-109030000D03*
X159340000Y-122340000D03*
X139554000Y-97780000D03*
X159340000Y-123450000D03*
X135790000Y-97780000D03*
X143180000Y-117740000D03*
X157460000Y-122340000D03*
X165240000Y-106800000D03*
X145125000Y-97830876D03*
X157460000Y-121220000D03*
X163360000Y-106800000D03*
X159340000Y-121220000D03*
X141240000Y-107470000D03*
X163360000Y-107920000D03*
X143150000Y-116760000D03*
X164270000Y-107920000D03*
X157460000Y-123450000D03*
X165240000Y-107920000D03*
X137672000Y-97780000D03*
X158370000Y-122340000D03*
X143318000Y-97780000D03*
X141436000Y-97780000D03*
X146940000Y-106750000D03*
X127820000Y-98050000D03*
X158370000Y-121220000D03*
X141240000Y-106900000D03*
%TO.N,+BATT*%
X175890000Y-113710000D03*
X175100000Y-114690000D03*
X158320000Y-98044376D03*
X175100000Y-113710000D03*
X163410000Y-117290000D03*
X164320000Y-117290000D03*
X175895000Y-114690000D03*
X175880000Y-112790000D03*
X176630000Y-112790000D03*
X165290000Y-118400000D03*
X165290000Y-117290000D03*
X158320000Y-99924376D03*
X163410000Y-118400000D03*
X157260000Y-98044376D03*
X159490000Y-98044376D03*
X164320000Y-118400000D03*
X158320000Y-98954376D03*
X157260000Y-99924376D03*
X175100000Y-112790000D03*
X176660000Y-113710000D03*
X159490000Y-98954376D03*
X157260000Y-98954376D03*
X159490000Y-99924376D03*
X176690000Y-114690000D03*
%TO.N,BQ_SYS*%
X138040000Y-86270000D03*
X162130000Y-63520000D03*
X134410000Y-72810000D03*
X167070000Y-63010000D03*
X174040000Y-84000000D03*
X134410000Y-73800000D03*
X174920000Y-71560000D03*
X167070000Y-64130000D03*
X175710000Y-71560000D03*
X175365000Y-84000000D03*
X131080000Y-72160000D03*
X174920000Y-72540000D03*
X174025000Y-83200000D03*
X133490000Y-74780000D03*
X165190000Y-63010000D03*
X131960000Y-80010000D03*
X163050000Y-63500000D03*
X161210000Y-63520000D03*
X175700000Y-70640000D03*
X129140000Y-80810000D03*
X176510000Y-72540000D03*
X162130000Y-64510000D03*
X174390000Y-90110000D03*
X175730000Y-90110000D03*
X130980000Y-80810000D03*
X165190000Y-65240000D03*
X175700000Y-89290000D03*
X135330000Y-72790000D03*
X129240000Y-72180000D03*
X135330000Y-73780000D03*
X134410000Y-74790000D03*
X176450000Y-70640000D03*
X172715000Y-83200000D03*
X172715000Y-84000000D03*
X167070000Y-65240000D03*
X129240000Y-74150000D03*
X173050000Y-88490000D03*
X166100000Y-65240000D03*
X174055000Y-84820000D03*
X161210000Y-64510000D03*
X175670000Y-88490000D03*
X129240000Y-73170000D03*
X135330000Y-74780000D03*
X130160000Y-73170000D03*
X174360000Y-88490000D03*
X163050000Y-64490000D03*
X165190000Y-64130000D03*
X173050000Y-90110000D03*
X166100000Y-64130000D03*
X176480000Y-71560000D03*
X133490000Y-72810000D03*
X163050000Y-65490000D03*
X131080000Y-74150000D03*
X129140000Y-81590000D03*
X172715000Y-84820000D03*
X161210000Y-65490000D03*
X133490000Y-73800000D03*
X131080000Y-73150000D03*
X130160000Y-72180000D03*
X131960000Y-81600000D03*
X130980000Y-81600000D03*
X130160000Y-74160000D03*
X130060000Y-80820000D03*
X130060000Y-81600000D03*
X174375000Y-89290000D03*
X162130000Y-65500000D03*
X175395000Y-84820000D03*
X130980000Y-80040000D03*
X174920000Y-70640000D03*
X173050000Y-89290000D03*
X130060000Y-80060000D03*
X131960000Y-80805000D03*
X175715000Y-72540000D03*
X129140000Y-80060000D03*
X166100000Y-63010000D03*
X175335000Y-83200000D03*
%TO.N,/CELL BALANCING IC/VC10*%
X112440000Y-90905000D03*
X116370000Y-90910000D03*
%TO.N,Net-(D4-K)*%
X119390000Y-80940000D03*
X110805000Y-95730000D03*
%TO.N,BQ_STAT1*%
X140680000Y-94100000D03*
%TO.N,BQ_INT*%
X138430000Y-103100000D03*
X138980000Y-94060000D03*
%TO.N,/HIDRV2*%
X150660000Y-81400000D03*
X157160000Y-73410000D03*
%TO.N,BQ_BATSRC*%
X163760000Y-69630000D03*
X161073637Y-71288573D03*
X159400000Y-67130000D03*
X150480000Y-84500000D03*
X161860000Y-69690000D03*
X162840000Y-69660000D03*
X159430000Y-68050000D03*
%TO.N,BQ_LODRV1*%
X142667817Y-82399999D03*
X131370000Y-62980000D03*
%TO.N,BQ_BATDRV*%
X158110000Y-73480000D03*
X150338909Y-85418909D03*
%TO.N,BQ_LODRV2*%
X145832897Y-82499285D03*
X152645000Y-78295000D03*
%TO.N,BQ_PG*%
X145040000Y-95140000D03*
X140140000Y-101920000D03*
%TO.N,BQ_CE*%
X146860000Y-95110000D03*
X141430000Y-103770000D03*
%TO.N,/HIDRV1*%
X138770000Y-81490000D03*
X131040000Y-70650000D03*
%TO.N,BQ_SDA*%
X142140000Y-112180000D03*
X137590000Y-94090000D03*
%TO.N,BQ_TS*%
X153130000Y-98340000D03*
%TO.N,BQ_STAT2*%
X142430000Y-94200000D03*
%TO.N,/ACDRV*%
X127990000Y-69180000D03*
X138600000Y-85805000D03*
%TO.N,BQ_SCL*%
X134080000Y-95140000D03*
X142890000Y-112190000D03*
%TO.N,BQ2_ALERT*%
X124770000Y-96510000D03*
%TO.N,BQ2_CS*%
X147663000Y-110750000D03*
%TO.N,BQ2_SCLK*%
X124765489Y-95809614D03*
%TO.N,Net-(IC6-PACK)*%
X112440000Y-84950000D03*
X118930000Y-87810000D03*
%TO.N,BQ2_TS1*%
X119730000Y-99010000D03*
%TO.N,BQ2_TS2*%
X120430000Y-99200000D03*
%TO.N,BQ2_TS3*%
X121160000Y-99600000D03*
%TO.N,BAT1*%
X111970000Y-100620000D03*
%TO.N,BAT2*%
X111495000Y-96730000D03*
%TO.N,/Q4_S*%
X121530000Y-69370000D03*
X124970000Y-71900000D03*
X120610000Y-69400000D03*
X122510000Y-69340000D03*
X124940000Y-70980000D03*
%TO.N,/Q7_DRAIN*%
X157630000Y-63460000D03*
X162550000Y-87190000D03*
X162020000Y-79480000D03*
X157630000Y-65690000D03*
X162350000Y-81470000D03*
X161270000Y-74770000D03*
X154670000Y-63800000D03*
X161100000Y-78490000D03*
X154670000Y-65790000D03*
X152830000Y-65790000D03*
X152830000Y-63820000D03*
X153750000Y-64810000D03*
X162190000Y-73790000D03*
X163110000Y-74770000D03*
X156720000Y-64580000D03*
X161580000Y-87190000D03*
X161100000Y-79470000D03*
X162020000Y-78490000D03*
X161580000Y-86020000D03*
X161270000Y-73790000D03*
X162190000Y-74780000D03*
X158600000Y-65690000D03*
X158600000Y-64580000D03*
X162190000Y-72800000D03*
X162350000Y-80500000D03*
X157630000Y-64580000D03*
X162020000Y-77500000D03*
X162550000Y-88250000D03*
X158600000Y-63460000D03*
X154670000Y-64790000D03*
X163110000Y-73770000D03*
X153750000Y-65800000D03*
X163110000Y-72780000D03*
X162940000Y-79470000D03*
X161580000Y-88250000D03*
X161270000Y-72800000D03*
X160670000Y-86020000D03*
X160670000Y-87190000D03*
X162940000Y-77480000D03*
X152830000Y-64810000D03*
X160670000Y-88250000D03*
X161290000Y-80500000D03*
X161290000Y-81470000D03*
X153750000Y-63820000D03*
X161100000Y-77500000D03*
X162550000Y-86020000D03*
X162940000Y-78470000D03*
X156720000Y-65690000D03*
X156720000Y-63460000D03*
%TO.N,/Q1_D*%
X122120000Y-74640000D03*
X129785000Y-87230000D03*
X124950000Y-75410000D03*
X123040000Y-75620000D03*
X121200000Y-75620000D03*
X124950000Y-74240000D03*
X123040000Y-74620000D03*
X122120000Y-75630000D03*
X126830000Y-75410000D03*
X125860000Y-74240000D03*
X131170000Y-88710000D03*
X121200000Y-74640000D03*
X125860000Y-75410000D03*
X121200000Y-73650000D03*
X126830000Y-76470000D03*
X130170000Y-88720000D03*
X128680000Y-87230000D03*
X129070000Y-87970000D03*
X122120000Y-73650000D03*
X131280000Y-87970000D03*
X132275000Y-88715000D03*
X126830000Y-74240000D03*
X125860000Y-76470000D03*
X123040000Y-73630000D03*
X130175000Y-87970000D03*
X130890000Y-87230000D03*
X124950000Y-76470000D03*
%TO.N,BQ2_MOSI*%
X124760000Y-94610000D03*
%TO.N,FDCAN_TX*%
X141740000Y-118890000D03*
%TO.N,FDCAN_RX*%
X141660000Y-113720000D03*
%TO.N,CAN_STB*%
X142390000Y-103680000D03*
%TO.N,BQ2_MISO*%
X124777811Y-95209738D03*
%TO.N,VIN*%
X123020000Y-66020000D03*
X117500000Y-68950000D03*
X123020000Y-64030000D03*
X114680000Y-67980000D03*
X115600000Y-67990000D03*
X116520000Y-65990000D03*
X123020000Y-65020000D03*
X122100000Y-65040000D03*
X121180000Y-66020000D03*
X115600000Y-68950000D03*
X117500000Y-66950000D03*
X121180000Y-65040000D03*
X114680000Y-66010000D03*
X116520000Y-68950000D03*
X116520000Y-66980000D03*
X114680000Y-68940000D03*
X114680000Y-67000000D03*
X122100000Y-66030000D03*
X115600000Y-66010000D03*
X117500000Y-65960000D03*
X116520000Y-67980000D03*
X121180000Y-64050000D03*
X122100000Y-64050000D03*
X117500000Y-67975000D03*
X115600000Y-67000000D03*
%TD*%
D26*
%TO.N,GND*%
X138510000Y-110530000D02*
X138099000Y-110530000D01*
X149228238Y-106259999D02*
X149430366Y-106462127D01*
X137770000Y-110201000D02*
X137770000Y-109399999D01*
X138099000Y-110530000D02*
X137770000Y-110201000D01*
X114730000Y-75440000D02*
X114730000Y-76480000D01*
X117270000Y-74860000D02*
X117270000Y-76360000D01*
X141140001Y-106259999D02*
X141330000Y-106070000D01*
X114730000Y-76480000D02*
X114340000Y-76870000D01*
X148138000Y-106259999D02*
X149228238Y-106259999D01*
X139662000Y-106259999D02*
X138660000Y-106259999D01*
X145450000Y-126740000D02*
X145450000Y-127800000D01*
X139662000Y-106259999D02*
X141140001Y-106259999D01*
X138660000Y-106259999D02*
X137750000Y-105349999D01*
D27*
%TO.N,/SW1*%
X130040000Y-70800000D02*
X130040000Y-70450000D01*
X137990000Y-71930000D02*
X137430000Y-71370000D01*
X137971679Y-80338321D02*
X137971679Y-71948321D01*
X136740000Y-81570000D02*
X137971679Y-80338321D01*
X130610000Y-71370000D02*
X130040000Y-70800000D01*
X137430000Y-71370000D02*
X130610000Y-71370000D01*
X137971679Y-71948321D02*
X137990000Y-71930000D01*
%TO.N,/SW2*%
X158140000Y-69570000D02*
X158140000Y-69908057D01*
X153360000Y-81261364D02*
X153360000Y-81680000D01*
X158821000Y-70589057D02*
X158821000Y-75800364D01*
X158821000Y-75800364D02*
X153360000Y-81261364D01*
X158140000Y-69908057D02*
X158821000Y-70589057D01*
D26*
%TO.N,/VAC*%
X135820000Y-86770000D02*
X137530000Y-86770000D01*
X129730000Y-89690000D02*
X132900000Y-89690000D01*
X132900000Y-89690000D02*
X135820000Y-86770000D01*
X117835000Y-77795000D02*
X129730000Y-89690000D01*
D28*
%TO.N,BQ_REGN*%
X147790000Y-86420000D02*
X144160000Y-82790000D01*
X147790000Y-97860000D02*
X147790000Y-86420000D01*
X144160000Y-82790000D02*
X143950000Y-82790000D01*
D26*
%TO.N,NRST*%
X138722500Y-104759999D02*
X139662000Y-104759999D01*
X148060000Y-126137500D02*
X146167500Y-126137500D01*
X145450000Y-124661834D02*
X145450000Y-125420000D01*
X131740000Y-110951834D02*
X145450000Y-124661834D01*
X136280000Y-105230000D02*
X136880000Y-104630000D01*
X146167500Y-126137500D02*
X145450000Y-125420000D01*
X136880000Y-104630000D02*
X138592501Y-104630000D01*
X131740000Y-105250000D02*
X131740000Y-110951834D01*
X135300000Y-104250000D02*
X132740000Y-104250000D01*
X132740000Y-104250000D02*
X131740000Y-105250000D01*
X138592501Y-104630000D02*
X138722500Y-104759999D01*
X136280000Y-105230000D02*
X135300000Y-104250000D01*
%TO.N,/CELL BALANCING IC/VC10*%
X112440000Y-90905000D02*
X116365000Y-90905000D01*
X116365000Y-90905000D02*
X116370000Y-90910000D01*
%TO.N,BQ_STAT1*%
X144150000Y-99720000D02*
X141460000Y-97030000D01*
X141460000Y-97030000D02*
X141460000Y-94880000D01*
X141460000Y-94880000D02*
X140680000Y-94100000D01*
X144150000Y-102271999D02*
X144150000Y-99720000D01*
%TO.N,BQ_INT*%
X138722500Y-104259999D02*
X138430000Y-103967499D01*
X139662000Y-104259999D02*
X138722500Y-104259999D01*
X138430000Y-103967499D02*
X138430000Y-103100000D01*
D27*
%TO.N,/HIDRV2*%
X157160000Y-73429346D02*
X157160000Y-73410000D01*
X157261000Y-74849000D02*
X157261000Y-73530346D01*
X150710000Y-81400000D02*
X157261000Y-74849000D01*
X157261000Y-73530346D02*
X157160000Y-73429346D01*
X150660000Y-81400000D02*
X150710000Y-81400000D01*
%TO.N,BQ_BATSRC*%
X161073637Y-71288573D02*
X160150000Y-72212210D01*
X152580000Y-84500000D02*
X150480000Y-84500000D01*
X160150000Y-76930000D02*
X152580000Y-84500000D01*
X160150000Y-72212210D02*
X160150000Y-76930000D01*
%TO.N,BQ_LODRV1*%
X142800000Y-82150836D02*
X142800000Y-65020000D01*
X140760000Y-62980000D02*
X131370000Y-62980000D01*
X142667817Y-82283019D02*
X142800000Y-82150836D01*
X142667817Y-82399999D02*
X142667817Y-82283019D01*
X142800000Y-65020000D02*
X140760000Y-62980000D01*
%TO.N,BQ_BATDRV*%
X158120000Y-73490000D02*
X158110000Y-73480000D01*
X149680000Y-83950000D02*
X158120000Y-75510000D01*
X149680000Y-84760000D02*
X149680000Y-83950000D01*
X158120000Y-75510000D02*
X158120000Y-73490000D01*
X150338909Y-85418909D02*
X149680000Y-84760000D01*
%TO.N,BQ_LODRV2*%
X145886962Y-82533091D02*
X145883871Y-82530000D01*
X145883871Y-82530000D02*
X145863612Y-82530000D01*
X152645000Y-78295000D02*
X148406909Y-82533091D01*
X148406909Y-82533091D02*
X145886962Y-82533091D01*
D26*
%TO.N,BQ_PG*%
X139662000Y-103759999D02*
X139662000Y-102398000D01*
X139662000Y-102398000D02*
X140140000Y-101920000D01*
%TO.N,BQ_CE*%
X141150000Y-102271999D02*
X141150000Y-103490000D01*
X141150000Y-103490000D02*
X141430000Y-103770000D01*
D27*
%TO.N,/HIDRV1*%
X137970000Y-70650000D02*
X131040000Y-70650000D01*
X138770000Y-71450000D02*
X137970000Y-70650000D01*
X138770000Y-81490000D02*
X138770000Y-71450000D01*
D26*
%TO.N,BQ_SDA*%
X142150000Y-112170000D02*
X142140000Y-112180000D01*
X142150000Y-110747999D02*
X142150000Y-112170000D01*
%TO.N,BQ_STAT2*%
X144650000Y-96420000D02*
X144650000Y-102271999D01*
X142430000Y-94200000D02*
X144650000Y-96420000D01*
D27*
%TO.N,/ACDRV*%
X127920000Y-74940000D02*
X138600000Y-85620000D01*
X138600000Y-85620000D02*
X138600000Y-85805000D01*
X127920000Y-69250000D02*
X127920000Y-74940000D01*
X127990000Y-69180000D02*
X127920000Y-69250000D01*
D26*
%TO.N,BQ_SCL*%
X142650000Y-110747999D02*
X142650000Y-111950000D01*
X142650000Y-111950000D02*
X142890000Y-112190000D01*
%TO.N,SWDIO*%
X149394000Y-109076499D02*
X149394000Y-119851500D01*
X148138000Y-108759999D02*
X149077500Y-108759999D01*
X149394000Y-119851500D02*
X155680000Y-126137500D01*
X149077500Y-108759999D02*
X149394000Y-109076499D01*
%TO.N,BQ2_ALERT*%
X129360000Y-101100000D02*
X141917501Y-101100000D01*
X142150000Y-101332499D02*
X142150000Y-102271999D01*
X124770000Y-96510000D02*
X129360000Y-101100000D01*
X141917501Y-101100000D02*
X142150000Y-101332499D01*
%TO.N,SWCLK*%
X148138000Y-123675500D02*
X150600000Y-126137500D01*
X148138000Y-109259999D02*
X148138000Y-123675500D01*
%TO.N,BQ2_CS*%
X146652001Y-110750000D02*
X146650000Y-110747999D01*
X147663000Y-110750000D02*
X146652001Y-110750000D01*
%TO.N,BQ2_SCLK*%
X142053889Y-100740000D02*
X142576000Y-101262111D01*
X142576000Y-102197999D02*
X142650000Y-102271999D01*
X129695875Y-100740000D02*
X142053889Y-100740000D01*
X142576000Y-101262111D02*
X142576000Y-102197999D01*
X124765489Y-95809614D02*
X129695875Y-100740000D01*
%TO.N,Net-(IC6-PACK)*%
X118930000Y-87810000D02*
X115300000Y-87810000D01*
X115300000Y-87810000D02*
X112440000Y-84950000D01*
%TO.N,BAT1*%
X111970000Y-100620000D02*
X111970000Y-92157500D01*
X111970000Y-92157500D02*
X105625000Y-85812500D01*
%TO.N,BAT2*%
X111495000Y-94182500D02*
X111495000Y-96730000D01*
X105625000Y-88312500D02*
X111495000Y-94182500D01*
%TO.N,BQ2_MOSI*%
X143650000Y-101070000D02*
X143650000Y-102271999D01*
X142500000Y-99920000D02*
X143650000Y-101070000D01*
X135263166Y-99920000D02*
X142500000Y-99920000D01*
X124760000Y-94610000D02*
X129953166Y-94610000D01*
X129953166Y-94610000D02*
X135263166Y-99920000D01*
%TO.N,FDCAN_TX*%
X141150000Y-110747999D02*
X141150000Y-118300000D01*
X141150000Y-118300000D02*
X141740000Y-118890000D01*
%TO.N,FDCAN_RX*%
X141650000Y-113710000D02*
X141660000Y-113720000D01*
X141650000Y-110747999D02*
X141650000Y-113710000D01*
%TO.N,CAN_STB*%
X141650000Y-103211499D02*
X142118501Y-103680000D01*
X141650000Y-102271999D02*
X141650000Y-103211499D01*
X142118501Y-103680000D02*
X142390000Y-103680000D01*
%TO.N,LED2_GREEN*%
X149739999Y-105759999D02*
X149949999Y-105969999D01*
X149949999Y-105969999D02*
X150230000Y-105969999D01*
X148138000Y-105759999D02*
X149739999Y-105759999D01*
%TO.N,LED1_RED*%
X149220000Y-105259999D02*
X150180000Y-104299999D01*
X148138000Y-105259999D02*
X149220000Y-105259999D01*
%TO.N,Net-(LED1-A)*%
X151830000Y-105969999D02*
X154119999Y-105969999D01*
X154119999Y-105969999D02*
X154170000Y-106020000D01*
%TO.N,Net-(LED2-A)*%
X153860001Y-104299999D02*
X154170000Y-103990000D01*
X151780000Y-104299999D02*
X153860001Y-104299999D01*
%TO.N,BQ2_MISO*%
X124777811Y-95209738D02*
X124901549Y-95086000D01*
X125082166Y-94961000D02*
X129114746Y-94961000D01*
X124901549Y-95086000D02*
X124957166Y-95086000D01*
X134542746Y-100389000D02*
X142239000Y-100389000D01*
X142239000Y-100389000D02*
X143150000Y-101300000D01*
X143150000Y-101300000D02*
X143150000Y-102271999D01*
X129114746Y-94961000D02*
X134542746Y-100389000D01*
X124957166Y-95086000D02*
X125082166Y-94961000D01*
%TD*%
%TA.AperFunction,Conductor*%
%TO.N,+3V3*%
G36*
X135105677Y-104709685D02*
G01*
X135126319Y-104726319D01*
X135253681Y-104853681D01*
X135287166Y-104915004D01*
X135290000Y-104941362D01*
X135290000Y-105740000D01*
X135570000Y-106020000D01*
X137968638Y-106020000D01*
X138035677Y-106039685D01*
X138056319Y-106056319D01*
X138550000Y-106550000D01*
X138735522Y-106550000D01*
X138802561Y-106569685D01*
X138804414Y-106570899D01*
X138846268Y-106598866D01*
X138846270Y-106598867D01*
X138904747Y-106610498D01*
X138904750Y-106610499D01*
X138904752Y-106610499D01*
X140419250Y-106610499D01*
X140419251Y-106610498D01*
X140434068Y-106607551D01*
X140477729Y-106598867D01*
X140477731Y-106598866D01*
X140519586Y-106570899D01*
X140586263Y-106550020D01*
X140588478Y-106550000D01*
X141308638Y-106550000D01*
X141338078Y-106558644D01*
X141368065Y-106565168D01*
X141373080Y-106568922D01*
X141375677Y-106569685D01*
X141396319Y-106586319D01*
X141483681Y-106673681D01*
X141517166Y-106735004D01*
X141520000Y-106761362D01*
X141520000Y-107698638D01*
X141500315Y-107765677D01*
X141483681Y-107786319D01*
X141416319Y-107853681D01*
X141354996Y-107887166D01*
X141328638Y-107890000D01*
X138940000Y-107890000D01*
X138939999Y-107890000D01*
X138917213Y-107899439D01*
X138916538Y-107897811D01*
X138889678Y-107912476D01*
X138887522Y-107912925D01*
X138846269Y-107921131D01*
X138779947Y-107965446D01*
X138735632Y-108031768D01*
X138727426Y-108073021D01*
X138695040Y-108134932D01*
X138693490Y-108136509D01*
X138086319Y-108743681D01*
X138024996Y-108777166D01*
X137998638Y-108780000D01*
X132911362Y-108780000D01*
X132881921Y-108771355D01*
X132851935Y-108764832D01*
X132846919Y-108761077D01*
X132844323Y-108760315D01*
X132823681Y-108743681D01*
X132666319Y-108586319D01*
X132632834Y-108524996D01*
X132630000Y-108498638D01*
X132630000Y-104961362D01*
X132649685Y-104894323D01*
X132666319Y-104873681D01*
X132813681Y-104726319D01*
X132875004Y-104692834D01*
X132901362Y-104690000D01*
X135038638Y-104690000D01*
X135105677Y-104709685D01*
G37*
%TD.AperFunction*%
%TD*%
%TA.AperFunction,Conductor*%
%TO.N,BQ_BATSRC*%
G36*
X165475677Y-66679685D02*
G01*
X165496319Y-66696319D01*
X165733681Y-66933681D01*
X165767166Y-66995004D01*
X165770000Y-67021362D01*
X165770000Y-71288638D01*
X165750315Y-71355677D01*
X165733681Y-71376319D01*
X165526319Y-71583681D01*
X165464996Y-71617166D01*
X165438638Y-71620000D01*
X162127131Y-71620000D01*
X162060092Y-71600315D01*
X162014337Y-71547511D01*
X162007358Y-71528097D01*
X161995251Y-71482913D01*
X161942524Y-71391587D01*
X161867957Y-71317020D01*
X161776631Y-71264293D01*
X161674771Y-71237000D01*
X161569317Y-71237000D01*
X161467457Y-71264293D01*
X161467454Y-71264294D01*
X161376129Y-71317021D01*
X161301565Y-71391585D01*
X161248838Y-71482910D01*
X161248836Y-71482914D01*
X161245330Y-71496000D01*
X161236731Y-71528093D01*
X161200368Y-71587753D01*
X161137521Y-71618283D01*
X161116957Y-71620000D01*
X159395500Y-71620000D01*
X159328461Y-71600315D01*
X159282706Y-71547511D01*
X159271500Y-71496000D01*
X159271500Y-70529750D01*
X159271500Y-70529748D01*
X159240799Y-70415171D01*
X159240797Y-70415167D01*
X159215731Y-70371751D01*
X159181493Y-70312449D01*
X159181487Y-70312441D01*
X158856319Y-69987273D01*
X158822834Y-69925950D01*
X158820000Y-69899592D01*
X158820000Y-67241362D01*
X158839685Y-67174323D01*
X158856319Y-67153681D01*
X159313681Y-66696319D01*
X159375004Y-66662834D01*
X159401362Y-66660000D01*
X165408638Y-66660000D01*
X165475677Y-66679685D01*
G37*
%TD.AperFunction*%
%TD*%
%TA.AperFunction,Conductor*%
%TO.N,GND*%
G36*
X156455677Y-103198406D02*
G01*
X156476319Y-103215040D01*
X157163681Y-103902402D01*
X157197166Y-103963725D01*
X157200000Y-103990083D01*
X157200000Y-105997359D01*
X157180315Y-106064398D01*
X157163681Y-106085040D01*
X156326319Y-106922402D01*
X156264996Y-106955887D01*
X156238638Y-106958721D01*
X155351362Y-106958721D01*
X155284323Y-106939036D01*
X155263681Y-106922402D01*
X154986319Y-106645040D01*
X154952834Y-106583717D01*
X154950000Y-106557359D01*
X154950000Y-103570083D01*
X154969685Y-103503044D01*
X154986319Y-103482402D01*
X155253681Y-103215040D01*
X155315004Y-103181555D01*
X155341362Y-103178721D01*
X156388638Y-103178721D01*
X156455677Y-103198406D01*
G37*
%TD.AperFunction*%
%TD*%
%TA.AperFunction,Conductor*%
%TO.N,BQ_SYS*%
G36*
X137155677Y-71849685D02*
G01*
X137176319Y-71866319D01*
X137484860Y-72174860D01*
X137518345Y-72236183D01*
X137521179Y-72262541D01*
X137521179Y-76447459D01*
X137501494Y-76514498D01*
X137484860Y-76535140D01*
X137126319Y-76893681D01*
X137064996Y-76927166D01*
X137038638Y-76930000D01*
X130598465Y-76930000D01*
X130531426Y-76910315D01*
X130510784Y-76893681D01*
X128606319Y-74989215D01*
X128572834Y-74927892D01*
X128570000Y-74901534D01*
X128570000Y-72371362D01*
X128589685Y-72304323D01*
X128606319Y-72283681D01*
X129023681Y-71866319D01*
X129085004Y-71832834D01*
X129111362Y-71830000D01*
X137088638Y-71830000D01*
X137155677Y-71849685D01*
G37*
%TD.AperFunction*%
%TD*%
%TA.AperFunction,Conductor*%
%TO.N,+BATT*%
G36*
X160925677Y-89464061D02*
G01*
X160946319Y-89480695D01*
X161313681Y-89848057D01*
X161347166Y-89909380D01*
X161350000Y-89935738D01*
X161350000Y-99843014D01*
X161330315Y-99910053D01*
X161313681Y-99930695D01*
X160576319Y-100668057D01*
X160514996Y-100701542D01*
X160488638Y-100704376D01*
X156361362Y-100704376D01*
X156294323Y-100684691D01*
X156273681Y-100668057D01*
X155526319Y-99920695D01*
X155492834Y-99859372D01*
X155490000Y-99833014D01*
X155490000Y-89925738D01*
X155509685Y-89858699D01*
X155526319Y-89838057D01*
X155883681Y-89480695D01*
X155945004Y-89447210D01*
X155971362Y-89444376D01*
X160858638Y-89444376D01*
X160925677Y-89464061D01*
G37*
%TD.AperFunction*%
%TD*%
%TA.AperFunction,Conductor*%
%TO.N,/SW2*%
G36*
X149755677Y-65239685D02*
G01*
X149776319Y-65256319D01*
X151650000Y-67130000D01*
X158018638Y-67130000D01*
X158085677Y-67149685D01*
X158106319Y-67166319D01*
X158523681Y-67583681D01*
X158557166Y-67645004D01*
X158560000Y-67671362D01*
X158560000Y-68478882D01*
X158540315Y-68545921D01*
X158487511Y-68591676D01*
X158418353Y-68601620D01*
X158374000Y-68586269D01*
X158305794Y-68546890D01*
X158305793Y-68546889D01*
X158305792Y-68546889D01*
X158203932Y-68519596D01*
X158098478Y-68519596D01*
X157996618Y-68546889D01*
X157996615Y-68546890D01*
X157905290Y-68599617D01*
X157830726Y-68674181D01*
X157777999Y-68765506D01*
X157777998Y-68765509D01*
X157750705Y-68867369D01*
X157750705Y-68972823D01*
X157777998Y-69074683D01*
X157830725Y-69166009D01*
X157905292Y-69240576D01*
X157996618Y-69293303D01*
X158098478Y-69320596D01*
X158098480Y-69320596D01*
X158203930Y-69320596D01*
X158203932Y-69320596D01*
X158305792Y-69293303D01*
X158374001Y-69253922D01*
X158441899Y-69237449D01*
X158507926Y-69260301D01*
X158551117Y-69315222D01*
X158560000Y-69361309D01*
X158560000Y-71558637D01*
X158540315Y-71625676D01*
X158523681Y-71646318D01*
X157717854Y-72452144D01*
X157662269Y-72484237D01*
X157615415Y-72496792D01*
X157615410Y-72496794D01*
X157524085Y-72549521D01*
X157449521Y-72624085D01*
X157396794Y-72715410D01*
X157396792Y-72715416D01*
X157384237Y-72762268D01*
X157376220Y-72776152D01*
X157373296Y-72789598D01*
X157352145Y-72817852D01*
X157246819Y-72923180D01*
X157185496Y-72956666D01*
X157159137Y-72959500D01*
X157100691Y-72959500D01*
X156986114Y-72990201D01*
X156986112Y-72990201D01*
X156986112Y-72990202D01*
X156883387Y-73049511D01*
X156883384Y-73049513D01*
X156799513Y-73133384D01*
X156799511Y-73133387D01*
X156740201Y-73236112D01*
X156738300Y-73243207D01*
X156721047Y-73307595D01*
X156684684Y-73367254D01*
X156621838Y-73397783D01*
X156601274Y-73399500D01*
X156557273Y-73399500D01*
X156455413Y-73426793D01*
X156455410Y-73426794D01*
X156364085Y-73479521D01*
X156289521Y-73554085D01*
X156236794Y-73645410D01*
X156236793Y-73645413D01*
X156209500Y-73747273D01*
X156209500Y-73852727D01*
X156213746Y-73868575D01*
X156213459Y-73880574D01*
X156217654Y-73891819D01*
X156212642Y-73914856D01*
X156212081Y-73938425D01*
X156204983Y-73950069D01*
X156202803Y-73960092D01*
X156181652Y-73988347D01*
X156113986Y-74056014D01*
X156046317Y-74123682D01*
X155984997Y-74157166D01*
X155958638Y-74160000D01*
X147361362Y-74160000D01*
X147294323Y-74140315D01*
X147273681Y-74123681D01*
X146366319Y-73216319D01*
X146332834Y-73154996D01*
X146330000Y-73128638D01*
X146330000Y-65801362D01*
X146349685Y-65734323D01*
X146366319Y-65713681D01*
X146823681Y-65256319D01*
X146885004Y-65222834D01*
X146911362Y-65220000D01*
X149688638Y-65220000D01*
X149755677Y-65239685D01*
G37*
%TD.AperFunction*%
%TD*%
%TA.AperFunction,Conductor*%
%TO.N,BQ_SYS*%
G36*
X131915677Y-79619685D02*
G01*
X131936319Y-79636319D01*
X133043681Y-80743681D01*
X133077166Y-80805004D01*
X133080000Y-80831362D01*
X133080000Y-82968638D01*
X133060315Y-83035677D01*
X133043681Y-83056319D01*
X132606319Y-83493681D01*
X132544996Y-83527166D01*
X132518638Y-83530000D01*
X131999999Y-83530000D01*
X131200466Y-84329532D01*
X131139143Y-84363017D01*
X131077850Y-84360828D01*
X131016545Y-84342827D01*
X131016540Y-84342826D01*
X131016536Y-84342825D01*
X130958638Y-84334500D01*
X128165862Y-84334500D01*
X128098823Y-84314815D01*
X128078181Y-84298181D01*
X127896319Y-84116319D01*
X127862834Y-84054996D01*
X127860000Y-84028638D01*
X127860000Y-80031362D01*
X127879685Y-79964323D01*
X127896319Y-79943681D01*
X128203681Y-79636319D01*
X128265004Y-79602834D01*
X128291362Y-79600000D01*
X131848638Y-79600000D01*
X131915677Y-79619685D01*
G37*
%TD.AperFunction*%
%TD*%
%TA.AperFunction,Conductor*%
%TO.N,VIN*%
G36*
X126445677Y-61599685D02*
G01*
X126466319Y-61616319D01*
X126773681Y-61923681D01*
X126807166Y-61985004D01*
X126810000Y-62011362D01*
X126810000Y-66698638D01*
X126790315Y-66765677D01*
X126773681Y-66786319D01*
X126426319Y-67133681D01*
X126364996Y-67167166D01*
X126338638Y-67170000D01*
X119799999Y-67170000D01*
X119220000Y-67749999D01*
X119220000Y-73088638D01*
X119200315Y-73155677D01*
X119183681Y-73176319D01*
X118296319Y-74063681D01*
X118234996Y-74097166D01*
X118208638Y-74100000D01*
X107541362Y-74100000D01*
X107474323Y-74080315D01*
X107453681Y-74063681D01*
X106966319Y-73576319D01*
X106932834Y-73514996D01*
X106930000Y-73488638D01*
X106930000Y-67261362D01*
X106949685Y-67194323D01*
X106966319Y-67173681D01*
X107441362Y-66698638D01*
X109410000Y-64730000D01*
X109410000Y-62151362D01*
X109429685Y-62084323D01*
X109446319Y-62063681D01*
X109893681Y-61616319D01*
X109955004Y-61582834D01*
X109981362Y-61580000D01*
X126378638Y-61580000D01*
X126445677Y-61599685D01*
G37*
%TD.AperFunction*%
%TD*%
%TA.AperFunction,Conductor*%
%TO.N,BQ_SYS*%
G36*
X167375677Y-61599685D02*
G01*
X167396319Y-61616319D01*
X167763681Y-61983681D01*
X167797166Y-62045004D01*
X167800000Y-62071362D01*
X167800000Y-66098638D01*
X167780315Y-66165677D01*
X167763681Y-66186319D01*
X167486319Y-66463681D01*
X167424996Y-66497166D01*
X167398638Y-66500000D01*
X165597484Y-66500000D01*
X165540011Y-66485876D01*
X165533579Y-66482511D01*
X165533574Y-66482509D01*
X165466543Y-66462826D01*
X165465894Y-66462732D01*
X165408638Y-66454500D01*
X159915862Y-66454500D01*
X159848823Y-66434815D01*
X159828181Y-66418181D01*
X159536319Y-66126319D01*
X159502834Y-66064996D01*
X159500000Y-66038638D01*
X159500000Y-62041362D01*
X159519685Y-61974323D01*
X159536319Y-61953681D01*
X159873681Y-61616319D01*
X159935004Y-61582834D01*
X159961362Y-61580000D01*
X167308638Y-61580000D01*
X167375677Y-61599685D01*
G37*
%TD.AperFunction*%
%TD*%
%TA.AperFunction,Conductor*%
%TO.N,/Q7_DRAIN*%
G36*
X161333828Y-71919685D02*
G01*
X161354470Y-71936319D01*
X161376131Y-71957980D01*
X161467457Y-72010707D01*
X161569317Y-72038000D01*
X161569319Y-72038000D01*
X161674769Y-72038000D01*
X161674771Y-72038000D01*
X161776631Y-72010707D01*
X161867957Y-71957980D01*
X161889618Y-71936319D01*
X161950941Y-71902834D01*
X161977299Y-71900000D01*
X163678638Y-71900000D01*
X163745677Y-71919685D01*
X163766319Y-71936319D01*
X164563681Y-72733681D01*
X164597166Y-72795004D01*
X164600000Y-72821362D01*
X164600000Y-81628638D01*
X164580315Y-81695677D01*
X164563681Y-81716319D01*
X163986319Y-82293681D01*
X163924996Y-82327166D01*
X163898638Y-82330000D01*
X159871362Y-82330000D01*
X159804323Y-82310315D01*
X159783681Y-82293681D01*
X159176319Y-81686319D01*
X159142834Y-81624996D01*
X159140000Y-81598638D01*
X159140000Y-78628465D01*
X159159685Y-78561426D01*
X159176315Y-78540788D01*
X160510490Y-77206614D01*
X160569799Y-77103887D01*
X160576285Y-77079675D01*
X160576286Y-77079675D01*
X160576286Y-77079671D01*
X160600500Y-76989309D01*
X160600500Y-72450174D01*
X160620185Y-72383135D01*
X160636815Y-72362497D01*
X161062993Y-71936318D01*
X161089920Y-71921615D01*
X161115739Y-71905023D01*
X161121939Y-71904131D01*
X161124316Y-71902834D01*
X161150674Y-71900000D01*
X161266789Y-71900000D01*
X161333828Y-71919685D01*
G37*
%TD.AperFunction*%
%TD*%
%TA.AperFunction,Conductor*%
%TO.N,/Q1_D*%
G36*
X131025677Y-84559685D02*
G01*
X131046319Y-84576319D01*
X131213681Y-84743681D01*
X131247166Y-84805004D01*
X131250000Y-84831362D01*
X131250000Y-86060000D01*
X131540000Y-86350000D01*
X132718638Y-86350000D01*
X132785677Y-86369685D01*
X132806319Y-86386319D01*
X133023681Y-86603681D01*
X133057166Y-86665004D01*
X133060000Y-86691362D01*
X133060000Y-88908638D01*
X133040315Y-88975677D01*
X133023681Y-88996319D01*
X132746319Y-89273681D01*
X132684996Y-89307166D01*
X132658638Y-89310000D01*
X129981362Y-89310000D01*
X129914323Y-89290315D01*
X129893681Y-89273681D01*
X127806319Y-87186319D01*
X127772834Y-87124996D01*
X127770000Y-87098638D01*
X127770000Y-84741362D01*
X127778644Y-84711921D01*
X127785168Y-84681935D01*
X127788922Y-84676919D01*
X127789685Y-84674323D01*
X127806319Y-84653681D01*
X127883681Y-84576319D01*
X127945004Y-84542834D01*
X127971362Y-84540000D01*
X130958638Y-84540000D01*
X131025677Y-84559685D01*
G37*
%TD.AperFunction*%
%TD*%
%TA.AperFunction,Conductor*%
%TO.N,BQ_SYS*%
G36*
X177928862Y-82479685D02*
G01*
X177949504Y-82496319D01*
X178436866Y-82983681D01*
X178470351Y-83045004D01*
X178473185Y-83071362D01*
X178473185Y-92598638D01*
X178453500Y-92665677D01*
X178436866Y-92686319D01*
X177759504Y-93363681D01*
X177698181Y-93397166D01*
X177671823Y-93400000D01*
X170734547Y-93400000D01*
X170667508Y-93380315D01*
X170646866Y-93363681D01*
X169959504Y-92676319D01*
X169926019Y-92614996D01*
X169923185Y-92588638D01*
X169923185Y-83051362D01*
X169942870Y-82984323D01*
X169959504Y-82963681D01*
X170426866Y-82496319D01*
X170488189Y-82462834D01*
X170514547Y-82460000D01*
X177861823Y-82460000D01*
X177928862Y-82479685D01*
G37*
%TD.AperFunction*%
%TD*%
%TA.AperFunction,Conductor*%
%TO.N,+BATT*%
G36*
X166935677Y-114449685D02*
G01*
X166956319Y-114466319D01*
X167173681Y-114683681D01*
X167207166Y-114745004D01*
X167210000Y-114771362D01*
X167210000Y-119958638D01*
X167190315Y-120025677D01*
X167173681Y-120046319D01*
X166966319Y-120253681D01*
X166904996Y-120287166D01*
X166878638Y-120290000D01*
X162811362Y-120290000D01*
X162744323Y-120270315D01*
X162723681Y-120253681D01*
X162546319Y-120076319D01*
X162512834Y-120014996D01*
X162510000Y-119988638D01*
X162510000Y-115241362D01*
X162529685Y-115174323D01*
X162546319Y-115153681D01*
X163233681Y-114466319D01*
X163295004Y-114432834D01*
X163321362Y-114430000D01*
X166868638Y-114430000D01*
X166935677Y-114449685D01*
G37*
%TD.AperFunction*%
%TD*%
%TA.AperFunction,Conductor*%
%TO.N,/Q7_DRAIN*%
G36*
X163503558Y-84219341D02*
G01*
X163524200Y-84235975D01*
X163921562Y-84633337D01*
X163955047Y-84694660D01*
X163957881Y-84721018D01*
X163957881Y-88638294D01*
X163938196Y-88705333D01*
X163921562Y-88725975D01*
X163464200Y-89183337D01*
X163402877Y-89216822D01*
X163376519Y-89219656D01*
X155979243Y-89219656D01*
X155912204Y-89199971D01*
X155891562Y-89183337D01*
X155394200Y-88685975D01*
X155360715Y-88624652D01*
X155357881Y-88598294D01*
X155357881Y-84991018D01*
X155377566Y-84923979D01*
X155394200Y-84903337D01*
X156061562Y-84235975D01*
X156122885Y-84202490D01*
X156149243Y-84199656D01*
X163436519Y-84199656D01*
X163503558Y-84219341D01*
G37*
%TD.AperFunction*%
%TD*%
%TA.AperFunction,Conductor*%
%TO.N,/Q1_D*%
G36*
X126695677Y-72675880D02*
G01*
X126716319Y-72692514D01*
X127213681Y-73189876D01*
X127247166Y-73251199D01*
X127250000Y-73277557D01*
X127250000Y-77684833D01*
X127230315Y-77751872D01*
X127213681Y-77772514D01*
X126716319Y-78269876D01*
X126654996Y-78303361D01*
X126628638Y-78306195D01*
X119651362Y-78306195D01*
X119584323Y-78286510D01*
X119563681Y-78269876D01*
X119146319Y-77852514D01*
X119112834Y-77791191D01*
X119110000Y-77764833D01*
X119110000Y-73647557D01*
X119129685Y-73580518D01*
X119146319Y-73559876D01*
X120013681Y-72692514D01*
X120075004Y-72659029D01*
X120101362Y-72656195D01*
X126628638Y-72656195D01*
X126695677Y-72675880D01*
G37*
%TD.AperFunction*%
%TD*%
%TA.AperFunction,Conductor*%
%TO.N,+3V3*%
G36*
X147166240Y-106511822D02*
G01*
X147172601Y-106510638D01*
X147199360Y-106521547D01*
X147227074Y-106529685D01*
X147235012Y-106536082D01*
X147237301Y-106537015D01*
X147238776Y-106539115D01*
X147247719Y-106546321D01*
X147255950Y-106554553D01*
X147322269Y-106598866D01*
X147322270Y-106598867D01*
X147380747Y-106610498D01*
X147380750Y-106610499D01*
X147380752Y-106610499D01*
X148895249Y-106610499D01*
X148950111Y-106599586D01*
X149019702Y-106605813D01*
X149070606Y-106643090D01*
X149076786Y-106650709D01*
X149109886Y-106708040D01*
X149180838Y-106778992D01*
X149183166Y-106781862D01*
X149184448Y-106782602D01*
X149184453Y-106782607D01*
X149275779Y-106835334D01*
X149275781Y-106835334D01*
X149275782Y-106835335D01*
X149284053Y-106837551D01*
X149303782Y-106849575D01*
X149339646Y-106869646D01*
X149680000Y-107210000D01*
X154058638Y-107210000D01*
X154088078Y-107218644D01*
X154118065Y-107225168D01*
X154123080Y-107228922D01*
X154125677Y-107229685D01*
X154146319Y-107246319D01*
X154173681Y-107273681D01*
X154207166Y-107335004D01*
X154210000Y-107361362D01*
X154210000Y-108328638D01*
X154190315Y-108395677D01*
X154173681Y-108416319D01*
X154136319Y-108453681D01*
X154074996Y-108487166D01*
X154048638Y-108490000D01*
X150845468Y-108490000D01*
X150778429Y-108470315D01*
X150757787Y-108453681D01*
X150754553Y-108450447D01*
X150688230Y-108406131D01*
X150688229Y-108406130D01*
X150629752Y-108394499D01*
X150629748Y-108394499D01*
X149815861Y-108394499D01*
X149748822Y-108374814D01*
X149728180Y-108358180D01*
X149226319Y-107856319D01*
X149192834Y-107794996D01*
X149190000Y-107768638D01*
X149190000Y-107170000D01*
X149090716Y-107070716D01*
X149089840Y-107069406D01*
X149088909Y-107068872D01*
X149086903Y-107065010D01*
X149071376Y-107041772D01*
X149071152Y-107041923D01*
X149040711Y-106996366D01*
X149020052Y-106965447D01*
X149020051Y-106965446D01*
X149020027Y-106965410D01*
X149019707Y-106965216D01*
X148953730Y-106921131D01*
X148953729Y-106921130D01*
X148895252Y-106909499D01*
X148895248Y-106909499D01*
X147380752Y-106909499D01*
X147380747Y-106909499D01*
X147322270Y-106921130D01*
X147322269Y-106921131D01*
X147245793Y-106972232D01*
X147244793Y-106970735D01*
X147240464Y-106973099D01*
X147226155Y-106986572D01*
X147207708Y-106990985D01*
X147196390Y-106997166D01*
X147185216Y-106996366D01*
X147170032Y-107000000D01*
X146774000Y-107000000D01*
X146706961Y-106980315D01*
X146661206Y-106927511D01*
X146650000Y-106876000D01*
X146650000Y-106634000D01*
X146669685Y-106566961D01*
X146722489Y-106521206D01*
X146774000Y-106510000D01*
X147160035Y-106510000D01*
X147166240Y-106511822D01*
G37*
%TD.AperFunction*%
%TD*%
%TA.AperFunction,Conductor*%
%TO.N,/Q7_DRAIN*%
G36*
X158665677Y-61709685D02*
G01*
X158686319Y-61726319D01*
X159163681Y-62203681D01*
X159197166Y-62265004D01*
X159200000Y-62291362D01*
X159200000Y-66358638D01*
X159180315Y-66425677D01*
X159163681Y-66446319D01*
X158766319Y-66843681D01*
X158704996Y-66877166D01*
X158678638Y-66880000D01*
X151751362Y-66880000D01*
X151684323Y-66860315D01*
X151663681Y-66843681D01*
X150626319Y-65806319D01*
X150592834Y-65744996D01*
X150590000Y-65718638D01*
X150590000Y-62051362D01*
X150609685Y-61984323D01*
X150626319Y-61963681D01*
X150863681Y-61726319D01*
X150925004Y-61692834D01*
X150951362Y-61690000D01*
X158598638Y-61690000D01*
X158665677Y-61709685D01*
G37*
%TD.AperFunction*%
%TD*%
%TA.AperFunction,Conductor*%
%TO.N,/SW1*%
G36*
X140282127Y-64146135D02*
G01*
X140302769Y-64162769D01*
X141580131Y-65440131D01*
X141613616Y-65501454D01*
X141616450Y-65527812D01*
X141616450Y-70655088D01*
X141596765Y-70722127D01*
X141580131Y-70742769D01*
X140812769Y-71510131D01*
X140751446Y-71543616D01*
X140725088Y-71546450D01*
X139344500Y-71546450D01*
X139277461Y-71526765D01*
X139231706Y-71473961D01*
X139222809Y-71446270D01*
X139220500Y-71434474D01*
X139220500Y-71390691D01*
X139189799Y-71276114D01*
X139189799Y-71276113D01*
X139130490Y-71173386D01*
X138246614Y-70289511D01*
X138195250Y-70259856D01*
X138143888Y-70230201D01*
X138131780Y-70226957D01*
X138119673Y-70223713D01*
X138119670Y-70223712D01*
X138068936Y-70210118D01*
X138029309Y-70199500D01*
X138029308Y-70199500D01*
X131576522Y-70199500D01*
X131509483Y-70179815D01*
X131463728Y-70127011D01*
X131453583Y-70059316D01*
X131454450Y-70052729D01*
X131454450Y-69947275D01*
X131454450Y-69947273D01*
X131427157Y-69845413D01*
X131374430Y-69754087D01*
X131299863Y-69679520D01*
X131208537Y-69626793D01*
X131106677Y-69599500D01*
X131001223Y-69599500D01*
X130899363Y-69626793D01*
X130899360Y-69626794D01*
X130808035Y-69679521D01*
X130733471Y-69754085D01*
X130680744Y-69845410D01*
X130680743Y-69845413D01*
X130653450Y-69947273D01*
X130653450Y-70052727D01*
X130680743Y-70154587D01*
X130706673Y-70199500D01*
X130712804Y-70210118D01*
X130729277Y-70278018D01*
X130706425Y-70344045D01*
X130693101Y-70359797D01*
X130679511Y-70373387D01*
X130620201Y-70476114D01*
X130589500Y-70590691D01*
X130589500Y-70709309D01*
X130620201Y-70823886D01*
X130679511Y-70926613D01*
X130763387Y-71010489D01*
X130866114Y-71069799D01*
X130980691Y-71100500D01*
X137732035Y-71100500D01*
X137799074Y-71120185D01*
X137819716Y-71136819D01*
X138017666Y-71334769D01*
X138051151Y-71396092D01*
X138046167Y-71465784D01*
X138004295Y-71521717D01*
X137938831Y-71546134D01*
X137929985Y-71546450D01*
X129897812Y-71546450D01*
X129830773Y-71526765D01*
X129810131Y-71510131D01*
X129345669Y-71045669D01*
X129312184Y-70984346D01*
X129317168Y-70914654D01*
X129359040Y-70858721D01*
X129401252Y-70838215D01*
X129494587Y-70813207D01*
X129585913Y-70760480D01*
X129660480Y-70685913D01*
X129713207Y-70594587D01*
X129740500Y-70492727D01*
X129740500Y-70387273D01*
X129713207Y-70285413D01*
X129660480Y-70194087D01*
X129585913Y-70119520D01*
X129494587Y-70066793D01*
X129392727Y-70039500D01*
X129287273Y-70039500D01*
X129185413Y-70066793D01*
X129185410Y-70066794D01*
X129094085Y-70119521D01*
X129019521Y-70194085D01*
X129005553Y-70218277D01*
X129000218Y-70227520D01*
X128987837Y-70248964D01*
X128937270Y-70297180D01*
X128868663Y-70310402D01*
X128803798Y-70284434D01*
X128763270Y-70227520D01*
X128756450Y-70186964D01*
X128756450Y-65237812D01*
X128776135Y-65170773D01*
X128792769Y-65150131D01*
X129780131Y-64162769D01*
X129841454Y-64129284D01*
X129867812Y-64126450D01*
X140215088Y-64126450D01*
X140282127Y-64146135D01*
G37*
%TD.AperFunction*%
%TD*%
%TA.AperFunction,Conductor*%
%TO.N,+BATT*%
G36*
X176902409Y-111779685D02*
G01*
X176923051Y-111796319D01*
X177510413Y-112383681D01*
X177543898Y-112445004D01*
X177546732Y-112471362D01*
X177546732Y-115258638D01*
X177527047Y-115325677D01*
X177510413Y-115346319D01*
X176803051Y-116053681D01*
X176741728Y-116087166D01*
X176715370Y-116090000D01*
X171448094Y-116090000D01*
X171381055Y-116070315D01*
X171360413Y-116053681D01*
X170583051Y-115276319D01*
X170549566Y-115214996D01*
X170546732Y-115188638D01*
X170546732Y-112411362D01*
X170566417Y-112344323D01*
X170583051Y-112323681D01*
X171110413Y-111796319D01*
X171171736Y-111762834D01*
X171198094Y-111760000D01*
X176835370Y-111760000D01*
X176902409Y-111779685D01*
G37*
%TD.AperFunction*%
%TD*%
M02*
