%TF.GenerationSoftware,KiCad,Pcbnew,9.0.6*%
%TF.CreationDate,2026-07-24T12:57:43+03:00*%
%TF.ProjectId,Lithium_Board,4c697468-6975-46d5-9f42-6f6172642e6b,rev?*%
%TF.SameCoordinates,Original*%
%TF.FileFunction,Copper,L1,Top*%
%TF.FilePolarity,Positive*%
%FSLAX46Y46*%
G04 Gerber Fmt 4.6, Leading zero omitted, Abs format (unit mm)*
G04 Created by KiCad (PCBNEW 9.0.6) date 2026-07-24 12:57:43*
%MOMM*%
%LPD*%
G01*
G04 APERTURE LIST*
G04 Aperture macros list*
%AMRoundRect*
0 Rectangle with rounded corners*
0 $1 Rounding radius*
0 $2 $3 $4 $5 $6 $7 $8 $9 X,Y pos of 4 corners*
0 Add a 4 corners polygon primitive as box body*
4,1,4,$2,$3,$4,$5,$6,$7,$8,$9,$2,$3,0*
0 Add four circle primitives for the rounded corners*
1,1,$1+$1,$2,$3*
1,1,$1+$1,$4,$5*
1,1,$1+$1,$6,$7*
1,1,$1+$1,$8,$9*
0 Add four rect primitives between the rounded corners*
20,1,$1+$1,$2,$3,$4,$5,0*
20,1,$1+$1,$4,$5,$6,$7,0*
20,1,$1+$1,$6,$7,$8,$9,0*
20,1,$1+$1,$8,$9,$2,$3,0*%
G04 Aperture macros list end*
%TA.AperFunction,SMDPad,CuDef*%
%ADD10R,0.950000X0.800000*%
%TD*%
%TA.AperFunction,SMDPad,CuDef*%
%ADD11R,1.750000X1.000000*%
%TD*%
%TA.AperFunction,SMDPad,CuDef*%
%ADD12R,0.940000X0.830000*%
%TD*%
%TA.AperFunction,SMDPad,CuDef*%
%ADD13R,0.780000X0.980000*%
%TD*%
%TA.AperFunction,SMDPad,CuDef*%
%ADD14R,0.620000X1.470000*%
%TD*%
%TA.AperFunction,SMDPad,CuDef*%
%ADD15R,0.800000X0.950000*%
%TD*%
%TA.AperFunction,SMDPad,CuDef*%
%ADD16R,0.980000X0.780000*%
%TD*%
%TA.AperFunction,SMDPad,CuDef*%
%ADD17R,1.400000X0.600000*%
%TD*%
%TA.AperFunction,SMDPad,CuDef*%
%ADD18R,1.820000X1.050000*%
%TD*%
%TA.AperFunction,SMDPad,CuDef*%
%ADD19R,0.610000X1.270000*%
%TD*%
%TA.AperFunction,SMDPad,CuDef*%
%ADD20R,0.610000X1.020000*%
%TD*%
%TA.AperFunction,SMDPad,CuDef*%
%ADD21R,3.910000X3.810000*%
%TD*%
%TA.AperFunction,SMDPad,CuDef*%
%ADD22R,1.300000X2.820000*%
%TD*%
%TA.AperFunction,SMDPad,CuDef*%
%ADD23R,3.200000X1.600000*%
%TD*%
%TA.AperFunction,SMDPad,CuDef*%
%ADD24R,0.600000X1.250000*%
%TD*%
%TA.AperFunction,SMDPad,CuDef*%
%ADD25R,1.450000X1.150000*%
%TD*%
%TA.AperFunction,SMDPad,CuDef*%
%ADD26R,1.475000X0.300000*%
%TD*%
%TA.AperFunction,SMDPad,CuDef*%
%ADD27R,0.300000X1.475000*%
%TD*%
%TA.AperFunction,SMDPad,CuDef*%
%ADD28R,0.450000X0.600000*%
%TD*%
%TA.AperFunction,SMDPad,CuDef*%
%ADD29R,1.240000X1.820000*%
%TD*%
%TA.AperFunction,SMDPad,CuDef*%
%ADD30R,3.550000X3.200000*%
%TD*%
%TA.AperFunction,ComponentPad*%
%ADD31C,2.550000*%
%TD*%
%TA.AperFunction,ComponentPad*%
%ADD32C,1.500000*%
%TD*%
%TA.AperFunction,SMDPad,CuDef*%
%ADD33R,0.900000X0.950000*%
%TD*%
%TA.AperFunction,SMDPad,CuDef*%
%ADD34R,1.470000X0.620000*%
%TD*%
%TA.AperFunction,SMDPad,CuDef*%
%ADD35R,3.450000X3.000000*%
%TD*%
%TA.AperFunction,ComponentPad*%
%ADD36C,1.550000*%
%TD*%
%TA.AperFunction,SMDPad,CuDef*%
%ADD37R,0.830000X0.940000*%
%TD*%
%TA.AperFunction,SMDPad,CuDef*%
%ADD38R,0.750000X1.200000*%
%TD*%
%TA.AperFunction,SMDPad,CuDef*%
%ADD39R,0.475000X0.500000*%
%TD*%
%TA.AperFunction,SMDPad,CuDef*%
%ADD40R,1.050000X0.450000*%
%TD*%
%TA.AperFunction,SMDPad,CuDef*%
%ADD41R,1.820000X0.820000*%
%TD*%
%TA.AperFunction,SMDPad,CuDef*%
%ADD42R,1.750000X0.950000*%
%TD*%
%TA.AperFunction,SMDPad,CuDef*%
%ADD43R,1.750000X3.200000*%
%TD*%
%TA.AperFunction,SMDPad,CuDef*%
%ADD44R,0.300000X0.850000*%
%TD*%
%TA.AperFunction,SMDPad,CuDef*%
%ADD45R,0.850000X0.300000*%
%TD*%
%TA.AperFunction,SMDPad,CuDef*%
%ADD46R,4.700000X3.700000*%
%TD*%
%TA.AperFunction,SMDPad,CuDef*%
%ADD47R,1.350000X0.900000*%
%TD*%
%TA.AperFunction,SMDPad,CuDef*%
%ADD48R,4.500000X1.300000*%
%TD*%
%TA.AperFunction,SMDPad,CuDef*%
%ADD49R,3.900000X1.800000*%
%TD*%
%TA.AperFunction,SMDPad,CuDef*%
%ADD50R,2.720000X1.020000*%
%TD*%
%TA.AperFunction,ComponentPad*%
%ADD51RoundRect,0.250000X-0.725000X0.600000X-0.725000X-0.600000X0.725000X-0.600000X0.725000X0.600000X0*%
%TD*%
%TA.AperFunction,ComponentPad*%
%ADD52O,1.950000X1.700000*%
%TD*%
%TA.AperFunction,SMDPad,CuDef*%
%ADD53R,0.750000X0.940000*%
%TD*%
%TA.AperFunction,SMDPad,CuDef*%
%ADD54R,2.800000X6.800000*%
%TD*%
%TA.AperFunction,SMDPad,CuDef*%
%ADD55R,1.700000X3.600000*%
%TD*%
%TA.AperFunction,SMDPad,CuDef*%
%ADD56R,1.800000X1.850000*%
%TD*%
%TA.AperFunction,SMDPad,CuDef*%
%ADD57R,1.800000X1.150000*%
%TD*%
%TA.AperFunction,SMDPad,CuDef*%
%ADD58R,1.020000X2.720000*%
%TD*%
%TA.AperFunction,ComponentPad*%
%ADD59RoundRect,0.250000X0.725000X-0.600000X0.725000X0.600000X-0.725000X0.600000X-0.725000X-0.600000X0*%
%TD*%
%TA.AperFunction,SMDPad,CuDef*%
%ADD60R,0.950000X1.000000*%
%TD*%
%TA.AperFunction,ViaPad*%
%ADD61C,0.400000*%
%TD*%
%TA.AperFunction,ViaPad*%
%ADD62C,4.000000*%
%TD*%
%TA.AperFunction,Conductor*%
%ADD63C,0.150000*%
%TD*%
%TA.AperFunction,Conductor*%
%ADD64C,0.200000*%
%TD*%
%TA.AperFunction,Conductor*%
%ADD65C,0.090000*%
%TD*%
%TA.AperFunction,Conductor*%
%ADD66C,0.500000*%
%TD*%
%TA.AperFunction,Conductor*%
%ADD67C,0.300000*%
%TD*%
%TA.AperFunction,Conductor*%
%ADD68C,0.150100*%
%TD*%
G04 APERTURE END LIST*
D10*
%TO.P,R3,1,1*%
%TO.N,BQ_SYS*%
X132310000Y-82730000D03*
%TO.P,R3,2,2*%
%TO.N,/ACN*%
X132310000Y-84330000D03*
%TD*%
D11*
%TO.P,R6,1,1*%
%TO.N,BQ_ACUV*%
X117890000Y-75390000D03*
%TO.P,R6,2,2*%
%TO.N,VIN*%
X117890000Y-72390000D03*
%TD*%
D12*
%TO.P,C4,1,1*%
%TO.N,/BTST1*%
X136740000Y-80250000D03*
%TO.P,C4,2,2*%
%TO.N,/SW1*%
X136740000Y-81570000D03*
%TD*%
D13*
%TO.P,C2,1,1*%
%TO.N,/ACP*%
X133860000Y-88030000D03*
%TO.P,C2,2,2*%
%TO.N,GND*%
X135260000Y-88030000D03*
%TD*%
D14*
%TO.P,C40,1,1*%
%TO.N,/CELL BALANCING IC/REG1*%
X124930000Y-90750000D03*
%TO.P,C40,2,2*%
%TO.N,GND*%
X126930000Y-90750000D03*
%TD*%
D15*
%TO.P,R41,1,1*%
%TO.N,Net-(D3-K)*%
X113040000Y-83470000D03*
%TO.P,R41,2,2*%
%TO.N,/CELL BALANCING IC/BAT*%
X114640000Y-83470000D03*
%TD*%
D16*
%TO.P,C20,1,1*%
%TO.N,BQ_SYS*%
X138230000Y-76270000D03*
%TO.P,C20,2,2*%
%TO.N,GND*%
X138230000Y-77670000D03*
%TD*%
D15*
%TO.P,R5,1,1*%
%TO.N,/SRP*%
X153220000Y-84760000D03*
%TO.P,R5,2,2*%
%TO.N,/Q7_DRAIN*%
X154820000Y-84760000D03*
%TD*%
D17*
%TO.P,D1,1,I/O_1*%
%TO.N,/CANBUS/CAN_N*%
X118540000Y-116170000D03*
%TO.P,D1,2,I/O_2*%
%TO.N,/CANBUS/CAN_P*%
X118540000Y-118070000D03*
%TO.P,D1,3,I/O_3*%
%TO.N,GND*%
X120840000Y-117120000D03*
%TD*%
D18*
%TO.P,C1,1,1*%
%TO.N,VIN*%
X114010000Y-72730000D03*
%TO.P,C1,2,2*%
%TO.N,GND*%
X114010000Y-75510000D03*
%TD*%
D19*
%TO.P,Q5,1,S_1*%
%TO.N,/SW1*%
X136333500Y-70658695D03*
%TO.P,Q5,2,S_2*%
X135063500Y-70658695D03*
%TO.P,Q5,3,S_3*%
X133793500Y-70658695D03*
%TO.P,Q5,4,G*%
%TO.N,/HIDRV1*%
X132523500Y-70658695D03*
D20*
%TO.P,Q5,5,D_1*%
%TO.N,BQ_SYS*%
X132523500Y-76123695D03*
%TO.P,Q5,6,D_2*%
X133793500Y-76123695D03*
%TO.P,Q5,7,D_3*%
X135063500Y-76123695D03*
D21*
%TO.P,Q5,8,D_4*%
X134438500Y-74018695D03*
D20*
X136333500Y-76123695D03*
%TD*%
D22*
%TO.P,C11,1,1*%
%TO.N,BQ_REGN*%
X143040000Y-78120000D03*
%TO.P,C11,2,2*%
%TO.N,GND*%
X140420000Y-78120000D03*
%TD*%
D23*
%TO.P,C8,1,+*%
%TO.N,/Q7_DRAIN*%
X161920000Y-81010000D03*
%TO.P,C8,2,-*%
%TO.N,GND*%
X166920000Y-81010000D03*
%TD*%
D10*
%TO.P,R8,1,1*%
%TO.N,BQ_ACUV*%
X135010000Y-89720000D03*
%TO.P,R8,2,2*%
%TO.N,BQ_ACOV*%
X135010000Y-91320000D03*
%TD*%
D24*
%TO.P,Z1,1,A*%
%TO.N,/Q4_S*%
X125845000Y-71310000D03*
%TO.P,Z1,2,NC*%
%TO.N,unconnected-(Z1-NC-Pad2)*%
X127755000Y-71310000D03*
%TO.P,Z1,3,K*%
%TO.N,/ACDRV*%
X126800000Y-69210000D03*
%TD*%
D18*
%TO.P,C7,1,1*%
%TO.N,/VAC*%
X115900000Y-78000000D03*
%TO.P,C7,2,2*%
%TO.N,GND*%
X115900000Y-80780000D03*
%TD*%
D25*
%TO.P,C37,1,1*%
%TO.N,/CELL BALANCING IC/VC10*%
X114380000Y-85180000D03*
%TO.P,C37,2,2*%
%TO.N,/CELL BALANCING IC/VC(3-9)*%
X114380000Y-86980000D03*
%TD*%
D10*
%TO.P,R20,1,1*%
%TO.N,BQ_TS*%
X147771279Y-95140000D03*
%TO.P,R20,2,2*%
%TO.N,BQ_REGN*%
X147771279Y-96740000D03*
%TD*%
%TO.P,R4,1,1*%
%TO.N,/VAC*%
X115910000Y-74960000D03*
%TO.P,R4,2,2*%
%TO.N,VIN*%
X115910000Y-73360000D03*
%TD*%
%TO.P,R13,1,1*%
%TO.N,BQ_SCL*%
X135306800Y-95140000D03*
%TO.P,R13,2,2*%
%TO.N,+3V3*%
X135306800Y-96740000D03*
%TD*%
D26*
%TO.P,IC6,1,NC_1*%
%TO.N,unconnected-(IC6-NC_1-Pad1)*%
X114412000Y-90630000D03*
%TO.P,IC6,2,VC9*%
%TO.N,/CELL BALANCING IC/VC(3-9)*%
X114412000Y-91130000D03*
%TO.P,IC6,3,NC_2*%
%TO.N,unconnected-(IC6-NC_2-Pad3)*%
X114412000Y-91630000D03*
%TO.P,IC6,4,VC8*%
%TO.N,/CELL BALANCING IC/VC(3-9)*%
X114412000Y-92130000D03*
%TO.P,IC6,5,NC_3*%
%TO.N,unconnected-(IC6-NC_3-Pad5)*%
X114412000Y-92630000D03*
%TO.P,IC6,6,VC7*%
%TO.N,/CELL BALANCING IC/VC(3-9)*%
X114412000Y-93130000D03*
%TO.P,IC6,7,NC_4*%
%TO.N,unconnected-(IC6-NC_4-Pad7)*%
X114412000Y-93630000D03*
%TO.P,IC6,8,VC6*%
%TO.N,/CELL BALANCING IC/VC(3-9)*%
X114412000Y-94130000D03*
%TO.P,IC6,9,NC_5*%
%TO.N,unconnected-(IC6-NC_5-Pad9)*%
X114412000Y-94630000D03*
%TO.P,IC6,10,VC5*%
%TO.N,/CELL BALANCING IC/VC(3-9)*%
X114412000Y-95130000D03*
%TO.P,IC6,11,NC_6*%
%TO.N,unconnected-(IC6-NC_6-Pad11)*%
X114412000Y-95630000D03*
%TO.P,IC6,12,VC4*%
%TO.N,/CELL BALANCING IC/VC(3-9)*%
X114412000Y-96130000D03*
D27*
%TO.P,IC6,13,VC3*%
X115900000Y-97618000D03*
%TO.P,IC6,14,VC2*%
X116400000Y-97618000D03*
%TO.P,IC6,15,VC1*%
%TO.N,/CELL BALANCING IC/VC1*%
X116900000Y-97618000D03*
%TO.P,IC6,16,VC0*%
%TO.N,/CELL BALANCING IC/VC0*%
X117400000Y-97618000D03*
%TO.P,IC6,17,VSS*%
%TO.N,GND*%
X117900000Y-97618000D03*
%TO.P,IC6,18,SRP*%
X118400000Y-97618000D03*
%TO.P,IC6,19,NC_7*%
%TO.N,unconnected-(IC6-NC_7-Pad19)*%
X118900000Y-97618000D03*
%TO.P,IC6,20,SRN*%
%TO.N,GND*%
X119400000Y-97618000D03*
%TO.P,IC6,21,TS1*%
%TO.N,BQ2_TS1*%
X119900000Y-97618000D03*
%TO.P,IC6,22,TS2*%
%TO.N,BQ2_TS2*%
X120400000Y-97618000D03*
%TO.P,IC6,23,TS3*%
%TO.N,BQ2_TS3*%
X120900000Y-97618000D03*
%TO.P,IC6,24,REG18*%
%TO.N,Net-(IC6-REG18)*%
X121400000Y-97618000D03*
D26*
%TO.P,IC6,25,ALERT*%
%TO.N,BQ2_ALERT*%
X122888000Y-96130000D03*
%TO.P,IC6,26,SCL*%
%TO.N,BQ2_SCLK*%
X122888000Y-95630000D03*
%TO.P,IC6,27,SDA*%
%TO.N,BQ2_MISO*%
X122888000Y-95130000D03*
%TO.P,IC6,28,HDQ*%
%TO.N,BQ2_MOSI*%
X122888000Y-94630000D03*
%TO.P,IC6,29,CFETOFF*%
%TO.N,BQ2_CS*%
X122888000Y-94130000D03*
%TO.P,IC6,30,DFETOFF*%
%TO.N,unconnected-(IC6-DFETOFF-Pad30)*%
X122888000Y-93630000D03*
%TO.P,IC6,31,DCHG*%
%TO.N,unconnected-(IC6-DCHG-Pad31)*%
X122888000Y-93130000D03*
%TO.P,IC6,32,DDSG*%
%TO.N,unconnected-(IC6-DDSG-Pad32)*%
X122888000Y-92630000D03*
%TO.P,IC6,33,RST_SHUT*%
%TO.N,GND*%
X122888000Y-92130000D03*
%TO.P,IC6,34,REG2*%
%TO.N,unconnected-(IC6-REG2-Pad34)*%
X122888000Y-91630000D03*
%TO.P,IC6,35,REG1*%
%TO.N,/CELL BALANCING IC/REG1*%
X122888000Y-91130000D03*
%TO.P,IC6,36,REGIN*%
%TO.N,/CELL BALANCING IC/REGIN*%
X122888000Y-90630000D03*
D27*
%TO.P,IC6,37,BREG*%
%TO.N,/CELL BALANCING IC/BREG*%
X121400000Y-89142000D03*
%TO.P,IC6,38,FUSE*%
%TO.N,unconnected-(IC6-FUSE-Pad38)*%
X120900000Y-89142000D03*
%TO.P,IC6,39,PDSG*%
%TO.N,unconnected-(IC6-PDSG-Pad39)*%
X120400000Y-89142000D03*
%TO.P,IC6,40,PCHG*%
%TO.N,unconnected-(IC6-PCHG-Pad40)*%
X119900000Y-89142000D03*
%TO.P,IC6,41,LD*%
%TO.N,GND*%
X119400000Y-89142000D03*
%TO.P,IC6,42,PACK*%
%TO.N,Net-(IC6-PACK)*%
X118900000Y-89142000D03*
%TO.P,IC6,43,DSG*%
%TO.N,unconnected-(IC6-DSG-Pad43)*%
X118400000Y-89142000D03*
%TO.P,IC6,44,NC_8*%
%TO.N,unconnected-(IC6-NC_8-Pad44)*%
X117900000Y-89142000D03*
%TO.P,IC6,45,CHG*%
%TO.N,unconnected-(IC6-CHG-Pad45)*%
X117400000Y-89142000D03*
%TO.P,IC6,46,CP1*%
%TO.N,/CELL BALANCING IC/BAT*%
X116900000Y-89142000D03*
%TO.P,IC6,47,BAT*%
X116400000Y-89142000D03*
%TO.P,IC6,48,VC10*%
%TO.N,/CELL BALANCING IC/VC10*%
X115900000Y-89142000D03*
%TD*%
D28*
%TO.P,C25,1,1*%
%TO.N,GND*%
X143255000Y-115330000D03*
%TO.P,C25,2,2*%
%TO.N,+3V3*%
X142305000Y-115330000D03*
%TD*%
D10*
%TO.P,R27,1,1*%
%TO.N,Net-(C22-Pad1)*%
X168930000Y-68950000D03*
%TO.P,R27,2,2*%
%TO.N,BQ_SYS*%
X168930000Y-70550000D03*
%TD*%
D22*
%TO.P,C12,1,1*%
%TO.N,BQ_REGN*%
X144940000Y-78140000D03*
%TO.P,C12,2,2*%
%TO.N,GND*%
X147560000Y-78140000D03*
%TD*%
D10*
%TO.P,R42,1,1*%
%TO.N,BAT3{slash}PACK+*%
X112440000Y-89180000D03*
%TO.P,R42,2,2*%
%TO.N,/CELL BALANCING IC/VC10*%
X112440000Y-90780000D03*
%TD*%
D29*
%TO.P,D2,1,K*%
%TO.N,/BTST1*%
X140230000Y-81090000D03*
%TO.P,D2,2,A*%
%TO.N,BQ_REGN*%
X143130000Y-81090000D03*
%TD*%
D10*
%TO.P,R21,1,1*%
%TO.N,GND*%
X153113199Y-95140000D03*
%TO.P,R21,2,2*%
%TO.N,BQ_TS*%
X153113199Y-96740000D03*
%TD*%
D15*
%TO.P,R28,1,1*%
%TO.N,+3V3*%
X126850000Y-92700000D03*
%TO.P,R28,2,2*%
%TO.N,BQ2_CS*%
X125250000Y-92700000D03*
%TD*%
D30*
%TO.P,L1,1,1*%
%TO.N,/SW1*%
X139450000Y-67110000D03*
%TO.P,L1,2,2*%
%TO.N,/SW2*%
X148450000Y-67110000D03*
%TD*%
D31*
%TO.P,J2,1,1*%
%TO.N,GND*%
X110656063Y-76070000D03*
%TO.P,J2,2,2*%
%TO.N,VIN*%
X110656063Y-71070000D03*
D32*
%TO.P,J2,3,3*%
%TO.N,unconnected-(J2-Pad3)*%
X105656063Y-79070000D03*
%TO.P,J2,4,4*%
%TO.N,unconnected-(J2-Pad4)*%
X105656063Y-68070000D03*
%TD*%
D33*
%TO.P,LED1,1,K*%
%TO.N,GND*%
X157680000Y-106370096D03*
%TO.P,LED1,2,A*%
%TO.N,Net-(LED1-A)*%
X156080000Y-106370096D03*
%TD*%
D31*
%TO.P,J1,1,1*%
%TO.N,BQ_SYS*%
X172425500Y-71550000D03*
%TO.P,J1,2,2*%
%TO.N,GND*%
X172425500Y-76550000D03*
D32*
%TO.P,J1,3,3*%
%TO.N,unconnected-(J1-Pad3)*%
X182425500Y-79550000D03*
%TO.P,J1,4,4*%
%TO.N,unconnected-(J1-Pad4)*%
X182425500Y-68550000D03*
%TD*%
D22*
%TO.P,C17,1,1*%
%TO.N,+3V3*%
X166670000Y-107790000D03*
%TO.P,C17,2,2*%
%TO.N,GND*%
X169290000Y-107790000D03*
%TD*%
D15*
%TO.P,R49,1,1*%
%TO.N,BAT1*%
X111960000Y-101540000D03*
%TO.P,R49,2,2*%
%TO.N,/CELL BALANCING IC/VC1*%
X113560000Y-101540000D03*
%TD*%
%TO.P,R11,1,1*%
%TO.N,BQ_FB*%
X151870000Y-92720000D03*
%TO.P,R11,2,2*%
%TO.N,+BATT*%
X153470000Y-92720000D03*
%TD*%
%TO.P,R35,1,1*%
%TO.N,CAN_STB*%
X134585000Y-120910000D03*
%TO.P,R35,2,2*%
%TO.N,GND*%
X136185000Y-120910000D03*
%TD*%
D10*
%TO.P,R50,1,1*%
%TO.N,GND*%
X119610000Y-102600000D03*
%TO.P,R50,2,2*%
%TO.N,/CELL BALANCING IC/VC0*%
X119610000Y-101000000D03*
%TD*%
D12*
%TO.P,C5,1,1*%
%TO.N,/BTST2*%
X153360000Y-80360000D03*
%TO.P,C5,2,2*%
%TO.N,/SW2*%
X153360000Y-81680000D03*
%TD*%
D10*
%TO.P,R47,1,1*%
%TO.N,Net-(Q10-C)*%
X120550000Y-82530000D03*
%TO.P,R47,2,2*%
%TO.N,Net-(D4-K)*%
X120550000Y-80930000D03*
%TD*%
D34*
%TO.P,C42,1,1*%
%TO.N,Net-(Q10-C)*%
X120510000Y-84450000D03*
%TO.P,C42,2,2*%
%TO.N,GND*%
X120510000Y-86450000D03*
%TD*%
D35*
%TO.P,R7,1,1*%
%TO.N,/Q7_DRAIN*%
X157787881Y-86859656D03*
%TO.P,R7,2,2*%
%TO.N,+BATT*%
X157787881Y-91259656D03*
%TD*%
D36*
%TO.P,J5,1,1*%
%TO.N,+3V3*%
X158220000Y-126137500D03*
%TO.P,J5,2,2*%
%TO.N,SWDIO*%
X155680000Y-126137500D03*
%TO.P,J5,3,3*%
%TO.N,GND*%
X153140000Y-126137500D03*
%TO.P,J5,4,4*%
%TO.N,SWCLK*%
X150600000Y-126137500D03*
%TO.P,J5,5,5*%
%TO.N,NRST*%
X148060000Y-126137500D03*
%TD*%
D10*
%TO.P,R24,1,1*%
%TO.N,GND*%
X151332559Y-96740000D03*
%TO.P,R24,2,2*%
%TO.N,/ILIM_HIZ*%
X151332559Y-95140000D03*
%TD*%
D15*
%TO.P,R46,1,1*%
%TO.N,/CELL BALANCING IC/BREG*%
X125060000Y-84710000D03*
%TO.P,R46,2,2*%
%TO.N,GND*%
X126660000Y-84710000D03*
%TD*%
D37*
%TO.P,C10,1,1*%
%TO.N,GND*%
X154540000Y-86260000D03*
%TO.P,C10,2,2*%
%TO.N,/SRP*%
X153220000Y-86260000D03*
%TD*%
D38*
%TO.P,D3,1,K*%
%TO.N,Net-(D3-K)*%
X109650000Y-86720000D03*
%TO.P,D3,2,A*%
%TO.N,BAT3{slash}PACK+*%
X109650000Y-90120000D03*
%TD*%
D39*
%TO.P,R29,1,1*%
%TO.N,/CANBUS/CAN_P*%
X124092000Y-118240000D03*
%TO.P,R29,2,2*%
%TO.N,Net-(C24-Pad1)*%
X123068000Y-118240000D03*
%TD*%
D10*
%TO.P,R14,1,1*%
%TO.N,BQ_SDA*%
X137087440Y-95140000D03*
%TO.P,R14,2,2*%
%TO.N,+3V3*%
X137087440Y-96740000D03*
%TD*%
D37*
%TO.P,C13,1,1*%
%TO.N,/SRN*%
X153190000Y-88060000D03*
%TO.P,C13,2,2*%
%TO.N,GND*%
X154510000Y-88060000D03*
%TD*%
D13*
%TO.P,C39,1,1*%
%TO.N,/CELL BALANCING IC/BREG*%
X123500000Y-84740000D03*
%TO.P,C39,2,2*%
%TO.N,GND*%
X122100000Y-84740000D03*
%TD*%
D40*
%TO.P,IC3,1,TXD*%
%TO.N,FDCAN_TX*%
X137440000Y-117975000D03*
%TO.P,IC3,2,GND*%
%TO.N,GND*%
X137440000Y-117325000D03*
%TO.P,IC3,3,VCC*%
%TO.N,+3V3*%
X137440000Y-116675000D03*
%TO.P,IC3,4,RXD*%
%TO.N,FDCAN_RX*%
X137440000Y-116025000D03*
%TO.P,IC3,5,SHDNVIO*%
%TO.N,GND*%
X134840000Y-116025000D03*
%TO.P,IC3,6,CANL*%
%TO.N,/CANBUS/L_CAN_N*%
X134840000Y-116675000D03*
%TO.P,IC3,7,CANH*%
%TO.N,/CANBUS/L_CAN_P*%
X134840000Y-117325000D03*
%TO.P,IC3,8,STB*%
%TO.N,CAN_STB*%
X134840000Y-117975000D03*
%TD*%
D41*
%TO.P,C6,1,1*%
%TO.N,/ACP*%
X134580000Y-86570000D03*
%TO.P,C6,2,2*%
%TO.N,/ACN*%
X134580000Y-83570000D03*
%TD*%
D38*
%TO.P,D4,1,K*%
%TO.N,Net-(D4-K)*%
X109620000Y-95730000D03*
%TO.P,D4,2,A*%
%TO.N,BAT3{slash}PACK+*%
X109620000Y-92330000D03*
%TD*%
D10*
%TO.P,R32,1,1*%
%TO.N,BQ_TS*%
X108580000Y-98210000D03*
%TO.P,R32,2,2*%
%TO.N,GND*%
X108580000Y-99810000D03*
%TD*%
D19*
%TO.P,Q6,1,S_1*%
%TO.N,GND*%
X136383500Y-62998695D03*
%TO.P,Q6,2,S_2*%
X135113500Y-62998695D03*
%TO.P,Q6,3,S_3*%
X133843500Y-62998695D03*
%TO.P,Q6,4,G*%
%TO.N,BQ_LODRV1*%
X132573500Y-62998695D03*
D20*
%TO.P,Q6,5,D_1*%
%TO.N,/SW1*%
X132573500Y-68463695D03*
%TO.P,Q6,6,D_2*%
X133843500Y-68463695D03*
%TO.P,Q6,7,D_3*%
X135113500Y-68463695D03*
D21*
%TO.P,Q6,8,D_4*%
X134488500Y-66358695D03*
D20*
X136383500Y-68463695D03*
%TD*%
D19*
%TO.P,Q8,1,S_1*%
%TO.N,GND*%
X151906500Y-75381305D03*
%TO.P,Q8,2,S_2*%
X153176500Y-75381305D03*
%TO.P,Q8,3,S_3*%
X154446500Y-75381305D03*
%TO.P,Q8,4,G*%
%TO.N,BQ_LODRV2*%
X155716500Y-75381305D03*
D20*
%TO.P,Q8,5,D_1*%
%TO.N,/SW2*%
X155716500Y-69916305D03*
%TO.P,Q8,6,D_2*%
X154446500Y-69916305D03*
%TO.P,Q8,7,D_3*%
X153176500Y-69916305D03*
D21*
%TO.P,Q8,8,D_4*%
X153801500Y-72021305D03*
D20*
X151906500Y-69916305D03*
%TD*%
D42*
%TO.P,IC2,1,VIN*%
%TO.N,+BATT*%
X163690000Y-115470000D03*
%TO.P,IC2,2,GND_1*%
%TO.N,GND*%
X163690000Y-113170000D03*
%TO.P,IC2,3,VOUT*%
%TO.N,+3V3*%
X163690000Y-110870000D03*
D43*
%TO.P,IC2,4,GND_2*%
%TO.N,GND*%
X157390000Y-113170000D03*
%TD*%
D22*
%TO.P,C16,1,1*%
%TO.N,+BATT*%
X166440000Y-118710000D03*
%TO.P,C16,2,2*%
%TO.N,GND*%
X169060000Y-118710000D03*
%TD*%
D44*
%TO.P,IC1,1,SCL*%
%TO.N,BQ_SCL*%
X141720000Y-89030000D03*
%TO.P,IC1,2,SDA*%
%TO.N,BQ_SDA*%
X142220000Y-89030000D03*
%TO.P,IC1,3,~{INT}*%
%TO.N,BQ_INT*%
X142720000Y-89030000D03*
%TO.P,IC1,4,STAT1*%
%TO.N,BQ_STAT1*%
X143220000Y-89030000D03*
%TO.P,IC1,5,STAT2*%
%TO.N,BQ_STAT2*%
X143720000Y-89030000D03*
%TO.P,IC1,6,~{PG}*%
%TO.N,BQ_PG*%
X144220000Y-89030000D03*
%TO.P,IC1,7,~{CE}*%
%TO.N,BQ_CE*%
X144720000Y-89030000D03*
%TO.P,IC1,8,TS*%
%TO.N,BQ_TS*%
X145220000Y-89030000D03*
%TO.P,IC1,9,ICHG*%
%TO.N,/ICHG*%
X145720000Y-89030000D03*
%TO.P,IC1,10,ILIM_HIZ*%
%TO.N,/ILIM_HIZ*%
X146220000Y-89030000D03*
D45*
%TO.P,IC1,11,FBG*%
%TO.N,/FBG*%
X146920000Y-88330000D03*
%TO.P,IC1,12,FB*%
%TO.N,BQ_FB*%
X146920000Y-87830000D03*
%TO.P,IC1,13,SRN*%
%TO.N,/SRN*%
X146920000Y-87330000D03*
%TO.P,IC1,14,SRP*%
%TO.N,/SRP*%
X146920000Y-86830000D03*
%TO.P,IC1,15,BATDRV*%
%TO.N,BQ_BATDRV*%
X146920000Y-86330000D03*
%TO.P,IC1,16,BATSRC*%
%TO.N,BQ_BATSRC*%
X146920000Y-85830000D03*
%TO.P,IC1,17,PGND_1*%
%TO.N,GND*%
X146920000Y-85330000D03*
%TO.P,IC1,18,SW2*%
%TO.N,/SW2*%
X146920000Y-84830000D03*
D44*
%TO.P,IC1,19,HIDRV2*%
%TO.N,/HIDRV2*%
X146220000Y-84130000D03*
%TO.P,IC1,20,BTST2*%
%TO.N,/BTST2*%
X145720000Y-84130000D03*
%TO.P,IC1,21,LODRV2*%
%TO.N,BQ_LODRV2*%
X145220000Y-84130000D03*
%TO.P,IC1,22,PGND_2*%
%TO.N,GND*%
X144720000Y-84130000D03*
%TO.P,IC1,23,DRV_SUP*%
%TO.N,BQ_REGN*%
X144220000Y-84130000D03*
%TO.P,IC1,24,REGN*%
X143720000Y-84130000D03*
%TO.P,IC1,25,LODRV1*%
%TO.N,BQ_LODRV1*%
X143220000Y-84130000D03*
%TO.P,IC1,26,BTST1*%
%TO.N,/BTST1*%
X142720000Y-84130000D03*
%TO.P,IC1,27,HIDRV1*%
%TO.N,/HIDRV1*%
X142220000Y-84130000D03*
%TO.P,IC1,28,SW1*%
%TO.N,/SW1*%
X141720000Y-84130000D03*
D45*
%TO.P,IC1,29,ACN*%
%TO.N,/ACN*%
X141020000Y-84830000D03*
%TO.P,IC1,30,ACP*%
%TO.N,/ACP*%
X141020000Y-85330000D03*
%TO.P,IC1,31,ACDRV*%
%TO.N,/ACDRV*%
X141020000Y-85830000D03*
%TO.P,IC1,32,SYS*%
%TO.N,BQ_SYS*%
X141020000Y-86330000D03*
%TO.P,IC1,33,VAC*%
%TO.N,/VAC*%
X141020000Y-86830000D03*
%TO.P,IC1,34,ACUV*%
%TO.N,BQ_ACUV*%
X141020000Y-87330000D03*
%TO.P,IC1,35,ACOV*%
%TO.N,BQ_ACOV*%
X141020000Y-87830000D03*
%TO.P,IC1,36,FSW__SYNC*%
%TO.N,/FSW_SYNC*%
X141020000Y-88330000D03*
D46*
%TO.P,IC1,37,GND*%
%TO.N,GND*%
X143970000Y-86580000D03*
%TD*%
D19*
%TO.P,Q4,1,S_1*%
%TO.N,/Q4_S*%
X120288000Y-68285110D03*
%TO.P,Q4,2,S_2*%
X121558000Y-68285110D03*
%TO.P,Q4,3,S_3*%
X122828000Y-68285110D03*
%TO.P,Q4,4,G*%
%TO.N,/ACDRV*%
X124098000Y-68285110D03*
D20*
%TO.P,Q4,5,D_1*%
%TO.N,VIN*%
X124098000Y-62820110D03*
%TO.P,Q4,6,D_2*%
X122828000Y-62820110D03*
%TO.P,Q4,7,D_3*%
X121558000Y-62820110D03*
D21*
%TO.P,Q4,8,D_4*%
X122183000Y-64925110D03*
D20*
X120288000Y-62820110D03*
%TD*%
D24*
%TO.P,Q10,1,B*%
%TO.N,/CELL BALANCING IC/BREG*%
X122855000Y-82950000D03*
%TO.P,Q10,2,E*%
%TO.N,/CELL BALANCING IC/REGIN*%
X124765000Y-82950000D03*
%TO.P,Q10,3,C*%
%TO.N,Net-(Q10-C)*%
X123810000Y-80850000D03*
%TD*%
D10*
%TO.P,R15,1,1*%
%TO.N,BQ_INT*%
X138868080Y-95140000D03*
%TO.P,R15,2,2*%
%TO.N,+3V3*%
X138868080Y-96740000D03*
%TD*%
D19*
%TO.P,Q3,1,S_1*%
%TO.N,BQ_BATSRC*%
X160268000Y-67845110D03*
%TO.P,Q3,2,S_2*%
X161538000Y-67845110D03*
%TO.P,Q3,3,S_3*%
X162808000Y-67845110D03*
%TO.P,Q3,4,G*%
%TO.N,BQ_BATDRV*%
X164078000Y-67845110D03*
D20*
%TO.P,Q3,5,D_1*%
%TO.N,BQ_SYS*%
X164078000Y-62380110D03*
%TO.P,Q3,6,D_2*%
X162808000Y-62380110D03*
%TO.P,Q3,7,D_3*%
X161538000Y-62380110D03*
D21*
%TO.P,Q3,8,D_4*%
X162163000Y-64485110D03*
D20*
X160268000Y-62380110D03*
%TD*%
D25*
%TO.P,C38,1,1*%
%TO.N,/CELL BALANCING IC/VC(3-9)*%
X115230000Y-99550000D03*
%TO.P,C38,2,2*%
%TO.N,/CELL BALANCING IC/VC1*%
X115230000Y-101350000D03*
%TD*%
D10*
%TO.P,R23,1,1*%
%TO.N,GND*%
X149551919Y-96740000D03*
%TO.P,R23,2,2*%
%TO.N,/ICHG*%
X149551919Y-95140000D03*
%TD*%
D47*
%TO.P,FL1,1,1*%
%TO.N,/CANBUS/L_CAN_P*%
X131605000Y-118240000D03*
%TO.P,FL1,2,2*%
%TO.N,/CANBUS/L_CAN_N*%
X131605000Y-115740000D03*
%TO.P,FL1,3,3*%
%TO.N,/CANBUS/CAN_N*%
X127055000Y-115740000D03*
%TO.P,FL1,4,4*%
%TO.N,/CANBUS/CAN_P*%
X127055000Y-118240000D03*
%TD*%
D10*
%TO.P,R18,1,1*%
%TO.N,BQ_PG*%
X144210000Y-95140000D03*
%TO.P,R18,2,2*%
%TO.N,+3V3*%
X144210000Y-96740000D03*
%TD*%
D19*
%TO.P,Q7,1,S_1*%
%TO.N,BQ_BATSRC*%
X164185000Y-70582500D03*
%TO.P,Q7,2,S_2*%
X162915000Y-70582500D03*
%TO.P,Q7,3,S_3*%
X161645000Y-70582500D03*
%TO.P,Q7,4,G*%
%TO.N,BQ_BATDRV*%
X160375000Y-70582500D03*
D20*
%TO.P,Q7,5,D_1*%
%TO.N,/Q7_DRAIN*%
X160375000Y-76047500D03*
%TO.P,Q7,6,D_2*%
X161645000Y-76047500D03*
%TO.P,Q7,7,D_3*%
X162915000Y-76047500D03*
D21*
%TO.P,Q7,8,D_4*%
X162290000Y-73942500D03*
D20*
X164185000Y-76047500D03*
%TD*%
D15*
%TO.P,R33,1,1*%
%TO.N,BQ2_ALERT*%
X125060000Y-98050000D03*
%TO.P,R33,2,2*%
%TO.N,+3V3*%
X126660000Y-98050000D03*
%TD*%
D48*
%TO.P,J4,1,1*%
%TO.N,GND*%
X114015000Y-113370000D03*
%TO.P,J4,2,2*%
%TO.N,/CANBUS/CAN_N*%
X114015000Y-115870000D03*
%TO.P,J4,3,3*%
%TO.N,/CANBUS/CAN_P*%
X114015000Y-118370000D03*
D49*
%TO.P,J4,MP1,MP1*%
%TO.N,unconnected-(J4-PadMP1)*%
X107215000Y-110170000D03*
%TO.P,J4,MP2,MP2*%
%TO.N,unconnected-(J4-PadMP2)*%
X107215000Y-121570000D03*
%TD*%
D10*
%TO.P,R16,1,1*%
%TO.N,BQ_STAT1*%
X140678720Y-95150000D03*
%TO.P,R16,2,2*%
%TO.N,+3V3*%
X140678720Y-96750000D03*
%TD*%
D16*
%TO.P,C35,1,1*%
%TO.N,/CELL BALANCING IC/BAT*%
X118310000Y-84520000D03*
%TO.P,C35,2,2*%
%TO.N,GND*%
X118310000Y-83120000D03*
%TD*%
D15*
%TO.P,R9,1,1*%
%TO.N,/SRN*%
X153190000Y-89560000D03*
%TO.P,R9,2,2*%
%TO.N,+BATT*%
X154790000Y-89560000D03*
%TD*%
D25*
%TO.P,C9,1,1*%
%TO.N,/SRP*%
X151430000Y-86260000D03*
%TO.P,C9,2,2*%
%TO.N,/SRN*%
X151430000Y-88060000D03*
%TD*%
D10*
%TO.P,R44,1,1*%
%TO.N,BAT2*%
X112510000Y-96730000D03*
%TO.P,R44,2,2*%
%TO.N,/CELL BALANCING IC/VC(3-9)*%
X112510000Y-95130000D03*
%TD*%
D15*
%TO.P,R12,1,1*%
%TO.N,Net-(R12-Pad1)*%
X131720000Y-91360000D03*
%TO.P,R12,2,2*%
%TO.N,BQ_ACOV*%
X133320000Y-91360000D03*
%TD*%
D50*
%TO.P,C22,1,1*%
%TO.N,Net-(C22-Pad1)*%
X170200000Y-66010000D03*
%TO.P,C22,2,2*%
%TO.N,GND*%
X170200000Y-63210000D03*
%TD*%
D33*
%TO.P,LED2,1,K*%
%TO.N,GND*%
X157680000Y-104140097D03*
%TO.P,LED2,2,A*%
%TO.N,Net-(LED2-A)*%
X156080000Y-104140097D03*
%TD*%
D15*
%TO.P,R10,1,1*%
%TO.N,/FSW_SYNC*%
X135160000Y-92960000D03*
%TO.P,R10,2,2*%
%TO.N,GND*%
X133560000Y-92960000D03*
%TD*%
D14*
%TO.P,C26,1,1*%
%TO.N,+3V3*%
X142300000Y-117280000D03*
%TO.P,C26,2,2*%
%TO.N,GND*%
X144300000Y-117280000D03*
%TD*%
D25*
%TO.P,C44,1,1*%
%TO.N,/CELL BALANCING IC/VC0*%
X121562500Y-101190000D03*
%TO.P,C44,2,2*%
%TO.N,GND*%
X121562500Y-102990000D03*
%TD*%
D19*
%TO.P,Q2,1,S_1*%
%TO.N,/SW2*%
X151916500Y-68051305D03*
%TO.P,Q2,2,S_2*%
X153186500Y-68051305D03*
%TO.P,Q2,3,S_3*%
X154456500Y-68051305D03*
%TO.P,Q2,4,G*%
%TO.N,/HIDRV2*%
X155726500Y-68051305D03*
D20*
%TO.P,Q2,5,D_1*%
%TO.N,/Q7_DRAIN*%
X155726500Y-62586305D03*
%TO.P,Q2,6,D_2*%
X154456500Y-62586305D03*
%TO.P,Q2,7,D_3*%
X153186500Y-62586305D03*
D21*
%TO.P,Q2,8,D_4*%
X153811500Y-64691305D03*
D20*
X151916500Y-62586305D03*
%TD*%
D31*
%TO.P,J3,1,1*%
%TO.N,+BATT*%
X172425500Y-113720000D03*
%TO.P,J3,2,2*%
%TO.N,GND*%
X172425500Y-118720000D03*
D32*
%TO.P,J3,3,3*%
%TO.N,unconnected-(J3-Pad3)*%
X182425500Y-121720000D03*
%TO.P,J3,4,4*%
%TO.N,unconnected-(J3-Pad4)*%
X182425500Y-110720000D03*
%TD*%
D10*
%TO.P,R25,1,1*%
%TO.N,BQ_FB*%
X150150000Y-91160000D03*
%TO.P,R25,2,2*%
%TO.N,/FBG*%
X150150000Y-92760000D03*
%TD*%
D51*
%TO.P,J6,1,Pin_1*%
%TO.N,GND*%
X105625000Y-83312500D03*
D52*
%TO.P,J6,2,Pin_2*%
%TO.N,BAT1*%
X105625000Y-85812500D03*
%TO.P,J6,3,Pin_3*%
%TO.N,BAT2*%
X105625000Y-88312500D03*
%TO.P,J6,4,Pin_4*%
%TO.N,BAT3{slash}PACK+*%
X105625000Y-90812500D03*
%TO.P,J6,5,Pin_5*%
%TO.N,BQ_TS*%
X105625000Y-93312500D03*
%TO.P,J6,6,Pin_6*%
%TO.N,GND*%
X105625000Y-95812500D03*
%TD*%
D19*
%TO.P,Q1,1,S_1*%
%TO.N,/Q4_S*%
X124075000Y-71428695D03*
%TO.P,Q1,2,S_2*%
X122805000Y-71428695D03*
%TO.P,Q1,3,S_3*%
X121535000Y-71428695D03*
%TO.P,Q1,4,G*%
%TO.N,/ACDRV*%
X120265000Y-71428695D03*
D20*
%TO.P,Q1,5,D_1*%
%TO.N,/Q1_D*%
X120265000Y-76893695D03*
%TO.P,Q1,6,D_2*%
X121535000Y-76893695D03*
%TO.P,Q1,7,D_3*%
X122805000Y-76893695D03*
D21*
%TO.P,Q1,8,D_4*%
X122180000Y-74788695D03*
D20*
X124075000Y-76893695D03*
%TD*%
D53*
%TO.P,C24,1,1*%
%TO.N,Net-(C24-Pad1)*%
X123060000Y-116970000D03*
%TO.P,C24,2,2*%
%TO.N,GND*%
X124460000Y-116970000D03*
%TD*%
D10*
%TO.P,R2,1,1*%
%TO.N,/Q1_D*%
X132310000Y-87390000D03*
%TO.P,R2,2,2*%
%TO.N,/ACP*%
X132310000Y-85790000D03*
%TD*%
%TO.P,R19,1,1*%
%TO.N,GND*%
X145990639Y-96740000D03*
%TO.P,R19,2,2*%
%TO.N,BQ_CE*%
X145990639Y-95140000D03*
%TD*%
%TO.P,R17,1,1*%
%TO.N,BQ_STAT2*%
X142429360Y-95140000D03*
%TO.P,R17,2,2*%
%TO.N,+3V3*%
X142429360Y-96740000D03*
%TD*%
D54*
%TO.P,C23,1,+_1*%
%TO.N,BQ_SYS*%
X174220000Y-89020000D03*
%TO.P,C23,2,-_1*%
%TO.N,GND*%
X174220000Y-101620000D03*
D55*
%TO.P,C23,3,+_2*%
%TO.N,BQ_SYS*%
X176470000Y-89320000D03*
%TO.P,C23,4,+_3*%
X171970000Y-89320000D03*
%TO.P,C23,5,-_2*%
%TO.N,GND*%
X176470000Y-101320000D03*
%TO.P,C23,6,-_3*%
X171970000Y-101320000D03*
%TD*%
D56*
%TO.P,R1,1,1*%
%TO.N,/Q1_D*%
X129970000Y-85500000D03*
%TO.P,R1,2,2*%
%TO.N,BQ_SYS*%
X129970000Y-83300000D03*
%TD*%
D10*
%TO.P,R43,1,1*%
%TO.N,Net-(IC6-PACK)*%
X112440000Y-85960000D03*
%TO.P,R43,2,2*%
%TO.N,BAT3{slash}PACK+*%
X112440000Y-87560000D03*
%TD*%
D57*
%TO.P,C45,1,1*%
%TO.N,Net-(IC6-REG18)*%
X123872500Y-100745000D03*
%TO.P,C45,2,2*%
%TO.N,GND*%
X123872500Y-103745000D03*
%TD*%
D34*
%TO.P,C36,1,1*%
%TO.N,/CELL BALANCING IC/BAT*%
X116540000Y-84880000D03*
%TO.P,C36,2,2*%
%TO.N,GND*%
X116540000Y-82880000D03*
%TD*%
D58*
%TO.P,C19,1,1*%
%TO.N,BQ_SYS*%
X140410000Y-74180000D03*
%TO.P,C19,2,2*%
%TO.N,GND*%
X143210000Y-74180000D03*
%TD*%
D13*
%TO.P,C3,1,1*%
%TO.N,GND*%
X135260000Y-82130000D03*
%TO.P,C3,2,2*%
%TO.N,/ACN*%
X133860000Y-82130000D03*
%TD*%
D15*
%TO.P,R22,1,1*%
%TO.N,Net-(R12-Pad1)*%
X131920000Y-93080000D03*
%TO.P,R22,2,2*%
%TO.N,GND*%
X130320000Y-93080000D03*
%TD*%
D25*
%TO.P,C43,1,1*%
%TO.N,/CELL BALANCING IC/VC1*%
X117552500Y-101197500D03*
%TO.P,C43,2,2*%
%TO.N,GND*%
X117552500Y-102997500D03*
%TD*%
D59*
%TO.P,J7,1,Pin_1*%
%TO.N,GND*%
X105490000Y-106560000D03*
D52*
%TO.P,J7,2,Pin_2*%
%TO.N,BQ2_TS3*%
X105490000Y-104060000D03*
%TO.P,J7,3,Pin_3*%
%TO.N,BQ2_TS2*%
X105490000Y-101560000D03*
%TO.P,J7,4,Pin_4*%
%TO.N,BQ2_TS1*%
X105490000Y-99060000D03*
%TD*%
D60*
%TO.P,C41,1,1*%
%TO.N,/CELL BALANCING IC/REGIN*%
X125370000Y-88840000D03*
%TO.P,C41,2,2*%
%TO.N,GND*%
X126970000Y-88840000D03*
%TD*%
D50*
%TO.P,C18,1,1*%
%TO.N,BQ_SYS*%
X130110000Y-75220000D03*
%TO.P,C18,2,2*%
%TO.N,GND*%
X130110000Y-78020000D03*
%TD*%
D39*
%TO.P,R30,1,1*%
%TO.N,/CANBUS/CAN_N*%
X124092000Y-115740000D03*
%TO.P,R30,2,2*%
%TO.N,Net-(C24-Pad1)*%
X123068000Y-115740000D03*
%TD*%
D29*
%TO.P,D5,1,K*%
%TO.N,/BTST2*%
X147810000Y-81110000D03*
%TO.P,D5,2,A*%
%TO.N,BQ_REGN*%
X144910000Y-81110000D03*
%TD*%
D61*
%TO.N,GND*%
X128060000Y-90890000D03*
X152230000Y-77760000D03*
X119456589Y-99544087D03*
X141200000Y-93590000D03*
X153101704Y-98939335D03*
X175120000Y-118740000D03*
X131053950Y-70000000D03*
X143470000Y-85380000D03*
X139569721Y-101733499D03*
X122120000Y-86000000D03*
X137440000Y-117325000D03*
X175915000Y-119720000D03*
X150140000Y-109009999D03*
X119274079Y-87318459D03*
X143440000Y-86536667D03*
X108760000Y-76070000D03*
X166360000Y-80620000D03*
X137030000Y-77700000D03*
X111839997Y-84950000D03*
X108790000Y-77050000D03*
X146156616Y-81882091D03*
X175730000Y-75630000D03*
X154540000Y-86260000D03*
X152580000Y-110530000D03*
X138293269Y-102515784D03*
X119400000Y-96260000D03*
X175830000Y-102303333D03*
X176680000Y-118740000D03*
X112258298Y-91580002D03*
X117750000Y-78410000D03*
X124240000Y-92000000D03*
X128030000Y-89910000D03*
X154510000Y-88060000D03*
D62*
X181200000Y-125870000D03*
D61*
X176480000Y-75630000D03*
X114340000Y-76870000D03*
X135310000Y-109773332D03*
X144525000Y-86536667D03*
X174315000Y-102303333D03*
X135160000Y-61890000D03*
X129300000Y-92867500D03*
X165360000Y-113240000D03*
X117270000Y-76360000D03*
X123880000Y-104980000D03*
X136160000Y-87580000D03*
X142790876Y-112960876D03*
X107200000Y-77050000D03*
X134840000Y-116025000D03*
X158610000Y-104340097D03*
X154460000Y-81290000D03*
X176650000Y-117820000D03*
X150210000Y-82360000D03*
X141330000Y-106070000D03*
X133570000Y-94170000D03*
X139620000Y-93570000D03*
X145230000Y-117290000D03*
X148140000Y-85010000D03*
X108580000Y-102190000D03*
X171190000Y-62300000D03*
X136820000Y-86290000D03*
X111140000Y-113050000D03*
X107995000Y-77050000D03*
X138120480Y-81514982D03*
X107980000Y-75150000D03*
X125558813Y-95931186D03*
X120690000Y-117120000D03*
X142300000Y-86536667D03*
X140844892Y-103902860D03*
X125632392Y-95436000D03*
X144180000Y-115290000D03*
X121610000Y-104190000D03*
X149570000Y-97860000D03*
X172700000Y-101263333D03*
X133480616Y-95112755D03*
X175800000Y-101263333D03*
X129340000Y-70440000D03*
X142016662Y-119422410D03*
X175120000Y-119720000D03*
X151710000Y-76470000D03*
X149430366Y-106462127D03*
X126980000Y-85820000D03*
X143410000Y-87693333D03*
X107200000Y-75150000D03*
X174950000Y-77530000D03*
X143308720Y-112619739D03*
X142989825Y-103665370D03*
X128000000Y-88990000D03*
X166360000Y-81370000D03*
X124770000Y-93980000D03*
X142880000Y-93670000D03*
X150930676Y-85149999D03*
X111470022Y-97329482D03*
D62*
X106840000Y-63700000D03*
D61*
X175745000Y-77530000D03*
X120510000Y-87460000D03*
X130720265Y-62998564D03*
X136240000Y-122236399D03*
X107990000Y-76070000D03*
X110220000Y-113060000D03*
X157390000Y-113170000D03*
X175910000Y-118740000D03*
X175740000Y-76550000D03*
X175770000Y-100143333D03*
X174950000Y-76550000D03*
X132160000Y-78010000D03*
X145700000Y-87693333D03*
X175120000Y-117820000D03*
X158580000Y-105320097D03*
X161622044Y-71637500D03*
X145700000Y-85380000D03*
X119600000Y-103750000D03*
X136080000Y-61860000D03*
X142270000Y-87693333D03*
X120433354Y-99825973D03*
D62*
X106840000Y-125870000D03*
D61*
X158151205Y-68920096D03*
X115900000Y-81800000D03*
X176510000Y-76550000D03*
X156610000Y-73800000D03*
X158550000Y-106240097D03*
X142110001Y-81842182D03*
X172700000Y-102303333D03*
X145042901Y-94540008D03*
X146264172Y-94340001D03*
X119670000Y-87910000D03*
X174300000Y-100143333D03*
X110805000Y-96330003D03*
X167280000Y-80590000D03*
X175900000Y-117820000D03*
X107200000Y-76070000D03*
X117552500Y-102997500D03*
X144530000Y-85380000D03*
X117804013Y-96290699D03*
X170730000Y-107800000D03*
X134180000Y-61920000D03*
X135260000Y-80910000D03*
X152310000Y-76450000D03*
D62*
X181200000Y-63700000D03*
D61*
X148710000Y-77790000D03*
X144340000Y-74170000D03*
X136810000Y-85780000D03*
X146090000Y-97870000D03*
X111140000Y-113800000D03*
X110220000Y-113830000D03*
X148740000Y-78770000D03*
X118310000Y-83120000D03*
X142259541Y-113743511D03*
X124460000Y-116970000D03*
X176710000Y-119720000D03*
X145450000Y-127800000D03*
X108730000Y-75150000D03*
X170270000Y-62330000D03*
X172700000Y-100143333D03*
X124468427Y-97028706D03*
X111369997Y-100620000D03*
X174310000Y-101263333D03*
X145700000Y-86536667D03*
X128108358Y-68540866D03*
X144520000Y-87693333D03*
X145419457Y-98764313D03*
X169060000Y-118710000D03*
X157770000Y-72870000D03*
X176540000Y-77530000D03*
X138510000Y-110530000D03*
X151990000Y-93970000D03*
X169290000Y-62360000D03*
X116540000Y-82880000D03*
X137644322Y-93492462D03*
X121344999Y-98995317D03*
X118470000Y-96290000D03*
X147803330Y-98459855D03*
X118986263Y-80496155D03*
X174950000Y-75630000D03*
X140420000Y-78120000D03*
X142330000Y-85380000D03*
X167280000Y-81360000D03*
%TO.N,/SW1*%
X133570000Y-66160000D03*
X131320000Y-67830000D03*
X133570000Y-65170000D03*
X134490000Y-67150000D03*
X138500000Y-66120000D03*
X131320000Y-66770000D03*
X140340000Y-66100000D03*
X130040000Y-70450000D03*
X138500000Y-67110000D03*
X135410000Y-66140000D03*
X135410000Y-65150000D03*
X129440000Y-67830000D03*
X130350000Y-66770000D03*
X138500000Y-68090000D03*
X131320000Y-65600000D03*
X133570000Y-67140000D03*
X130350000Y-67830000D03*
X134490000Y-66160000D03*
X140340000Y-67090000D03*
X129440000Y-65600000D03*
X140340000Y-68090000D03*
X129440000Y-66770000D03*
X139420000Y-67110000D03*
X139420000Y-66120000D03*
X136740000Y-81570000D03*
X130350000Y-65600000D03*
X134490000Y-65170000D03*
X139420000Y-68100000D03*
X135410000Y-67140000D03*
%TO.N,/SW2*%
X148650000Y-70260000D03*
X154620000Y-71960000D03*
X152780000Y-71980000D03*
X158140000Y-69570000D03*
X152780000Y-70990000D03*
X148650000Y-71430000D03*
X147550000Y-67090000D03*
X148650000Y-72490000D03*
X149390000Y-66080000D03*
X149390000Y-68070000D03*
X148470000Y-66100000D03*
X147740000Y-72490000D03*
X152780000Y-72960000D03*
X153360000Y-81680000D03*
X147740000Y-71430000D03*
X149620000Y-72490000D03*
X149620000Y-71430000D03*
X149620000Y-70260000D03*
X154620000Y-72960000D03*
X153700000Y-70990000D03*
X149390000Y-67070000D03*
X153700000Y-71980000D03*
X148470000Y-68080000D03*
X148470000Y-67090000D03*
X147740000Y-70260000D03*
X154620000Y-70970000D03*
X147550000Y-66100000D03*
X147550000Y-68070000D03*
X153700000Y-72970000D03*
%TO.N,/VAC*%
X117835000Y-77795000D03*
X137530000Y-86770000D03*
%TO.N,BQ_REGN*%
X147790000Y-97860000D03*
X143950000Y-82790000D03*
%TO.N,+3V3*%
X164270000Y-106800000D03*
X128020000Y-92700000D03*
X165240000Y-109030000D03*
X158370000Y-123450000D03*
X164270000Y-109030000D03*
X163360000Y-109030000D03*
X159340000Y-122340000D03*
X139554000Y-97780000D03*
X159340000Y-123450000D03*
X135790000Y-97780000D03*
X143180000Y-117740000D03*
X157460000Y-122340000D03*
X165240000Y-106800000D03*
X145125000Y-97830876D03*
X157460000Y-121220000D03*
X163360000Y-106800000D03*
X159340000Y-121220000D03*
X141240000Y-107470000D03*
X163360000Y-107920000D03*
X143150000Y-116760000D03*
X164270000Y-107920000D03*
X157460000Y-123450000D03*
X165240000Y-107920000D03*
X137672000Y-97780000D03*
X158370000Y-122340000D03*
X143318000Y-97780000D03*
X141436000Y-97780000D03*
X146940000Y-106750000D03*
X127820000Y-98050000D03*
X158370000Y-121220000D03*
X141240000Y-106900000D03*
%TO.N,+BATT*%
X175890000Y-113710000D03*
X175100000Y-114690000D03*
X158320000Y-98044376D03*
X175100000Y-113710000D03*
X163410000Y-117290000D03*
X164320000Y-117290000D03*
X175895000Y-114690000D03*
X175880000Y-112790000D03*
X176630000Y-112790000D03*
X165290000Y-118400000D03*
X165290000Y-117290000D03*
X158320000Y-99924376D03*
X163410000Y-118400000D03*
X157260000Y-98044376D03*
X159490000Y-98044376D03*
X164320000Y-118400000D03*
X158320000Y-98954376D03*
X157260000Y-99924376D03*
X175100000Y-112790000D03*
X176660000Y-113710000D03*
X159490000Y-98954376D03*
X157260000Y-98954376D03*
X159490000Y-99924376D03*
X176690000Y-114690000D03*
%TO.N,BQ_SYS*%
X138040000Y-86270000D03*
X162130000Y-63520000D03*
X134410000Y-72810000D03*
X167070000Y-63010000D03*
X174040000Y-84000000D03*
X134410000Y-73800000D03*
X174920000Y-71560000D03*
X167070000Y-64130000D03*
X175710000Y-71560000D03*
X175365000Y-84000000D03*
X131080000Y-72160000D03*
X174920000Y-72540000D03*
X174025000Y-83200000D03*
X133490000Y-74780000D03*
X165190000Y-63010000D03*
X131960000Y-80010000D03*
X163050000Y-63500000D03*
X161210000Y-63520000D03*
X175700000Y-70640000D03*
X129140000Y-80810000D03*
X176510000Y-72540000D03*
X162130000Y-64510000D03*
X174390000Y-90110000D03*
X175730000Y-90110000D03*
X130980000Y-80810000D03*
X165190000Y-65240000D03*
X175700000Y-89290000D03*
X135330000Y-72790000D03*
X129240000Y-72180000D03*
X135330000Y-73780000D03*
X134410000Y-74790000D03*
X176450000Y-70640000D03*
X172715000Y-83200000D03*
X172715000Y-84000000D03*
X167070000Y-65240000D03*
X129240000Y-74150000D03*
X173050000Y-88490000D03*
X166100000Y-65240000D03*
X174055000Y-84820000D03*
X161210000Y-64510000D03*
X175670000Y-88490000D03*
X129240000Y-73170000D03*
X135330000Y-74780000D03*
X130160000Y-73170000D03*
X174360000Y-88490000D03*
X163050000Y-64490000D03*
X165190000Y-64130000D03*
X173050000Y-90110000D03*
X166100000Y-64130000D03*
X176480000Y-71560000D03*
X133490000Y-72810000D03*
X163050000Y-65490000D03*
X131080000Y-74150000D03*
X129140000Y-81590000D03*
X172715000Y-84820000D03*
X161210000Y-65490000D03*
X133490000Y-73800000D03*
X131080000Y-73150000D03*
X130160000Y-72180000D03*
X131960000Y-81600000D03*
X130980000Y-81600000D03*
X130160000Y-74160000D03*
X130060000Y-80820000D03*
X130060000Y-81600000D03*
X174375000Y-89290000D03*
X162130000Y-65500000D03*
X175395000Y-84820000D03*
X130980000Y-80040000D03*
X174920000Y-70640000D03*
X173050000Y-89290000D03*
X130060000Y-80060000D03*
X131960000Y-80805000D03*
X175715000Y-72540000D03*
X129140000Y-80060000D03*
X166100000Y-63010000D03*
X175335000Y-83200000D03*
%TO.N,/CELL BALANCING IC/VC10*%
X112440000Y-90905000D03*
X116370000Y-90910000D03*
%TO.N,Net-(D4-K)*%
X119390000Y-80940000D03*
X110805000Y-95730000D03*
%TO.N,BQ_STAT1*%
X140680000Y-94100000D03*
%TO.N,BQ_INT*%
X138430000Y-103100000D03*
X138980000Y-94060000D03*
%TO.N,/HIDRV2*%
X150660000Y-81400000D03*
X157160000Y-73410000D03*
%TO.N,BQ_BATSRC*%
X163760000Y-69630000D03*
X161073637Y-71288573D03*
X159400000Y-67130000D03*
X150480000Y-84500000D03*
X161860000Y-69690000D03*
X162840000Y-69660000D03*
X159430000Y-68050000D03*
%TO.N,BQ_LODRV1*%
X142667817Y-82399999D03*
X131370000Y-62980000D03*
%TO.N,BQ_BATDRV*%
X158110000Y-73480000D03*
X150338909Y-85418909D03*
%TO.N,BQ_LODRV2*%
X145832897Y-82499285D03*
X152645000Y-78295000D03*
%TO.N,BQ_PG*%
X145040000Y-95140000D03*
X140140000Y-101920000D03*
%TO.N,BQ_CE*%
X146860000Y-95110000D03*
X141430000Y-103770000D03*
%TO.N,/HIDRV1*%
X138770000Y-81490000D03*
X131040000Y-70650000D03*
%TO.N,BQ_SDA*%
X142140000Y-112180000D03*
X137590000Y-94090000D03*
%TO.N,BQ_TS*%
X153130000Y-98340000D03*
%TO.N,BQ_STAT2*%
X142430000Y-94200000D03*
%TO.N,/ACDRV*%
X127990000Y-69180000D03*
X138600000Y-85805000D03*
%TO.N,BQ_SCL*%
X134080000Y-95140000D03*
X142890000Y-112190000D03*
%TO.N,BQ2_ALERT*%
X124770000Y-96510000D03*
%TO.N,BQ2_CS*%
X147663000Y-110750000D03*
%TO.N,BQ2_SCLK*%
X124765489Y-95809614D03*
%TO.N,Net-(IC6-PACK)*%
X112440000Y-84950000D03*
X118930000Y-87810000D03*
%TO.N,BQ2_TS1*%
X119730000Y-99010000D03*
%TO.N,BQ2_TS2*%
X120430000Y-99200000D03*
%TO.N,BQ2_TS3*%
X121160000Y-99600000D03*
%TO.N,BAT1*%
X111970000Y-100620000D03*
%TO.N,BAT2*%
X111495000Y-96730000D03*
%TO.N,/Q4_S*%
X121530000Y-69370000D03*
X124970000Y-71900000D03*
X120610000Y-69400000D03*
X122510000Y-69340000D03*
X124940000Y-70980000D03*
%TO.N,/Q7_DRAIN*%
X157630000Y-63460000D03*
X162550000Y-87190000D03*
X162020000Y-79480000D03*
X157630000Y-65690000D03*
X162350000Y-81470000D03*
X161270000Y-74770000D03*
X154670000Y-63800000D03*
X161100000Y-78490000D03*
X154670000Y-65790000D03*
X152830000Y-65790000D03*
X152830000Y-63820000D03*
X153750000Y-64810000D03*
X162190000Y-73790000D03*
X163110000Y-74770000D03*
X156720000Y-64580000D03*
X161580000Y-87190000D03*
X161100000Y-79470000D03*
X162020000Y-78490000D03*
X161580000Y-86020000D03*
X161270000Y-73790000D03*
X162190000Y-74780000D03*
X158600000Y-65690000D03*
X158600000Y-64580000D03*
X162190000Y-72800000D03*
X162350000Y-80500000D03*
X157630000Y-64580000D03*
X162020000Y-77500000D03*
X162550000Y-88250000D03*
X158600000Y-63460000D03*
X154670000Y-64790000D03*
X163110000Y-73770000D03*
X153750000Y-65800000D03*
X163110000Y-72780000D03*
X162940000Y-79470000D03*
X161580000Y-88250000D03*
X161270000Y-72800000D03*
X160670000Y-86020000D03*
X160670000Y-87190000D03*
X162940000Y-77480000D03*
X152830000Y-64810000D03*
X160670000Y-88250000D03*
X161290000Y-80500000D03*
X161290000Y-81470000D03*
X153750000Y-63820000D03*
X161100000Y-77500000D03*
X162550000Y-86020000D03*
X162940000Y-78470000D03*
X156720000Y-65690000D03*
X156720000Y-63460000D03*
%TO.N,/Q1_D*%
X122120000Y-74640000D03*
X129785000Y-87230000D03*
X124950000Y-75410000D03*
X123040000Y-75620000D03*
X121200000Y-75620000D03*
X124950000Y-74240000D03*
X123040000Y-74620000D03*
X122120000Y-75630000D03*
X126830000Y-75410000D03*
X125860000Y-74240000D03*
X131170000Y-88710000D03*
X121200000Y-74640000D03*
X125860000Y-75410000D03*
X121200000Y-73650000D03*
X126830000Y-76470000D03*
X130170000Y-88720000D03*
X128680000Y-87230000D03*
X129070000Y-87970000D03*
X122120000Y-73650000D03*
X131280000Y-87970000D03*
X132275000Y-88715000D03*
X126830000Y-74240000D03*
X125860000Y-76470000D03*
X123040000Y-73630000D03*
X130175000Y-87970000D03*
X130890000Y-87230000D03*
X124950000Y-76470000D03*
%TO.N,BQ2_MOSI*%
X124760000Y-94610000D03*
%TO.N,FDCAN_TX*%
X141740000Y-118890000D03*
%TO.N,FDCAN_RX*%
X141660000Y-113720000D03*
%TO.N,CAN_STB*%
X142390000Y-103680000D03*
%TO.N,Net-(LED1-A)*%
X154540000Y-106370000D03*
%TO.N,Net-(LED2-A)*%
X154550000Y-104140000D03*
%TO.N,BQ2_MISO*%
X124777811Y-95209738D03*
%TO.N,VIN*%
X123020000Y-66020000D03*
X117500000Y-68950000D03*
X123020000Y-64030000D03*
X114680000Y-67980000D03*
X115600000Y-67990000D03*
X116520000Y-65990000D03*
X123020000Y-65020000D03*
X122100000Y-65040000D03*
X121180000Y-66020000D03*
X115600000Y-68950000D03*
X117500000Y-66950000D03*
X121180000Y-65040000D03*
X114680000Y-66010000D03*
X116520000Y-68950000D03*
X116520000Y-66980000D03*
X114680000Y-68940000D03*
X114680000Y-67000000D03*
X122100000Y-66030000D03*
X115600000Y-66010000D03*
X117500000Y-65960000D03*
X116520000Y-67980000D03*
X121180000Y-64050000D03*
X122100000Y-64050000D03*
X117500000Y-67975000D03*
X115600000Y-67000000D03*
%TD*%
D63*
%TO.N,GND*%
X124110000Y-92130000D02*
X124240000Y-92000000D01*
X135260000Y-88030000D02*
X135710000Y-88030000D01*
X135260000Y-82130000D02*
X135260000Y-80910000D01*
X119610000Y-103740000D02*
X119600000Y-103750000D01*
X119610000Y-102600000D02*
X119610000Y-103740000D01*
X122100000Y-85980000D02*
X122120000Y-86000000D01*
X119400000Y-97618000D02*
X119400000Y-96260000D01*
X149551919Y-96740000D02*
X151332559Y-96740000D01*
D64*
X117900000Y-96386686D02*
X117900000Y-97618000D01*
D63*
X126660000Y-85500000D02*
X126980000Y-85820000D01*
X126660000Y-84710000D02*
X126660000Y-85500000D01*
X145990639Y-97770639D02*
X146090000Y-97870000D01*
X133560000Y-94160000D02*
X133570000Y-94170000D01*
X147820000Y-85330000D02*
X148140000Y-85010000D01*
X132150000Y-78020000D02*
X132160000Y-78010000D01*
X130110000Y-78020000D02*
X132150000Y-78020000D01*
X144330000Y-74180000D02*
X144340000Y-74170000D01*
X123872500Y-103745000D02*
X123872500Y-104972500D01*
X163690000Y-113170000D02*
X165290000Y-113170000D01*
X149551919Y-96740000D02*
X149551919Y-97841919D01*
X143970000Y-86580000D02*
X145220000Y-85330000D01*
X145220000Y-85330000D02*
X146920000Y-85330000D01*
D65*
X108580000Y-99810000D02*
X108580000Y-102190000D01*
D63*
X145220000Y-117280000D02*
X145230000Y-117290000D01*
X153113199Y-95093199D02*
X151990000Y-93970000D01*
X115900000Y-81800000D02*
X115900000Y-80780000D01*
X136185000Y-120910000D02*
X136185000Y-122181399D01*
X121562500Y-104142500D02*
X121610000Y-104190000D01*
X153113199Y-95140000D02*
X153113199Y-95093199D01*
X119400000Y-89142000D02*
X119400000Y-88180000D01*
X129512500Y-93080000D02*
X129300000Y-92867500D01*
X169290000Y-107790000D02*
X170720000Y-107790000D01*
X144300000Y-117280000D02*
X145220000Y-117280000D01*
X143255000Y-115330000D02*
X144140000Y-115330000D01*
X123872500Y-104972500D02*
X123880000Y-104980000D01*
X137060000Y-77670000D02*
X137030000Y-77700000D01*
X122888000Y-92130000D02*
X124110000Y-92130000D01*
X144140000Y-115330000D02*
X144180000Y-115290000D01*
X122100000Y-84740000D02*
X122100000Y-85980000D01*
X136185000Y-122181399D02*
X136240000Y-122236399D01*
X119400000Y-88180000D02*
X119670000Y-87910000D01*
X133560000Y-92960000D02*
X133560000Y-94160000D01*
X121562500Y-102990000D02*
X121562500Y-104142500D01*
X135710000Y-88030000D02*
X136160000Y-87580000D01*
X146920000Y-85330000D02*
X147820000Y-85330000D01*
X143210000Y-74180000D02*
X144330000Y-74180000D01*
X120510000Y-86450000D02*
X120510000Y-87460000D01*
D64*
X117804013Y-96290699D02*
X117900000Y-96386686D01*
D63*
X130320000Y-93080000D02*
X129512500Y-93080000D01*
X165290000Y-113170000D02*
X165360000Y-113240000D01*
X149551919Y-97841919D02*
X149570000Y-97860000D01*
X144720000Y-84130000D02*
X144720000Y-85830000D01*
X118400000Y-96360000D02*
X118470000Y-96290000D01*
X144720000Y-85830000D02*
X143970000Y-86580000D01*
X145990639Y-96740000D02*
X145990639Y-97770639D01*
X138230000Y-77670000D02*
X137060000Y-77670000D01*
X170720000Y-107790000D02*
X170730000Y-107800000D01*
X118400000Y-97618000D02*
X118400000Y-96360000D01*
%TO.N,/ACP*%
X140382499Y-85330000D02*
X140357499Y-85305000D01*
X140357499Y-85305000D02*
X135845000Y-85305000D01*
X134580000Y-86570000D02*
X133280000Y-85270000D01*
X132830000Y-85270000D02*
X132310000Y-85790000D01*
X134580000Y-87310000D02*
X133860000Y-88030000D01*
X141020000Y-85330000D02*
X140382499Y-85330000D01*
X135845000Y-85305000D02*
X134580000Y-86570000D01*
X134580000Y-86570000D02*
X134580000Y-87310000D01*
X133280000Y-85270000D02*
X132830000Y-85270000D01*
%TO.N,/ACN*%
X134580000Y-83570000D02*
X133280000Y-84870000D01*
X134580000Y-83570000D02*
X134580000Y-82850000D01*
X132850000Y-84870000D02*
X132310000Y-84330000D01*
X141020000Y-84830000D02*
X140382499Y-84830000D01*
X140357499Y-84855000D02*
X135865000Y-84855000D01*
X134580000Y-82850000D02*
X133860000Y-82130000D01*
X140382499Y-84830000D02*
X140357499Y-84855000D01*
X135865000Y-84855000D02*
X134580000Y-83570000D01*
X133280000Y-84870000D02*
X132850000Y-84870000D01*
D66*
%TO.N,/BTST1*%
X136740000Y-80250000D02*
X139390000Y-80250000D01*
D67*
X142720000Y-83230000D02*
X140580000Y-81090000D01*
X142720000Y-84130000D02*
X142720000Y-83230000D01*
X140580000Y-81090000D02*
X140230000Y-81090000D01*
D66*
X139390000Y-80250000D02*
X140230000Y-81090000D01*
D67*
%TO.N,/SW1*%
X138584000Y-83404000D02*
X140544000Y-83404000D01*
X141270000Y-84130000D02*
X141720000Y-84130000D01*
D66*
X138490000Y-83310000D02*
X138480000Y-83310000D01*
D67*
X140544000Y-83404000D02*
X141270000Y-84130000D01*
D66*
X138480000Y-83310000D02*
X136740000Y-81570000D01*
D67*
X138490000Y-83310000D02*
X138584000Y-83404000D01*
%TO.N,/SW2*%
X147460000Y-84830000D02*
X148390000Y-83900000D01*
X146920000Y-84830000D02*
X147460000Y-84830000D01*
X148390000Y-83900000D02*
X151140000Y-83900000D01*
D66*
X151140000Y-83900000D02*
X153360000Y-81680000D01*
D67*
%TO.N,/BTST2*%
X145720000Y-84130000D02*
X145720000Y-83390000D01*
D66*
X148560000Y-80360000D02*
X153360000Y-80360000D01*
D67*
X145720000Y-83390000D02*
X147810000Y-81300000D01*
X147810000Y-81300000D02*
X147810000Y-81110000D01*
D66*
X147810000Y-81110000D02*
X148560000Y-80360000D01*
D64*
%TO.N,/VAC*%
X137590000Y-86830000D02*
X137530000Y-86770000D01*
D63*
X115900000Y-78000000D02*
X115900000Y-74970000D01*
X117835000Y-77795000D02*
X117815000Y-77795000D01*
D64*
X141020000Y-86830000D02*
X137590000Y-86830000D01*
D63*
X115900000Y-74970000D02*
X115910000Y-74960000D01*
X115910000Y-75890000D02*
X115910000Y-74960000D01*
X117815000Y-77795000D02*
X115910000Y-75890000D01*
D64*
%TO.N,/SRP*%
X151430000Y-86260000D02*
X153220000Y-86260000D01*
X150685000Y-86855000D02*
X151280000Y-86260000D01*
X146920000Y-86830000D02*
X147557501Y-86830000D01*
X153220000Y-86260000D02*
X153220000Y-84760000D01*
X147582501Y-86855000D02*
X150685000Y-86855000D01*
X151280000Y-86260000D02*
X151430000Y-86260000D01*
X147557501Y-86830000D02*
X147582501Y-86855000D01*
%TO.N,/SRN*%
X151430000Y-88060000D02*
X153190000Y-88060000D01*
X146920000Y-87330000D02*
X147557501Y-87330000D01*
X151280000Y-88060000D02*
X151430000Y-88060000D01*
X147582501Y-87305000D02*
X150525000Y-87305000D01*
X147557501Y-87330000D02*
X147582501Y-87305000D01*
X153190000Y-88060000D02*
X153190000Y-89560000D01*
X150525000Y-87305000D02*
X151280000Y-88060000D01*
D67*
%TO.N,BQ_REGN*%
X147771279Y-97841279D02*
X147790000Y-97860000D01*
X147771279Y-96740000D02*
X147771279Y-97841279D01*
%TO.N,+3V3*%
X126660000Y-98050000D02*
X127820000Y-98050000D01*
X126850000Y-92700000D02*
X128020000Y-92700000D01*
%TO.N,+BATT*%
X154790000Y-89560000D02*
X156088225Y-89560000D01*
X153470000Y-92720000D02*
X153470000Y-90880000D01*
X156088225Y-89560000D02*
X157787881Y-91259656D01*
X153470000Y-90880000D02*
X154790000Y-89560000D01*
%TO.N,BQ_SYS*%
X138079000Y-86309000D02*
X138079000Y-86331000D01*
D63*
X129970000Y-83300000D02*
X131740000Y-83300000D01*
X131740000Y-83300000D02*
X132310000Y-82730000D01*
D67*
X138853232Y-86331000D02*
X140961000Y-86331000D01*
X138828232Y-86356000D02*
X138853232Y-86331000D01*
X138104000Y-86356000D02*
X138828232Y-86356000D01*
X138079000Y-86331000D02*
X138104000Y-86356000D01*
X138040000Y-86270000D02*
X138079000Y-86309000D01*
D63*
%TO.N,Net-(C22-Pad1)*%
X168930000Y-67280000D02*
X170200000Y-66010000D01*
X168930000Y-68950000D02*
X168930000Y-67280000D01*
%TO.N,/CELL BALANCING IC/VC10*%
X115900000Y-90440000D02*
X115900000Y-89142000D01*
X115529000Y-88771000D02*
X115529000Y-86329000D01*
X115900000Y-89142000D02*
X115529000Y-88771000D01*
X116370000Y-90910000D02*
X115900000Y-90440000D01*
X112440000Y-90905000D02*
X112440000Y-90780000D01*
X115529000Y-86329000D02*
X114380000Y-85180000D01*
D67*
%TO.N,/CELL BALANCING IC/REG1*%
X122888000Y-91130000D02*
X124550000Y-91130000D01*
X124550000Y-91130000D02*
X124930000Y-90750000D01*
%TO.N,/CELL BALANCING IC/REGIN*%
X125909000Y-88301000D02*
X125370000Y-88840000D01*
X124765000Y-82950000D02*
X125909000Y-84094000D01*
X124678000Y-88840000D02*
X122888000Y-90630000D01*
X125370000Y-88840000D02*
X124678000Y-88840000D01*
X125909000Y-84094000D02*
X125909000Y-88301000D01*
%TO.N,Net-(Q10-C)*%
X122230000Y-80850000D02*
X123810000Y-80850000D01*
X120550000Y-84410000D02*
X120510000Y-84450000D01*
X120550000Y-82530000D02*
X122230000Y-80850000D01*
X120550000Y-82530000D02*
X120550000Y-84410000D01*
%TO.N,Net-(IC6-REG18)*%
X121400000Y-98272500D02*
X123872500Y-100745000D01*
X121400000Y-97618000D02*
X121400000Y-98272500D01*
D63*
%TO.N,Net-(D3-K)*%
X109650000Y-85870000D02*
X109650000Y-86720000D01*
X112050000Y-83470000D02*
X109650000Y-85870000D01*
X113040000Y-83470000D02*
X112050000Y-83470000D01*
%TO.N,Net-(D4-K)*%
X119400000Y-80930000D02*
X119390000Y-80940000D01*
X120550000Y-80930000D02*
X119400000Y-80930000D01*
X110805000Y-95730000D02*
X109620000Y-95730000D01*
%TO.N,BQ_STAT1*%
X140680000Y-95148720D02*
X140678720Y-95150000D01*
X140680000Y-94100000D02*
X140680000Y-95148720D01*
D64*
X140678720Y-95150000D02*
X143220000Y-92608720D01*
X143220000Y-92608720D02*
X143220000Y-89030000D01*
D63*
%TO.N,BQ_INT*%
X138980000Y-95028080D02*
X138868080Y-95140000D01*
X138980000Y-94060000D02*
X138980000Y-95028080D01*
D64*
X142720000Y-91288080D02*
X142720000Y-89030000D01*
X138868080Y-95140000D02*
X142720000Y-91288080D01*
%TO.N,/ICHG*%
X149551919Y-95140000D02*
X145720000Y-91308081D01*
X145720000Y-91308081D02*
X145720000Y-89030000D01*
D66*
%TO.N,/HIDRV2*%
X157090000Y-73340000D02*
X157090000Y-69414805D01*
D67*
X150490000Y-81570000D02*
X150010000Y-81570000D01*
X150010000Y-81570000D02*
X147450000Y-84130000D01*
D66*
X157090000Y-69414805D02*
X155726500Y-68051305D01*
X157160000Y-73410000D02*
X157090000Y-73340000D01*
D67*
X147450000Y-84130000D02*
X146220000Y-84130000D01*
X150660000Y-81400000D02*
X150490000Y-81570000D01*
D64*
%TO.N,/FBG*%
X146920000Y-88330000D02*
X146920000Y-89530000D01*
X146920000Y-89530000D02*
X150150000Y-92760000D01*
D67*
%TO.N,BQ_BATSRC*%
X150480000Y-84500000D02*
X150112091Y-84867909D01*
X150110677Y-84867909D02*
X149787909Y-85190677D01*
X147001000Y-85829000D02*
X147000000Y-85830000D01*
X149787909Y-85190677D02*
X149787909Y-85192091D01*
X149151000Y-85829000D02*
X147001000Y-85829000D01*
X150112091Y-84867909D02*
X150110677Y-84867909D01*
X147000000Y-85830000D02*
X146920000Y-85830000D01*
X149787909Y-85192091D02*
X149151000Y-85829000D01*
D64*
%TO.N,/ILIM_HIZ*%
X151070000Y-95140000D02*
X146220000Y-90290000D01*
X151332559Y-95140000D02*
X151070000Y-95140000D01*
X146220000Y-90290000D02*
X146220000Y-89030000D01*
D67*
%TO.N,BQ_LODRV1*%
X142667817Y-82399999D02*
X143220000Y-82952182D01*
D66*
X131388695Y-62998695D02*
X132573500Y-62998695D01*
D67*
X143220000Y-82952182D02*
X143220000Y-84130000D01*
D66*
X131370000Y-62980000D02*
X131388695Y-62998695D01*
D67*
%TO.N,BQ_BATDRV*%
X164078000Y-67845110D02*
X164078000Y-68099232D01*
X161518500Y-69109000D02*
X160375000Y-70252500D01*
X164078000Y-68099232D02*
X163068232Y-69109000D01*
D66*
X158110000Y-73480000D02*
X158261000Y-73480000D01*
X159083055Y-72657945D02*
X159083055Y-71846945D01*
X159083055Y-71846945D02*
X160347500Y-70582500D01*
D67*
X149427818Y-86330000D02*
X146920000Y-86330000D01*
X163068232Y-69109000D02*
X161518500Y-69109000D01*
X160375000Y-70252500D02*
X160375000Y-70582500D01*
D66*
X160347500Y-70582500D02*
X160375000Y-70582500D01*
D67*
X150338909Y-85418909D02*
X149427818Y-86330000D01*
D66*
X158261000Y-73480000D02*
X159083055Y-72657945D01*
%TO.N,BQ_LODRV2*%
X155620000Y-76300000D02*
X155620000Y-75477805D01*
D67*
X145642897Y-82499285D02*
X145220000Y-82922182D01*
D66*
X153008784Y-77931216D02*
X153988784Y-77931216D01*
X155620000Y-75477805D02*
X155716500Y-75381305D01*
X152645000Y-78295000D02*
X153008784Y-77931216D01*
D67*
X145832897Y-82499285D02*
X145642897Y-82499285D01*
D66*
X153988784Y-77931216D02*
X155620000Y-76300000D01*
D67*
X145220000Y-82922182D02*
X145220000Y-84130000D01*
D63*
%TO.N,BQ_PG*%
X145040000Y-95140000D02*
X144210000Y-95140000D01*
X144210000Y-89040000D02*
X144220000Y-89030000D01*
X144210000Y-95140000D02*
X144210000Y-89040000D01*
%TO.N,BQ_CE*%
X146860000Y-95110000D02*
X146020639Y-95110000D01*
D64*
X144720000Y-89030000D02*
X144720000Y-93510000D01*
X145990639Y-94780639D02*
X145990639Y-95140000D01*
X144720000Y-93510000D02*
X145990639Y-94780639D01*
D63*
X146020639Y-95110000D02*
X145990639Y-95140000D01*
D66*
%TO.N,/HIDRV1*%
X139141000Y-81861000D02*
X138770000Y-81490000D01*
D67*
X141215000Y-82500000D02*
X139340000Y-82500000D01*
D66*
X132514805Y-70650000D02*
X132523500Y-70658695D01*
X131040000Y-70650000D02*
X132514805Y-70650000D01*
D67*
X142220000Y-83505000D02*
X141215000Y-82500000D01*
X142220000Y-84130000D02*
X142220000Y-83505000D01*
D66*
X139141000Y-82301000D02*
X139141000Y-81861000D01*
D67*
X139340000Y-82500000D02*
X139141000Y-82301000D01*
D63*
%TO.N,BQ_ACOV*%
X133360000Y-91320000D02*
X133320000Y-91360000D01*
D64*
X141020000Y-87830000D02*
X138500000Y-87830000D01*
X138500000Y-87830000D02*
X135010000Y-91320000D01*
D63*
X135010000Y-91320000D02*
X133360000Y-91320000D01*
D64*
%TO.N,BQ_FB*%
X150310000Y-91160000D02*
X151870000Y-92720000D01*
X149059000Y-89454000D02*
X149059000Y-90144000D01*
X146920000Y-87830000D02*
X147435000Y-87830000D01*
X150150000Y-91160000D02*
X150310000Y-91160000D01*
X150075000Y-91160000D02*
X150150000Y-91160000D01*
X147435000Y-87830000D02*
X149059000Y-89454000D01*
X149059000Y-90144000D02*
X150075000Y-91160000D01*
%TO.N,BQ_SDA*%
X137087440Y-95140000D02*
X137162440Y-95140000D01*
D63*
X137504663Y-94722777D02*
X137087440Y-95140000D01*
D64*
X142220000Y-90082440D02*
X142220000Y-89030000D01*
D63*
X137504663Y-94175337D02*
X137504663Y-94722777D01*
D64*
X137162440Y-95140000D02*
X142220000Y-90082440D01*
D63*
X137590000Y-94090000D02*
X137504663Y-94175337D01*
D64*
%TO.N,/FSW_SYNC*%
X141020000Y-88330000D02*
X139790000Y-88330000D01*
X139790000Y-88330000D02*
X135160000Y-92960000D01*
D65*
%TO.N,BQ_TS*%
X105625000Y-93312500D02*
X108580000Y-96267500D01*
D64*
X145220000Y-92588721D02*
X145220000Y-89030000D01*
D65*
X147771279Y-95140000D02*
X148725279Y-96094000D01*
X152467199Y-96094000D02*
X153113199Y-96740000D01*
X148725279Y-96094000D02*
X152467199Y-96094000D01*
X108580000Y-96267500D02*
X108580000Y-98210000D01*
X153113199Y-98323199D02*
X153113199Y-96740000D01*
D64*
X147771279Y-95140000D02*
X145220000Y-92588721D01*
D65*
X153130000Y-98340000D02*
X153113199Y-98323199D01*
D64*
%TO.N,BQ_STAT2*%
X143720000Y-93560000D02*
X143720000Y-89030000D01*
X142429360Y-95140000D02*
X142429360Y-94850640D01*
D63*
X142430000Y-94200000D02*
X142430000Y-95139360D01*
X142430000Y-95139360D02*
X142429360Y-95140000D01*
D64*
X142429360Y-94850640D02*
X143720000Y-93560000D01*
D66*
%TO.N,/ACDRV*%
X124098000Y-69420110D02*
X124098000Y-68285110D01*
D67*
X141020000Y-85830000D02*
X138625000Y-85830000D01*
X127960000Y-69210000D02*
X127990000Y-69180000D01*
D66*
X127940000Y-69190000D02*
X127960000Y-69210000D01*
X126820000Y-69190000D02*
X127940000Y-69190000D01*
X123497110Y-70021000D02*
X124098000Y-69420110D01*
X126800000Y-69210000D02*
X126820000Y-69190000D01*
X124098000Y-68285110D02*
X125875110Y-68285110D01*
X120265000Y-71098695D02*
X121342695Y-70021000D01*
X125875110Y-68285110D02*
X126800000Y-69210000D01*
X121342695Y-70021000D02*
X123497110Y-70021000D01*
X120265000Y-71428695D02*
X120265000Y-71098695D01*
D67*
X138625000Y-85830000D02*
X138600000Y-85805000D01*
D64*
%TO.N,BQ_ACUV*%
X137400000Y-87330000D02*
X135010000Y-89720000D01*
X141020000Y-87330000D02*
X137400000Y-87330000D01*
D63*
X119430000Y-78650000D02*
X117890000Y-77110000D01*
X135010000Y-89720000D02*
X129900000Y-89720000D01*
X129900000Y-89720000D02*
X127460000Y-87280000D01*
X127460000Y-82170000D02*
X123940000Y-78650000D01*
X127460000Y-87280000D02*
X127460000Y-82170000D01*
X117890000Y-77110000D02*
X117890000Y-75390000D01*
X123940000Y-78650000D02*
X119430000Y-78650000D01*
D64*
%TO.N,BQ_SCL*%
X141160000Y-89030000D02*
X141720000Y-89030000D01*
X135306800Y-95140000D02*
X135306800Y-94883200D01*
D63*
X134080000Y-95140000D02*
X135306800Y-95140000D01*
D64*
X135306800Y-94883200D02*
X141160000Y-89030000D01*
D63*
%TO.N,BQ2_ALERT*%
X125060000Y-96800000D02*
X124770000Y-96510000D01*
X122888000Y-96130000D02*
X123268000Y-96510000D01*
X123268000Y-96510000D02*
X124770000Y-96510000D01*
X125060000Y-98050000D02*
X125060000Y-96800000D01*
%TO.N,BQ2_CS*%
X125250000Y-93300000D02*
X131260000Y-99310000D01*
X148613000Y-102753000D02*
X148613000Y-109800000D01*
X125250000Y-92700000D02*
X125250000Y-93300000D01*
X125250000Y-92707500D02*
X125250000Y-92700000D01*
X123827500Y-94130000D02*
X125250000Y-92707500D01*
X148613000Y-109800000D02*
X147663000Y-110750000D01*
X131260000Y-99310000D02*
X145170000Y-99310000D01*
X122888000Y-94130000D02*
X123827500Y-94130000D01*
X145170000Y-99310000D02*
X148613000Y-102753000D01*
%TO.N,BQ2_SCLK*%
X123775500Y-95630000D02*
X123955114Y-95809614D01*
X122888000Y-95630000D02*
X123775500Y-95630000D01*
X123955114Y-95809614D02*
X124765489Y-95809614D01*
%TO.N,Net-(IC6-PACK)*%
X118900000Y-87840000D02*
X118930000Y-87810000D01*
X112440000Y-84950000D02*
X112440000Y-85960000D01*
X118900000Y-89142000D02*
X118900000Y-87840000D01*
D65*
%TO.N,BQ2_TS1*%
X119730000Y-99010000D02*
X119900000Y-98840000D01*
X119900000Y-98840000D02*
X119900000Y-97618000D01*
%TO.N,BQ2_TS2*%
X120430000Y-99200000D02*
X120400000Y-99170000D01*
X120400000Y-99170000D02*
X120400000Y-97618000D01*
%TO.N,BQ2_TS3*%
X120900000Y-99340000D02*
X120900000Y-97618000D01*
X121160000Y-99600000D02*
X120900000Y-99340000D01*
D63*
%TO.N,BAT1*%
X111970000Y-100620000D02*
X111970000Y-101530000D01*
X111970000Y-101530000D02*
X111960000Y-101540000D01*
%TO.N,BAT2*%
X111495000Y-96730000D02*
X112510000Y-96730000D01*
%TO.N,Net-(R12-Pad1)*%
X131720000Y-92880000D02*
X131920000Y-93080000D01*
X131720000Y-91360000D02*
X131720000Y-92880000D01*
D67*
%TO.N,/Q7_DRAIN*%
X154820000Y-84760000D02*
X155688225Y-84760000D01*
X155688225Y-84760000D02*
X157787881Y-86859656D01*
D63*
%TO.N,/Q1_D*%
X132310000Y-87390000D02*
X130420000Y-85500000D01*
X130420000Y-85500000D02*
X129970000Y-85500000D01*
%TO.N,Net-(C24-Pad1)*%
X123068000Y-115740000D02*
X123068000Y-116962000D01*
X123068000Y-116978000D02*
X123060000Y-116970000D01*
X123068000Y-118240000D02*
X123068000Y-116978000D01*
X123068000Y-116962000D02*
X123060000Y-116970000D01*
D68*
%TO.N,/CANBUS/CAN_P*%
X117752499Y-118070000D02*
X118690000Y-118070000D01*
X124092000Y-118240000D02*
X127055000Y-118240000D01*
X118690000Y-118070000D02*
X119400000Y-118780000D01*
X114015000Y-118370000D02*
X117452499Y-118370000D01*
X123552000Y-118780000D02*
X124092000Y-118240000D01*
X117452499Y-118370000D02*
X117752499Y-118070000D01*
X119400000Y-118780000D02*
X123552000Y-118780000D01*
%TO.N,/CANBUS/CAN_N*%
X117752499Y-116170000D02*
X118690000Y-116170000D01*
X118690000Y-116170000D02*
X119650000Y-115210000D01*
X117452499Y-115870000D02*
X117752499Y-116170000D01*
X119650000Y-115210000D02*
X123562000Y-115210000D01*
X124092000Y-115740000D02*
X127055000Y-115740000D01*
X114015000Y-115870000D02*
X117452499Y-115870000D01*
X123562000Y-115210000D02*
X124092000Y-115740000D01*
%TO.N,/CANBUS/L_CAN_N*%
X133971198Y-116675000D02*
X134840000Y-116675000D01*
X131605000Y-115740000D02*
X133036198Y-115740000D01*
X133036198Y-115740000D02*
X133971198Y-116675000D01*
%TO.N,/CANBUS/L_CAN_P*%
X134053111Y-117325000D02*
X134840000Y-117325000D01*
X131605000Y-118240000D02*
X133138111Y-118240000D01*
X133138111Y-118240000D02*
X134053111Y-117325000D01*
D63*
%TO.N,BQ2_MOSI*%
X124740000Y-94630000D02*
X124760000Y-94610000D01*
X122888000Y-94630000D02*
X124740000Y-94630000D01*
%TO.N,FDCAN_TX*%
X141738601Y-118888601D02*
X139986000Y-118888601D01*
X141740000Y-118890000D02*
X141738601Y-118888601D01*
X139072399Y-117975000D02*
X139986000Y-118888601D01*
X137440000Y-117975000D02*
X139072399Y-117975000D01*
%TO.N,FDCAN_RX*%
X141150640Y-113913962D02*
X141328171Y-113736430D01*
X140389497Y-113661935D02*
X140726377Y-113998815D01*
X139116679Y-114595298D02*
X139201535Y-114510443D01*
X139453581Y-115271609D02*
X139116680Y-114934708D01*
X140893547Y-115523635D02*
X140978399Y-115438782D01*
X137440000Y-116025000D02*
X139039601Y-116025000D01*
X140471813Y-114592784D02*
X140471815Y-114592786D01*
X141344601Y-113720000D02*
X141660000Y-113720000D01*
X139965231Y-113746789D02*
X140050085Y-113661936D01*
X140047551Y-115017050D02*
X140554136Y-115523635D01*
X140302110Y-114423081D02*
X139965230Y-114086201D01*
X140471815Y-114592786D02*
X140302110Y-114423081D01*
X140047553Y-115017052D02*
X140047551Y-115017050D01*
X139540945Y-114510444D02*
X139877847Y-114847346D01*
X139039601Y-116025000D02*
X139453580Y-115611021D01*
X141065789Y-113998815D02*
X141150640Y-113913962D01*
X141328171Y-113736430D02*
X141344601Y-113720000D01*
X140978399Y-115099370D02*
X140471813Y-114592784D01*
X139877847Y-114847346D02*
X140047553Y-115017052D01*
X140554136Y-115523635D02*
G75*
G03*
X140893547Y-115523636I169706J169707D01*
G01*
X140050085Y-113661936D02*
G75*
G02*
X140389506Y-113661926I169715J-169664D01*
G01*
X139116680Y-114934708D02*
G75*
G02*
X139116677Y-114595296I169720J169708D01*
G01*
X139965230Y-114086201D02*
G75*
G02*
X139965236Y-113746794I169670J169701D01*
G01*
X139201535Y-114510443D02*
G75*
G02*
X139540905Y-114510483I169665J-169657D01*
G01*
X140726377Y-113998815D02*
G75*
G03*
X141065789Y-113998815I169706J169701D01*
G01*
X140978399Y-115438782D02*
G75*
G03*
X140978375Y-115099394I-169699J169682D01*
G01*
X139453580Y-115611021D02*
G75*
G03*
X139453596Y-115271594I-169680J169721D01*
G01*
%TO.N,CAN_STB*%
X136639000Y-109431000D02*
X142390000Y-103680000D01*
X134585000Y-118230000D02*
X134840000Y-117975000D01*
X136639000Y-116828000D02*
X136639000Y-109431000D01*
X134585000Y-120910000D02*
X134585000Y-118230000D01*
X134564000Y-120889000D02*
X134585000Y-120910000D01*
X134840000Y-117975000D02*
X135492000Y-117975000D01*
X135492000Y-117975000D02*
X136639000Y-116828000D01*
%TO.N,Net-(LED1-A)*%
X154540000Y-106370000D02*
X154540096Y-106370096D01*
X154540096Y-106370096D02*
X156080000Y-106370096D01*
%TO.N,Net-(LED2-A)*%
X154550097Y-104140097D02*
X156080000Y-104140097D01*
X154550000Y-104140000D02*
X154550097Y-104140097D01*
%TO.N,BQ2_MISO*%
X124698073Y-95130000D02*
X124777811Y-95209738D01*
X122888000Y-95130000D02*
X124698073Y-95130000D01*
%TD*%
%TA.AperFunction,Conductor*%
%TO.N,/Q4_S*%
G36*
X126205677Y-70359685D02*
G01*
X126226319Y-70376319D01*
X126393681Y-70543681D01*
X126427166Y-70605004D01*
X126430000Y-70631362D01*
X126430000Y-72038638D01*
X126410315Y-72105677D01*
X126393681Y-72126319D01*
X126196319Y-72323681D01*
X126134996Y-72357166D01*
X126108638Y-72360000D01*
X121361362Y-72360000D01*
X121294323Y-72340315D01*
X121273681Y-72323681D01*
X120936319Y-71986319D01*
X120902834Y-71924996D01*
X120900000Y-71898638D01*
X120900000Y-71152160D01*
X120919685Y-71085121D01*
X120936319Y-71064479D01*
X121492979Y-70507819D01*
X121554302Y-70474334D01*
X121580660Y-70471500D01*
X123556418Y-70471500D01*
X123556419Y-70471500D01*
X123646783Y-70447286D01*
X123670997Y-70440799D01*
X123773724Y-70381489D01*
X123791398Y-70363814D01*
X123806895Y-70355306D01*
X123824446Y-70351445D01*
X123840217Y-70342834D01*
X123866575Y-70340000D01*
X126138638Y-70340000D01*
X126205677Y-70359685D01*
G37*
%TD.AperFunction*%
%TD*%
%TA.AperFunction,Conductor*%
%TO.N,/CELL BALANCING IC/VC0*%
G36*
X117492539Y-96819685D02*
G01*
X117538294Y-96872489D01*
X117549500Y-96924000D01*
X117549500Y-98375252D01*
X117561131Y-98433729D01*
X117561132Y-98433730D01*
X117605447Y-98500052D01*
X117671769Y-98544367D01*
X117671770Y-98544368D01*
X117730247Y-98555999D01*
X117730250Y-98556000D01*
X117894638Y-98556000D01*
X117961677Y-98575685D01*
X117982319Y-98592319D01*
X119064609Y-99674609D01*
X119084314Y-99700289D01*
X119136109Y-99790000D01*
X119210676Y-99864567D01*
X119300387Y-99916361D01*
X119326066Y-99936066D01*
X119820000Y-100430000D01*
X122408638Y-100430000D01*
X122438078Y-100438644D01*
X122468065Y-100445168D01*
X122473080Y-100448922D01*
X122475677Y-100449685D01*
X122496319Y-100466319D01*
X122503681Y-100473681D01*
X122537166Y-100535004D01*
X122540000Y-100561362D01*
X122540000Y-101658638D01*
X122520315Y-101725677D01*
X122503681Y-101746319D01*
X122486319Y-101763681D01*
X122424996Y-101797166D01*
X122398638Y-101800000D01*
X118871362Y-101800000D01*
X118841921Y-101791355D01*
X118811935Y-101784832D01*
X118806919Y-101781077D01*
X118804323Y-101780315D01*
X118783681Y-101763681D01*
X118706319Y-101686319D01*
X118672834Y-101624996D01*
X118670000Y-101598638D01*
X118670000Y-100640000D01*
X118300000Y-100270000D01*
X117581362Y-100270000D01*
X117514323Y-100250315D01*
X117493681Y-100233681D01*
X117226319Y-99966319D01*
X117192834Y-99904996D01*
X117190000Y-99878638D01*
X117190000Y-98544479D01*
X117209685Y-98477440D01*
X117210853Y-98475655D01*
X117238867Y-98433731D01*
X117250500Y-98375248D01*
X117250500Y-96924000D01*
X117253050Y-96915314D01*
X117251762Y-96906353D01*
X117262740Y-96882312D01*
X117270185Y-96856961D01*
X117277025Y-96851033D01*
X117280787Y-96842797D01*
X117303021Y-96828507D01*
X117322989Y-96811206D01*
X117333503Y-96808918D01*
X117339565Y-96805023D01*
X117374500Y-96800000D01*
X117425500Y-96800000D01*
X117492539Y-96819685D01*
G37*
%TD.AperFunction*%
%TD*%
%TA.AperFunction,Conductor*%
%TO.N,/Q7_DRAIN*%
G36*
X161333828Y-71919685D02*
G01*
X161354470Y-71936319D01*
X161376131Y-71957980D01*
X161467457Y-72010707D01*
X161569317Y-72038000D01*
X161569319Y-72038000D01*
X161674769Y-72038000D01*
X161674771Y-72038000D01*
X161776631Y-72010707D01*
X161867957Y-71957980D01*
X161889618Y-71936319D01*
X161950941Y-71902834D01*
X161977299Y-71900000D01*
X163688638Y-71900000D01*
X163755677Y-71919685D01*
X163776319Y-71936319D01*
X164573681Y-72733681D01*
X164607166Y-72795004D01*
X164610000Y-72821362D01*
X164610000Y-81598638D01*
X164590315Y-81665677D01*
X164573681Y-81686319D01*
X163986319Y-82273681D01*
X163924996Y-82307166D01*
X163898638Y-82310000D01*
X159861362Y-82310000D01*
X159794323Y-82290315D01*
X159773681Y-82273681D01*
X159186319Y-81686319D01*
X159152834Y-81624996D01*
X159150000Y-81598638D01*
X159150000Y-73279465D01*
X159169685Y-73212426D01*
X159186319Y-73191784D01*
X159443544Y-72934559D01*
X159502853Y-72831832D01*
X159502854Y-72831831D01*
X159533555Y-72717254D01*
X159533555Y-72427807D01*
X159553240Y-72360768D01*
X159569874Y-72340126D01*
X159973681Y-71936319D01*
X160035004Y-71902834D01*
X160061362Y-71900000D01*
X161266789Y-71900000D01*
X161333828Y-71919685D01*
G37*
%TD.AperFunction*%
%TD*%
%TA.AperFunction,Conductor*%
%TO.N,GND*%
G36*
X154625677Y-74469685D02*
G01*
X154646319Y-74486319D01*
X154913681Y-74753681D01*
X154947166Y-74815004D01*
X154950000Y-74841362D01*
X154950000Y-75888638D01*
X154930315Y-75955677D01*
X154913681Y-75976319D01*
X154226319Y-76663681D01*
X154164996Y-76697166D01*
X154138638Y-76700000D01*
X151601362Y-76700000D01*
X151534323Y-76680315D01*
X151513681Y-76663681D01*
X151206319Y-76356319D01*
X151172834Y-76294996D01*
X151170000Y-76268638D01*
X151170000Y-74851362D01*
X151189685Y-74784323D01*
X151206319Y-74763681D01*
X151483681Y-74486319D01*
X151545004Y-74452834D01*
X151571362Y-74450000D01*
X154558638Y-74450000D01*
X154625677Y-74469685D01*
G37*
%TD.AperFunction*%
%TD*%
%TA.AperFunction,Conductor*%
%TO.N,/CELL BALANCING IC/BREG*%
G36*
X123245677Y-82009685D02*
G01*
X123266319Y-82026319D01*
X123363681Y-82123681D01*
X123397166Y-82185004D01*
X123400000Y-82211362D01*
X123400000Y-83450000D01*
X123830000Y-83880000D01*
X125108638Y-83880000D01*
X125175677Y-83899685D01*
X125196319Y-83916319D01*
X125503681Y-84223681D01*
X125537166Y-84285004D01*
X125540000Y-84311362D01*
X125540000Y-86058638D01*
X125520315Y-86125677D01*
X125503681Y-86146319D01*
X121726319Y-89923681D01*
X121699391Y-89938384D01*
X121673573Y-89954977D01*
X121667372Y-89955868D01*
X121664996Y-89957166D01*
X121638638Y-89960000D01*
X121411362Y-89960000D01*
X121344323Y-89940315D01*
X121323681Y-89923681D01*
X121286819Y-89886819D01*
X121253334Y-89825496D01*
X121250500Y-89799138D01*
X121250500Y-88384749D01*
X121242650Y-88345286D01*
X121248877Y-88275694D01*
X121276584Y-88233415D01*
X122850000Y-86660000D01*
X122850000Y-84460000D01*
X122726819Y-84336819D01*
X122693334Y-84275496D01*
X122690500Y-84249138D01*
X122690500Y-84230249D01*
X122690499Y-84230247D01*
X122678868Y-84171770D01*
X122678867Y-84171769D01*
X122634552Y-84105447D01*
X122568230Y-84061132D01*
X122568229Y-84061131D01*
X122509752Y-84049500D01*
X122509748Y-84049500D01*
X122490862Y-84049500D01*
X122461421Y-84040855D01*
X122431435Y-84034332D01*
X122426419Y-84030577D01*
X122423823Y-84029815D01*
X122403181Y-84013181D01*
X122346319Y-83956319D01*
X122312834Y-83894996D01*
X122310000Y-83868638D01*
X122310000Y-82211362D01*
X122329685Y-82144323D01*
X122346319Y-82123681D01*
X122443681Y-82026319D01*
X122505004Y-81992834D01*
X122531362Y-81990000D01*
X123178638Y-81990000D01*
X123245677Y-82009685D01*
G37*
%TD.AperFunction*%
%TD*%
%TA.AperFunction,Conductor*%
%TO.N,+BATT*%
G36*
X176902409Y-111769685D02*
G01*
X176923051Y-111786319D01*
X177510413Y-112373681D01*
X177543898Y-112435004D01*
X177546732Y-112461362D01*
X177546732Y-115248638D01*
X177527047Y-115315677D01*
X177510413Y-115336319D01*
X176803051Y-116043681D01*
X176741728Y-116077166D01*
X176715370Y-116080000D01*
X171448094Y-116080000D01*
X171381055Y-116060315D01*
X171360413Y-116043681D01*
X170583051Y-115266319D01*
X170549566Y-115204996D01*
X170546732Y-115178638D01*
X170546732Y-112401362D01*
X170566417Y-112334323D01*
X170583051Y-112313681D01*
X171110413Y-111786319D01*
X171171736Y-111752834D01*
X171198094Y-111750000D01*
X176835370Y-111750000D01*
X176902409Y-111769685D01*
G37*
%TD.AperFunction*%
%TD*%
%TA.AperFunction,Conductor*%
%TO.N,VIN*%
G36*
X126445677Y-61599685D02*
G01*
X126466319Y-61616319D01*
X126773681Y-61923681D01*
X126807166Y-61985004D01*
X126810000Y-62011362D01*
X126810000Y-66698638D01*
X126790315Y-66765677D01*
X126773681Y-66786319D01*
X126426319Y-67133681D01*
X126364996Y-67167166D01*
X126338638Y-67170000D01*
X119799999Y-67170000D01*
X119220000Y-67749999D01*
X119220000Y-73088638D01*
X119200315Y-73155677D01*
X119183681Y-73176319D01*
X118296319Y-74063681D01*
X118234996Y-74097166D01*
X118208638Y-74100000D01*
X107541362Y-74100000D01*
X107474323Y-74080315D01*
X107453681Y-74063681D01*
X106966319Y-73576319D01*
X106932834Y-73514996D01*
X106930000Y-73488638D01*
X106930000Y-67261362D01*
X106949685Y-67194323D01*
X106966319Y-67173681D01*
X107441362Y-66698638D01*
X109410000Y-64730000D01*
X109410000Y-62151362D01*
X109429685Y-62084323D01*
X109446319Y-62063681D01*
X109893681Y-61616319D01*
X109955004Y-61582834D01*
X109981362Y-61580000D01*
X126378638Y-61580000D01*
X126445677Y-61599685D01*
G37*
%TD.AperFunction*%
%TD*%
%TA.AperFunction,Conductor*%
%TO.N,+3V3*%
G36*
X145185677Y-95999685D02*
G01*
X145206319Y-96016319D01*
X145304880Y-96114880D01*
X145338365Y-96176203D01*
X145333381Y-96245895D01*
X145331105Y-96250346D01*
X145331445Y-96250487D01*
X145326770Y-96261770D01*
X145315139Y-96320247D01*
X145315139Y-97159752D01*
X145326770Y-97218229D01*
X145326771Y-97218230D01*
X145371086Y-97284552D01*
X145384891Y-97293776D01*
X145429696Y-97347388D01*
X145440000Y-97396878D01*
X145440000Y-97818638D01*
X145431355Y-97848078D01*
X145424832Y-97878065D01*
X145421077Y-97883080D01*
X145420315Y-97885677D01*
X145403681Y-97906319D01*
X145236319Y-98073681D01*
X145174996Y-98107166D01*
X145148638Y-98110000D01*
X135581362Y-98110000D01*
X135514323Y-98090315D01*
X135493681Y-98073681D01*
X134396319Y-96976319D01*
X134362834Y-96914996D01*
X134360000Y-96888638D01*
X134360000Y-96341362D01*
X134379685Y-96274323D01*
X134396319Y-96253681D01*
X134633681Y-96016319D01*
X134695004Y-95982834D01*
X134721362Y-95980000D01*
X145118638Y-95980000D01*
X145185677Y-95999685D01*
G37*
%TD.AperFunction*%
%TD*%
%TA.AperFunction,Conductor*%
%TO.N,/Q4_S*%
G36*
X123115677Y-67419685D02*
G01*
X123136319Y-67436319D01*
X123403681Y-67703681D01*
X123437166Y-67765004D01*
X123440000Y-67791362D01*
X123440000Y-68838638D01*
X123420315Y-68905677D01*
X123403681Y-68926319D01*
X122795819Y-69534181D01*
X122734496Y-69567666D01*
X122708138Y-69570500D01*
X121283386Y-69570500D01*
X121205862Y-69591272D01*
X121205858Y-69591273D01*
X121195695Y-69593997D01*
X121168808Y-69601201D01*
X121108100Y-69636250D01*
X121102888Y-69638649D01*
X121081977Y-69641715D01*
X121051060Y-69650000D01*
X119941362Y-69650000D01*
X119874323Y-69630315D01*
X119853681Y-69613681D01*
X119696319Y-69456319D01*
X119662834Y-69394996D01*
X119660000Y-69368638D01*
X119660000Y-67801362D01*
X119679685Y-67734323D01*
X119696319Y-67713681D01*
X119973681Y-67436319D01*
X120035004Y-67402834D01*
X120061362Y-67400000D01*
X123048638Y-67400000D01*
X123115677Y-67419685D01*
G37*
%TD.AperFunction*%
%TD*%
%TA.AperFunction,Conductor*%
%TO.N,BQ_SYS*%
G36*
X167375677Y-61599685D02*
G01*
X167396319Y-61616319D01*
X167763681Y-61983681D01*
X167797166Y-62045004D01*
X167800000Y-62071362D01*
X167800000Y-66098638D01*
X167780315Y-66165677D01*
X167763681Y-66186319D01*
X167486319Y-66463681D01*
X167424996Y-66497166D01*
X167398638Y-66500000D01*
X159961362Y-66500000D01*
X159894323Y-66480315D01*
X159873681Y-66463681D01*
X159536319Y-66126319D01*
X159502834Y-66064996D01*
X159500000Y-66038638D01*
X159500000Y-62041362D01*
X159519685Y-61974323D01*
X159536319Y-61953681D01*
X159873681Y-61616319D01*
X159935004Y-61582834D01*
X159961362Y-61580000D01*
X167308638Y-61580000D01*
X167375677Y-61599685D01*
G37*
%TD.AperFunction*%
%TD*%
%TA.AperFunction,Conductor*%
%TO.N,BQ_SYS*%
G36*
X176715677Y-69769685D02*
G01*
X176736319Y-69786319D01*
X177323681Y-70373681D01*
X177357166Y-70435004D01*
X177360000Y-70461362D01*
X177360000Y-73248638D01*
X177340315Y-73315677D01*
X177323681Y-73336319D01*
X176616319Y-74043681D01*
X176554996Y-74077166D01*
X176528638Y-74080000D01*
X168511362Y-74080000D01*
X168444323Y-74060315D01*
X168423681Y-74043681D01*
X168226319Y-73846319D01*
X168192834Y-73784996D01*
X168190000Y-73758638D01*
X168190000Y-70051362D01*
X168209685Y-69984323D01*
X168226319Y-69963681D01*
X168403681Y-69786319D01*
X168465004Y-69752834D01*
X168491362Y-69750000D01*
X176648638Y-69750000D01*
X176715677Y-69769685D01*
G37*
%TD.AperFunction*%
%TD*%
%TA.AperFunction,Conductor*%
%TO.N,/Q7_DRAIN*%
G36*
X163503558Y-84219341D02*
G01*
X163524200Y-84235975D01*
X163921562Y-84633337D01*
X163955047Y-84694660D01*
X163957881Y-84721018D01*
X163957881Y-88638294D01*
X163938196Y-88705333D01*
X163921562Y-88725975D01*
X163464200Y-89183337D01*
X163402877Y-89216822D01*
X163376519Y-89219656D01*
X156188596Y-89219656D01*
X156182865Y-89219523D01*
X156169460Y-89218902D01*
X156134369Y-89209500D01*
X155966231Y-89209500D01*
X155963356Y-89209367D01*
X155932923Y-89198880D01*
X155902048Y-89189815D01*
X155898639Y-89187068D01*
X155897298Y-89186606D01*
X155895959Y-89184908D01*
X155881406Y-89173181D01*
X155394200Y-88685975D01*
X155360715Y-88624652D01*
X155357881Y-88598294D01*
X155357881Y-84991018D01*
X155377566Y-84923979D01*
X155394200Y-84903337D01*
X156061562Y-84235975D01*
X156122885Y-84202490D01*
X156149243Y-84199656D01*
X163436519Y-84199656D01*
X163503558Y-84219341D01*
G37*
%TD.AperFunction*%
%TD*%
%TA.AperFunction,Conductor*%
%TO.N,/Q1_D*%
G36*
X126695677Y-72675880D02*
G01*
X126716319Y-72692514D01*
X127213681Y-73189876D01*
X127247166Y-73251199D01*
X127250000Y-73277557D01*
X127250000Y-77684833D01*
X127230315Y-77751872D01*
X127213681Y-77772514D01*
X126716319Y-78269876D01*
X126654996Y-78303361D01*
X126628638Y-78306195D01*
X119651362Y-78306195D01*
X119584323Y-78286510D01*
X119563681Y-78269876D01*
X119146319Y-77852514D01*
X119112834Y-77791191D01*
X119110000Y-77764833D01*
X119110000Y-73647557D01*
X119129685Y-73580518D01*
X119146319Y-73559876D01*
X120013681Y-72692514D01*
X120075004Y-72659029D01*
X120101362Y-72656195D01*
X126628638Y-72656195D01*
X126695677Y-72675880D01*
G37*
%TD.AperFunction*%
%TD*%
%TA.AperFunction,Conductor*%
%TO.N,BQ_SYS*%
G36*
X132785677Y-79619685D02*
G01*
X132806319Y-79636319D01*
X133053681Y-79883681D01*
X133087166Y-79945004D01*
X133090000Y-79971362D01*
X133090000Y-82968638D01*
X133070315Y-83035677D01*
X133053681Y-83056319D01*
X132616319Y-83493681D01*
X132554996Y-83527166D01*
X132528638Y-83530000D01*
X132010000Y-83530000D01*
X131922959Y-83617041D01*
X131835917Y-83704082D01*
X131774593Y-83737566D01*
X131772433Y-83738016D01*
X131756769Y-83741132D01*
X131690447Y-83785447D01*
X131646132Y-83851769D01*
X131643016Y-83867433D01*
X131610628Y-83929343D01*
X131609081Y-83930917D01*
X131208196Y-84331802D01*
X131146873Y-84365287D01*
X131085579Y-84363098D01*
X131016543Y-84342826D01*
X131015894Y-84342732D01*
X130958638Y-84334500D01*
X128175862Y-84334500D01*
X128108823Y-84314815D01*
X128088181Y-84298181D01*
X127906319Y-84116319D01*
X127872834Y-84054996D01*
X127870000Y-84028638D01*
X127870000Y-80031362D01*
X127889685Y-79964323D01*
X127906319Y-79943681D01*
X128213681Y-79636319D01*
X128275004Y-79602834D01*
X128301362Y-79600000D01*
X132718638Y-79600000D01*
X132785677Y-79619685D01*
G37*
%TD.AperFunction*%
%TD*%
%TA.AperFunction,Conductor*%
%TO.N,GND*%
G36*
X176755677Y-74499685D02*
G01*
X176776319Y-74516319D01*
X177363681Y-75103681D01*
X177397166Y-75165004D01*
X177400000Y-75191362D01*
X177400000Y-77978638D01*
X177380315Y-78045677D01*
X177363681Y-78066319D01*
X176656319Y-78773681D01*
X176594996Y-78807166D01*
X176568638Y-78810000D01*
X171301362Y-78810000D01*
X171234323Y-78790315D01*
X171213681Y-78773681D01*
X170436319Y-77996319D01*
X170402834Y-77934996D01*
X170400000Y-77908638D01*
X170400000Y-75131362D01*
X170419685Y-75064323D01*
X170436319Y-75043681D01*
X170963681Y-74516319D01*
X171025004Y-74482834D01*
X171051362Y-74480000D01*
X176688638Y-74480000D01*
X176755677Y-74499685D01*
G37*
%TD.AperFunction*%
%TD*%
%TA.AperFunction,Conductor*%
%TO.N,GND*%
G36*
X158195677Y-103401061D02*
G01*
X158216319Y-103417695D01*
X159053681Y-104255057D01*
X159087166Y-104316380D01*
X159090000Y-104342738D01*
X159090000Y-106350014D01*
X159070315Y-106417053D01*
X159053681Y-106437695D01*
X158366319Y-107125057D01*
X158304996Y-107158542D01*
X158278638Y-107161376D01*
X157231362Y-107161376D01*
X157164323Y-107141691D01*
X157143681Y-107125057D01*
X156876319Y-106857695D01*
X156842834Y-106796372D01*
X156840000Y-106770014D01*
X156840000Y-103782738D01*
X156859685Y-103715699D01*
X156876319Y-103695057D01*
X157153681Y-103417695D01*
X157215004Y-103384210D01*
X157241362Y-103381376D01*
X158128638Y-103381376D01*
X158195677Y-103401061D01*
G37*
%TD.AperFunction*%
%TD*%
%TA.AperFunction,Conductor*%
%TO.N,GND*%
G36*
X114581740Y-74389685D02*
G01*
X114602382Y-74406319D01*
X115039744Y-74843681D01*
X115073229Y-74905004D01*
X115076063Y-74931362D01*
X115076063Y-77151691D01*
X115056378Y-77218730D01*
X115003574Y-77264485D01*
X114975975Y-77272051D01*
X114976226Y-77273311D01*
X114911770Y-77286131D01*
X114911769Y-77286132D01*
X114845447Y-77330447D01*
X114801132Y-77396769D01*
X114801131Y-77396770D01*
X114789499Y-77455253D01*
X114789334Y-77456928D01*
X114789002Y-77457748D01*
X114788311Y-77461226D01*
X114787651Y-77461094D01*
X114763171Y-77521714D01*
X114753613Y-77532449D01*
X113622382Y-78663681D01*
X113561059Y-78697166D01*
X113534701Y-78700000D01*
X107377425Y-78700000D01*
X107310386Y-78680315D01*
X107289744Y-78663681D01*
X106702382Y-78076319D01*
X106668897Y-78014996D01*
X106666063Y-77988638D01*
X106666063Y-75201362D01*
X106685748Y-75134323D01*
X106702382Y-75113681D01*
X107409744Y-74406319D01*
X107471067Y-74372834D01*
X107497425Y-74370000D01*
X114514701Y-74370000D01*
X114581740Y-74389685D01*
G37*
%TD.AperFunction*%
%TD*%
%TA.AperFunction,Conductor*%
%TO.N,GND*%
G36*
X176948031Y-116649685D02*
G01*
X176968673Y-116666319D01*
X177556035Y-117253681D01*
X177589520Y-117315004D01*
X177592354Y-117341362D01*
X177592354Y-120128638D01*
X177572669Y-120195677D01*
X177556035Y-120216319D01*
X176848673Y-120923681D01*
X176787350Y-120957166D01*
X176760992Y-120960000D01*
X171493716Y-120960000D01*
X171426677Y-120940315D01*
X171406035Y-120923681D01*
X170628673Y-120146319D01*
X170595188Y-120084996D01*
X170592354Y-120058638D01*
X170592354Y-117281362D01*
X170612039Y-117214323D01*
X170628673Y-117193681D01*
X171156035Y-116666319D01*
X171217358Y-116632834D01*
X171243716Y-116630000D01*
X176880992Y-116630000D01*
X176948031Y-116649685D01*
G37*
%TD.AperFunction*%
%TD*%
%TA.AperFunction,Conductor*%
%TO.N,+3V3*%
G36*
X142685677Y-114979685D02*
G01*
X142706319Y-114996319D01*
X142743681Y-115033681D01*
X142777166Y-115095004D01*
X142780000Y-115121362D01*
X142780000Y-115940000D01*
X143463681Y-116623681D01*
X143497166Y-116685004D01*
X143500000Y-116711362D01*
X143500000Y-118328638D01*
X143491355Y-118358078D01*
X143484832Y-118388065D01*
X143481077Y-118393080D01*
X143480315Y-118395677D01*
X143463681Y-118416319D01*
X143346319Y-118533681D01*
X143284996Y-118567166D01*
X143258638Y-118570000D01*
X142061362Y-118570000D01*
X141994323Y-118550315D01*
X141973681Y-118533681D01*
X140460000Y-117020000D01*
X138218964Y-117020000D01*
X138151925Y-117000315D01*
X138115862Y-116964891D01*
X138109552Y-116955447D01*
X138043230Y-116911132D01*
X138043229Y-116911131D01*
X137984752Y-116899500D01*
X137984748Y-116899500D01*
X137038500Y-116899500D01*
X137029814Y-116896949D01*
X137020853Y-116898238D01*
X136996812Y-116887259D01*
X136971461Y-116879815D01*
X136965533Y-116872974D01*
X136957297Y-116869213D01*
X136943007Y-116846978D01*
X136925706Y-116827011D01*
X136923418Y-116816496D01*
X136919523Y-116810435D01*
X136914500Y-116775500D01*
X136914500Y-116574500D01*
X136934185Y-116507461D01*
X136986989Y-116461706D01*
X137038500Y-116450500D01*
X137984750Y-116450500D01*
X137984751Y-116450499D01*
X137999568Y-116447552D01*
X138043229Y-116438868D01*
X138043229Y-116438867D01*
X138043231Y-116438867D01*
X138109552Y-116394552D01*
X138109553Y-116394551D01*
X138135575Y-116355608D01*
X138189187Y-116310804D01*
X138238676Y-116300500D01*
X139094400Y-116300500D01*
X139094401Y-116300500D01*
X139095162Y-116300184D01*
X139096962Y-116299440D01*
X139144416Y-116290000D01*
X140490000Y-116290000D01*
X140965311Y-115814688D01*
X140987002Y-115797390D01*
X141044786Y-115761082D01*
X141046705Y-115760091D01*
X141047280Y-115759515D01*
X141047283Y-115759514D01*
X141049605Y-115757191D01*
X141049607Y-115757191D01*
X141132257Y-115674539D01*
X141136352Y-115670447D01*
X141136459Y-115670388D01*
X141173239Y-115633603D01*
X141173240Y-115633604D01*
X141214311Y-115592529D01*
X141252244Y-115532150D01*
X141269545Y-115510454D01*
X141783681Y-114996319D01*
X141845004Y-114962834D01*
X141871362Y-114960000D01*
X142618638Y-114960000D01*
X142685677Y-114979685D01*
G37*
%TD.AperFunction*%
%TD*%
%TA.AperFunction,Conductor*%
%TO.N,BQ_SYS*%
G36*
X177905677Y-82469685D02*
G01*
X177926319Y-82486319D01*
X178413681Y-82973681D01*
X178447166Y-83035004D01*
X178450000Y-83061362D01*
X178450000Y-92588638D01*
X178430315Y-92655677D01*
X178413681Y-92676319D01*
X177736319Y-93353681D01*
X177674996Y-93387166D01*
X177648638Y-93390000D01*
X170711362Y-93390000D01*
X170644323Y-93370315D01*
X170623681Y-93353681D01*
X169936319Y-92666319D01*
X169902834Y-92604996D01*
X169900000Y-92578638D01*
X169900000Y-83041362D01*
X169919685Y-82974323D01*
X169936319Y-82953681D01*
X170403681Y-82486319D01*
X170465004Y-82452834D01*
X170491362Y-82450000D01*
X177838638Y-82450000D01*
X177905677Y-82469685D01*
G37*
%TD.AperFunction*%
%TD*%
%TA.AperFunction,Conductor*%
%TO.N,GND*%
G36*
X116195677Y-112219685D02*
G01*
X116216319Y-112236319D01*
X116823681Y-112843681D01*
X116857166Y-112905004D01*
X116860000Y-112931362D01*
X116860000Y-113968638D01*
X116840315Y-114035677D01*
X116823681Y-114056319D01*
X116216319Y-114663681D01*
X116154996Y-114697166D01*
X116128638Y-114700000D01*
X110061362Y-114700000D01*
X109994323Y-114680315D01*
X109973681Y-114663681D01*
X109716319Y-114406319D01*
X109682834Y-114344996D01*
X109680000Y-114318638D01*
X109680000Y-112631362D01*
X109699685Y-112564323D01*
X109716319Y-112543681D01*
X110023681Y-112236319D01*
X110085004Y-112202834D01*
X110111362Y-112200000D01*
X116128638Y-112200000D01*
X116195677Y-112219685D01*
G37*
%TD.AperFunction*%
%TD*%
%TA.AperFunction,Conductor*%
%TO.N,BQ_BATSRC*%
G36*
X163815677Y-69399685D02*
G01*
X163836319Y-69416319D01*
X164673681Y-70253681D01*
X164707166Y-70315004D01*
X164710000Y-70341362D01*
X164710000Y-71228638D01*
X164690315Y-71295677D01*
X164673681Y-71316319D01*
X164396319Y-71593681D01*
X164334996Y-71627166D01*
X164308638Y-71630000D01*
X162129811Y-71630000D01*
X162062772Y-71610315D01*
X162017017Y-71557511D01*
X162010036Y-71538093D01*
X161995251Y-71482913D01*
X161942524Y-71391587D01*
X161867957Y-71317020D01*
X161776631Y-71264293D01*
X161674771Y-71237000D01*
X161569317Y-71237000D01*
X161467457Y-71264293D01*
X161467454Y-71264294D01*
X161376129Y-71317021D01*
X161301565Y-71391585D01*
X161283544Y-71422798D01*
X161265449Y-71440050D01*
X161250468Y-71460063D01*
X161240600Y-71463743D01*
X161232976Y-71471013D01*
X161208426Y-71475743D01*
X161185004Y-71484480D01*
X161174710Y-71482240D01*
X161164368Y-71484234D01*
X161141159Y-71474942D01*
X161116731Y-71469628D01*
X161103906Y-71460027D01*
X161099504Y-71458265D01*
X161088477Y-71448477D01*
X160966319Y-71326319D01*
X160932834Y-71264996D01*
X160930000Y-71238638D01*
X160930000Y-70244544D01*
X160949685Y-70177505D01*
X160966319Y-70156863D01*
X161627363Y-69495819D01*
X161688686Y-69462334D01*
X161715044Y-69459500D01*
X163114374Y-69459500D01*
X163114376Y-69459500D01*
X163203520Y-69435614D01*
X163271072Y-69396613D01*
X163333072Y-69380000D01*
X163748638Y-69380000D01*
X163815677Y-69399685D01*
G37*
%TD.AperFunction*%
%TD*%
%TA.AperFunction,Conductor*%
%TO.N,+3V3*%
G36*
X159935677Y-120629685D02*
G01*
X159956319Y-120646319D01*
X160193681Y-120883681D01*
X160227166Y-120945004D01*
X160230000Y-120971362D01*
X160230000Y-127058638D01*
X160210315Y-127125677D01*
X160193681Y-127146319D01*
X159996319Y-127343681D01*
X159934996Y-127377166D01*
X159908638Y-127380000D01*
X157081362Y-127380000D01*
X157014323Y-127360315D01*
X156993681Y-127343681D01*
X156816319Y-127166319D01*
X156782834Y-127104996D01*
X156780000Y-127078638D01*
X156780000Y-120941362D01*
X156799685Y-120874323D01*
X156816319Y-120853681D01*
X157023681Y-120646319D01*
X157085004Y-120612834D01*
X157111362Y-120610000D01*
X159868638Y-120610000D01*
X159935677Y-120629685D01*
G37*
%TD.AperFunction*%
%TD*%
%TA.AperFunction,Conductor*%
%TO.N,GND*%
G36*
X148325677Y-76208406D02*
G01*
X148346319Y-76225040D01*
X149033681Y-76912402D01*
X149067166Y-76973725D01*
X149070000Y-77000083D01*
X149070000Y-79007359D01*
X149050315Y-79074398D01*
X149033681Y-79095040D01*
X148196319Y-79932402D01*
X148134996Y-79965887D01*
X148108638Y-79968721D01*
X147221362Y-79968721D01*
X147154323Y-79949036D01*
X147133681Y-79932402D01*
X146856319Y-79655040D01*
X146822834Y-79593717D01*
X146820000Y-79567359D01*
X146820000Y-76580083D01*
X146839685Y-76513044D01*
X146856319Y-76492402D01*
X147123681Y-76225040D01*
X147185004Y-76191555D01*
X147211362Y-76188721D01*
X148258638Y-76188721D01*
X148325677Y-76208406D01*
G37*
%TD.AperFunction*%
%TD*%
%TA.AperFunction,Conductor*%
%TO.N,GND*%
G36*
X127795677Y-88088406D02*
G01*
X127816319Y-88105040D01*
X128503681Y-88792402D01*
X128537166Y-88853725D01*
X128540000Y-88880083D01*
X128540000Y-90887359D01*
X128520315Y-90954398D01*
X128503681Y-90975040D01*
X127666319Y-91812402D01*
X127604996Y-91845887D01*
X127578638Y-91848721D01*
X126691362Y-91848721D01*
X126624323Y-91829036D01*
X126603681Y-91812402D01*
X126326319Y-91535040D01*
X126292834Y-91473717D01*
X126290000Y-91447359D01*
X126290000Y-88460083D01*
X126309685Y-88393044D01*
X126326319Y-88372402D01*
X126593681Y-88105040D01*
X126655004Y-88071555D01*
X126681362Y-88068721D01*
X127728638Y-88068721D01*
X127795677Y-88088406D01*
G37*
%TD.AperFunction*%
%TD*%
%TA.AperFunction,Conductor*%
%TO.N,+BATT*%
G36*
X166935677Y-114449685D02*
G01*
X166956319Y-114466319D01*
X167173681Y-114683681D01*
X167207166Y-114745004D01*
X167210000Y-114771362D01*
X167210000Y-119958638D01*
X167190315Y-120025677D01*
X167173681Y-120046319D01*
X166966319Y-120253681D01*
X166904996Y-120287166D01*
X166878638Y-120290000D01*
X162811362Y-120290000D01*
X162744323Y-120270315D01*
X162723681Y-120253681D01*
X162546319Y-120076319D01*
X162512834Y-120014996D01*
X162510000Y-119988638D01*
X162510000Y-114711362D01*
X162518644Y-114681921D01*
X162525168Y-114651935D01*
X162528922Y-114646919D01*
X162529685Y-114644323D01*
X162546319Y-114623681D01*
X162703681Y-114466319D01*
X162765004Y-114432834D01*
X162791362Y-114430000D01*
X166868638Y-114430000D01*
X166935677Y-114449685D01*
G37*
%TD.AperFunction*%
%TD*%
%TA.AperFunction,Conductor*%
%TO.N,/Q1_D*%
G36*
X131025677Y-84559685D02*
G01*
X131046319Y-84576319D01*
X131213681Y-84743681D01*
X131247166Y-84805004D01*
X131250000Y-84831362D01*
X131250000Y-86060000D01*
X131540000Y-86350000D01*
X131675952Y-86350000D01*
X131742991Y-86369685D01*
X131744830Y-86370889D01*
X131756769Y-86378867D01*
X131756772Y-86378867D01*
X131756773Y-86378868D01*
X131815247Y-86390499D01*
X131815250Y-86390500D01*
X132759138Y-86390500D01*
X132826177Y-86410185D01*
X132846819Y-86426819D01*
X133023681Y-86603681D01*
X133057166Y-86665004D01*
X133060000Y-86691362D01*
X133060000Y-88908638D01*
X133040315Y-88975677D01*
X133023681Y-88996319D01*
X132746319Y-89273681D01*
X132684996Y-89307166D01*
X132658638Y-89310000D01*
X129981362Y-89310000D01*
X129914323Y-89290315D01*
X129893681Y-89273681D01*
X127806319Y-87186319D01*
X127772834Y-87124996D01*
X127770000Y-87098638D01*
X127770000Y-84741362D01*
X127778644Y-84711921D01*
X127785168Y-84681935D01*
X127788922Y-84676919D01*
X127789685Y-84674323D01*
X127806319Y-84653681D01*
X127883681Y-84576319D01*
X127945004Y-84542834D01*
X127971362Y-84540000D01*
X130958638Y-84540000D01*
X131025677Y-84559685D01*
G37*
%TD.AperFunction*%
%TD*%
%TA.AperFunction,Conductor*%
%TO.N,/CELL BALANCING IC/BAT*%
G36*
X114985677Y-82789685D02*
G01*
X115006319Y-82806319D01*
X116200000Y-84000000D01*
X118686000Y-84000000D01*
X118753039Y-84019685D01*
X118798794Y-84072489D01*
X118810000Y-84124000D01*
X118810000Y-86928637D01*
X118790315Y-86995676D01*
X118773681Y-87016318D01*
X117622318Y-88167681D01*
X117560995Y-88201166D01*
X117534637Y-88204000D01*
X117230247Y-88204000D01*
X117171770Y-88215631D01*
X117171769Y-88215632D01*
X117105447Y-88259947D01*
X117061132Y-88326269D01*
X117061131Y-88326270D01*
X117049500Y-88384747D01*
X117049500Y-89876000D01*
X117029815Y-89943039D01*
X116977011Y-89988794D01*
X116925500Y-90000000D01*
X116374500Y-90000000D01*
X116307461Y-89980315D01*
X116261706Y-89927511D01*
X116250500Y-89876000D01*
X116250500Y-88384749D01*
X116250499Y-88384747D01*
X116238868Y-88326270D01*
X116238867Y-88326269D01*
X116194551Y-88259946D01*
X116135108Y-88220227D01*
X116090304Y-88166615D01*
X116080000Y-88117126D01*
X116080000Y-86310000D01*
X115516319Y-85746319D01*
X115482834Y-85684996D01*
X115480000Y-85658638D01*
X115480000Y-84570000D01*
X115190000Y-84280000D01*
X114161362Y-84280000D01*
X114094323Y-84260315D01*
X114073681Y-84243681D01*
X113876319Y-84046319D01*
X113842834Y-83984996D01*
X113840000Y-83958638D01*
X113840000Y-83051362D01*
X113848644Y-83021921D01*
X113855168Y-82991935D01*
X113858922Y-82986919D01*
X113859685Y-82984323D01*
X113876319Y-82963681D01*
X114033681Y-82806319D01*
X114095004Y-82772834D01*
X114121362Y-82770000D01*
X114918638Y-82770000D01*
X114985677Y-82789685D01*
G37*
%TD.AperFunction*%
%TD*%
%TA.AperFunction,Conductor*%
%TO.N,/SW1*%
G36*
X140282127Y-64146135D02*
G01*
X140302769Y-64162769D01*
X141580131Y-65440131D01*
X141613616Y-65501454D01*
X141616450Y-65527812D01*
X141616450Y-70655088D01*
X141596765Y-70722127D01*
X141580131Y-70742769D01*
X140812769Y-71510131D01*
X140751446Y-71543616D01*
X140725088Y-71546450D01*
X133130656Y-71546450D01*
X133063617Y-71526765D01*
X133017862Y-71473961D01*
X133007918Y-71404803D01*
X133016096Y-71374995D01*
X133017368Y-71371923D01*
X133028999Y-71313447D01*
X133029000Y-71313445D01*
X133029000Y-70003944D01*
X133028999Y-70003942D01*
X133017368Y-69945465D01*
X133017367Y-69945464D01*
X132973052Y-69879142D01*
X132906730Y-69834827D01*
X132906729Y-69834826D01*
X132848252Y-69823195D01*
X132848248Y-69823195D01*
X132198752Y-69823195D01*
X132198747Y-69823195D01*
X132140270Y-69834826D01*
X132140269Y-69834827D01*
X132073947Y-69879142D01*
X132029632Y-69945464D01*
X132029631Y-69945465D01*
X132018000Y-70003942D01*
X132018000Y-70075500D01*
X131998315Y-70142539D01*
X131945511Y-70188294D01*
X131894000Y-70199500D01*
X131576522Y-70199500D01*
X131509483Y-70179815D01*
X131463728Y-70127011D01*
X131453583Y-70059316D01*
X131454450Y-70052729D01*
X131454450Y-69947275D01*
X131454450Y-69947273D01*
X131427157Y-69845413D01*
X131374430Y-69754087D01*
X131299863Y-69679520D01*
X131208537Y-69626793D01*
X131106677Y-69599500D01*
X131001223Y-69599500D01*
X130899363Y-69626793D01*
X130899360Y-69626794D01*
X130808035Y-69679521D01*
X130733471Y-69754085D01*
X130680744Y-69845410D01*
X130680743Y-69845413D01*
X130653450Y-69947273D01*
X130653450Y-70052727D01*
X130680743Y-70154587D01*
X130706673Y-70199500D01*
X130712804Y-70210118D01*
X130729277Y-70278018D01*
X130706425Y-70344045D01*
X130693101Y-70359797D01*
X130679511Y-70373387D01*
X130620201Y-70476114D01*
X130589500Y-70590691D01*
X130589500Y-70709309D01*
X130620201Y-70823886D01*
X130679511Y-70926613D01*
X130763387Y-71010489D01*
X130866114Y-71069799D01*
X130980691Y-71100500D01*
X131894000Y-71100500D01*
X131895876Y-71101050D01*
X131897769Y-71100557D01*
X131929274Y-71110857D01*
X131961039Y-71120185D01*
X131962318Y-71121661D01*
X131964179Y-71122270D01*
X131985114Y-71147969D01*
X132006794Y-71172989D01*
X132007463Y-71175404D01*
X132008308Y-71176441D01*
X132009795Y-71183815D01*
X132017218Y-71210592D01*
X132018000Y-71217519D01*
X132018000Y-71313443D01*
X132029633Y-71371926D01*
X132036607Y-71382363D01*
X132039562Y-71408542D01*
X132036433Y-71426421D01*
X132038374Y-71444464D01*
X132030538Y-71460118D01*
X132027521Y-71477366D01*
X132015224Y-71490714D01*
X132007101Y-71506944D01*
X131992043Y-71515878D01*
X131980182Y-71528755D01*
X131962621Y-71533336D01*
X131947013Y-71542598D01*
X131916344Y-71546450D01*
X129897812Y-71546450D01*
X129830773Y-71526765D01*
X129810131Y-71510131D01*
X129345669Y-71045669D01*
X129312184Y-70984346D01*
X129317168Y-70914654D01*
X129359040Y-70858721D01*
X129401252Y-70838215D01*
X129494587Y-70813207D01*
X129585913Y-70760480D01*
X129660480Y-70685913D01*
X129713207Y-70594587D01*
X129740500Y-70492727D01*
X129740500Y-70387273D01*
X129713207Y-70285413D01*
X129660480Y-70194087D01*
X129585913Y-70119520D01*
X129494587Y-70066793D01*
X129392727Y-70039500D01*
X129287273Y-70039500D01*
X129185413Y-70066793D01*
X129185410Y-70066794D01*
X129094085Y-70119521D01*
X129019521Y-70194085D01*
X129019520Y-70194087D01*
X129017835Y-70197004D01*
X129015771Y-70198972D01*
X129014574Y-70200533D01*
X129014330Y-70200346D01*
X128967270Y-70245219D01*
X128898663Y-70258441D01*
X128833798Y-70232473D01*
X128793270Y-70175559D01*
X128786450Y-70135003D01*
X128786450Y-65207812D01*
X128806135Y-65140773D01*
X128822769Y-65120131D01*
X129780131Y-64162769D01*
X129841454Y-64129284D01*
X129867812Y-64126450D01*
X140215088Y-64126450D01*
X140282127Y-64146135D01*
G37*
%TD.AperFunction*%
%TD*%
%TA.AperFunction,Conductor*%
%TO.N,BQ_BATSRC*%
G36*
X163145677Y-66759685D02*
G01*
X163166319Y-66776319D01*
X163433681Y-67043681D01*
X163467166Y-67105004D01*
X163470000Y-67131362D01*
X163470000Y-68160188D01*
X163450315Y-68227227D01*
X163433681Y-68247869D01*
X163247869Y-68433681D01*
X163186546Y-68467166D01*
X163160188Y-68470000D01*
X159261362Y-68470000D01*
X159231921Y-68461355D01*
X159201935Y-68454832D01*
X159196919Y-68451077D01*
X159194323Y-68450315D01*
X159173681Y-68433681D01*
X159006319Y-68266319D01*
X158972834Y-68204996D01*
X158970000Y-68178638D01*
X158970000Y-67051362D01*
X158989685Y-66984323D01*
X159006319Y-66963681D01*
X159193681Y-66776319D01*
X159255004Y-66742834D01*
X159281362Y-66740000D01*
X163078638Y-66740000D01*
X163145677Y-66759685D01*
G37*
%TD.AperFunction*%
%TD*%
%TA.AperFunction,Conductor*%
%TO.N,GND*%
G36*
X136135677Y-61629685D02*
G01*
X136156319Y-61646319D01*
X136993681Y-62483681D01*
X137027166Y-62545004D01*
X137030000Y-62571362D01*
X137030000Y-63458638D01*
X137010315Y-63525677D01*
X136993681Y-63546319D01*
X136716319Y-63823681D01*
X136654996Y-63857166D01*
X136628638Y-63860000D01*
X133641362Y-63860000D01*
X133574323Y-63840315D01*
X133553681Y-63823681D01*
X133286319Y-63556319D01*
X133252834Y-63494996D01*
X133250000Y-63468638D01*
X133250000Y-62421362D01*
X133269685Y-62354323D01*
X133286319Y-62333681D01*
X133973681Y-61646319D01*
X134035004Y-61612834D01*
X134061362Y-61610000D01*
X136068638Y-61610000D01*
X136135677Y-61629685D01*
G37*
%TD.AperFunction*%
%TD*%
%TA.AperFunction,Conductor*%
%TO.N,BQ_REGN*%
G36*
X145345677Y-76039685D02*
G01*
X145366319Y-76056319D01*
X146003681Y-76693681D01*
X146037166Y-76755004D01*
X146040000Y-76781362D01*
X146040000Y-81415369D01*
X146020315Y-81482408D01*
X145978002Y-81522755D01*
X145910701Y-81561612D01*
X145836137Y-81636176D01*
X145783410Y-81727501D01*
X145783409Y-81727504D01*
X145756116Y-81829364D01*
X145756116Y-81862521D01*
X145736431Y-81929560D01*
X145719797Y-81950202D01*
X145494830Y-82175168D01*
X145469152Y-82194872D01*
X145427683Y-82218815D01*
X144939532Y-82706967D01*
X144939528Y-82706973D01*
X144915590Y-82748434D01*
X144895885Y-82774113D01*
X144490000Y-83179999D01*
X144490000Y-83516629D01*
X144470315Y-83583668D01*
X144468203Y-83586289D01*
X144468281Y-83586341D01*
X144428234Y-83646275D01*
X144428231Y-83646282D01*
X144419500Y-83690177D01*
X144419500Y-84455500D01*
X144399815Y-84522539D01*
X144347011Y-84568294D01*
X144295500Y-84579500D01*
X143644500Y-84579500D01*
X143635814Y-84576949D01*
X143626853Y-84578238D01*
X143602812Y-84567259D01*
X143577461Y-84559815D01*
X143571533Y-84552974D01*
X143563297Y-84549213D01*
X143549007Y-84526978D01*
X143531706Y-84507011D01*
X143529418Y-84496496D01*
X143525523Y-84490435D01*
X143520500Y-84455500D01*
X143520500Y-84343743D01*
X143537115Y-84281740D01*
X143546613Y-84265289D01*
X143546614Y-84265288D01*
X143570500Y-84176144D01*
X143570500Y-82906038D01*
X143546614Y-82816894D01*
X143543612Y-82811695D01*
X143537148Y-82800498D01*
X143537146Y-82800496D01*
X143521914Y-82774113D01*
X143500470Y-82736970D01*
X143076272Y-82312772D01*
X143044177Y-82257181D01*
X143041024Y-82245412D01*
X142988297Y-82154086D01*
X142913730Y-82079519D01*
X142822404Y-82026792D01*
X142720544Y-81999499D01*
X142634501Y-81999499D01*
X142567462Y-81979814D01*
X142521707Y-81927010D01*
X142510501Y-81875499D01*
X142510501Y-81789457D01*
X142510501Y-81789455D01*
X142483208Y-81687595D01*
X142430481Y-81596269D01*
X142355914Y-81521702D01*
X142278931Y-81477256D01*
X142264590Y-81468976D01*
X142264589Y-81468975D01*
X142264588Y-81468975D01*
X142162728Y-81441682D01*
X142057274Y-81441682D01*
X141955414Y-81468975D01*
X141955409Y-81468977D01*
X141906935Y-81496963D01*
X141879874Y-81503527D01*
X141853783Y-81513259D01*
X141846388Y-81511650D01*
X141839035Y-81513434D01*
X141812722Y-81504326D01*
X141785510Y-81498407D01*
X141776816Y-81491899D01*
X141773008Y-81490581D01*
X141757256Y-81477256D01*
X141746319Y-81466319D01*
X141712834Y-81404996D01*
X141710000Y-81378638D01*
X141710000Y-76811362D01*
X141729685Y-76744323D01*
X141746319Y-76723681D01*
X142413681Y-76056319D01*
X142475004Y-76022834D01*
X142501362Y-76020000D01*
X145278638Y-76020000D01*
X145345677Y-76039685D01*
G37*
%TD.AperFunction*%
%TD*%
%TA.AperFunction,Conductor*%
%TO.N,/CELL BALANCING IC/VC1*%
G36*
X116992539Y-96769685D02*
G01*
X117038294Y-96822489D01*
X117049500Y-96874000D01*
X117049500Y-96883830D01*
X117048239Y-96901461D01*
X117045000Y-96924000D01*
X117045000Y-96924004D01*
X117045000Y-98321924D01*
X117033582Y-98373899D01*
X117012510Y-98419541D01*
X117012507Y-98419550D01*
X116992827Y-98486569D01*
X116992825Y-98486579D01*
X116992825Y-98486581D01*
X116984517Y-98544367D01*
X116984500Y-98544482D01*
X116984500Y-99878638D01*
X116985678Y-99900618D01*
X116988511Y-99926965D01*
X116988512Y-99926967D01*
X117012470Y-100003478D01*
X117012471Y-100003483D01*
X117026872Y-100029855D01*
X117045956Y-100064805D01*
X117045958Y-100064808D01*
X117045960Y-100064811D01*
X117080998Y-100111615D01*
X117081002Y-100111619D01*
X117081009Y-100111629D01*
X117081016Y-100111636D01*
X117348365Y-100378986D01*
X117348366Y-100378987D01*
X117364716Y-100393674D01*
X117364730Y-100393686D01*
X117364738Y-100393693D01*
X117373136Y-100400460D01*
X117385379Y-100410327D01*
X117456424Y-100447490D01*
X117523456Y-100467173D01*
X117523458Y-100467173D01*
X117523464Y-100467175D01*
X117581362Y-100475500D01*
X118163518Y-100475500D01*
X118230557Y-100495185D01*
X118251199Y-100511819D01*
X118428181Y-100688801D01*
X118461666Y-100750124D01*
X118464500Y-100776482D01*
X118464500Y-101598638D01*
X118465678Y-101620618D01*
X118468511Y-101646965D01*
X118468512Y-101646970D01*
X118484334Y-101697497D01*
X118490000Y-101734550D01*
X118490000Y-102038638D01*
X118481355Y-102068075D01*
X118474832Y-102098066D01*
X118471076Y-102103082D01*
X118470315Y-102105677D01*
X118453685Y-102126314D01*
X118394023Y-102185977D01*
X118332699Y-102219461D01*
X118303340Y-102221169D01*
X118303340Y-102222000D01*
X118297248Y-102222000D01*
X116807752Y-102222000D01*
X116779511Y-102227617D01*
X116755322Y-102230000D01*
X116529999Y-102230000D01*
X116440000Y-102319999D01*
X116440000Y-103538638D01*
X116431355Y-103568078D01*
X116424832Y-103598065D01*
X116421077Y-103603080D01*
X116420315Y-103605677D01*
X116403681Y-103626319D01*
X116386319Y-103643681D01*
X116324996Y-103677166D01*
X116298638Y-103680000D01*
X112981362Y-103680000D01*
X112914323Y-103660315D01*
X112893681Y-103643681D01*
X112796319Y-103546319D01*
X112762834Y-103484996D01*
X112760000Y-103458638D01*
X112760000Y-100681362D01*
X112768644Y-100651921D01*
X112775168Y-100621935D01*
X112778922Y-100616919D01*
X112779685Y-100614323D01*
X112796319Y-100593681D01*
X112893681Y-100496319D01*
X112955004Y-100462834D01*
X112981362Y-100460000D01*
X115940000Y-100460000D01*
X116670000Y-99730000D01*
X116670000Y-98574412D01*
X116689685Y-98507373D01*
X116690898Y-98505521D01*
X116706715Y-98481848D01*
X116738867Y-98433731D01*
X116738867Y-98433729D01*
X116738868Y-98433729D01*
X116750499Y-98375252D01*
X116750500Y-98375250D01*
X116750500Y-96874000D01*
X116770185Y-96806961D01*
X116822989Y-96761206D01*
X116874500Y-96750000D01*
X116925500Y-96750000D01*
X116992539Y-96769685D01*
G37*
%TD.AperFunction*%
%TD*%
%TA.AperFunction,Conductor*%
%TO.N,/CELL BALANCING IC/VC(3-9)*%
G36*
X114906062Y-86099685D02*
G01*
X114926704Y-86116319D01*
X115217181Y-86406796D01*
X115250666Y-86468119D01*
X115253500Y-86494477D01*
X115253500Y-88825802D01*
X115270358Y-88866500D01*
X115270359Y-88866500D01*
X115295443Y-88927058D01*
X115295444Y-88927059D01*
X115513181Y-89144796D01*
X115546666Y-89206119D01*
X115549500Y-89232477D01*
X115549500Y-89899252D01*
X115561131Y-89957729D01*
X115561132Y-89957731D01*
X115603601Y-90021288D01*
X115624480Y-90087965D01*
X115624500Y-90090180D01*
X115624500Y-90494800D01*
X115630560Y-90509432D01*
X115640000Y-90556883D01*
X115640000Y-95820000D01*
X116513681Y-96693681D01*
X116528384Y-96720608D01*
X116544977Y-96746427D01*
X116545868Y-96752627D01*
X116547166Y-96755004D01*
X116550000Y-96781362D01*
X116550000Y-96830355D01*
X116548738Y-96848002D01*
X116545000Y-96874000D01*
X116545000Y-98316366D01*
X116525315Y-98383405D01*
X116524104Y-98385254D01*
X116520004Y-98391389D01*
X116519083Y-98392782D01*
X116517772Y-98394784D01*
X116517771Y-98394786D01*
X116492515Y-98449461D01*
X116492511Y-98449471D01*
X116472826Y-98516508D01*
X116472825Y-98516513D01*
X116472825Y-98516514D01*
X116466691Y-98559179D01*
X116464500Y-98574415D01*
X116464500Y-99284138D01*
X116444815Y-99351177D01*
X116428181Y-99371819D01*
X115726319Y-100073681D01*
X115664996Y-100107166D01*
X115638638Y-100110000D01*
X114451362Y-100110000D01*
X114384323Y-100090315D01*
X114363681Y-100073681D01*
X113276319Y-98986319D01*
X113242834Y-98924996D01*
X113240000Y-98898638D01*
X113240000Y-96270000D01*
X112900000Y-95930000D01*
X112111362Y-95930000D01*
X112081921Y-95921355D01*
X112051935Y-95914832D01*
X112046919Y-95911077D01*
X112044323Y-95910315D01*
X112023681Y-95893681D01*
X111886319Y-95756319D01*
X111852834Y-95694996D01*
X111850000Y-95668638D01*
X111850000Y-95460247D01*
X113474000Y-95460247D01*
X113474000Y-95799752D01*
X113485631Y-95858229D01*
X113485632Y-95858230D01*
X113529947Y-95924552D01*
X113596269Y-95968867D01*
X113596270Y-95968868D01*
X113654747Y-95980499D01*
X113654750Y-95980500D01*
X113654752Y-95980500D01*
X115169250Y-95980500D01*
X115169251Y-95980499D01*
X115184068Y-95977552D01*
X115227729Y-95968868D01*
X115227729Y-95968867D01*
X115227731Y-95968867D01*
X115294052Y-95924552D01*
X115338367Y-95858231D01*
X115338367Y-95858229D01*
X115338368Y-95858229D01*
X115349999Y-95799752D01*
X115350000Y-95799750D01*
X115350000Y-95460249D01*
X115349999Y-95460247D01*
X115338368Y-95401770D01*
X115338367Y-95401769D01*
X115294052Y-95335447D01*
X115227730Y-95291132D01*
X115227729Y-95291131D01*
X115169252Y-95279500D01*
X115169248Y-95279500D01*
X113654752Y-95279500D01*
X113654747Y-95279500D01*
X113596270Y-95291131D01*
X113596269Y-95291132D01*
X113529947Y-95335447D01*
X113485632Y-95401769D01*
X113485631Y-95401770D01*
X113474000Y-95460247D01*
X111850000Y-95460247D01*
X111850000Y-94460247D01*
X113474000Y-94460247D01*
X113474000Y-94799752D01*
X113485631Y-94858229D01*
X113485632Y-94858230D01*
X113529947Y-94924552D01*
X113596269Y-94968867D01*
X113596270Y-94968868D01*
X113654747Y-94980499D01*
X113654750Y-94980500D01*
X113654752Y-94980500D01*
X115169250Y-94980500D01*
X115169251Y-94980499D01*
X115184068Y-94977552D01*
X115227729Y-94968868D01*
X115227729Y-94968867D01*
X115227731Y-94968867D01*
X115294052Y-94924552D01*
X115338367Y-94858231D01*
X115338367Y-94858229D01*
X115338368Y-94858229D01*
X115349999Y-94799752D01*
X115350000Y-94799750D01*
X115350000Y-94460249D01*
X115349999Y-94460247D01*
X115338368Y-94401770D01*
X115338367Y-94401769D01*
X115294052Y-94335447D01*
X115227730Y-94291132D01*
X115227729Y-94291131D01*
X115169252Y-94279500D01*
X115169248Y-94279500D01*
X113654752Y-94279500D01*
X113654747Y-94279500D01*
X113596270Y-94291131D01*
X113596269Y-94291132D01*
X113529947Y-94335447D01*
X113485632Y-94401769D01*
X113485631Y-94401770D01*
X113474000Y-94460247D01*
X111850000Y-94460247D01*
X111850000Y-93460247D01*
X113474000Y-93460247D01*
X113474000Y-93799752D01*
X113485631Y-93858229D01*
X113485632Y-93858230D01*
X113529947Y-93924552D01*
X113596269Y-93968867D01*
X113596270Y-93968868D01*
X113654747Y-93980499D01*
X113654750Y-93980500D01*
X113654752Y-93980500D01*
X115169250Y-93980500D01*
X115169251Y-93980499D01*
X115184068Y-93977552D01*
X115227729Y-93968868D01*
X115227729Y-93968867D01*
X115227731Y-93968867D01*
X115294052Y-93924552D01*
X115338367Y-93858231D01*
X115338367Y-93858229D01*
X115338368Y-93858229D01*
X115349999Y-93799752D01*
X115350000Y-93799750D01*
X115350000Y-93460249D01*
X115349999Y-93460247D01*
X115338368Y-93401770D01*
X115338367Y-93401769D01*
X115294052Y-93335447D01*
X115227730Y-93291132D01*
X115227729Y-93291131D01*
X115169252Y-93279500D01*
X115169248Y-93279500D01*
X113654752Y-93279500D01*
X113654747Y-93279500D01*
X113596270Y-93291131D01*
X113596269Y-93291132D01*
X113529947Y-93335447D01*
X113485632Y-93401769D01*
X113485631Y-93401770D01*
X113474000Y-93460247D01*
X111850000Y-93460247D01*
X111850000Y-92721362D01*
X111869685Y-92654323D01*
X111886319Y-92633681D01*
X112059753Y-92460247D01*
X113474000Y-92460247D01*
X113474000Y-92799752D01*
X113485631Y-92858229D01*
X113485632Y-92858230D01*
X113529947Y-92924552D01*
X113596269Y-92968867D01*
X113596270Y-92968868D01*
X113654747Y-92980499D01*
X113654750Y-92980500D01*
X113654752Y-92980500D01*
X115169250Y-92980500D01*
X115169251Y-92980499D01*
X115184068Y-92977552D01*
X115227729Y-92968868D01*
X115227729Y-92968867D01*
X115227731Y-92968867D01*
X115294052Y-92924552D01*
X115338367Y-92858231D01*
X115338367Y-92858229D01*
X115338368Y-92858229D01*
X115349999Y-92799752D01*
X115350000Y-92799750D01*
X115350000Y-92460249D01*
X115349999Y-92460247D01*
X115338368Y-92401770D01*
X115338367Y-92401769D01*
X115294052Y-92335447D01*
X115227730Y-92291132D01*
X115227729Y-92291131D01*
X115169252Y-92279500D01*
X115169248Y-92279500D01*
X113654752Y-92279500D01*
X113654747Y-92279500D01*
X113596270Y-92291131D01*
X113596269Y-92291132D01*
X113529947Y-92335447D01*
X113485632Y-92401769D01*
X113485631Y-92401770D01*
X113474000Y-92460247D01*
X112059753Y-92460247D01*
X113059753Y-91460247D01*
X113474000Y-91460247D01*
X113474000Y-91799752D01*
X113485631Y-91858229D01*
X113485632Y-91858230D01*
X113529947Y-91924552D01*
X113596269Y-91968867D01*
X113596270Y-91968868D01*
X113654747Y-91980499D01*
X113654750Y-91980500D01*
X113654752Y-91980500D01*
X115169250Y-91980500D01*
X115169251Y-91980499D01*
X115184068Y-91977552D01*
X115227729Y-91968868D01*
X115227729Y-91968867D01*
X115227731Y-91968867D01*
X115294052Y-91924552D01*
X115338367Y-91858231D01*
X115338367Y-91858229D01*
X115338368Y-91858229D01*
X115349999Y-91799752D01*
X115350000Y-91799750D01*
X115350000Y-91460249D01*
X115349999Y-91460247D01*
X115338368Y-91401770D01*
X115338367Y-91401769D01*
X115294052Y-91335447D01*
X115227730Y-91291132D01*
X115227729Y-91291131D01*
X115169252Y-91279500D01*
X115169248Y-91279500D01*
X113654752Y-91279500D01*
X113654747Y-91279500D01*
X113596270Y-91291131D01*
X113596269Y-91291132D01*
X113529947Y-91335447D01*
X113485632Y-91401769D01*
X113485631Y-91401770D01*
X113474000Y-91460247D01*
X113059753Y-91460247D01*
X113120000Y-91400000D01*
X113120000Y-90460247D01*
X113474000Y-90460247D01*
X113474000Y-90799752D01*
X113485631Y-90858229D01*
X113485632Y-90858230D01*
X113529947Y-90924552D01*
X113596269Y-90968867D01*
X113596270Y-90968868D01*
X113654747Y-90980499D01*
X113654750Y-90980500D01*
X113654752Y-90980500D01*
X115169250Y-90980500D01*
X115169251Y-90980499D01*
X115184068Y-90977552D01*
X115227729Y-90968868D01*
X115227729Y-90968867D01*
X115227731Y-90968867D01*
X115294052Y-90924552D01*
X115338367Y-90858231D01*
X115338367Y-90858229D01*
X115338368Y-90858229D01*
X115349999Y-90799752D01*
X115350000Y-90799750D01*
X115350000Y-90460249D01*
X115349999Y-90460247D01*
X115338368Y-90401770D01*
X115338367Y-90401769D01*
X115294052Y-90335447D01*
X115227730Y-90291132D01*
X115227729Y-90291131D01*
X115169252Y-90279500D01*
X115169248Y-90279500D01*
X113654752Y-90279500D01*
X113654747Y-90279500D01*
X113596270Y-90291131D01*
X113596269Y-90291132D01*
X113529947Y-90335447D01*
X113485632Y-90401769D01*
X113485631Y-90401770D01*
X113474000Y-90460247D01*
X113120000Y-90460247D01*
X113120000Y-89967468D01*
X113134121Y-89910000D01*
X113137500Y-89903538D01*
X113137502Y-89903535D01*
X113138264Y-89900938D01*
X113138267Y-89900928D01*
X113144464Y-89884310D01*
X113145636Y-89881745D01*
X113149655Y-89863263D01*
X113151844Y-89854688D01*
X113157175Y-89836538D01*
X113165500Y-89778638D01*
X113165500Y-87271362D01*
X113164322Y-87249393D01*
X113161488Y-87223035D01*
X113137529Y-87146518D01*
X113135166Y-87142190D01*
X113131480Y-87127749D01*
X113125023Y-87117701D01*
X113120000Y-87082766D01*
X113120000Y-86871362D01*
X113139685Y-86804323D01*
X113156319Y-86783681D01*
X113823681Y-86116319D01*
X113885004Y-86082834D01*
X113911362Y-86080000D01*
X114839023Y-86080000D01*
X114906062Y-86099685D01*
G37*
%TD.AperFunction*%
%TD*%
%TA.AperFunction,Conductor*%
%TO.N,+BATT*%
G36*
X160915677Y-89474405D02*
G01*
X160936319Y-89491039D01*
X161303681Y-89858401D01*
X161337166Y-89919724D01*
X161340000Y-89946082D01*
X161340000Y-99853358D01*
X161320315Y-99920397D01*
X161303681Y-99941039D01*
X160566319Y-100678401D01*
X160504996Y-100711886D01*
X160478638Y-100714720D01*
X156351362Y-100714720D01*
X156284323Y-100695035D01*
X156263681Y-100678401D01*
X155516319Y-99931039D01*
X155482834Y-99869716D01*
X155480000Y-99843358D01*
X155480000Y-89936082D01*
X155499685Y-89869043D01*
X155516319Y-89848401D01*
X155873681Y-89491039D01*
X155935004Y-89457554D01*
X155961362Y-89454720D01*
X160848638Y-89454720D01*
X160915677Y-89474405D01*
G37*
%TD.AperFunction*%
%TD*%
%TA.AperFunction,Conductor*%
%TO.N,+3V3*%
G36*
X167575677Y-106179685D02*
G01*
X167596319Y-106196319D01*
X167943681Y-106543681D01*
X167977166Y-106605004D01*
X167980000Y-106631362D01*
X167980000Y-111708638D01*
X167960315Y-111775677D01*
X167943681Y-111796319D01*
X167556319Y-112183681D01*
X167494996Y-112217166D01*
X167468638Y-112220000D01*
X162901362Y-112220000D01*
X162834323Y-112200315D01*
X162813681Y-112183681D01*
X162526319Y-111896319D01*
X162492834Y-111834996D01*
X162490000Y-111808638D01*
X162490000Y-106641362D01*
X162509685Y-106574323D01*
X162526319Y-106553681D01*
X162883681Y-106196319D01*
X162945004Y-106162834D01*
X162971362Y-106160000D01*
X167508638Y-106160000D01*
X167575677Y-106179685D01*
G37*
%TD.AperFunction*%
%TD*%
%TA.AperFunction,Conductor*%
%TO.N,/SW2*%
G36*
X149755677Y-65239685D02*
G01*
X149776319Y-65256319D01*
X151650000Y-67130000D01*
X155139676Y-67130000D01*
X155206715Y-67149685D01*
X155252470Y-67202489D01*
X155262414Y-67271647D01*
X155242778Y-67322890D01*
X155238197Y-67329746D01*
X155232631Y-67338076D01*
X155221000Y-67396552D01*
X155221000Y-68706057D01*
X155232631Y-68764534D01*
X155232632Y-68764535D01*
X155276947Y-68830857D01*
X155343269Y-68875172D01*
X155343270Y-68875173D01*
X155401747Y-68886804D01*
X155401750Y-68886805D01*
X155401752Y-68886805D01*
X155873535Y-68886805D01*
X155940574Y-68906490D01*
X155961216Y-68923124D01*
X156603181Y-69565089D01*
X156636666Y-69626412D01*
X156639500Y-69652770D01*
X156639500Y-73282319D01*
X156619815Y-73349358D01*
X156567011Y-73395113D01*
X156547596Y-73402092D01*
X156478186Y-73420691D01*
X156455413Y-73426793D01*
X156455410Y-73426794D01*
X156364085Y-73479521D01*
X156289521Y-73554085D01*
X156236794Y-73645410D01*
X156236793Y-73645413D01*
X156209500Y-73747273D01*
X156209500Y-73852727D01*
X156213746Y-73868575D01*
X156213459Y-73880574D01*
X156217654Y-73891819D01*
X156212642Y-73914856D01*
X156212081Y-73938425D01*
X156204983Y-73950069D01*
X156202803Y-73960092D01*
X156181652Y-73988347D01*
X156113986Y-74056014D01*
X156046317Y-74123682D01*
X155984997Y-74157166D01*
X155958638Y-74160000D01*
X147361362Y-74160000D01*
X147294323Y-74140315D01*
X147273681Y-74123681D01*
X146366319Y-73216319D01*
X146332834Y-73154996D01*
X146330000Y-73128638D01*
X146330000Y-65801362D01*
X146349685Y-65734323D01*
X146366319Y-65713681D01*
X146823681Y-65256319D01*
X146885004Y-65222834D01*
X146911362Y-65220000D01*
X149688638Y-65220000D01*
X149755677Y-65239685D01*
G37*
%TD.AperFunction*%
%TA.AperFunction,Conductor*%
G36*
X158085677Y-67149685D02*
G01*
X158106319Y-67166319D01*
X158523681Y-67583681D01*
X158557166Y-67645004D01*
X158560000Y-67671362D01*
X158560000Y-68478882D01*
X158540315Y-68545921D01*
X158487511Y-68591676D01*
X158418353Y-68601620D01*
X158374000Y-68586269D01*
X158305794Y-68546890D01*
X158305793Y-68546889D01*
X158305792Y-68546889D01*
X158203932Y-68519596D01*
X158098478Y-68519596D01*
X157996618Y-68546889D01*
X157996615Y-68546890D01*
X157905290Y-68599617D01*
X157830726Y-68674181D01*
X157777999Y-68765506D01*
X157777998Y-68765509D01*
X157750705Y-68867369D01*
X157750705Y-68972823D01*
X157777998Y-69074683D01*
X157830725Y-69166009D01*
X157905292Y-69240576D01*
X157996618Y-69293303D01*
X158098478Y-69320596D01*
X158098480Y-69320596D01*
X158203930Y-69320596D01*
X158203932Y-69320596D01*
X158305792Y-69293303D01*
X158374001Y-69253922D01*
X158441899Y-69237449D01*
X158507926Y-69260301D01*
X158551117Y-69315222D01*
X158560000Y-69361309D01*
X158560000Y-71558637D01*
X158540315Y-71625676D01*
X158523681Y-71646318D01*
X157752181Y-72417818D01*
X157690858Y-72451303D01*
X157621166Y-72446319D01*
X157565233Y-72404447D01*
X157540816Y-72338983D01*
X157540500Y-72330137D01*
X157540500Y-69355498D01*
X157540500Y-69355496D01*
X157509799Y-69240919D01*
X157509799Y-69240918D01*
X157450489Y-69138191D01*
X156268319Y-67956021D01*
X156234834Y-67894698D01*
X156232000Y-67868340D01*
X156232000Y-67396554D01*
X156231999Y-67396552D01*
X156220368Y-67338076D01*
X156220367Y-67338074D01*
X156210221Y-67322890D01*
X156189344Y-67256214D01*
X156207828Y-67188834D01*
X156259806Y-67142144D01*
X156313324Y-67130000D01*
X158018638Y-67130000D01*
X158085677Y-67149685D01*
G37*
%TD.AperFunction*%
%TD*%
%TA.AperFunction,Conductor*%
%TO.N,BQ_SYS*%
G36*
X141165677Y-71839495D02*
G01*
X141186319Y-71856129D01*
X141543681Y-72213491D01*
X141577166Y-72274814D01*
X141580000Y-72301172D01*
X141580000Y-76398448D01*
X141571355Y-76427888D01*
X141564832Y-76457875D01*
X141561077Y-76462890D01*
X141560315Y-76465487D01*
X141543685Y-76486124D01*
X141470000Y-76559810D01*
X141421452Y-76608358D01*
X141360129Y-76641842D01*
X141290437Y-76636858D01*
X141234504Y-76594986D01*
X141230670Y-76589568D01*
X141214553Y-76565448D01*
X141148230Y-76521132D01*
X141148229Y-76521131D01*
X141089752Y-76509500D01*
X141089748Y-76509500D01*
X139750252Y-76509500D01*
X139750247Y-76509500D01*
X139691770Y-76521131D01*
X139691769Y-76521132D01*
X139625447Y-76565447D01*
X139581132Y-76631769D01*
X139581131Y-76631770D01*
X139569500Y-76690247D01*
X139569500Y-76795810D01*
X139549815Y-76862849D01*
X139497011Y-76908604D01*
X139445500Y-76919810D01*
X128981362Y-76919810D01*
X128914323Y-76900125D01*
X128893681Y-76883491D01*
X128606319Y-76596129D01*
X128572834Y-76534806D01*
X128570000Y-76508448D01*
X128570000Y-72361172D01*
X128589685Y-72294133D01*
X128606319Y-72273491D01*
X129023681Y-71856129D01*
X129085004Y-71822644D01*
X129111362Y-71819810D01*
X141098638Y-71819810D01*
X141165677Y-71839495D01*
G37*
%TD.AperFunction*%
%TD*%
%TA.AperFunction,Conductor*%
%TO.N,BAT3{slash}PACK+*%
G36*
X112785677Y-87049685D02*
G01*
X112806319Y-87066319D01*
X112923681Y-87183681D01*
X112957166Y-87245004D01*
X112960000Y-87271362D01*
X112960000Y-89778638D01*
X112951355Y-89808078D01*
X112944832Y-89838065D01*
X112941077Y-89843080D01*
X112940315Y-89845677D01*
X112923681Y-89866319D01*
X112846319Y-89943681D01*
X112784996Y-89977166D01*
X112758638Y-89980000D01*
X111759999Y-89980000D01*
X111400000Y-90339999D01*
X111400000Y-92998638D01*
X111380315Y-93065677D01*
X111363681Y-93086319D01*
X111116319Y-93333681D01*
X111054996Y-93367166D01*
X111028638Y-93370000D01*
X107491362Y-93370000D01*
X107424323Y-93350315D01*
X107403681Y-93333681D01*
X106190000Y-92120000D01*
X104461362Y-92120000D01*
X104431921Y-92111355D01*
X104401935Y-92104832D01*
X104396919Y-92101077D01*
X104394323Y-92100315D01*
X104373681Y-92083681D01*
X104266319Y-91976319D01*
X104232834Y-91914996D01*
X104230000Y-91888638D01*
X104230000Y-89831362D01*
X104249685Y-89764323D01*
X104266319Y-89743681D01*
X104423681Y-89586319D01*
X104485004Y-89552834D01*
X104511362Y-89550000D01*
X106260000Y-89550000D01*
X108153681Y-87656319D01*
X108215004Y-87622834D01*
X108241362Y-87620000D01*
X110490000Y-87620000D01*
X111043681Y-87066319D01*
X111105004Y-87032834D01*
X111131362Y-87030000D01*
X112718638Y-87030000D01*
X112785677Y-87049685D01*
G37*
%TD.AperFunction*%
%TD*%
%TA.AperFunction,Conductor*%
%TO.N,/Q7_DRAIN*%
G36*
X158665677Y-61709685D02*
G01*
X158686319Y-61726319D01*
X159163681Y-62203681D01*
X159197166Y-62265004D01*
X159200000Y-62291362D01*
X159200000Y-66358638D01*
X159180315Y-66425677D01*
X159163681Y-66446319D01*
X158766319Y-66843681D01*
X158704996Y-66877166D01*
X158678638Y-66880000D01*
X151751362Y-66880000D01*
X151684323Y-66860315D01*
X151663681Y-66843681D01*
X150626319Y-65806319D01*
X150592834Y-65744996D01*
X150590000Y-65718638D01*
X150590000Y-62051362D01*
X150609685Y-61984323D01*
X150626319Y-61963681D01*
X150863681Y-61726319D01*
X150925004Y-61692834D01*
X150951362Y-61690000D01*
X158598638Y-61690000D01*
X158665677Y-61709685D01*
G37*
%TD.AperFunction*%
%TD*%
%TA.AperFunction,Conductor*%
%TO.N,GND*%
G36*
X171245677Y-62069685D02*
G01*
X171266319Y-62086319D01*
X172103681Y-62923681D01*
X172137166Y-62985004D01*
X172140000Y-63011362D01*
X172140000Y-63898638D01*
X172120315Y-63965677D01*
X172103681Y-63986319D01*
X171826319Y-64263681D01*
X171764996Y-64297166D01*
X171738638Y-64300000D01*
X168751362Y-64300000D01*
X168684323Y-64280315D01*
X168663681Y-64263681D01*
X168396319Y-63996319D01*
X168362834Y-63934996D01*
X168360000Y-63908638D01*
X168360000Y-62861362D01*
X168379685Y-62794323D01*
X168396319Y-62773681D01*
X169083681Y-62086319D01*
X169145004Y-62052834D01*
X169171362Y-62050000D01*
X171178638Y-62050000D01*
X171245677Y-62069685D01*
G37*
%TD.AperFunction*%
%TD*%
M02*
